<?xml version="1.0" encoding="UTF-8"?>
<svg height="600" width="800" xmlns="http://www.w3.org/2000/svg" xmlns:xlink="http://www.w3.org/1999/xlink">
    <g id="Notes" font-family="'LucidaGrande', 'Lucida Grande', sans-serif" font-size="13">
        <rect fill="white" height="600.0" width="800.0" x="0.0" y="0.0" />
        <g font-size="13">
            <text x="18.0" y="176.0">Small</text>
            <text x="18.0" y="376.0">Medium</text>
            <text x="18.0" y="576.0">Large</text>
        </g>
        <g font-size="9">
            <text x="250.0" y="30.0">Ultralight</text>
            <text x="450.0" y="30.0">Regular</text>
            <text x="650.0" y="30.0">Black</text>
            <text id="template-version" fill="#505050" text-anchor="end" x="785.0" y="575.0">Template v.3.0</text>
            <a href="https://github.com/swhitty/SwiftDraw">
                <text fill="#505050" text-anchor="end" x="785.0" y="590.0">https://github.com/swhitty/SwiftDraw</text>
            </a>
        </g>
    </g>
    <g id="Guides" stroke="rgb(39, 170, 225)" stroke-width="0.5">
        <path id="Capline-S" d="M18,76 l800,0" />
        <path id="H-reference" d="M85,145.755 L87.685,145.755 L113.369,79.287 L114.052,79.287 L114.052,76 L112.148,76 L85,145.755 Z M95.693,121.536 L130.996,121.536 L130.263,119.313 L96.474,119.313 L95.693,121.536 Z M139.15,145.755 L141.787,145.755 L114.638,76 L113.466,76 L113.466,79.287 L139.15,145.755 Z" stroke="none" />
        <path id="Baseline-S" d="M18,146 l800,0" />
        <path id="left-margin-Ultralight-S" d="M211,56 l0,110" />
        <path id="right-margin-Ultralight-S" d="M319,56 l0,110" />
        <path id="left-margin-Regular-S" d="M411,56 l0,110" />
        <path id="right-margin-Regular-S" d="M519,56 l0,110" />
        <path id="left-margin-Black-S" d="M611,56 l0,110" />
        <path id="right-margin-Black-S" d="M719,56 l0,110" />
        <path id="Capline-M" d="M18,276 l800,0" />
        <path id="Baseline-M" d="M18,346 l800,0" />
        <path id="Capline-L" d="M18,476 l800,0" />
        <path id="Baseline-L" d="M18,546 l800,0" />
    </g>
    <g id="Symbols">
        <g id="Ultralight-S">
            <path d="M253.775,141.382 L253.775,80.618 L252.671,80.618 L252.671,141.382 L253.775,141.382 Z M240.518,141.382 L240.518,80.618 L239.413,80.618 L239.413,141.382 L240.518,141.382 Z M221,112.657 L272.557,112.657 L272.557,111.552 L221,111.552 L221,112.657 Z M221,126.283 L272.557,126.283 L272.557,125.178 L221,125.178 L221,126.283 Z M228.918,118.181 C228.918,108.317 236.914,100.32 246.778,100.32 C256.643,100.32 264.639,108.317 264.639,118.181 C264.639,128.045 256.642,136.042 246.778,136.042 C236.914,136.042 228.918,128.045 228.918,118.181 Z M227.813,118.181 C227.813,128.655 236.304,137.147 246.778,137.147 C257.253,137.147 265.744,128.655 265.744,118.181 C265.744,107.707 257.253,99.216 246.778,99.216 C236.304,99.216 227.813,107.707 227.813,118.181 Z" />
            <path d="M270.146,87.984 C269.962,87.42 269.719,86.915 269.418,86.469 C269.122,86.017 268.768,85.632 268.355,85.314 C267.948,84.996 267.485,84.753 266.966,84.586 C266.447,84.418 265.878,84.334 265.259,84.334 C264.243,84.334 263.32,84.597 262.488,85.121 C261.657,85.646 260.996,86.418 260.505,87.44 C260.013,88.461 259.768,89.713 259.768,91.198 C259.768,92.682 260.016,93.934 260.513,94.955 C261.01,95.977 261.682,96.749 262.53,97.274 C263.378,97.798 264.332,98.061 265.392,98.061 C266.374,98.061 267.239,97.851 267.987,97.433 C268.74,97.009 269.326,96.412 269.745,95.642 C270.169,94.866 270.381,93.954 270.381,92.905 L271.017,93.039 L265.861,93.039 L265.861,91.198 L272.389,91.198 L272.389,93.039 C272.389,94.451 272.088,95.678 271.485,96.721 C270.889,97.765 270.062,98.574 269.008,99.149 C267.959,99.718 266.754,100.002 265.392,100.002 C263.875,100.002 262.541,99.645 261.392,98.931 C260.248,98.217 259.355,97.201 258.713,95.884 C258.077,94.568 257.759,93.005 257.759,91.198 C257.759,89.842 257.941,88.622 258.303,87.54 C258.671,86.452 259.191,85.526 259.86,84.761 C260.53,83.997 261.322,83.411 262.237,83.004 C263.152,82.596 264.159,82.393 265.259,82.393 C266.162,82.393 267.005,82.529 267.786,82.803 C268.573,83.071 269.273,83.453 269.887,83.949 C270.506,84.44 271.022,85.029 271.435,85.715 C271.848,86.396 272.133,87.152 272.289,87.984 L270.146,87.984 Z M275.944,99.768 L275.944,82.627 L286.222,82.627 L286.222,84.468 L278.02,84.468 L278.02,90.26 L285.452,90.26 L285.452,92.101 L278.02,92.101 L278.02,99.768 L275.944,99.768 Z M303.57,87.984 L301.495,87.984 C301.372,87.387 301.157,86.862 300.85,86.41 C300.549,85.958 300.18,85.579 299.746,85.272 C299.316,84.959 298.839,84.725 298.314,84.569 C297.79,84.413 297.243,84.334 296.674,84.334 C295.636,84.334 294.696,84.597 293.853,85.121 C293.016,85.646 292.349,86.418 291.853,87.44 C291.362,88.461 291.116,89.713 291.116,91.198 C291.116,92.682 291.362,93.934 291.853,94.955 C292.349,95.977 293.016,96.749 293.853,97.274 C294.696,97.798 295.636,98.061 296.674,98.061 C297.243,98.061 297.79,97.982 298.314,97.826 C298.839,97.67 299.316,97.438 299.746,97.132 C300.18,96.819 300.549,96.437 300.85,95.985 C301.157,95.527 301.372,95.003 301.495,94.411 L303.57,94.411 C303.414,95.287 303.13,96.071 302.717,96.763 C302.304,97.455 301.791,98.044 301.177,98.529 C300.563,99.009 299.874,99.375 299.109,99.626 C298.351,99.877 297.539,100.002 296.674,100.002 C295.212,100.002 293.912,99.645 292.774,98.931 C291.635,98.217 290.74,97.201 290.087,95.884 C289.434,94.568 289.108,93.005 289.108,91.198 C289.108,89.39 289.434,87.827 290.087,86.511 C290.74,85.194 291.635,84.178 292.774,83.464 C293.912,82.75 295.212,82.393 296.674,82.393 C297.539,82.393 298.351,82.518 299.109,82.769 C299.874,83.02 300.563,83.389 301.177,83.874 C301.791,84.354 302.304,84.94 302.717,85.632 C303.13,86.318 303.414,87.102 303.57,87.984 Z M309,82.627 L309,99.768 L306.924,99.768 L306.924,82.627 L309,82.627 Z" />
        </g>
        <g id="Regular-S">
            <path d="M453.775,141.382 L453.775,80.618 L452.671,80.618 L452.671,141.382 L453.775,141.382 Z M440.518,141.382 L440.518,80.618 L439.413,80.618 L439.413,141.382 L440.518,141.382 Z M421,112.657 L472.557,112.657 L472.557,111.552 L421,111.552 L421,112.657 Z M421,126.283 L472.557,126.283 L472.557,125.178 L421,125.178 L421,126.283 Z M428.918,118.181 C428.918,108.317 436.914,100.32 446.778,100.32 C456.643,100.32 464.639,108.317 464.639,118.181 C464.639,128.045 456.642,136.042 446.778,136.042 C436.914,136.042 428.918,128.045 428.918,118.181 Z M427.813,118.181 C427.813,128.655 436.304,137.147 446.778,137.147 C457.253,137.147 465.744,128.655 465.744,118.181 C465.744,107.707 457.253,99.216 446.778,99.216 C436.304,99.216 427.813,107.707 427.813,118.181 Z" />
            <path d="M470.146,87.984 C469.962,87.42 469.719,86.915 469.418,86.469 C469.122,86.017 468.768,85.632 468.355,85.314 C467.948,84.996 467.485,84.753 466.966,84.586 C466.447,84.418 465.878,84.334 465.259,84.334 C464.243,84.334 463.32,84.597 462.488,85.121 C461.657,85.646 460.996,86.418 460.505,87.44 C460.013,88.461 459.768,89.713 459.768,91.198 C459.768,92.682 460.016,93.934 460.513,94.955 C461.009,95.977 461.682,96.749 462.53,97.274 C463.378,97.798 464.332,98.061 465.392,98.061 C466.374,98.061 467.239,97.851 467.987,97.433 C468.74,97.009 469.326,96.412 469.745,95.642 C470.169,94.866 470.381,93.954 470.381,92.905 L471.017,93.039 L465.861,93.039 L465.861,91.198 L472.389,91.198 L472.389,93.039 C472.389,94.451 472.088,95.678 471.485,96.721 C470.889,97.765 470.062,98.574 469.008,99.149 C467.959,99.718 466.754,100.002 465.392,100.002 C463.875,100.002 462.541,99.645 461.392,98.931 C460.248,98.217 459.355,97.201 458.713,95.884 C458.077,94.568 457.759,93.005 457.759,91.198 C457.759,89.842 457.941,88.622 458.303,87.54 C458.671,86.452 459.191,85.526 459.86,84.761 C460.53,83.997 461.322,83.411 462.237,83.004 C463.152,82.596 464.159,82.393 465.259,82.393 C466.162,82.393 467.005,82.529 467.786,82.803 C468.573,83.071 469.273,83.453 469.887,83.949 C470.506,84.44 471.022,85.029 471.435,85.715 C471.848,86.396 472.133,87.152 472.289,87.984 L470.146,87.984 Z M475.944,99.768 L475.944,82.627 L486.222,82.627 L486.222,84.468 L478.02,84.468 L478.02,90.26 L485.452,90.26 L485.452,92.101 L478.02,92.101 L478.02,99.768 L475.944,99.768 Z M503.57,87.984 L501.495,87.984 C501.372,87.387 501.157,86.862 500.85,86.41 C500.549,85.958 500.18,85.579 499.746,85.272 C499.316,84.959 498.839,84.725 498.314,84.569 C497.79,84.413 497.243,84.334 496.674,84.334 C495.636,84.334 494.696,84.597 493.853,85.121 C493.016,85.646 492.349,86.418 491.853,87.44 C491.362,88.461 491.116,89.713 491.116,91.198 C491.116,92.682 491.362,93.934 491.853,94.955 C492.349,95.977 493.016,96.749 493.853,97.274 C494.696,97.798 495.636,98.061 496.674,98.061 C497.243,98.061 497.79,97.982 498.314,97.826 C498.839,97.67 499.316,97.438 499.746,97.132 C500.18,96.819 500.549,96.437 500.85,95.985 C501.157,95.527 501.372,95.003 501.495,94.411 L503.57,94.411 C503.414,95.287 503.13,96.071 502.717,96.763 C502.304,97.455 501.791,98.044 501.177,98.529 C500.563,99.009 499.874,99.375 499.109,99.626 C498.351,99.877 497.539,100.002 496.674,100.002 C495.212,100.002 493.912,99.645 492.774,98.931 C491.635,98.217 490.74,97.201 490.087,95.884 C489.434,94.568 489.108,93.005 489.108,91.198 C489.108,89.39 489.434,87.827 490.087,86.511 C490.74,85.194 491.635,84.178 492.774,83.464 C493.912,82.75 495.212,82.393 496.674,82.393 C497.539,82.393 498.351,82.518 499.109,82.769 C499.874,83.02 500.563,83.389 501.177,83.874 C501.791,84.354 502.304,84.94 502.717,85.632 C503.13,86.318 503.414,87.102 503.57,87.984 Z M509,82.627 L509,99.768 L506.924,99.768 L506.924,82.627 L509,82.627 Z" />
        </g>
        <g id="Black-S">
            <path d="M653.775,141.382 L653.775,80.618 L652.671,80.618 L652.671,141.382 L653.775,141.382 Z M640.518,141.382 L640.518,80.618 L639.413,80.618 L639.413,141.382 L640.518,141.382 Z M621,112.657 L672.557,112.657 L672.557,111.552 L621,111.552 L621,112.657 Z M621,126.283 L672.557,126.283 L672.557,125.178 L621,125.178 L621,126.283 Z M628.918,118.181 C628.918,108.317 636.914,100.32 646.778,100.32 C656.643,100.32 664.639,108.317 664.639,118.181 C664.639,128.045 656.642,136.042 646.778,136.042 C636.914,136.042 628.918,128.045 628.918,118.181 Z M627.813,118.181 C627.813,128.655 636.304,137.147 646.778,137.147 C657.253,137.147 665.744,128.655 665.744,118.181 C665.744,107.707 657.253,99.216 646.778,99.216 C636.304,99.216 627.813,107.707 627.813,118.181 Z" />
            <path d="M670.146,87.984 C669.962,87.42 669.719,86.915 669.418,86.469 C669.122,86.017 668.768,85.632 668.355,85.314 C667.948,84.996 667.485,84.753 666.966,84.586 C666.447,84.418 665.878,84.334 665.258,84.334 C664.243,84.334 663.32,84.597 662.488,85.121 C661.657,85.646 660.995,86.418 660.505,87.44 C660.013,88.461 659.768,89.713 659.768,91.198 C659.768,92.682 660.016,93.934 660.513,94.955 C661.01,95.977 661.682,96.749 662.53,97.274 C663.378,97.798 664.332,98.061 665.392,98.061 C666.374,98.061 667.239,97.851 667.987,97.433 C668.74,97.009 669.326,96.412 669.745,95.642 C670.169,94.866 670.381,93.954 670.381,92.905 L671.017,93.039 L665.861,93.039 L665.861,91.198 L672.389,91.198 L672.389,93.039 C672.389,94.451 672.088,95.678 671.485,96.721 C670.888,97.765 670.062,98.574 669.008,99.149 C667.959,99.718 666.754,100.002 665.392,100.002 C663.875,100.002 662.541,99.645 661.392,98.931 C660.248,98.217 659.355,97.201 658.713,95.884 C658.077,94.568 657.759,93.005 657.759,91.198 C657.759,89.842 657.941,88.622 658.303,87.54 C658.671,86.452 659.191,85.526 659.86,84.761 C660.53,83.997 661.322,83.411 662.237,83.004 C663.152,82.596 664.159,82.393 665.258,82.393 C666.162,82.393 667.005,82.529 667.786,82.803 C668.573,83.071 669.273,83.453 669.887,83.949 C670.506,84.44 671.022,85.029 671.435,85.715 C671.848,86.396 672.133,87.152 672.289,87.984 L670.146,87.984 Z M675.944,99.768 L675.944,82.627 L686.222,82.627 L686.222,84.468 L678.02,84.468 L678.02,90.26 L685.452,90.26 L685.452,92.101 L678.02,92.101 L678.02,99.768 L675.944,99.768 Z M703.57,87.984 L701.495,87.984 C701.372,87.387 701.157,86.862 700.85,86.41 C700.549,85.958 700.18,85.579 699.746,85.272 C699.316,84.959 698.839,84.725 698.314,84.569 C697.79,84.413 697.243,84.334 696.674,84.334 C695.636,84.334 694.696,84.597 693.853,85.121 C693.016,85.646 692.349,86.418 691.853,87.44 C691.362,88.461 691.116,89.713 691.116,91.198 C691.116,92.682 691.362,93.934 691.853,94.955 C692.349,95.977 693.016,96.749 693.853,97.274 C694.696,97.798 695.636,98.061 696.674,98.061 C697.243,98.061 697.79,97.982 698.314,97.826 C698.839,97.67 699.316,97.438 699.746,97.132 C700.18,96.819 700.549,96.437 700.85,95.985 C701.157,95.527 701.372,95.003 701.495,94.411 L703.57,94.411 C703.414,95.287 703.13,96.071 702.717,96.763 C702.304,97.455 701.791,98.044 701.177,98.529 C700.563,99.009 699.874,99.375 699.109,99.626 C698.351,99.877 697.539,100.002 696.674,100.002 C695.212,100.002 693.912,99.645 692.774,98.931 C691.635,98.217 690.74,97.201 690.087,95.884 C689.434,94.568 689.108,93.005 689.108,91.198 C689.108,89.39 689.434,87.827 690.087,86.511 C690.74,85.194 691.635,84.178 692.774,83.464 C693.912,82.75 695.212,82.393 696.674,82.393 C697.539,82.393 698.351,82.518 699.109,82.769 C699.874,83.02 700.563,83.389 701.177,83.874 C701.791,84.354 702.304,84.94 702.717,85.632 C703.13,86.318 703.414,87.102 703.57,87.984 Z M709,82.627 L709,99.768 L706.924,99.768 L706.924,82.627 L709,82.627 Z" />
        </g>
    </g>
</svg>