<?xml version="1.0" encoding="UTF-8"?>
<svg height="600" width="800" xmlns="http://www.w3.org/2000/svg" xmlns:xlink="http://www.w3.org/1999/xlink">
    <g id="Notes" font-family="'LucidaGrande', 'Lucida Grande', sans-serif" font-size="13">
        <rect fill="white" height="600.0" width="800.0" x="0.0" y="0.0" />
        <g font-size="13">
            <text x="18.0" y="176.0">Small</text>
            <text x="18.0" y="376.0">Medium</text>
            <text x="18.0" y="576.0">Large</text>
        </g>
        <g font-size="9">
            <text x="250.0" y="30.0">Ultralight</text>
            <text x="450.0" y="30.0">Regular</text>
            <text x="650.0" y="30.0">Black</text>
            <text id="template-version" fill="#505050" text-anchor="end" x="785.0" y="575.0">Template v.3.0</text>
            <a href="https://github.com/swhitty/SwiftDraw">
                <text fill="#505050" text-anchor="end" x="785.0" y="590.0">https://github.com/swhitty/SwiftDraw</text>
            </a>
        </g>
    </g>
    <g id="Guides" stroke="rgb(39, 170, 225)" stroke-width="0.5">
        <path id="Capline-S" d="M18,76 l800,0" />
        <path id="H-reference" d="M85,145.755 L87.685,145.755 L113.369,79.287 L114.052,79.287 L114.052,76 L112.148,76 L85,145.755 Z M95.693,121.536 L130.996,121.536 L130.263,119.313 L96.474,119.313 L95.693,121.536 Z M139.15,145.755 L141.787,145.755 L114.638,76 L113.466,76 L113.466,79.287 L139.15,145.755 Z" stroke="none" />
        <path id="Baseline-S" d="M18,146 l800,0" />
        <path id="left-margin-Ultralight-S" d="M221,56 l0,110" />
        <path id="right-margin-Ultralight-S" d="M309,56 l0,110" />
        <path id="left-margin-Regular-S" d="M421,56 l0,110" />
        <path id="right-margin-Regular-S" d="M509,56 l0,110" />
        <path id="left-margin-Black-S" d="M621,56 l0,110" />
        <path id="right-margin-Black-S" d="M709,56 l0,110" />
        <path id="Capline-M" d="M18,276 l800,0" />
        <path id="Baseline-M" d="M18,346 l800,0" />
        <path id="Capline-L" d="M18,476 l800,0" />
        <path id="Baseline-L" d="M18,546 l800,0" />
    </g>
    <g id="Symbols">
        <g id="Ultralight-S">
            <path d="M288.603,86.567 L286.559,87.146 C286.431,86.805 286.241,86.474 285.99,86.153 C285.746,85.825 285.412,85.555 284.988,85.343 C284.564,85.131 284.02,85.025 283.358,85.025 C282.452,85.025 281.696,85.234 281.092,85.652 C280.495,86.063 280.195,86.587 280.195,87.223 C280.195,87.789 280.401,88.236 280.813,88.563 C281.224,88.891 281.867,89.164 282.741,89.383 L284.939,89.923 C286.263,90.244 287.25,90.736 287.899,91.398 C288.549,92.054 288.873,92.899 288.873,93.934 C288.873,94.782 288.629,95.541 288.14,96.209 C287.658,96.878 286.983,97.405 286.116,97.791 C285.248,98.176 284.239,98.369 283.088,98.369 C281.578,98.369 280.327,98.041 279.337,97.386 C278.348,96.73 277.721,95.772 277.457,94.512 L279.617,93.972 C279.823,94.77 280.212,95.367 280.784,95.766 C281.362,96.164 282.117,96.364 283.049,96.364 C284.11,96.364 284.952,96.139 285.576,95.689 C286.206,95.232 286.521,94.686 286.521,94.05 C286.521,93.535 286.341,93.105 285.981,92.758 C285.621,92.404 285.068,92.141 284.322,91.967 L281.854,91.388 C280.498,91.067 279.501,90.569 278.865,89.894 C278.235,89.213 277.92,88.361 277.92,87.339 C277.92,86.503 278.155,85.764 278.624,85.121 C279.1,84.478 279.746,83.974 280.562,83.607 C281.385,83.241 282.317,83.058 283.358,83.058 C284.824,83.058 285.974,83.379 286.81,84.022 C287.652,84.665 288.25,85.513 288.603,86.567 Z" />
            <path d="M273.061,146 L273.061,76 L271.788,76 L271.788,146 L273.061,146 Z M257.788,146 L257.788,76 L256.515,76 L256.515,146 L257.788,146 Z M235.303,112.909 L294.697,112.909 L294.697,111.636 L235.303,111.636 L235.303,112.909 Z M235.303,128.606 L294.697,128.606 L294.697,127.333 L235.303,127.333 L235.303,128.606 Z M244.424,119.273 C244.424,107.909 253.636,98.697 265,98.697 C276.364,98.697 285.576,107.909 285.576,119.273 C285.576,130.636 276.364,139.848 265,139.848 C253.636,139.848 244.424,130.636 244.424,119.273 Z M243.152,119.273 C243.152,131.339 252.933,141.121 265,141.121 C277.067,141.121 286.848,131.339 286.848,119.273 C286.848,107.206 277.067,97.424 265,97.424 C252.933,97.424 243.152,107.206 243.152,119.273 Z M288.43,85.955 L286.386,86.534 L286.559,87.146 L287.155,86.921 C287.003,86.519 286.781,86.132 286.492,85.761 C286.195,85.362 285.783,85.029 285.272,84.774 C284.751,84.513 284.112,84.388 283.358,84.388 C282.329,84.388 281.447,84.632 280.73,85.128 C279.967,85.653 279.559,86.369 279.559,87.223 C279.559,87.979 279.85,88.61 280.416,89.061 C280.91,89.455 281.631,89.761 282.587,90 L284.788,90.541 C286.007,90.837 286.889,91.276 287.445,91.844 C287.975,92.378 288.237,93.062 288.237,93.934 C288.237,94.648 288.035,95.275 287.627,95.834 C287.211,96.411 286.626,96.868 285.857,97.209 C285.075,97.557 284.153,97.733 283.088,97.733 C281.696,97.733 280.567,97.437 279.689,96.855 C278.842,96.294 278.31,95.482 278.08,94.382 L277.612,95.13 L279.772,94.59 L279.001,94.131 C279.243,95.07 279.717,95.798 280.42,96.288 C281.116,96.768 281.996,97 283.049,97 C284.234,97 285.205,96.741 285.948,96.205 C286.736,95.634 287.157,94.903 287.157,94.05 C287.157,93.364 286.908,92.768 286.423,92.3 C285.972,91.858 285.317,91.545 284.466,91.347 L281.999,90.769 C280.756,90.474 279.869,90.031 279.328,89.457 C278.814,88.902 278.557,88.205 278.557,87.339 C278.557,86.636 278.749,86.029 279.138,85.496 C279.544,84.948 280.103,84.511 280.823,84.188 C281.559,83.86 282.403,83.694 283.358,83.694 C284.693,83.694 285.709,83.978 286.422,84.526 C287.163,85.092 287.686,85.835 288,86.77 L288.43,85.955 Z M288.776,87.18 L289.419,86.998 L289.207,86.365 C288.813,85.192 288.141,84.237 287.196,83.516 C286.24,82.781 284.954,82.422 283.358,82.422 C282.231,82.422 281.211,82.622 280.303,83.026 C279.388,83.437 278.655,84.01 278.113,84.743 C277.56,85.499 277.284,86.37 277.284,87.339 C277.284,88.517 277.656,89.524 278.398,90.326 C279.134,91.107 280.24,91.66 281.707,92.008 L284.177,92.587 C284.819,92.736 285.269,92.95 285.535,93.212 C285.773,93.442 285.884,93.707 285.884,94.05 C285.884,94.469 285.676,94.83 285.202,95.173 C284.699,95.537 283.986,95.727 283.049,95.727 C282.238,95.727 281.608,95.561 281.145,95.242 C280.706,94.936 280.402,94.469 280.234,93.814 L280.076,93.202 L279.463,93.355 L277.303,93.895 L276.709,94.044 L276.834,94.643 C277.132,96.063 277.853,97.166 278.986,97.916 C280.088,98.646 281.46,99.006 283.088,99.006 C284.324,99.006 285.42,98.796 286.374,98.372 C287.341,97.942 288.106,97.345 288.656,96.582 C289.223,95.807 289.51,94.917 289.51,93.934 C289.51,92.736 289.123,91.729 288.351,90.95 C287.612,90.196 286.52,89.652 285.09,89.304 L282.893,88.765 C282.102,88.567 281.537,88.327 281.21,88.066 C280.953,87.861 280.832,87.599 280.832,87.223 C280.832,86.805 281.022,86.473 281.453,86.176 C281.946,85.835 282.575,85.661 283.358,85.661 C283.928,85.661 284.376,85.749 284.703,85.912 C285.042,86.081 285.298,86.288 285.48,86.533 C285.701,86.817 285.859,87.092 285.964,87.371 L286.17,87.917 L286.732,87.758 L288.776,87.18 Z" />
        </g>
        <g id="Regular-S">
            <path d="M488.603,86.567 L486.559,87.146 C486.431,86.805 486.241,86.474 485.99,86.153 C485.746,85.825 485.412,85.555 484.988,85.343 C484.564,85.131 484.02,85.025 483.358,85.025 C482.452,85.025 481.697,85.234 481.092,85.652 C480.495,86.063 480.196,86.587 480.196,87.223 C480.196,87.789 480.401,88.236 480.813,88.563 C481.224,88.891 481.867,89.164 482.741,89.383 L484.939,89.923 C486.263,90.244 487.25,90.736 487.899,91.398 C488.549,92.054 488.873,92.899 488.873,93.934 C488.873,94.782 488.629,95.541 488.14,96.209 C487.658,96.878 486.983,97.405 486.116,97.791 C485.248,98.176 484.239,98.369 483.088,98.369 C481.578,98.369 480.327,98.041 479.337,97.386 C478.348,96.73 477.721,95.772 477.457,94.512 L479.617,93.972 C479.823,94.77 480.212,95.367 480.784,95.766 C481.362,96.164 482.117,96.364 483.049,96.364 C484.11,96.364 484.952,96.139 485.576,95.689 C486.206,95.232 486.521,94.686 486.521,94.05 C486.521,93.535 486.341,93.105 485.981,92.758 C485.621,92.404 485.068,92.141 484.322,91.967 L481.854,91.388 C480.498,91.067 479.501,90.569 478.865,89.894 C478.235,89.213 477.92,88.361 477.92,87.339 C477.92,86.503 478.155,85.764 478.624,85.121 C479.1,84.478 479.746,83.974 480.562,83.607 C481.385,83.241 482.317,83.058 483.358,83.058 C484.824,83.058 485.974,83.379 486.81,84.022 C487.652,84.665 488.25,85.513 488.603,86.567 Z" />
            <path d="M473.061,146 L473.061,76 L471.788,76 L471.788,146 L473.061,146 Z M457.788,146 L457.788,76 L456.515,76 L456.515,146 L457.788,146 Z M435.303,112.909 L494.697,112.909 L494.697,111.636 L435.303,111.636 L435.303,112.909 Z M435.303,128.606 L494.697,128.606 L494.697,127.333 L435.303,127.333 L435.303,128.606 Z M444.424,119.273 C444.424,107.909 453.636,98.697 465,98.697 C476.364,98.697 485.576,107.909 485.576,119.273 C485.576,130.636 476.364,139.848 465,139.848 C453.636,139.848 444.424,130.636 444.424,119.273 Z M443.152,119.273 C443.152,131.339 452.933,141.121 465,141.121 C477.067,141.121 486.849,131.339 486.849,119.273 C486.849,107.206 477.067,97.424 465,97.424 C452.933,97.424 443.152,107.206 443.152,119.273 Z M488.43,85.955 L486.386,86.534 L486.559,87.146 L487.155,86.921 C487.003,86.519 486.781,86.132 486.492,85.761 C486.195,85.362 485.783,85.029 485.272,84.774 C484.751,84.513 484.112,84.388 483.358,84.388 C482.329,84.388 481.448,84.632 480.73,85.128 C479.968,85.653 479.559,86.369 479.559,87.223 C479.559,87.979 479.85,88.61 480.416,89.061 C480.91,89.455 481.632,89.761 482.587,90 L484.788,90.541 C486.007,90.837 486.889,91.276 487.445,91.844 C487.975,92.378 488.237,93.062 488.237,93.934 C488.237,94.648 488.035,95.275 487.627,95.834 C487.211,96.411 486.626,96.868 485.857,97.209 C485.075,97.557 484.153,97.733 483.088,97.733 C481.696,97.733 480.567,97.437 479.689,96.855 C478.842,96.294 478.31,95.482 478.08,94.382 L477.612,95.13 L479.772,94.59 L479.001,94.131 C479.243,95.07 479.717,95.798 480.42,96.288 C481.116,96.768 481.996,97 483.049,97 C484.234,97 485.206,96.741 485.948,96.205 C486.736,95.634 487.157,94.903 487.157,94.05 C487.157,93.364 486.908,92.768 486.423,92.3 C485.972,91.858 485.317,91.545 484.466,91.347 L481.999,90.769 C480.756,90.474 479.869,90.031 479.328,89.457 C478.814,88.902 478.557,88.205 478.557,87.339 C478.557,86.636 478.75,86.029 479.138,85.496 C479.544,84.948 480.103,84.511 480.823,84.188 C481.559,83.86 482.403,83.694 483.358,83.694 C484.693,83.694 485.709,83.978 486.422,84.526 C487.163,85.092 487.686,85.835 488,86.77 L488.43,85.955 Z M488.776,87.18 L489.419,86.998 L489.207,86.365 C488.813,85.192 488.141,84.237 487.196,83.516 C486.24,82.781 484.954,82.422 483.358,82.422 C482.231,82.422 481.211,82.622 480.303,83.026 C479.388,83.437 478.655,84.01 478.113,84.743 C477.56,85.499 477.284,86.37 477.284,87.339 C477.284,88.517 477.656,89.524 478.398,90.326 C479.134,91.107 480.24,91.66 481.707,92.008 L484.177,92.587 C484.819,92.736 485.269,92.95 485.535,93.212 C485.774,93.442 485.884,93.707 485.884,94.05 C485.884,94.469 485.676,94.83 485.202,95.173 C484.699,95.537 483.986,95.727 483.049,95.727 C482.238,95.727 481.608,95.561 481.145,95.242 C480.706,94.936 480.402,94.469 480.234,93.814 L480.076,93.202 L479.463,93.355 L477.303,93.895 L476.709,94.044 L476.834,94.643 C477.132,96.063 477.853,97.166 478.986,97.916 C480.088,98.646 481.46,99.006 483.088,99.006 C484.324,99.006 485.421,98.796 486.374,98.372 C487.341,97.942 488.106,97.345 488.656,96.582 C489.223,95.807 489.51,94.917 489.51,93.934 C489.51,92.736 489.123,91.729 488.351,90.95 C487.612,90.196 486.52,89.652 485.09,89.304 L482.893,88.765 C482.102,88.567 481.537,88.327 481.21,88.066 C480.953,87.861 480.832,87.599 480.832,87.223 C480.832,86.805 481.022,86.473 481.453,86.176 C481.946,85.835 482.575,85.661 483.358,85.661 C483.928,85.661 484.376,85.749 484.703,85.912 C485.042,86.081 485.298,86.288 485.48,86.533 C485.701,86.817 485.859,87.092 485.964,87.371 L486.17,87.917 L486.732,87.758 L488.776,87.18 Z" />
        </g>
        <g id="Black-S">
            <path d="M688.603,86.567 L686.559,87.146 C686.431,86.805 686.241,86.474 685.99,86.153 C685.746,85.825 685.412,85.555 684.988,85.343 C684.564,85.131 684.02,85.025 683.358,85.025 C682.452,85.025 681.696,85.234 681.092,85.652 C680.495,86.063 680.196,86.587 680.196,87.223 C680.196,87.789 680.401,88.236 680.813,88.563 C681.224,88.891 681.867,89.164 682.741,89.383 L684.939,89.923 C686.263,90.244 687.25,90.736 687.899,91.398 C688.549,92.054 688.873,92.899 688.873,93.934 C688.873,94.782 688.629,95.541 688.14,96.209 C687.658,96.878 686.983,97.405 686.116,97.791 C685.248,98.176 684.239,98.369 683.088,98.369 C681.578,98.369 680.327,98.041 679.337,97.386 C678.348,96.73 677.721,95.772 677.457,94.512 L679.617,93.972 C679.823,94.77 680.212,95.367 680.784,95.766 C681.362,96.164 682.117,96.364 683.049,96.364 C684.11,96.364 684.952,96.139 685.576,95.689 C686.206,95.232 686.521,94.686 686.521,94.05 C686.521,93.535 686.341,93.105 685.981,92.758 C685.621,92.404 685.068,92.141 684.322,91.967 L681.854,91.388 C680.498,91.067 679.501,90.569 678.865,89.894 C678.235,89.213 677.92,88.361 677.92,87.339 C677.92,86.503 678.155,85.764 678.624,85.121 C679.1,84.478 679.746,83.974 680.562,83.607 C681.385,83.241 682.317,83.058 683.358,83.058 C684.824,83.058 685.974,83.379 686.81,84.022 C687.652,84.665 688.25,85.513 688.603,86.567 Z" />
            <path d="M673.061,146 L673.061,76 L671.788,76 L671.788,146 L673.061,146 Z M657.788,146 L657.788,76 L656.515,76 L656.515,146 L657.788,146 Z M635.303,112.909 L694.697,112.909 L694.697,111.636 L635.303,111.636 L635.303,112.909 Z M635.303,128.606 L694.697,128.606 L694.697,127.333 L635.303,127.333 L635.303,128.606 Z M644.424,119.273 C644.424,107.909 653.636,98.697 665,98.697 C676.364,98.697 685.576,107.909 685.576,119.273 C685.576,130.636 676.364,139.848 665,139.848 C653.636,139.848 644.424,130.636 644.424,119.273 Z M643.152,119.273 C643.152,131.339 652.933,141.121 665,141.121 C677.067,141.121 686.849,131.339 686.849,119.273 C686.849,107.206 677.067,97.424 665,97.424 C652.933,97.424 643.152,107.206 643.152,119.273 Z M688.43,85.955 L686.386,86.534 L686.559,87.146 L687.155,86.921 C687.003,86.519 686.781,86.132 686.492,85.761 C686.195,85.362 685.783,85.029 685.272,84.774 C684.751,84.513 684.112,84.388 683.358,84.388 C682.329,84.388 681.448,84.632 680.73,85.128 C679.968,85.653 679.559,86.369 679.559,87.223 C679.559,87.979 679.85,88.61 680.416,89.061 C680.91,89.455 681.631,89.761 682.587,90 L684.788,90.541 C686.007,90.837 686.889,91.276 687.445,91.844 C687.975,92.378 688.237,93.062 688.237,93.934 C688.237,94.648 688.035,95.275 687.627,95.834 C687.211,96.411 686.626,96.868 685.857,97.209 C685.075,97.557 684.153,97.733 683.088,97.733 C681.696,97.733 680.567,97.437 679.689,96.855 C678.842,96.294 678.31,95.482 678.08,94.382 L677.612,95.13 L679.772,94.59 L679.001,94.131 C679.243,95.07 679.717,95.798 680.42,96.288 C681.116,96.768 681.996,97 683.049,97 C684.234,97 685.206,96.741 685.948,96.205 C686.736,95.634 687.157,94.903 687.157,94.05 C687.157,93.364 686.908,92.768 686.423,92.3 C685.972,91.858 685.317,91.545 684.466,91.347 L681.999,90.769 C680.756,90.474 679.869,90.031 679.328,89.457 C678.814,88.902 678.557,88.205 678.557,87.339 C678.557,86.636 678.75,86.029 679.138,85.496 C679.544,84.948 680.103,84.511 680.823,84.188 C681.559,83.86 682.403,83.694 683.358,83.694 C684.693,83.694 685.709,83.978 686.422,84.526 C687.163,85.092 687.686,85.835 688,86.77 L688.43,85.955 Z M688.776,87.18 L689.419,86.998 L689.207,86.365 C688.813,85.192 688.141,84.237 687.196,83.516 C686.24,82.781 684.954,82.422 683.358,82.422 C682.231,82.422 681.211,82.622 680.303,83.026 C679.388,83.437 678.655,84.01 678.113,84.743 C677.56,85.499 677.284,86.37 677.284,87.339 C677.284,88.517 677.656,89.524 678.398,90.326 C679.134,91.107 680.24,91.66 681.707,92.008 L684.177,92.587 C684.819,92.736 685.269,92.95 685.535,93.212 C685.773,93.442 685.884,93.707 685.884,94.05 C685.884,94.469 685.676,94.83 685.202,95.173 C684.699,95.537 683.986,95.727 683.049,95.727 C682.238,95.727 681.608,95.561 681.145,95.242 C680.706,94.936 680.402,94.469 680.234,93.814 L680.076,93.202 L679.463,93.355 L677.303,93.895 L676.709,94.044 L676.834,94.643 C677.132,96.063 677.853,97.166 678.986,97.916 C680.088,98.646 681.46,99.006 683.088,99.006 C684.324,99.006 685.42,98.796 686.374,98.372 C687.341,97.942 688.106,97.345 688.656,96.582 C689.223,95.807 689.51,94.917 689.51,93.934 C689.51,92.736 689.123,91.729 688.351,90.95 C687.612,90.196 686.52,89.652 685.09,89.304 L682.893,88.765 C682.102,88.567 681.537,88.327 681.21,88.066 C680.953,87.861 680.832,87.599 680.832,87.223 C680.832,86.805 681.022,86.473 681.453,86.176 C681.946,85.835 682.575,85.661 683.358,85.661 C683.928,85.661 684.376,85.749 684.703,85.912 C685.042,86.081 685.298,86.288 685.48,86.533 C685.701,86.817 685.859,87.092 685.964,87.371 L686.17,87.917 L686.732,87.758 L688.776,87.18 Z" />
        </g>
    </g>
</svg>