<?xml version="1.0" encoding="UTF-8"?>
<!DOCTYPE svg
PUBLIC "-//W3C//DTD SVG 1.1//EN"
     "http://www.w3.org/Graphics/SVG/1.1/DTD/svg11.dtd">
<svg version="1.1" xmlns="http://www.w3.org/2000/svg" xmlns:xlink="http://www.w3.org/1999/xlink" width="3300" height="2200">
<!--glyph: "uni100000.medium", point size: 100.0, font version: "19.0d6e1", template writer version: "123"-->
<style>.SFSymbolsPreviewWireframe {fill:none;opacity:1.0;stroke:black;stroke-width:0.5}
</style>
<g id="Notes">
<rect height="2200" id="artboard" style="fill:white;opacity:1" width="3300" x="0" y="0"/>
<line style="fill:none;stroke:black;opacity:1;stroke-width:0.5;" x1="263" x2="3036" y1="292" y2="292"/>
<text style="stroke:none;fill:black;font-family:sans-serif;font-size:13;font-weight:bold;" transform="matrix(1 0 0 1 263 322)">Weight/Scale Variations</text>
<text style="stroke:none;fill:black;font-family:sans-serif;font-size:13;text-anchor:middle;" transform="matrix(1 0 0 1 559.711 322)">Ultralight</text>
<text style="stroke:none;fill:black;font-family:sans-serif;font-size:13;text-anchor:middle;" transform="matrix(1 0 0 1 856.422 322)">Thin</text>
<text style="stroke:none;fill:black;font-family:sans-serif;font-size:13;text-anchor:middle;" transform="matrix(1 0 0 1 1153.13 322)">Light</text>
<text style="stroke:none;fill:black;font-family:sans-serif;font-size:13;text-anchor:middle;" transform="matrix(1 0 0 1 1449.84 322)">Regular</text>
<text style="stroke:none;fill:black;font-family:sans-serif;font-size:13;text-anchor:middle;" transform="matrix(1 0 0 1 1746.56 322)">Medium</text>
<text style="stroke:none;fill:black;font-family:sans-serif;font-size:13;text-anchor:middle;" transform="matrix(1 0 0 1 2043.27 322)">Semibold</text>
<text style="stroke:none;fill:black;font-family:sans-serif;font-size:13;text-anchor:middle;" transform="matrix(1 0 0 1 2339.98 322)">Bold</text>
<text style="stroke:none;fill:black;font-family:sans-serif;font-size:13;text-anchor:middle;" transform="matrix(1 0 0 1 2636.69 322)">Heavy</text>
<text style="stroke:none;fill:black;font-family:sans-serif;font-size:13;text-anchor:middle;" transform="matrix(1 0 0 1 2933.4 322)">Black</text>
<line style="fill:none;stroke:black;opacity:1;stroke-width:0.5;" x1="263" x2="3036" y1="1903" y2="1903"/>
<g transform="matrix(0.2 0 0 0.2 263 1933)">
 <path d="m46.2402 4.15039c21.5332 0 39.4531-17.8711 39.4531-39.4043s-17.9688-39.4043-39.502-39.4043c-21.4844 0-39.3555 17.8711-39.3555 39.4043s17.9199 39.4043 39.4043 39.4043Zm0-7.42188c-17.7246 0-31.8848-14.209-31.8848-31.9824s14.1113-31.9824 31.8359-31.9824c17.7734 0 32.0312 14.209 32.0312 31.9824s-14.209 31.9824-31.9824 31.9824Zm-17.9688-31.9824c0 2.14844 1.51367 3.61328 3.75977 3.61328h10.498v10.5957c0 2.19727 1.46484 3.71094 3.61328 3.71094 2.24609 0 3.71094-1.51367 3.71094-3.71094v-10.5957h10.5957c2.19727 0 3.71094-1.46484 3.71094-3.61328 0-2.19727-1.51367-3.71094-3.71094-3.71094h-10.5957v-10.5469c0-2.24609-1.46484-3.75977-3.71094-3.75977-2.14844 0-3.61328 1.51367-3.61328 3.75977v10.5469h-10.498c-2.24609 0-3.75977 1.51367-3.75977 3.71094Z"/>
</g>
<g transform="matrix(0.2 0 0 0.2 281.506 1933)">
 <path d="m58.5449 14.5508c27.2461 0 49.8047-22.6074 49.8047-49.8047 0-27.2461-22.6074-49.8047-49.8535-49.8047-27.1973 0-49.7559 22.5586-49.7559 49.8047 0 27.1973 22.6074 49.8047 49.8047 49.8047Zm0-8.30078c-23.0469 0-41.4551-18.457-41.4551-41.5039s18.3594-41.5039 41.4062-41.5039 41.5527 18.457 41.5527 41.5039-18.457 41.5039-41.5039 41.5039Zm-22.6562-41.5039c0 2.39258 1.66016 4.00391 4.15039 4.00391h14.3555v14.4043c0 2.44141 1.66016 4.15039 4.05273 4.15039 2.44141 0 4.15039-1.66016 4.15039-4.15039v-14.4043h14.4043c2.44141 0 4.15039-1.61133 4.15039-4.00391 0-2.44141-1.70898-4.15039-4.15039-4.15039h-14.4043v-14.3555c0-2.49023-1.70898-4.19922-4.15039-4.19922-2.39258 0-4.05273 1.70898-4.05273 4.19922v14.3555h-14.3555c-2.49023 0-4.15039 1.70898-4.15039 4.15039Z"/>
</g>
<g transform="matrix(0.2 0 0 0.2 304.924 1933)">
 <path d="m74.8535 28.3203c34.8145 0 63.623-28.8086 63.623-63.5742 0-34.8145-28.8574-63.623-63.6719-63.623-34.7656 0-63.5254 28.8086-63.5254 63.623 0 34.7656 28.8086 63.5742 63.5742 63.5742Zm0-9.08203c-30.1758 0-54.4434-24.3164-54.4434-54.4922 0-30.2246 24.2188-54.4922 54.3945-54.4922 30.2246 0 54.541 24.2676 54.541 54.4922 0 30.1758-24.2676 54.4922-54.4922 54.4922Zm-28.8574-54.4922c0 2.58789 1.85547 4.39453 4.58984 4.39453h19.7266v19.7754c0 2.68555 1.85547 4.58984 4.44336 4.58984 2.68555 0 4.54102-1.85547 4.54102-4.58984v-19.7754h19.7754c2.68555 0 4.58984-1.80664 4.58984-4.39453 0-2.73438-1.85547-4.58984-4.58984-4.58984h-19.7754v-19.7266c0-2.73438-1.85547-4.63867-4.54102-4.63867-2.58789 0-4.44336 1.9043-4.44336 4.63867v19.7266h-19.7266c-2.73438 0-4.58984 1.85547-4.58984 4.58984Z"/>
</g>
<text style="stroke:none;fill:black;font-family:sans-serif;font-size:13;font-weight:bold;" transform="matrix(1 0 0 1 263 1953)">Design Variations</text>
<text style="stroke:none;fill:black;font-family:sans-serif;font-size:13;" transform="matrix(1 0 0 1 263 1971)">Symbols are supported in up to nine weights and three scales.</text>
<text style="stroke:none;fill:black;font-family:sans-serif;font-size:13;" transform="matrix(1 0 0 1 263 1989)">For optimal layout with text and other symbols, vertically align</text>
<text style="stroke:none;fill:black;font-family:sans-serif;font-size:13;" transform="matrix(1 0 0 1 263 2007)">symbols with the adjacent text.</text>
<line style="fill:none;stroke:#00AEEF;stroke-width:0.5;opacity:1.0;" x1="776" x2="776" y1="1919" y2="1933"/>
<g transform="matrix(0.2 0 0 0.2 776 1933)">
 <path d="m16.5527 0.78125c2.58789 0 3.85742-0.976562 4.78516-3.71094l6.29883-17.2363h28.8086l6.29883 17.2363c0.927734 2.73438 2.19727 3.71094 4.73633 3.71094 2.58789 0 4.24805-1.5625 4.24805-4.00391 0-0.830078-0.146484-1.61133-0.537109-2.63672l-22.9004-60.9863c-1.12305-2.97852-3.125-4.49219-6.25-4.49219-3.02734 0-5.07812 1.46484-6.15234 4.44336l-22.9004 61.084c-0.390625 1.02539-0.537109 1.80664-0.537109 2.63672 0 2.44141 1.5625 3.95508 4.10156 3.95508Zm13.4766-28.3691 11.8652-32.8613h0.244141l11.8652 32.8613Z"/>
</g>
<line style="fill:none;stroke:#00AEEF;stroke-width:0.5;opacity:1.0;" x1="792.836" x2="792.836" y1="1919" y2="1933"/>
<text style="stroke:none;fill:black;font-family:sans-serif;font-size:13;font-weight:bold;" transform="matrix(1 0 0 1 776 1953)">Margins</text>
<text style="stroke:none;fill:black;font-family:sans-serif;font-size:13;" transform="matrix(1 0 0 1 776 1971)">Leading and trailing margins on the left and right side of each symbol</text>
<text style="stroke:none;fill:black;font-family:sans-serif;font-size:13;" transform="matrix(1 0 0 1 776 1989)">can be adjusted by modifying the x-location of the margin guidelines.</text>
<text style="stroke:none;fill:black;font-family:sans-serif;font-size:13;" transform="matrix(1 0 0 1 776 2007)">Modifications are automatically applied proportionally to all</text>
<text style="stroke:none;fill:black;font-family:sans-serif;font-size:13;" transform="matrix(1 0 0 1 776 2025)">scales and weights.</text>
<g transform="matrix(0.2 0 0 0.2 1289 1933)">
 <path d="m14.209 9.32617 8.49609 8.54492c4.29688 4.3457 9.22852 4.05273 13.8672-1.07422l53.4668-58.9355-4.83398-4.88281-53.0762 58.3984c-1.75781 2.00195-3.41797 2.49023-5.76172 0.146484l-5.85938-5.81055c-2.34375-2.29492-1.80664-4.00391 0.195312-5.81055l57.373-54.0039-4.88281-4.83398-57.959 54.4434c-4.93164 4.58984-5.32227 9.47266-1.02539 13.8184Zm32.0801-90.9668c-2.09961 2.05078-2.24609 4.93164-1.07422 6.88477 1.17188 1.80664 3.4668 2.97852 6.68945 2.14844 7.32422-1.70898 14.9414-2.00195 22.0703 2.68555l-2.92969 7.27539c-1.70898 4.15039-0.830078 7.08008 1.85547 9.81445l11.4746 11.5723c2.44141 2.44141 4.49219 2.53906 7.32422 2.05078l5.32227-0.976562 3.32031 3.36914-0.195312 2.7832c-0.195312 2.49023 0.439453 4.39453 2.88086 6.78711l3.80859 3.71094c2.39258 2.39258 5.46875 2.53906 7.8125 0.195312l14.5508-14.5996c2.34375-2.34375 2.24609-5.32227-0.146484-7.71484l-3.85742-3.80859c-2.39258-2.39258-4.24805-3.17383-6.64062-2.97852l-2.88086 0.244141-3.22266-3.17383 1.2207-5.61523c0.634766-2.83203-0.146484-5.0293-3.07617-7.95898l-10.9863-10.9375c-16.6992-16.6016-38.8672-16.2109-53.3203-1.75781Zm7.4707 1.85547c12.1582-8.88672 28.6133-7.37305 39.7461 3.75977l12.1582 12.0605c1.17188 1.17188 1.36719 2.09961 1.02539 3.80859l-1.61133 7.42188 7.51953 7.42188 4.93164-0.292969c1.26953-0.0488281 1.66016 0.0488281 2.63672 1.02539l2.88086 2.88086-12.207 12.207-2.88086-2.88086c-0.976562-0.976562-1.12305-1.36719-1.07422-2.68555l0.341797-4.88281-7.4707-7.42188-7.61719 1.26953c-1.61133 0.341797-2.34375 0.195312-3.56445-0.976562l-10.0098-10.0098c-1.26953-1.17188-1.41602-2.00195-0.634766-3.85742l4.39453-10.4492c-7.8125-7.27539-17.9688-10.4004-28.125-7.42188-0.78125 0.195312-1.07422-0.439453-0.439453-0.976562Z"/>
</g>
<text style="stroke:none;fill:black;font-family:sans-serif;font-size:13;font-weight:bold;" transform="matrix(1 0 0 1 1289 1953)">Exporting</text>
<text style="stroke:none;fill:black;font-family:sans-serif;font-size:13;" transform="matrix(1 0 0 1 1289 1971)">Symbols should be outlined when exporting to ensure the</text>
<text style="stroke:none;fill:black;font-family:sans-serif;font-size:13;" transform="matrix(1 0 0 1 1289 1989)">design is preserved when submitting to Xcode.</text>
<text id="template-version" style="stroke:none;fill:black;font-family:sans-serif;font-size:13;text-anchor:end;" transform="matrix(1 0 0 1 3036 1933)">Template v.5.0</text>
<text style="stroke:none;fill:black;font-family:sans-serif;font-size:13;text-anchor:end;" transform="matrix(1 0 0 1 3036 1951)">Requires Xcode 15 or greater</text>
<text id="descriptive-name" style="stroke:none;fill:black;font-family:sans-serif;font-size:13;text-anchor:end;" transform="matrix(1 0 0 1 3036 1969)">Generated from circle</text>
<text style="stroke:none;fill:black;font-family:sans-serif;font-size:13;text-anchor:end;" transform="matrix(1 0 0 1 3036 1987)">Typeset at 100.0 points</text>
<text style="stroke:none;fill:black;font-family:sans-serif;font-size:13;" transform="matrix(1 0 0 1 263 726)">Small</text>
<text style="stroke:none;fill:black;font-family:sans-serif;font-size:13;" transform="matrix(1 0 0 1 263 1156)">Medium</text>
<text style="stroke:none;fill:black;font-family:sans-serif;font-size:13;" transform="matrix(1 0 0 1 263 1586)">Large</text>
</g>
<g id="Guides">
<g id="H-reference" style="fill:#27AAE1;stroke:none;" transform="matrix(1 0 0 1 339 696)">
 <path d="M0.993654 0L3.63775 0L29.3281-67.1323L30.0303-67.1323L30.0303-70.459L28.1226-70.459ZM11.6885-24.4799L46.9815-24.4799L46.2315-26.7285L12.4385-26.7285ZM55.1196 0L57.7637 0L30.6382-70.459L29.4326-70.459L29.4326-67.1323Z"/>
</g>
<line id="Baseline-S" style="fill:none;stroke:#27AAE1;opacity:1;stroke-width:0.5;" x1="263" x2="3036" y1="696" y2="696"/>
<line id="Capline-S" style="fill:none;stroke:#27AAE1;opacity:1;stroke-width:0.5;" x1="263" x2="3036" y1="625.541" y2="625.541"/>
<g id="H-reference" style="fill:#27AAE1;stroke:none;" transform="matrix(1 0 0 1 339 1126)">
 <path d="M0.993654 0L3.63775 0L29.3281-67.1323L30.0303-67.1323L30.0303-70.459L28.1226-70.459ZM11.6885-24.4799L46.9815-24.4799L46.2315-26.7285L12.4385-26.7285ZM55.1196 0L57.7637 0L30.6382-70.459L29.4326-70.459L29.4326-67.1323Z"/>
</g>
<line id="Baseline-M" style="fill:none;stroke:#27AAE1;opacity:1;stroke-width:0.5;" x1="263" x2="3036" y1="1126" y2="1126"/>
<line id="Capline-M" style="fill:none;stroke:#27AAE1;opacity:1;stroke-width:0.5;" x1="263" x2="3036" y1="1055.54" y2="1055.54"/>
<g id="H-reference" style="fill:#27AAE1;stroke:none;" transform="matrix(1 0 0 1 339 1556)">
 <path d="M0.993654 0L3.63775 0L29.3281-67.1323L30.0303-67.1323L30.0303-70.459L28.1226-70.459ZM11.6885-24.4799L46.9815-24.4799L46.2315-26.7285L12.4385-26.7285ZM55.1196 0L57.7637 0L30.6382-70.459L29.4326-70.459L29.4326-67.1323Z"/>
</g>
<line id="Baseline-L" style="fill:none;stroke:#27AAE1;opacity:1;stroke-width:0.5;" x1="263" x2="3036" y1="1556" y2="1556"/>
<line id="Capline-L" style="fill:none;stroke:#27AAE1;opacity:1;stroke-width:0.5;" x1="263" x2="3036" y1="1485.54" y2="1485.54"/>
<line id="left-margin-Ultralight-S" style="fill:none;stroke:#00AEEF;stroke-width:0.5;opacity:1.0;" x1="515.649" x2="515.649" y1="600.785" y2="720.121"/>
<line id="right-margin-Ultralight-S" style="fill:none;stroke:#00AEEF;stroke-width:0.5;opacity:1.0;" x1="603.773" x2="603.773" y1="600.785" y2="720.121"/>
<line id="left-margin-Regular-S" style="fill:none;stroke:#00AEEF;stroke-width:0.5;opacity:1.0;" x1="1403.58" x2="1403.58" y1="600.785" y2="720.121"/>
<line id="right-margin-Regular-S" style="fill:none;stroke:#00AEEF;stroke-width:0.5;opacity:1.0;" x1="1496.11" x2="1496.11" y1="600.785" y2="720.121"/>
<line id="left-margin-Black-S" style="fill:none;stroke:#00AEEF;stroke-width:0.5;opacity:1.0;" x1="2884.57" x2="2884.57" y1="600.785" y2="720.121"/>
<line id="right-margin-Black-S" style="fill:none;stroke:#00AEEF;stroke-width:0.5;opacity:1.0;" x1="2982.23" x2="2982.23" y1="600.785" y2="720.121"/>
</g>
<g id="Symbols">
<g id="Black-S" transform="matrix(1 0 0 1 2884.57 696) translate(3 -81.25)">
<path fill-rule="evenodd" clip-rule="evenodd" d="M90.5861 24.0359C86.106 12.3072 72.5923 2.54886 58.4682 3.35999C44.3537 4.17057 34.2858 11.7313 28.9249 24.0295L28.8345 24.2368H90.6628L90.5861 24.0359ZM58.4852 3.65574C72.3929 2.85703 85.7181 12.4157 90.2316 23.9406H29.2874C34.6281 11.8627 44.5665 4.45507 58.4852 3.65574Z" fill="#FFFCFC"/>
<path fill-rule="evenodd" clip-rule="evenodd" d="M28.3168 25.2736H91.0749L91.1116 25.3682C93.6207 31.8307 93.7096 40.8074 91.1119 47.618L91.0756 47.7134H28.3838L28.35 47.6123C26.0603 40.773 25.4501 33.919 28.2832 25.3751L28.3168 25.2736ZM28.5308 25.5699C25.7728 33.9554 26.3616 40.6905 28.5971 47.4171H90.8713C93.3933 40.7199 93.3072 31.9267 90.8719 25.5699H28.5308Z" fill="#FFFCFC"/>
<path fill-rule="evenodd" clip-rule="evenodd" d="M28.7528 48.5873L28.8435 48.7947C35.1204 63.1558 47.7164 69.6199 60.8984 69.6199H60.9019L60.9053 69.6197L62.0111 69.5678L62.0133 69.5676L63.2539 69.471L63.2577 69.4705L64.3982 69.3224L64.4002 69.3221L64.4021 69.3218L65.5797 69.1367L65.581 69.1365L66.6826 68.943L67.7829 68.6828L67.785 68.6823L67.7872 68.6817L69.004 68.3552L69.0063 68.3545L70.2283 67.9842L70.2326 67.9829L70.2368 67.9813L72.596 67.1059L74.3479 66.3339L74.3516 66.3323L74.3553 66.3304L75.6255 65.6842L76.7474 65.0303L76.7488 65.0295L77.514 64.5615L77.515 64.5608L78.2884 64.07L79.6423 63.1104L80.7131 62.2701L81.6626 61.4838L81.665 61.4818L82.5806 60.6556L83.4655 59.7855L84.3285 58.8927L84.3311 58.8898L85.1309 57.9715L85.1323 57.9699L85.8905 57.0482L86.6198 56.103L86.6218 56.1002L87.3272 55.0903L88.5536 53.1578L89.1419 52.0781L89.1427 52.0765L89.6907 51.01L89.692 51.0075L89.6932 51.0049L90.2058 49.9055L90.7419 48.5873H28.7528ZM60.8949 69.3236C47.8807 69.3225 35.46 62.9773 29.2063 48.8835H90.3016L89.9342 49.787L89.4273 50.8746L88.8809 51.9379L88.8792 51.9411L88.2982 53.0074L87.0806 54.926L86.381 55.9276L85.6588 56.8636L84.9061 57.7785L84.1102 58.6923L83.2565 59.5756L83.2538 59.5783L82.3774 60.4399L81.4712 61.2577L80.5287 62.0383L80.5257 62.0407L79.4651 62.8729L78.1233 63.824L77.3583 64.3094L77.3563 64.3107L76.5982 64.7744L76.5955 64.776L75.4836 65.424L74.2246 66.0645L72.4847 66.8312L70.138 67.702L68.9227 68.0703L67.7125 68.395L66.6228 68.6527L65.5336 68.8441L65.531 68.8445L64.36 69.0286L64.3561 69.0292L63.2233 69.1763L61.9926 69.2721L60.8949 69.3236Z" fill="#FFFCFC"/>
<path fill-rule="evenodd" clip-rule="evenodd" d="M91.9999 24.3378C80.418 -4.92539 40.1734 -6.21791 27.4662 23.9406H2.48847V25.4218H26.9338C25.7502 29.7831 25.1651 33.1846 25.1699 36.5358C25.1747 39.8843 25.7683 43.1744 26.932 47.3134H1.85156V48.8539H27.359C32.2113 61.4915 44.313 69.9028 57.1834 70.9543C70.0964 72.0093 83.7728 65.6561 91.6853 48.7686L91.6889 48.761L91.6915 48.753C93.2384 44.1612 94.0745 40.526 94.1432 36.8021C94.2119 33.0781 93.5129 29.2757 92.0038 24.349L92.0021 24.3433L91.9999 24.3378ZM27.7013 24.1459C40.2603 -5.85418 80.2217 -4.60394 91.7223 24.4414C93.2253 29.3496 93.9149 33.1173 93.847 36.7966C93.7792 40.4753 92.9541 44.0759 91.4135 48.6505C83.551 65.4243 69.9909 71.7034 57.2075 70.659C44.412 69.6136 32.3844 61.2311 27.5994 48.6531L27.5631 48.5576H2.1478V47.6097H27.3237L27.2702 47.4212C26.0753 43.207 25.4709 39.897 25.4661 36.5353C25.4614 33.1734 26.0563 29.7513 27.2706 25.3127L27.3218 25.1255H2.7847V24.2368H27.6632L27.7013 24.1459Z" fill="#FFFCFC"/>
<path fill-rule="evenodd" clip-rule="evenodd" d="M90.5861 24.0359C86.106 12.3072 72.5923 2.54886 58.4682 3.35999C44.3537 4.17057 34.2858 11.7313 28.9249 24.0295L28.8345 24.2368H90.6628L90.5861 24.0359ZM58.4852 3.65574C72.3929 2.85703 85.7181 12.4157 90.2316 23.9406H29.2874C34.6281 11.8627 44.5665 4.45507 58.4852 3.65574Z" stroke="#FFF7F7" stroke-width="2.88828"/>
<path fill-rule="evenodd" clip-rule="evenodd" d="M28.3168 25.2736H91.0749L91.1116 25.3682C93.6207 31.8307 93.7096 40.8074 91.1119 47.618L91.0756 47.7134H28.3838L28.35 47.6123C26.0603 40.773 25.4501 33.919 28.2832 25.3751L28.3168 25.2736ZM28.5308 25.5699C25.7728 33.9554 26.3616 40.6905 28.5971 47.4171H90.8713C93.3933 40.7199 93.3072 31.9267 90.8719 25.5699H28.5308Z" stroke="#FFF7F7" stroke-width="2.88828"/>
<path fill-rule="evenodd" clip-rule="evenodd" d="M28.7528 48.5873L28.8435 48.7947C35.1204 63.1558 47.7164 69.6199 60.8984 69.6199H60.9019L60.9053 69.6197L62.0111 69.5678L62.0133 69.5676L63.2539 69.471L63.2577 69.4705L64.3982 69.3224L64.4002 69.3221L64.4021 69.3218L65.5797 69.1367L65.581 69.1365L66.6826 68.943L67.7829 68.6828L67.785 68.6823L67.7872 68.6817L69.004 68.3552L69.0063 68.3545L70.2283 67.9842L70.2326 67.9829L70.2368 67.9813L72.596 67.1059L74.3479 66.3339L74.3516 66.3323L74.3553 66.3304L75.6255 65.6842L76.7474 65.0303L76.7488 65.0295L77.514 64.5615L77.515 64.5608L78.2884 64.07L79.6423 63.1104L80.7131 62.2701L81.6626 61.4838L81.665 61.4818L82.5806 60.6556L83.4655 59.7855L84.3285 58.8927L84.3311 58.8898L85.1309 57.9715L85.1323 57.9699L85.8905 57.0482L86.6198 56.103L86.6218 56.1002L87.3272 55.0903L88.5536 53.1578L89.1419 52.0781L89.1427 52.0765L89.6907 51.01L89.692 51.0075L89.6932 51.0049L90.2058 49.9055L90.7419 48.5873H28.7528ZM60.8949 69.3236C47.8807 69.3225 35.46 62.9773 29.2063 48.8835H90.3016L89.9342 49.787L89.4273 50.8746L88.8809 51.9379L88.8792 51.9411L88.2982 53.0074L87.0806 54.926L86.381 55.9276L85.6588 56.8636L84.9061 57.7785L84.1102 58.6923L83.2565 59.5756L83.2538 59.5783L82.3774 60.4399L81.4712 61.2577L80.5287 62.0383L80.5257 62.0407L79.4651 62.8729L78.1233 63.824L77.3583 64.3094L77.3563 64.3107L76.5982 64.7744L76.5955 64.776L75.4836 65.424L74.2246 66.0645L72.4847 66.8312L70.138 67.702L68.9227 68.0703L67.7125 68.395L66.6228 68.6527L65.5336 68.8441L65.531 68.8445L64.36 69.0286L64.3561 69.0292L63.2233 69.1763L61.9926 69.2721L60.8949 69.3236Z" stroke="#FFF7F7" stroke-width="2.88828"/>
<path fill-rule="evenodd" clip-rule="evenodd" d="M91.9999 24.3378C80.418 -4.92539 40.1734 -6.21791 27.4662 23.9406H2.48847V25.4218H26.9338C25.7502 29.7831 25.1651 33.1846 25.1699 36.5358C25.1747 39.8843 25.7683 43.1744 26.932 47.3134H1.85156V48.8539H27.359C32.2113 61.4915 44.313 69.9028 57.1834 70.9543C70.0964 72.0093 83.7728 65.6561 91.6853 48.7686L91.6889 48.761L91.6915 48.753C93.2384 44.1612 94.0745 40.526 94.1432 36.8021C94.2119 33.0781 93.5129 29.2757 92.0038 24.349L92.0021 24.3433L91.9999 24.3378ZM27.7013 24.1459C40.2603 -5.85418 80.2217 -4.60394 91.7223 24.4414C93.2253 29.3496 93.9149 33.1173 93.847 36.7966C93.7792 40.4753 92.9541 44.0759 91.4135 48.6505C83.551 65.4243 69.9909 71.7034 57.2075 70.659C44.412 69.6136 32.3844 61.2311 27.5994 48.6531L27.5631 48.5576H2.1478V47.6097H27.3237L27.2702 47.4212C26.0753 43.207 25.4709 39.897 25.4661 36.5353C25.4614 33.1734 26.0563 29.7513 27.2706 25.3127L27.3218 25.1255H2.7847V24.2368H27.6632L27.7013 24.1459Z" stroke="#FFF7F7" stroke-width="2.88828"/>
</g>
<g id="Regular-S" transform="matrix(1 0 0 1 1403.58 696) translate(0 -81.25)">
 <path fill-rule="evenodd" clip-rule="evenodd" d="M90.5861 24.0359C86.106 12.3072 72.5923 2.54886 58.4682 3.35999C44.3537 4.17057 34.2858 11.7313 28.9249 24.0295L28.8345 24.2368H90.6628L90.5861 24.0359ZM58.4852 3.65574C72.3929 2.85703 85.7181 12.4157 90.2316 23.9406H29.2874C34.6281 11.8627 44.5665 4.45507 58.4852 3.65574Z" fill="#FFFCFC"/>
<path fill-rule="evenodd" clip-rule="evenodd" d="M28.3168 25.2736H91.0749L91.1116 25.3682C93.6207 31.8307 93.7096 40.8074 91.1119 47.618L91.0756 47.7134H28.3838L28.35 47.6123C26.0603 40.773 25.4501 33.919 28.2832 25.3751L28.3168 25.2736ZM28.5308 25.5699C25.7728 33.9554 26.3616 40.6905 28.5971 47.4171H90.8713C93.3933 40.7199 93.3072 31.9267 90.8719 25.5699H28.5308Z" fill="#FFFCFC"/>
<path fill-rule="evenodd" clip-rule="evenodd" d="M28.7528 48.5873L28.8435 48.7947C35.1204 63.1558 47.7164 69.6199 60.8984 69.6199H60.9019L60.9053 69.6197L62.0111 69.5678L62.0133 69.5676L63.2539 69.471L63.2577 69.4705L64.3982 69.3224L64.4002 69.3221L64.4021 69.3218L65.5797 69.1367L65.581 69.1365L66.6826 68.943L67.7829 68.6828L67.785 68.6823L67.7872 68.6817L69.004 68.3552L69.0063 68.3545L70.2283 67.9842L70.2326 67.9829L70.2368 67.9813L72.596 67.1059L74.3479 66.3339L74.3516 66.3323L74.3553 66.3304L75.6255 65.6842L76.7474 65.0303L76.7488 65.0295L77.514 64.5615L77.515 64.5608L78.2884 64.07L79.6423 63.1104L80.7131 62.2701L81.6626 61.4838L81.665 61.4818L82.5806 60.6556L83.4655 59.7855L84.3285 58.8927L84.3311 58.8898L85.1309 57.9715L85.1323 57.9699L85.8905 57.0482L86.6198 56.103L86.6218 56.1002L87.3272 55.0903L88.5536 53.1578L89.1419 52.0781L89.1427 52.0765L89.6907 51.01L89.692 51.0075L89.6932 51.0049L90.2058 49.9055L90.7419 48.5873H28.7528ZM60.8949 69.3236C47.8807 69.3225 35.46 62.9773 29.2063 48.8835H90.3016L89.9342 49.787L89.4273 50.8746L88.8809 51.9379L88.8792 51.9411L88.2982 53.0074L87.0806 54.926L86.381 55.9276L85.6588 56.8636L84.9061 57.7785L84.1102 58.6923L83.2565 59.5756L83.2538 59.5783L82.3774 60.4399L81.4712 61.2577L80.5287 62.0383L80.5257 62.0407L79.4651 62.8729L78.1233 63.824L77.3583 64.3094L77.3563 64.3107L76.5982 64.7744L76.5955 64.776L75.4836 65.424L74.2246 66.0645L72.4847 66.8312L70.138 67.702L68.9227 68.0703L67.7125 68.395L66.6228 68.6527L65.5336 68.8441L65.531 68.8445L64.36 69.0286L64.3561 69.0292L63.2233 69.1763L61.9926 69.2721L60.8949 69.3236Z" fill="#FFFCFC"/>
<path fill-rule="evenodd" clip-rule="evenodd" d="M91.9999 24.3378C80.418 -4.92539 40.1734 -6.21791 27.4662 23.9406H2.48847V25.4218H26.9338C25.7502 29.7831 25.1651 33.1846 25.1699 36.5358C25.1747 39.8843 25.7683 43.1744 26.932 47.3134H1.85156V48.8539H27.359C32.2113 61.4915 44.313 69.9028 57.1834 70.9543C70.0964 72.0093 83.7728 65.6561 91.6853 48.7686L91.6889 48.761L91.6915 48.753C93.2384 44.1612 94.0745 40.526 94.1432 36.8021C94.2119 33.0781 93.5129 29.2757 92.0038 24.349L92.0021 24.3433L91.9999 24.3378ZM27.7013 24.1459C40.2603 -5.85418 80.2217 -4.60394 91.7223 24.4414C93.2253 29.3496 93.9149 33.1173 93.847 36.7966C93.7792 40.4753 92.9541 44.0759 91.4135 48.6505C83.551 65.4243 69.9909 71.7034 57.2075 70.659C44.412 69.6136 32.3844 61.2311 27.5994 48.6531L27.5631 48.5576H2.1478V47.6097H27.3237L27.2702 47.4212C26.0753 43.207 25.4709 39.897 25.4661 36.5353C25.4614 33.1734 26.0563 29.7513 27.2706 25.3127L27.3218 25.1255H2.7847V24.2368H27.6632L27.7013 24.1459Z" fill="#FFFCFC"/>
<path fill-rule="evenodd" clip-rule="evenodd" d="M90.5861 24.0359C86.106 12.3072 72.5923 2.54886 58.4682 3.35999C44.3537 4.17057 34.2858 11.7313 28.9249 24.0295L28.8345 24.2368H90.6628L90.5861 24.0359ZM58.4852 3.65574C72.3929 2.85703 85.7181 12.4157 90.2316 23.9406H29.2874C34.6281 11.8627 44.5665 4.45507 58.4852 3.65574Z" stroke="#FFF7F7" stroke-width="2.88828"/>
<path fill-rule="evenodd" clip-rule="evenodd" d="M28.3168 25.2736H91.0749L91.1116 25.3682C93.6207 31.8307 93.7096 40.8074 91.1119 47.618L91.0756 47.7134H28.3838L28.35 47.6123C26.0603 40.773 25.4501 33.919 28.2832 25.3751L28.3168 25.2736ZM28.5308 25.5699C25.7728 33.9554 26.3616 40.6905 28.5971 47.4171H90.8713C93.3933 40.7199 93.3072 31.9267 90.8719 25.5699H28.5308Z" stroke="#FFF7F7" stroke-width="2.88828"/>
<path fill-rule="evenodd" clip-rule="evenodd" d="M28.7528 48.5873L28.8435 48.7947C35.1204 63.1558 47.7164 69.6199 60.8984 69.6199H60.9019L60.9053 69.6197L62.0111 69.5678L62.0133 69.5676L63.2539 69.471L63.2577 69.4705L64.3982 69.3224L64.4002 69.3221L64.4021 69.3218L65.5797 69.1367L65.581 69.1365L66.6826 68.943L67.7829 68.6828L67.785 68.6823L67.7872 68.6817L69.004 68.3552L69.0063 68.3545L70.2283 67.9842L70.2326 67.9829L70.2368 67.9813L72.596 67.1059L74.3479 66.3339L74.3516 66.3323L74.3553 66.3304L75.6255 65.6842L76.7474 65.0303L76.7488 65.0295L77.514 64.5615L77.515 64.5608L78.2884 64.07L79.6423 63.1104L80.7131 62.2701L81.6626 61.4838L81.665 61.4818L82.5806 60.6556L83.4655 59.7855L84.3285 58.8927L84.3311 58.8898L85.1309 57.9715L85.1323 57.9699L85.8905 57.0482L86.6198 56.103L86.6218 56.1002L87.3272 55.0903L88.5536 53.1578L89.1419 52.0781L89.1427 52.0765L89.6907 51.01L89.692 51.0075L89.6932 51.0049L90.2058 49.9055L90.7419 48.5873H28.7528ZM60.8949 69.3236C47.8807 69.3225 35.46 62.9773 29.2063 48.8835H90.3016L89.9342 49.787L89.4273 50.8746L88.8809 51.9379L88.8792 51.9411L88.2982 53.0074L87.0806 54.926L86.381 55.9276L85.6588 56.8636L84.9061 57.7785L84.1102 58.6923L83.2565 59.5756L83.2538 59.5783L82.3774 60.4399L81.4712 61.2577L80.5287 62.0383L80.5257 62.0407L79.4651 62.8729L78.1233 63.824L77.3583 64.3094L77.3563 64.3107L76.5982 64.7744L76.5955 64.776L75.4836 65.424L74.2246 66.0645L72.4847 66.8312L70.138 67.702L68.9227 68.0703L67.7125 68.395L66.6228 68.6527L65.5336 68.8441L65.531 68.8445L64.36 69.0286L64.3561 69.0292L63.2233 69.1763L61.9926 69.2721L60.8949 69.3236Z" stroke="#FFF7F7" stroke-width="2.88828"/>
<path fill-rule="evenodd" clip-rule="evenodd" d="M91.9999 24.3378C80.418 -4.92539 40.1734 -6.21791 27.4662 23.9406H2.48847V25.4218H26.9338C25.7502 29.7831 25.1651 33.1846 25.1699 36.5358C25.1747 39.8843 25.7683 43.1744 26.932 47.3134H1.85156V48.8539H27.359C32.2113 61.4915 44.313 69.9028 57.1834 70.9543C70.0964 72.0093 83.7728 65.6561 91.6853 48.7686L91.6889 48.761L91.6915 48.753C93.2384 44.1612 94.0745 40.526 94.1432 36.8021C94.2119 33.0781 93.5129 29.2757 92.0038 24.349L92.0021 24.3433L91.9999 24.3378ZM27.7013 24.1459C40.2603 -5.85418 80.2217 -4.60394 91.7223 24.4414C93.2253 29.3496 93.9149 33.1173 93.847 36.7966C93.7792 40.4753 92.9541 44.0759 91.4135 48.6505C83.551 65.4243 69.9909 71.7034 57.2075 70.659C44.412 69.6136 32.3844 61.2311 27.5994 48.6531L27.5631 48.5576H2.1478V47.6097H27.3237L27.2702 47.4212C26.0753 43.207 25.4709 39.897 25.4661 36.5353C25.4614 33.1734 26.0563 29.7513 27.2706 25.3127L27.3218 25.1255H2.7847V24.2368H27.6632L27.7013 24.1459Z" stroke="#FFF7F7" stroke-width="2.88828"/>
</g>
<g id="Ultralight-S" transform="matrix(1 0 0 1 515.649 696) translate(-2 -81.25)">
 <path fill-rule="evenodd" clip-rule="evenodd" d="M90.5861 24.0359C86.106 12.3072 72.5923 2.54886 58.4682 3.35999C44.3537 4.17057 34.2858 11.7313 28.9249 24.0295L28.8345 24.2368H90.6628L90.5861 24.0359ZM58.4852 3.65574C72.3929 2.85703 85.7181 12.4157 90.2316 23.9406H29.2874C34.6281 11.8627 44.5665 4.45507 58.4852 3.65574Z" fill="#FFFCFC"/>
<path fill-rule="evenodd" clip-rule="evenodd" d="M28.3168 25.2736H91.0749L91.1116 25.3682C93.6207 31.8307 93.7096 40.8074 91.1119 47.618L91.0756 47.7134H28.3838L28.35 47.6123C26.0603 40.773 25.4501 33.919 28.2832 25.3751L28.3168 25.2736ZM28.5308 25.5699C25.7728 33.9554 26.3616 40.6905 28.5971 47.4171H90.8713C93.3933 40.7199 93.3072 31.9267 90.8719 25.5699H28.5308Z" fill="#FFFCFC"/>
<path fill-rule="evenodd" clip-rule="evenodd" d="M28.7528 48.5873L28.8435 48.7947C35.1204 63.1558 47.7164 69.6199 60.8984 69.6199H60.9019L60.9053 69.6197L62.0111 69.5678L62.0133 69.5676L63.2539 69.471L63.2577 69.4705L64.3982 69.3224L64.4002 69.3221L64.4021 69.3218L65.5797 69.1367L65.581 69.1365L66.6826 68.943L67.7829 68.6828L67.785 68.6823L67.7872 68.6817L69.004 68.3552L69.0063 68.3545L70.2283 67.9842L70.2326 67.9829L70.2368 67.9813L72.596 67.1059L74.3479 66.3339L74.3516 66.3323L74.3553 66.3304L75.6255 65.6842L76.7474 65.0303L76.7488 65.0295L77.514 64.5615L77.515 64.5608L78.2884 64.07L79.6423 63.1104L80.7131 62.2701L81.6626 61.4838L81.665 61.4818L82.5806 60.6556L83.4655 59.7855L84.3285 58.8927L84.3311 58.8898L85.1309 57.9715L85.1323 57.9699L85.8905 57.0482L86.6198 56.103L86.6218 56.1002L87.3272 55.0903L88.5536 53.1578L89.1419 52.0781L89.1427 52.0765L89.6907 51.01L89.692 51.0075L89.6932 51.0049L90.2058 49.9055L90.7419 48.5873H28.7528ZM60.8949 69.3236C47.8807 69.3225 35.46 62.9773 29.2063 48.8835H90.3016L89.9342 49.787L89.4273 50.8746L88.8809 51.9379L88.8792 51.9411L88.2982 53.0074L87.0806 54.926L86.381 55.9276L85.6588 56.8636L84.9061 57.7785L84.1102 58.6923L83.2565 59.5756L83.2538 59.5783L82.3774 60.4399L81.4712 61.2577L80.5287 62.0383L80.5257 62.0407L79.4651 62.8729L78.1233 63.824L77.3583 64.3094L77.3563 64.3107L76.5982 64.7744L76.5955 64.776L75.4836 65.424L74.2246 66.0645L72.4847 66.8312L70.138 67.702L68.9227 68.0703L67.7125 68.395L66.6228 68.6527L65.5336 68.8441L65.531 68.8445L64.36 69.0286L64.3561 69.0292L63.2233 69.1763L61.9926 69.2721L60.8949 69.3236Z" fill="#FFFCFC"/>
<path fill-rule="evenodd" clip-rule="evenodd" d="M91.9999 24.3378C80.418 -4.92539 40.1734 -6.21791 27.4662 23.9406H2.48847V25.4218H26.9338C25.7502 29.7831 25.1651 33.1846 25.1699 36.5358C25.1747 39.8843 25.7683 43.1744 26.932 47.3134H1.85156V48.8539H27.359C32.2113 61.4915 44.313 69.9028 57.1834 70.9543C70.0964 72.0093 83.7728 65.6561 91.6853 48.7686L91.6889 48.761L91.6915 48.753C93.2384 44.1612 94.0745 40.526 94.1432 36.8021C94.2119 33.0781 93.5129 29.2757 92.0038 24.349L92.0021 24.3433L91.9999 24.3378ZM27.7013 24.1459C40.2603 -5.85418 80.2217 -4.60394 91.7223 24.4414C93.2253 29.3496 93.9149 33.1173 93.847 36.7966C93.7792 40.4753 92.9541 44.0759 91.4135 48.6505C83.551 65.4243 69.9909 71.7034 57.2075 70.659C44.412 69.6136 32.3844 61.2311 27.5994 48.6531L27.5631 48.5576H2.1478V47.6097H27.3237L27.2702 47.4212C26.0753 43.207 25.4709 39.897 25.4661 36.5353C25.4614 33.1734 26.0563 29.7513 27.2706 25.3127L27.3218 25.1255H2.7847V24.2368H27.6632L27.7013 24.1459Z" fill="#FFFCFC"/>
<path fill-rule="evenodd" clip-rule="evenodd" d="M90.5861 24.0359C86.106 12.3072 72.5923 2.54886 58.4682 3.35999C44.3537 4.17057 34.2858 11.7313 28.9249 24.0295L28.8345 24.2368H90.6628L90.5861 24.0359ZM58.4852 3.65574C72.3929 2.85703 85.7181 12.4157 90.2316 23.9406H29.2874C34.6281 11.8627 44.5665 4.45507 58.4852 3.65574Z" stroke="#FFF7F7" stroke-width="2.88828"/>
<path fill-rule="evenodd" clip-rule="evenodd" d="M28.3168 25.2736H91.0749L91.1116 25.3682C93.6207 31.8307 93.7096 40.8074 91.1119 47.618L91.0756 47.7134H28.3838L28.35 47.6123C26.0603 40.773 25.4501 33.919 28.2832 25.3751L28.3168 25.2736ZM28.5308 25.5699C25.7728 33.9554 26.3616 40.6905 28.5971 47.4171H90.8713C93.3933 40.7199 93.3072 31.9267 90.8719 25.5699H28.5308Z" stroke="#FFF7F7" stroke-width="2.88828"/>
<path fill-rule="evenodd" clip-rule="evenodd" d="M28.7528 48.5873L28.8435 48.7947C35.1204 63.1558 47.7164 69.6199 60.8984 69.6199H60.9019L60.9053 69.6197L62.0111 69.5678L62.0133 69.5676L63.2539 69.471L63.2577 69.4705L64.3982 69.3224L64.4002 69.3221L64.4021 69.3218L65.5797 69.1367L65.581 69.1365L66.6826 68.943L67.7829 68.6828L67.785 68.6823L67.7872 68.6817L69.004 68.3552L69.0063 68.3545L70.2283 67.9842L70.2326 67.9829L70.2368 67.9813L72.596 67.1059L74.3479 66.3339L74.3516 66.3323L74.3553 66.3304L75.6255 65.6842L76.7474 65.0303L76.7488 65.0295L77.514 64.5615L77.515 64.5608L78.2884 64.07L79.6423 63.1104L80.7131 62.2701L81.6626 61.4838L81.665 61.4818L82.5806 60.6556L83.4655 59.7855L84.3285 58.8927L84.3311 58.8898L85.1309 57.9715L85.1323 57.9699L85.8905 57.0482L86.6198 56.103L86.6218 56.1002L87.3272 55.0903L88.5536 53.1578L89.1419 52.0781L89.1427 52.0765L89.6907 51.01L89.692 51.0075L89.6932 51.0049L90.2058 49.9055L90.7419 48.5873H28.7528ZM60.8949 69.3236C47.8807 69.3225 35.46 62.9773 29.2063 48.8835H90.3016L89.9342 49.787L89.4273 50.8746L88.8809 51.9379L88.8792 51.9411L88.2982 53.0074L87.0806 54.926L86.381 55.9276L85.6588 56.8636L84.9061 57.7785L84.1102 58.6923L83.2565 59.5756L83.2538 59.5783L82.3774 60.4399L81.4712 61.2577L80.5287 62.0383L80.5257 62.0407L79.4651 62.8729L78.1233 63.824L77.3583 64.3094L77.3563 64.3107L76.5982 64.7744L76.5955 64.776L75.4836 65.424L74.2246 66.0645L72.4847 66.8312L70.138 67.702L68.9227 68.0703L67.7125 68.395L66.6228 68.6527L65.5336 68.8441L65.531 68.8445L64.36 69.0286L64.3561 69.0292L63.2233 69.1763L61.9926 69.2721L60.8949 69.3236Z" stroke="#FFF7F7" stroke-width="2.88828"/>
<path fill-rule="evenodd" clip-rule="evenodd" d="M91.9999 24.3378C80.418 -4.92539 40.1734 -6.21791 27.4662 23.9406H2.48847V25.4218H26.9338C25.7502 29.7831 25.1651 33.1846 25.1699 36.5358C25.1747 39.8843 25.7683 43.1744 26.932 47.3134H1.85156V48.8539H27.359C32.2113 61.4915 44.313 69.9028 57.1834 70.9543C70.0964 72.0093 83.7728 65.6561 91.6853 48.7686L91.6889 48.761L91.6915 48.753C93.2384 44.1612 94.0745 40.526 94.1432 36.8021C94.2119 33.0781 93.5129 29.2757 92.0038 24.349L92.0021 24.3433L91.9999 24.3378ZM27.7013 24.1459C40.2603 -5.85418 80.2217 -4.60394 91.7223 24.4414C93.2253 29.3496 93.9149 33.1173 93.847 36.7966C93.7792 40.4753 92.9541 44.0759 91.4135 48.6505C83.551 65.4243 69.9909 71.7034 57.2075 70.659C44.412 69.6136 32.3844 61.2311 27.5994 48.6531L27.5631 48.5576H2.1478V47.6097H27.3237L27.2702 47.4212C26.0753 43.207 25.4709 39.897 25.4661 36.5353C25.4614 33.1734 26.0563 29.7513 27.2706 25.3127L27.3218 25.1255H2.7847V24.2368H27.6632L27.7013 24.1459Z" stroke="#FFF7F7" stroke-width="2.88828"/>
</g>
</g>
</svg>