<?xml version="1.0" encoding="UTF-8"?>
<svg height="600" width="800" xmlns="http://www.w3.org/2000/svg" xmlns:xlink="http://www.w3.org/1999/xlink">
    <g id="Notes" font-family="'LucidaGrande', 'Lucida Grande', sans-serif" font-size="13">
        <rect fill="white" height="600.0" width="800.0" x="0.0" y="0.0" />
        <g font-size="13">
            <text x="18.0" y="176.0">Small</text>
            <text x="18.0" y="376.0">Medium</text>
            <text x="18.0" y="576.0">Large</text>
        </g>
        <g font-size="9">
            <text x="250.0" y="30.0">Ultralight</text>
            <text x="450.0" y="30.0">Regular</text>
            <text x="650.0" y="30.0">Black</text>
            <text id="template-version" fill="#505050" text-anchor="end" x="785.0" y="575.0">Template v.3.0</text>
            <a href="https://github.com/swhitty/SwiftDraw">
                <text fill="#505050" text-anchor="end" x="785.0" y="590.0">https://github.com/swhitty/SwiftDraw</text>
            </a>
        </g>
    </g>
    <g id="Guides" stroke="rgb(39, 170, 225)" stroke-width="0.5">
        <path id="Capline-S" d="M18,76 l800,0" />
        <path id="H-reference" d="M85,145.755 L87.685,145.755 L113.369,79.287 L114.052,79.287 L114.052,76 L112.148,76 L85,145.755 Z M95.693,121.536 L130.996,121.536 L130.263,119.313 L96.474,119.313 L95.693,121.536 Z M139.15,145.755 L141.787,145.755 L114.638,76 L113.466,76 L113.466,79.287 L139.15,145.755 Z" stroke="none" />
        <path id="Baseline-S" d="M18,146 l800,0" />
        <path id="left-margin-Ultralight-S" d="M220.671,56 l0,110" />
        <path id="right-margin-Ultralight-S" d="M309.329,56 l0,110" />
        <path id="left-margin-Regular-S" d="M420.671,56 l0,110" />
        <path id="right-margin-Regular-S" d="M509.329,56 l0,110" />
        <path id="left-margin-Black-S" d="M620.671,56 l0,110" />
        <path id="right-margin-Black-S" d="M709.329,56 l0,110" />
        <path id="Capline-M" d="M18,276 l800,0" />
        <path id="Baseline-M" d="M18,346 l800,0" />
        <path id="Capline-L" d="M18,476 l800,0" />
        <path id="Baseline-L" d="M18,546 l800,0" />
    </g>
    <g id="Symbols">
        <g id="Ultralight-S">
            <path d="M234.171,78.333 L234.171,85.665 L234.171,86.165 L234.67,86.165 L240.003,86.165 L240.503,86.165 L240.503,85.665 L240.503,82.832 L240.379,83.162 L241.546,81.829 L241.17,81.999 L254.835,81.999 L254.458,81.829 L255.625,83.162 L255.501,82.832 L255.501,85.665 L255.501,86.165 L256.001,86.165 L261.334,86.165 L261.834,86.165 L261.834,85.665 L261.834,78.333 L261.834,78.14 L261.704,77.997 L260.037,76.164 L259.888,76 L259.667,76 L236.337,76 L236.116,76 L235.967,76.164 L234.301,77.997 L234.171,78.14 L234.171,78.333 Z M235.17,78.333 L235.04,78.669 L236.707,76.836 L236.337,77 L259.667,77 L259.297,76.836 L260.964,78.669 L260.834,78.333 L260.834,85.665 L261.334,85.166 L256.001,85.166 L256.501,85.665 L256.501,82.832 L256.501,82.645 L256.377,82.503 L255.211,81.17 L255.061,80.999 L254.835,80.999 L241.17,80.999 L240.943,80.999 L240.793,81.17 L239.627,82.503 L239.503,82.645 L239.503,82.832 L239.503,85.665 L240.003,85.166 L234.67,85.166 L235.17,85.665 L235.17,78.333 Z" />
            <path d="M237.337,79.5 C237.337,79.223 237.561,79 237.837,79 C238.113,79 238.337,79.223 238.337,79.5 C238.337,79.776 238.113,79.999 237.837,79.999 C237.561,79.999 237.337,79.776 237.337,79.5 Z M236.337,79.5 C236.337,80.328 237.008,80.999 237.837,80.999 C238.665,80.999 239.337,80.328 239.337,79.5 C239.337,78.671 238.665,78 237.837,78 C237.008,78 236.337,78.671 236.337,79.5 Z" />
            <path d="M257.668,79.333 C257.668,79.057 257.891,78.833 258.168,78.833 C258.444,78.833 258.667,79.057 258.667,79.333 C258.667,79.609 258.444,79.833 258.168,79.833 C257.891,79.833 257.668,79.609 257.668,79.333 Z M256.668,79.333 C256.668,80.161 257.339,80.833 258.168,80.833 C258.996,80.833 259.667,80.161 259.667,79.333 C259.667,78.505 258.996,77.833 258.168,77.833 C257.339,77.833 256.668,78.505 256.668,79.333 Z" />
            <path d="M261.836,143.658 L261.834,136.326 L261.834,135.826 L261.334,135.826 L256.001,135.828 L255.501,135.828 L255.501,136.328 L255.502,139.161 L255.626,138.832 L254.46,140.165 L254.836,139.994 L241.171,139.999 L241.547,140.17 L240.38,138.837 L240.504,139.166 L240.503,136.333 L240.503,135.833 L240.003,135.833 L234.67,135.835 L234.17,135.835 L234.171,136.335 L234.173,143.668 L234.173,143.861 L234.303,144.004 L235.97,145.836 L236.119,146 L236.34,146 L259.671,145.992 L259.892,145.992 L260.041,145.828 L261.706,143.994 L261.836,143.851 L261.836,143.658 Z M260.837,143.658 L260.966,143.322 L259.3,145.156 L259.67,144.992 L236.34,145 L236.71,145.164 L235.043,143.331 L235.173,143.667 L235.17,136.335 L234.671,136.835 L240.003,136.833 L239.503,136.333 L239.504,139.166 L239.504,139.354 L239.628,139.495 L240.795,140.828 L240.944,140.999 L241.171,140.999 L254.836,140.994 L255.063,140.994 L255.212,140.823 L256.378,139.49 L256.502,139.348 L256.502,139.161 L256.501,136.328 L256.001,136.828 L261.334,136.826 L260.834,136.326 L260.837,143.658 Z" />
            <path d="M258.668,142.659 C258.668,142.935 258.444,143.159 258.168,143.159 C257.892,143.159 257.668,142.935 257.668,142.659 C257.668,142.383 257.892,142.159 258.168,142.159 C258.444,142.159 258.668,142.383 258.668,142.659 Z M259.668,142.658 C259.668,141.83 258.996,141.159 258.168,141.159 C257.339,141.159 256.668,141.831 256.668,142.66 C256.669,143.488 257.34,144.159 258.169,144.159 C258.997,144.159 259.668,143.487 259.668,142.658 Z" />
            <path d="M238.337,142.659 C238.337,142.935 238.114,143.159 237.837,143.159 C237.561,143.159 237.337,142.935 237.337,142.659 C237.337,142.383 237.561,142.159 237.837,142.159 C238.113,142.159 238.337,142.383 238.337,142.659 Z M239.337,142.658 C239.337,141.83 238.665,141.159 237.837,141.159 C237.008,141.159 236.337,141.831 236.337,142.66 C236.338,143.488 237.009,144.159 237.838,144.159 C238.666,144.159 239.337,143.487 239.337,142.658 Z" />
            <path d="M248.002,138.992 L246.891,138.992 L246.973,139.014 L246.458,138.724 L245.968,138.307 L245.453,137.872 L245.477,137.896 L245.133,137.461 L245.169,137.565 L245.169,135.826 L245.002,135.993 L248.002,135.993 L248.002,135.659 L245.002,135.659 L244.836,135.659 L244.836,135.826 L244.836,137.565 L244.836,137.622 L244.872,137.668 L245.215,138.103 L245.238,138.127 L245.754,138.562 L246.269,138.996 L246.809,139.304 L246.847,139.325 L246.891,139.325 L248.002,139.325 L248.002,138.992 Z" />
            <path d="M247.002,139.325 L248.113,139.325 L248.157,139.325 L248.195,139.304 L248.71,139.014 L249.251,138.562 L249.766,138.127 L249.789,138.103 L250.133,137.668 L250.169,137.622 L250.169,137.565 L250.169,135.826 L250.169,135.659 L250.002,135.659 L247.002,135.659 L247.002,135.993 L250.002,135.993 L249.835,135.826 L249.835,137.565 L249.871,137.461 L249.528,137.896 L249.551,137.872 L249.036,138.307 L248.521,138.741 L248.031,139.014 L248.113,138.992 L247.002,138.992 L247.002,139.325 Z" />
            <path d="M247.336,137.326 C247.336,137.234 247.41,137.159 247.502,137.159 C247.594,137.159 247.669,137.234 247.669,137.326 C247.669,137.418 247.594,137.492 247.502,137.492 C247.41,137.492 247.336,137.418 247.336,137.326 Z M246.669,137.326 C246.669,137.786 247.042,138.159 247.502,138.159 C247.962,138.159 248.335,137.786 248.335,137.326 C248.335,136.865 247.962,136.492 247.502,136.492 C247.042,136.492 246.669,136.865 246.669,137.326 Z" />
            <path d="M247.669,82.999 L248.78,82.999 L248.698,82.978 L249.213,83.268 L249.702,83.684 L250.218,84.119 L250.194,84.095 L250.538,84.53 L250.502,84.426 L250.502,86.165 L250.668,85.999 L247.669,85.999 L247.669,86.332 L250.668,86.332 L250.835,86.332 L250.835,86.165 L250.835,84.426 L250.835,84.369 L250.799,84.323 L250.456,83.888 L250.433,83.864 L249.917,83.43 L249.402,82.995 L248.862,82.687 L248.823,82.666 L248.78,82.666 L247.669,82.666 L247.669,82.999 Z" />
            <path d="M248.669,82.666 L247.558,82.666 L247.514,82.666 L247.476,82.687 L246.961,82.977 L246.42,83.43 L245.905,83.864 L245.882,83.888 L245.538,84.323 L245.502,84.369 L245.502,84.426 L245.502,86.165 L245.502,86.332 L245.669,86.332 L248.669,86.332 L248.669,85.999 L245.669,85.999 L245.836,86.165 L245.836,84.426 L245.8,84.53 L246.143,84.095 L246.12,84.119 L246.635,83.684 L247.15,83.25 L247.639,82.978 L247.558,82.999 L248.669,82.999 L248.669,82.666 Z" />
            <path d="M248.335,84.666 C248.335,84.758 248.261,84.832 248.169,84.832 C248.077,84.832 248.002,84.758 248.002,84.666 C248.002,84.574 248.077,84.499 248.169,84.499 C248.261,84.499 248.335,84.574 248.335,84.666 Z M249.002,84.666 C249.002,84.205 248.629,83.832 248.169,83.832 C247.709,83.832 247.336,84.205 247.336,84.666 C247.336,85.126 247.709,85.499 248.169,85.499 C248.629,85.499 249.002,85.126 249.002,84.666 Z" />
            <path d="M298.329,86.665 L298.329,135.326 L298.829,134.826 L231.171,134.826 L231.671,135.326 L231.671,86.665 L231.171,87.165 L298.829,87.165 L298.329,86.665 Z M299.329,86.665 L299.329,86.165 L298.829,86.165 L231.171,86.165 L230.671,86.165 L230.671,86.665 L230.671,135.326 L230.671,135.826 L231.171,135.826 L298.829,135.826 L299.329,135.826 L299.329,135.326 L299.329,86.665 Z" />
            <path d="M268.166,78.333 L268.166,85.665 L268.166,86.165 L268.666,86.165 L273.999,86.165 L274.499,86.165 L274.499,85.665 L274.499,82.832 L274.375,83.162 L275.542,81.829 L275.165,81.999 L288.83,81.999 L288.454,81.829 L289.621,83.162 L289.497,82.832 L289.497,85.665 L289.497,86.165 L289.997,86.165 L295.33,86.165 L295.829,86.165 L295.829,85.665 L295.829,78.333 L295.829,78.14 L295.699,77.997 L294.033,76.164 L293.884,76 L293.663,76 L270.333,76 L270.112,76 L269.963,76.164 L268.296,77.997 L268.166,78.14 L268.166,78.333 Z M269.166,78.333 L269.036,78.669 L270.703,76.836 L270.333,77 L293.663,77 L293.293,76.836 L294.96,78.669 L294.83,78.333 L294.83,85.665 L295.33,85.166 L289.997,85.166 L290.497,85.665 L290.497,82.832 L290.497,82.645 L290.373,82.503 L289.207,81.17 L289.057,80.999 L288.83,80.999 L275.165,80.999 L274.939,80.999 L274.789,81.17 L273.623,82.503 L273.499,82.645 L273.499,82.832 L273.499,85.665 L273.999,85.166 L268.666,85.166 L269.166,85.665 L269.166,78.333 Z" />
            <path d="M271.333,79.5 C271.333,79.223 271.556,79 271.832,79 C272.109,79 272.332,79.223 272.332,79.5 C272.332,79.776 272.109,79.999 271.832,79.999 C271.556,79.999 271.333,79.776 271.333,79.5 Z M270.333,79.5 C270.333,80.328 271.004,80.999 271.832,80.999 C272.661,80.999 273.332,80.328 273.332,79.5 C273.332,78.671 272.661,78 271.832,78 C271.004,78 270.333,78.671 270.333,79.5 Z" />
            <path d="M291.663,79.333 C291.663,79.057 291.887,78.833 292.163,78.833 C292.439,78.833 292.663,79.057 292.663,79.333 C292.663,79.609 292.439,79.833 292.163,79.833 C291.887,79.833 291.663,79.609 291.663,79.333 Z M290.663,79.333 C290.663,80.161 291.335,80.833 292.163,80.833 C292.992,80.833 293.663,80.161 293.663,79.333 C293.663,78.505 292.992,77.833 292.163,77.833 C291.335,77.833 290.663,78.505 290.663,79.333 Z" />
            <path d="M295.832,143.658 L295.829,136.326 L295.829,135.826 L295.329,135.826 L289.997,135.828 L289.497,135.828 L289.497,136.328 L289.498,139.161 L289.622,138.832 L288.455,140.165 L288.832,139.994 L275.167,139.999 L275.543,140.17 L274.376,138.837 L274.5,139.166 L274.499,136.333 L274.499,135.833 L273.999,135.833 L268.666,135.835 L268.166,135.835 L268.166,136.335 L268.169,143.668 L268.169,143.861 L268.299,144.004 L269.966,145.836 L270.115,146 L270.336,146 L293.667,145.992 L293.888,145.992 L294.036,145.828 L295.702,143.994 L295.832,143.851 L295.832,143.658 Z M294.832,143.658 L294.962,143.322 L293.296,145.156 L293.666,144.992 L270.336,145 L270.706,145.164 L269.039,143.331 L269.169,143.667 L269.166,136.335 L268.666,136.835 L273.999,136.833 L273.499,136.333 L273.5,139.166 L273.5,139.354 L273.624,139.495 L274.791,140.828 L274.94,140.999 L275.167,140.999 L288.832,140.994 L289.059,140.994 L289.208,140.823 L290.374,139.49 L290.498,139.348 L290.498,139.161 L290.497,136.328 L289.997,136.828 L295.33,136.826 L294.83,136.326 L294.832,143.658 Z" />
            <path d="M292.664,142.659 C292.664,142.935 292.44,143.159 292.164,143.159 C291.888,143.159 291.664,142.935 291.664,142.659 C291.664,142.383 291.888,142.159 292.164,142.159 C292.44,142.159 292.664,142.383 292.664,142.659 Z M293.664,142.658 C293.663,141.83 292.992,141.159 292.163,141.159 C291.335,141.159 290.664,141.831 290.664,142.66 C290.664,143.488 291.336,144.159 292.164,144.159 C292.993,144.159 293.664,143.487 293.664,142.658 Z" />
            <path d="M272.333,142.659 C272.333,142.935 272.109,143.159 271.833,143.159 C271.557,143.159 271.333,142.935 271.333,142.659 C271.333,142.383 271.557,142.159 271.833,142.159 C272.109,142.159 272.333,142.383 272.333,142.659 Z M273.333,142.658 C273.333,141.83 272.661,141.159 271.833,141.159 C271.004,141.159 270.333,141.831 270.333,142.66 C270.334,143.488 271.005,144.159 271.834,144.159 C272.662,144.159 273.333,143.487 273.333,142.658 Z" />
            <path d="M281.998,138.992 L280.887,138.992 L280.969,139.014 L280.453,138.724 L279.964,138.307 L279.449,137.872 L279.472,137.896 L279.129,137.461 L279.165,137.565 L279.165,135.826 L278.998,135.993 L281.998,135.993 L281.998,135.659 L278.998,135.659 L278.832,135.659 L278.832,135.826 L278.832,137.565 L278.832,137.622 L278.867,137.668 L279.211,138.103 L279.234,138.127 L279.749,138.562 L280.264,138.996 L280.805,139.304 L280.843,139.325 L280.887,139.325 L281.998,139.325 L281.998,138.992 Z" />
            <path d="M280.998,139.325 L282.109,139.325 L282.153,139.325 L282.191,139.304 L282.706,139.014 L283.247,138.562 L283.762,138.127 L283.785,138.103 L284.128,137.668 L284.164,137.622 L284.164,137.565 L284.164,135.826 L284.164,135.659 L283.998,135.659 L280.998,135.659 L280.998,135.993 L283.998,135.993 L283.831,135.826 L283.831,137.565 L283.867,137.461 L283.524,137.896 L283.547,137.872 L283.032,138.307 L282.517,138.741 L282.027,139.014 L282.109,138.992 L280.998,138.992 L280.998,139.325 Z" />
            <path d="M281.331,137.326 C281.331,137.234 281.406,137.159 281.498,137.159 C281.59,137.159 281.665,137.234 281.665,137.326 C281.665,137.418 281.59,137.492 281.498,137.492 C281.406,137.492 281.331,137.418 281.331,137.326 Z M280.665,137.326 C280.665,137.786 281.038,138.159 281.498,138.159 C281.958,138.159 282.331,137.786 282.331,137.326 C282.331,136.865 281.958,136.492 281.498,136.492 C281.038,136.492 280.665,136.865 280.665,137.326 Z" />
            <path d="M281.665,82.999 L282.775,82.999 L282.694,82.978 L283.209,83.268 L283.698,83.684 L284.213,84.119 L284.19,84.095 L284.533,84.53 L284.498,84.426 L284.498,86.165 L284.664,85.999 L281.665,85.999 L281.665,86.332 L284.664,86.332 L284.831,86.332 L284.831,86.165 L284.831,84.426 L284.831,84.369 L284.795,84.323 L284.452,83.888 L284.428,83.864 L283.913,83.43 L283.398,82.995 L282.857,82.687 L282.819,82.666 L282.775,82.666 L281.665,82.666 L281.665,82.999 Z" />
            <path d="M282.664,82.666 L281.554,82.666 L281.51,82.666 L281.472,82.687 L280.957,82.977 L280.416,83.43 L279.901,83.864 L279.877,83.888 L279.534,84.323 L279.498,84.369 L279.498,84.426 L279.498,86.165 L279.498,86.332 L279.665,86.332 L282.664,86.332 L282.664,85.999 L279.665,85.999 L279.831,86.165 L279.831,84.426 L279.796,84.53 L280.139,84.095 L280.116,84.119 L280.631,83.684 L281.146,83.25 L281.635,82.978 L281.554,82.999 L282.664,82.999 L282.664,82.666 Z" />
            <path d="M282.331,84.666 C282.331,84.758 282.257,84.832 282.165,84.832 C282.072,84.832 281.998,84.758 281.998,84.666 C281.998,84.574 282.072,84.499 282.165,84.499 C282.257,84.499 282.331,84.574 282.331,84.666 Z M282.998,84.666 C282.998,84.205 282.625,83.832 282.165,83.832 C281.704,83.832 281.331,84.205 281.331,84.666 C281.331,85.126 281.704,85.499 282.165,85.499 C282.625,85.499 282.998,85.126 282.998,84.666 Z" />
        </g>
        <g id="Regular-S">
            <path d="M434.171,78.333 L434.171,85.665 L434.171,86.165 L434.67,86.165 L440.003,86.165 L440.503,86.165 L440.503,85.665 L440.503,82.832 L440.379,83.162 L441.546,81.829 L441.17,81.999 L454.835,81.999 L454.458,81.829 L455.625,83.162 L455.501,82.832 L455.501,85.665 L455.501,86.165 L456.001,86.165 L461.334,86.165 L461.834,86.165 L461.834,85.665 L461.834,78.333 L461.834,78.14 L461.704,77.997 L460.037,76.164 L459.888,76 L459.667,76 L436.337,76 L436.116,76 L435.967,76.164 L434.301,77.997 L434.171,78.14 L434.171,78.333 Z M435.17,78.333 L435.04,78.669 L436.707,76.836 L436.337,77 L459.667,77 L459.297,76.836 L460.964,78.669 L460.834,78.333 L460.834,85.665 L461.334,85.166 L456.001,85.166 L456.501,85.665 L456.501,82.832 L456.501,82.645 L456.377,82.503 L455.211,81.17 L455.061,80.999 L454.835,80.999 L441.17,80.999 L440.943,80.999 L440.793,81.17 L439.627,82.503 L439.503,82.645 L439.503,82.832 L439.503,85.665 L440.003,85.166 L434.67,85.166 L435.17,85.665 L435.17,78.333 Z" />
            <path d="M437.337,79.5 C437.337,79.223 437.561,79 437.837,79 C438.113,79 438.337,79.223 438.337,79.5 C438.337,79.776 438.113,79.999 437.837,79.999 C437.561,79.999 437.337,79.776 437.337,79.5 Z M436.337,79.5 C436.337,80.328 437.008,80.999 437.837,80.999 C438.665,80.999 439.337,80.328 439.337,79.5 C439.337,78.671 438.665,78 437.837,78 C437.008,78 436.337,78.671 436.337,79.5 Z" />
            <path d="M457.668,79.333 C457.668,79.057 457.891,78.833 458.168,78.833 C458.444,78.833 458.667,79.057 458.667,79.333 C458.667,79.609 458.444,79.833 458.168,79.833 C457.891,79.833 457.668,79.609 457.668,79.333 Z M456.668,79.333 C456.668,80.161 457.339,80.833 458.168,80.833 C458.996,80.833 459.667,80.161 459.667,79.333 C459.667,78.505 458.996,77.833 458.168,77.833 C457.339,77.833 456.668,78.505 456.668,79.333 Z" />
            <path d="M461.836,143.658 L461.834,136.326 L461.834,135.826 L461.334,135.826 L456.001,135.828 L455.501,135.828 L455.501,136.328 L455.502,139.161 L455.626,138.832 L454.46,140.165 L454.836,139.994 L441.171,139.999 L441.547,140.17 L440.38,138.837 L440.504,139.166 L440.503,136.333 L440.503,135.833 L440.003,135.833 L434.67,135.835 L434.17,135.835 L434.171,136.335 L434.173,143.668 L434.173,143.861 L434.303,144.004 L435.97,145.836 L436.119,146 L436.34,146 L459.671,145.992 L459.892,145.992 L460.041,145.828 L461.706,143.994 L461.836,143.851 L461.836,143.658 Z M460.837,143.658 L460.966,143.322 L459.3,145.156 L459.67,144.992 L436.34,145 L436.71,145.164 L435.043,143.331 L435.173,143.667 L435.17,136.335 L434.671,136.835 L440.003,136.833 L439.503,136.333 L439.504,139.166 L439.504,139.354 L439.628,139.495 L440.795,140.828 L440.944,140.999 L441.171,140.999 L454.836,140.994 L455.063,140.994 L455.212,140.823 L456.378,139.49 L456.502,139.348 L456.502,139.161 L456.501,136.328 L456.001,136.828 L461.334,136.826 L460.834,136.326 L460.837,143.658 Z" />
            <path d="M458.668,142.659 C458.668,142.935 458.444,143.159 458.168,143.159 C457.892,143.159 457.668,142.935 457.668,142.659 C457.668,142.383 457.892,142.159 458.168,142.159 C458.444,142.159 458.668,142.383 458.668,142.659 Z M459.668,142.658 C459.668,141.83 458.996,141.159 458.168,141.159 C457.339,141.159 456.668,141.831 456.668,142.66 C456.669,143.488 457.34,144.159 458.169,144.159 C458.997,144.159 459.668,143.487 459.668,142.658 Z" />
            <path d="M438.337,142.659 C438.337,142.935 438.114,143.159 437.837,143.159 C437.561,143.159 437.337,142.935 437.337,142.659 C437.337,142.383 437.561,142.159 437.837,142.159 C438.113,142.159 438.337,142.383 438.337,142.659 Z M439.337,142.658 C439.337,141.83 438.665,141.159 437.837,141.159 C437.008,141.159 436.337,141.831 436.337,142.66 C436.338,143.488 437.009,144.159 437.838,144.159 C438.666,144.159 439.337,143.487 439.337,142.658 Z" />
            <path d="M448.002,138.992 L446.891,138.992 L446.973,139.014 L446.458,138.724 L445.968,138.307 L445.453,137.872 L445.477,137.896 L445.133,137.461 L445.169,137.565 L445.169,135.826 L445.003,135.993 L448.002,135.993 L448.002,135.659 L445.003,135.659 L444.836,135.659 L444.836,135.826 L444.836,137.565 L444.836,137.622 L444.872,137.668 L445.215,138.103 L445.238,138.127 L445.754,138.562 L446.269,138.996 L446.809,139.304 L446.847,139.325 L446.891,139.325 L448.002,139.325 L448.002,138.992 Z" />
            <path d="M447.002,139.325 L448.113,139.325 L448.157,139.325 L448.195,139.304 L448.71,139.014 L449.251,138.562 L449.766,138.127 L449.789,138.103 L450.133,137.668 L450.169,137.622 L450.169,137.565 L450.169,135.826 L450.169,135.659 L450.002,135.659 L447.002,135.659 L447.002,135.993 L450.002,135.993 L449.835,135.826 L449.835,137.565 L449.871,137.461 L449.528,137.896 L449.551,137.872 L449.036,138.307 L448.521,138.741 L448.031,139.014 L448.113,138.992 L447.002,138.992 L447.002,139.325 Z" />
            <path d="M447.336,137.326 C447.336,137.234 447.41,137.159 447.502,137.159 C447.594,137.159 447.669,137.234 447.669,137.326 C447.669,137.418 447.594,137.492 447.502,137.492 C447.41,137.492 447.336,137.418 447.336,137.326 Z M446.669,137.326 C446.669,137.786 447.042,138.159 447.502,138.159 C447.962,138.159 448.335,137.786 448.335,137.326 C448.335,136.865 447.962,136.492 447.502,136.492 C447.042,136.492 446.669,136.865 446.669,137.326 Z" />
            <path d="M447.669,82.999 L448.78,82.999 L448.698,82.978 L449.213,83.268 L449.702,83.684 L450.218,84.119 L450.194,84.095 L450.538,84.53 L450.502,84.426 L450.502,86.165 L450.668,85.999 L447.669,85.999 L447.669,86.332 L450.668,86.332 L450.835,86.332 L450.835,86.165 L450.835,84.426 L450.835,84.369 L450.799,84.323 L450.456,83.888 L450.433,83.864 L449.917,83.43 L449.402,82.995 L448.862,82.687 L448.823,82.666 L448.78,82.666 L447.669,82.666 L447.669,82.999 Z" />
            <path d="M448.669,82.666 L447.558,82.666 L447.514,82.666 L447.476,82.687 L446.961,82.977 L446.42,83.43 L445.905,83.864 L445.882,83.888 L445.538,84.323 L445.502,84.369 L445.502,84.426 L445.502,86.165 L445.502,86.332 L445.669,86.332 L448.669,86.332 L448.669,85.999 L445.669,85.999 L445.836,86.165 L445.836,84.426 L445.8,84.53 L446.143,84.095 L446.12,84.119 L446.635,83.684 L447.15,83.25 L447.639,82.978 L447.558,82.999 L448.669,82.999 L448.669,82.666 Z" />
            <path d="M448.335,84.666 C448.335,84.758 448.261,84.832 448.169,84.832 C448.077,84.832 448.002,84.758 448.002,84.666 C448.002,84.574 448.077,84.499 448.169,84.499 C448.261,84.499 448.335,84.574 448.335,84.666 Z M449.002,84.666 C449.002,84.205 448.629,83.832 448.169,83.832 C447.709,83.832 447.336,84.205 447.336,84.666 C447.336,85.126 447.709,85.499 448.169,85.499 C448.629,85.499 449.002,85.126 449.002,84.666 Z" />
            <path d="M498.329,86.665 L498.329,135.326 L498.829,134.826 L431.171,134.826 L431.671,135.326 L431.671,86.665 L431.171,87.165 L498.829,87.165 L498.329,86.665 Z M499.329,86.665 L499.329,86.165 L498.829,86.165 L431.171,86.165 L430.671,86.165 L430.671,86.665 L430.671,135.326 L430.671,135.826 L431.171,135.826 L498.829,135.826 L499.329,135.826 L499.329,135.326 L499.329,86.665 Z" />
            <path d="M468.166,78.333 L468.166,85.665 L468.166,86.165 L468.666,86.165 L473.999,86.165 L474.499,86.165 L474.499,85.665 L474.499,82.832 L474.375,83.162 L475.542,81.829 L475.165,81.999 L488.83,81.999 L488.454,81.829 L489.621,83.162 L489.497,82.832 L489.497,85.665 L489.497,86.165 L489.997,86.165 L495.33,86.165 L495.829,86.165 L495.829,85.665 L495.829,78.333 L495.829,78.14 L495.699,77.997 L494.033,76.164 L493.884,76 L493.663,76 L470.333,76 L470.112,76 L469.963,76.164 L468.296,77.997 L468.166,78.14 L468.166,78.333 Z M469.166,78.333 L469.036,78.669 L470.703,76.836 L470.333,77 L493.663,77 L493.293,76.836 L494.96,78.669 L494.83,78.333 L494.83,85.665 L495.33,85.166 L489.997,85.166 L490.497,85.665 L490.497,82.832 L490.497,82.645 L490.373,82.503 L489.207,81.17 L489.057,80.999 L488.83,80.999 L475.165,80.999 L474.939,80.999 L474.789,81.17 L473.623,82.503 L473.499,82.645 L473.499,82.832 L473.499,85.665 L473.999,85.166 L468.666,85.166 L469.166,85.665 L469.166,78.333 Z" />
            <path d="M471.333,79.5 C471.333,79.223 471.556,79 471.832,79 C472.109,79 472.332,79.223 472.332,79.5 C472.332,79.776 472.109,79.999 471.832,79.999 C471.556,79.999 471.333,79.776 471.333,79.5 Z M470.333,79.5 C470.333,80.328 471.004,80.999 471.832,80.999 C472.661,80.999 473.332,80.328 473.332,79.5 C473.332,78.671 472.661,78 471.832,78 C471.004,78 470.333,78.671 470.333,79.5 Z" />
            <path d="M491.663,79.333 C491.663,79.057 491.887,78.833 492.163,78.833 C492.439,78.833 492.663,79.057 492.663,79.333 C492.663,79.609 492.439,79.833 492.163,79.833 C491.887,79.833 491.663,79.609 491.663,79.333 Z M490.663,79.333 C490.663,80.161 491.335,80.833 492.163,80.833 C492.992,80.833 493.663,80.161 493.663,79.333 C493.663,78.505 492.992,77.833 492.163,77.833 C491.335,77.833 490.663,78.505 490.663,79.333 Z" />
            <path d="M495.832,143.658 L495.829,136.326 L495.829,135.826 L495.329,135.826 L489.997,135.828 L489.497,135.828 L489.497,136.328 L489.498,139.161 L489.622,138.832 L488.455,140.165 L488.832,139.994 L475.167,139.999 L475.543,140.17 L474.376,138.837 L474.5,139.166 L474.499,136.333 L474.499,135.833 L473.999,135.833 L468.666,135.835 L468.166,135.835 L468.166,136.335 L468.169,143.668 L468.169,143.861 L468.299,144.004 L469.966,145.836 L470.115,146 L470.336,146 L493.667,145.992 L493.888,145.992 L494.036,145.828 L495.702,143.994 L495.832,143.851 L495.832,143.658 Z M494.832,143.658 L494.962,143.322 L493.296,145.156 L493.666,144.992 L470.336,145 L470.706,145.164 L469.039,143.331 L469.169,143.667 L469.166,136.335 L468.666,136.835 L473.999,136.833 L473.499,136.333 L473.5,139.166 L473.5,139.354 L473.624,139.495 L474.791,140.828 L474.94,140.999 L475.167,140.999 L488.832,140.994 L489.059,140.994 L489.208,140.823 L490.374,139.49 L490.498,139.348 L490.498,139.161 L490.497,136.328 L489.997,136.828 L495.33,136.826 L494.83,136.326 L494.832,143.658 Z" />
            <path d="M492.664,142.659 C492.664,142.935 492.44,143.159 492.164,143.159 C491.888,143.159 491.664,142.935 491.664,142.659 C491.664,142.383 491.888,142.159 492.164,142.159 C492.44,142.159 492.664,142.383 492.664,142.659 Z M493.664,142.658 C493.663,141.83 492.992,141.159 492.163,141.159 C491.335,141.159 490.664,141.831 490.664,142.66 C490.664,143.488 491.336,144.159 492.164,144.159 C492.993,144.159 493.664,143.487 493.664,142.658 Z" />
            <path d="M472.333,142.659 C472.333,142.935 472.109,143.159 471.833,143.159 C471.557,143.159 471.333,142.935 471.333,142.659 C471.333,142.383 471.557,142.159 471.833,142.159 C472.109,142.159 472.333,142.383 472.333,142.659 Z M473.333,142.658 C473.333,141.83 472.661,141.159 471.833,141.159 C471.004,141.159 470.333,141.831 470.333,142.66 C470.334,143.488 471.005,144.159 471.834,144.159 C472.662,144.159 473.333,143.487 473.333,142.658 Z" />
            <path d="M481.998,138.992 L480.887,138.992 L480.969,139.014 L480.453,138.724 L479.964,138.307 L479.449,137.872 L479.472,137.896 L479.129,137.461 L479.165,137.565 L479.165,135.826 L478.998,135.993 L481.998,135.993 L481.998,135.659 L478.998,135.659 L478.832,135.659 L478.832,135.826 L478.832,137.565 L478.832,137.622 L478.867,137.668 L479.211,138.103 L479.234,138.127 L479.749,138.562 L480.264,138.996 L480.805,139.304 L480.843,139.325 L480.887,139.325 L481.998,139.325 L481.998,138.992 Z" />
            <path d="M480.998,139.325 L482.109,139.325 L482.153,139.325 L482.191,139.304 L482.706,139.014 L483.247,138.562 L483.762,138.127 L483.785,138.103 L484.128,137.668 L484.164,137.622 L484.164,137.565 L484.164,135.826 L484.164,135.659 L483.998,135.659 L480.998,135.659 L480.998,135.993 L483.998,135.993 L483.831,135.826 L483.831,137.565 L483.867,137.461 L483.524,137.896 L483.547,137.872 L483.032,138.307 L482.517,138.741 L482.027,139.014 L482.109,138.992 L480.998,138.992 L480.998,139.325 Z" />
            <path d="M481.331,137.326 C481.331,137.234 481.406,137.159 481.498,137.159 C481.59,137.159 481.665,137.234 481.665,137.326 C481.665,137.418 481.59,137.492 481.498,137.492 C481.406,137.492 481.331,137.418 481.331,137.326 Z M480.665,137.326 C480.665,137.786 481.038,138.159 481.498,138.159 C481.958,138.159 482.331,137.786 482.331,137.326 C482.331,136.865 481.958,136.492 481.498,136.492 C481.038,136.492 480.665,136.865 480.665,137.326 Z" />
            <path d="M481.665,82.999 L482.775,82.999 L482.694,82.978 L483.209,83.268 L483.698,83.684 L484.213,84.119 L484.19,84.095 L484.533,84.53 L484.498,84.426 L484.498,86.165 L484.664,85.999 L481.665,85.999 L481.665,86.332 L484.664,86.332 L484.831,86.332 L484.831,86.165 L484.831,84.426 L484.831,84.369 L484.795,84.323 L484.452,83.888 L484.428,83.864 L483.913,83.43 L483.398,82.995 L482.857,82.687 L482.819,82.666 L482.775,82.666 L481.665,82.666 L481.665,82.999 Z" />
            <path d="M482.664,82.666 L481.554,82.666 L481.51,82.666 L481.472,82.687 L480.957,82.977 L480.416,83.43 L479.901,83.864 L479.877,83.888 L479.534,84.323 L479.498,84.369 L479.498,84.426 L479.498,86.165 L479.498,86.332 L479.665,86.332 L482.664,86.332 L482.664,85.999 L479.665,85.999 L479.831,86.165 L479.831,84.426 L479.796,84.53 L480.139,84.095 L480.116,84.119 L480.631,83.684 L481.146,83.25 L481.635,82.978 L481.554,82.999 L482.664,82.999 L482.664,82.666 Z" />
            <path d="M482.331,84.666 C482.331,84.758 482.257,84.832 482.165,84.832 C482.072,84.832 481.998,84.758 481.998,84.666 C481.998,84.574 482.072,84.499 482.165,84.499 C482.257,84.499 482.331,84.574 482.331,84.666 Z M482.998,84.666 C482.998,84.205 482.625,83.832 482.165,83.832 C481.704,83.832 481.331,84.205 481.331,84.666 C481.331,85.126 481.704,85.499 482.165,85.499 C482.625,85.499 482.998,85.126 482.998,84.666 Z" />
        </g>
        <g id="Black-S">
            <path d="M634.171,78.333 L634.171,85.665 L634.171,86.165 L634.67,86.165 L640.003,86.165 L640.503,86.165 L640.503,85.665 L640.503,82.832 L640.379,83.162 L641.546,81.829 L641.17,81.999 L654.835,81.999 L654.458,81.829 L655.625,83.162 L655.501,82.832 L655.501,85.665 L655.501,86.165 L656.001,86.165 L661.334,86.165 L661.834,86.165 L661.834,85.665 L661.834,78.333 L661.834,78.14 L661.704,77.997 L660.037,76.164 L659.888,76 L659.667,76 L636.337,76 L636.116,76 L635.967,76.164 L634.301,77.997 L634.171,78.14 L634.171,78.333 Z M635.17,78.333 L635.04,78.669 L636.707,76.836 L636.337,77 L659.667,77 L659.297,76.836 L660.964,78.669 L660.834,78.333 L660.834,85.665 L661.334,85.166 L656.001,85.166 L656.501,85.665 L656.501,82.832 L656.501,82.645 L656.377,82.503 L655.211,81.17 L655.061,80.999 L654.835,80.999 L641.17,80.999 L640.943,80.999 L640.793,81.17 L639.627,82.503 L639.503,82.645 L639.503,82.832 L639.503,85.665 L640.003,85.166 L634.67,85.166 L635.17,85.665 L635.17,78.333 Z" />
            <path d="M637.337,79.5 C637.337,79.223 637.561,79 637.837,79 C638.113,79 638.337,79.223 638.337,79.5 C638.337,79.776 638.113,79.999 637.837,79.999 C637.561,79.999 637.337,79.776 637.337,79.5 Z M636.337,79.5 C636.337,80.328 637.008,80.999 637.837,80.999 C638.665,80.999 639.337,80.328 639.337,79.5 C639.337,78.671 638.665,78 637.837,78 C637.008,78 636.337,78.671 636.337,79.5 Z" />
            <path d="M657.668,79.333 C657.668,79.057 657.891,78.833 658.168,78.833 C658.444,78.833 658.667,79.057 658.667,79.333 C658.667,79.609 658.444,79.833 658.168,79.833 C657.891,79.833 657.668,79.609 657.668,79.333 Z M656.668,79.333 C656.668,80.161 657.339,80.833 658.168,80.833 C658.996,80.833 659.667,80.161 659.667,79.333 C659.667,78.505 658.996,77.833 658.168,77.833 C657.339,77.833 656.668,78.505 656.668,79.333 Z" />
            <path d="M661.836,143.658 L661.834,136.326 L661.834,135.826 L661.334,135.826 L656.001,135.828 L655.501,135.828 L655.501,136.328 L655.502,139.161 L655.626,138.832 L654.46,140.165 L654.836,139.994 L641.171,139.999 L641.547,140.17 L640.38,138.837 L640.504,139.166 L640.503,136.333 L640.503,135.833 L640.003,135.833 L634.67,135.835 L634.17,135.835 L634.171,136.335 L634.173,143.668 L634.173,143.861 L634.303,144.004 L635.97,145.836 L636.119,146 L636.34,146 L659.671,145.992 L659.892,145.992 L660.041,145.828 L661.706,143.994 L661.836,143.851 L661.836,143.658 Z M660.836,143.658 L660.966,143.322 L659.3,145.156 L659.67,144.992 L636.34,145 L636.71,145.164 L635.043,143.331 L635.173,143.667 L635.17,136.335 L634.671,136.835 L640.003,136.833 L639.503,136.333 L639.504,139.166 L639.504,139.354 L639.628,139.495 L640.795,140.828 L640.944,140.999 L641.171,140.999 L654.836,140.994 L655.063,140.994 L655.212,140.823 L656.378,139.49 L656.502,139.348 L656.502,139.161 L656.501,136.328 L656.001,136.828 L661.334,136.826 L660.834,136.326 L660.836,143.658 Z" />
            <path d="M658.668,142.659 C658.668,142.935 658.444,143.159 658.168,143.159 C657.892,143.159 657.668,142.935 657.668,142.659 C657.668,142.383 657.892,142.159 658.168,142.159 C658.444,142.159 658.668,142.383 658.668,142.659 Z M659.668,142.658 C659.668,141.83 658.996,141.159 658.168,141.159 C657.339,141.159 656.668,141.831 656.668,142.66 C656.669,143.488 657.34,144.159 658.169,144.159 C658.997,144.159 659.668,143.487 659.668,142.658 Z" />
            <path d="M638.337,142.659 C638.337,142.935 638.114,143.159 637.837,143.159 C637.561,143.159 637.337,142.935 637.337,142.659 C637.337,142.383 637.561,142.159 637.837,142.159 C638.113,142.159 638.337,142.383 638.337,142.659 Z M639.337,142.658 C639.337,141.83 638.665,141.159 637.837,141.159 C637.008,141.159 636.337,141.831 636.337,142.66 C636.338,143.488 637.009,144.159 637.838,144.159 C638.666,144.159 639.337,143.487 639.337,142.658 Z" />
            <path d="M648.002,138.992 L646.891,138.992 L646.973,139.014 L646.458,138.724 L645.968,138.307 L645.453,137.872 L645.477,137.896 L645.133,137.461 L645.169,137.565 L645.169,135.826 L645.003,135.993 L648.002,135.993 L648.002,135.659 L645.003,135.659 L644.836,135.659 L644.836,135.826 L644.836,137.565 L644.836,137.622 L644.872,137.668 L645.215,138.103 L645.238,138.127 L645.754,138.562 L646.269,138.996 L646.809,139.304 L646.847,139.325 L646.891,139.325 L648.002,139.325 L648.002,138.992 Z" />
            <path d="M647.002,139.325 L648.113,139.325 L648.157,139.325 L648.195,139.304 L648.71,139.014 L649.251,138.562 L649.766,138.127 L649.789,138.103 L650.133,137.668 L650.169,137.622 L650.169,137.565 L650.169,135.826 L650.169,135.659 L650.002,135.659 L647.002,135.659 L647.002,135.993 L650.002,135.993 L649.835,135.826 L649.835,137.565 L649.871,137.461 L649.528,137.896 L649.551,137.872 L649.036,138.307 L648.521,138.741 L648.031,139.014 L648.113,138.992 L647.002,138.992 L647.002,139.325 Z" />
            <path d="M647.336,137.326 C647.336,137.234 647.41,137.159 647.502,137.159 C647.594,137.159 647.669,137.234 647.669,137.326 C647.669,137.418 647.594,137.492 647.502,137.492 C647.41,137.492 647.336,137.418 647.336,137.326 Z M646.669,137.326 C646.669,137.786 647.042,138.159 647.502,138.159 C647.962,138.159 648.335,137.786 648.335,137.326 C648.335,136.865 647.962,136.492 647.502,136.492 C647.042,136.492 646.669,136.865 646.669,137.326 Z" />
            <path d="M647.669,82.999 L648.78,82.999 L648.698,82.978 L649.213,83.268 L649.702,83.684 L650.218,84.119 L650.194,84.095 L650.538,84.53 L650.502,84.426 L650.502,86.165 L650.668,85.999 L647.669,85.999 L647.669,86.332 L650.668,86.332 L650.835,86.332 L650.835,86.165 L650.835,84.426 L650.835,84.369 L650.799,84.323 L650.456,83.888 L650.433,83.864 L649.917,83.43 L649.402,82.995 L648.862,82.687 L648.823,82.666 L648.78,82.666 L647.669,82.666 L647.669,82.999 Z" />
            <path d="M648.669,82.666 L647.558,82.666 L647.514,82.666 L647.476,82.687 L646.961,82.977 L646.42,83.43 L645.905,83.864 L645.882,83.888 L645.538,84.323 L645.502,84.369 L645.502,84.426 L645.502,86.165 L645.502,86.332 L645.669,86.332 L648.669,86.332 L648.669,85.999 L645.669,85.999 L645.836,86.165 L645.836,84.426 L645.8,84.53 L646.143,84.095 L646.12,84.119 L646.635,83.684 L647.15,83.25 L647.639,82.978 L647.558,82.999 L648.669,82.999 L648.669,82.666 Z" />
            <path d="M648.335,84.666 C648.335,84.758 648.261,84.832 648.169,84.832 C648.077,84.832 648.002,84.758 648.002,84.666 C648.002,84.574 648.077,84.499 648.169,84.499 C648.261,84.499 648.335,84.574 648.335,84.666 Z M649.002,84.666 C649.002,84.205 648.629,83.832 648.169,83.832 C647.709,83.832 647.336,84.205 647.336,84.666 C647.336,85.126 647.709,85.499 648.169,85.499 C648.629,85.499 649.002,85.126 649.002,84.666 Z" />
            <path d="M698.329,86.665 L698.329,135.326 L698.829,134.826 L631.171,134.826 L631.671,135.326 L631.671,86.665 L631.171,87.165 L698.829,87.165 L698.329,86.665 Z M699.329,86.665 L699.329,86.165 L698.829,86.165 L631.171,86.165 L630.671,86.165 L630.671,86.665 L630.671,135.326 L630.671,135.826 L631.171,135.826 L698.829,135.826 L699.329,135.826 L699.329,135.326 L699.329,86.665 Z" />
            <path d="M668.166,78.333 L668.166,85.665 L668.166,86.165 L668.666,86.165 L673.999,86.165 L674.499,86.165 L674.499,85.665 L674.499,82.832 L674.375,83.162 L675.542,81.829 L675.165,81.999 L688.83,81.999 L688.454,81.829 L689.621,83.162 L689.497,82.832 L689.497,85.665 L689.497,86.165 L689.997,86.165 L695.33,86.165 L695.829,86.165 L695.829,85.665 L695.829,78.333 L695.829,78.14 L695.699,77.997 L694.033,76.164 L693.884,76 L693.663,76 L670.333,76 L670.112,76 L669.963,76.164 L668.296,77.997 L668.166,78.14 L668.166,78.333 Z M669.166,78.333 L669.036,78.669 L670.703,76.836 L670.333,77 L693.663,77 L693.293,76.836 L694.96,78.669 L694.83,78.333 L694.83,85.665 L695.33,85.166 L689.997,85.166 L690.497,85.665 L690.497,82.832 L690.497,82.645 L690.373,82.503 L689.207,81.17 L689.057,80.999 L688.83,80.999 L675.165,80.999 L674.939,80.999 L674.789,81.17 L673.623,82.503 L673.499,82.645 L673.499,82.832 L673.499,85.665 L673.999,85.166 L668.666,85.166 L669.166,85.665 L669.166,78.333 Z" />
            <path d="M671.333,79.5 C671.333,79.223 671.556,79 671.832,79 C672.109,79 672.332,79.223 672.332,79.5 C672.332,79.776 672.109,79.999 671.832,79.999 C671.556,79.999 671.333,79.776 671.333,79.5 Z M670.333,79.5 C670.333,80.328 671.004,80.999 671.832,80.999 C672.661,80.999 673.332,80.328 673.332,79.5 C673.332,78.671 672.661,78 671.832,78 C671.004,78 670.333,78.671 670.333,79.5 Z" />
            <path d="M691.663,79.333 C691.663,79.057 691.887,78.833 692.163,78.833 C692.439,78.833 692.663,79.057 692.663,79.333 C692.663,79.609 692.439,79.833 692.163,79.833 C691.887,79.833 691.663,79.609 691.663,79.333 Z M690.663,79.333 C690.663,80.161 691.335,80.833 692.163,80.833 C692.992,80.833 693.663,80.161 693.663,79.333 C693.663,78.505 692.992,77.833 692.163,77.833 C691.335,77.833 690.663,78.505 690.663,79.333 Z" />
            <path d="M695.832,143.658 L695.829,136.326 L695.829,135.826 L695.329,135.826 L689.997,135.828 L689.497,135.828 L689.497,136.328 L689.498,139.161 L689.622,138.832 L688.455,140.165 L688.832,139.994 L675.167,139.999 L675.543,140.17 L674.376,138.837 L674.5,139.166 L674.499,136.333 L674.499,135.833 L673.999,135.833 L668.666,135.835 L668.166,135.835 L668.166,136.335 L668.169,143.668 L668.169,143.861 L668.299,144.004 L669.966,145.836 L670.115,146 L670.336,146 L693.667,145.992 L693.888,145.992 L694.036,145.828 L695.702,143.994 L695.832,143.851 L695.832,143.658 Z M694.832,143.658 L694.962,143.322 L693.296,145.156 L693.666,144.992 L670.336,145 L670.706,145.164 L669.039,143.331 L669.169,143.667 L669.166,136.335 L668.666,136.835 L673.999,136.833 L673.499,136.333 L673.5,139.166 L673.5,139.354 L673.624,139.495 L674.791,140.828 L674.94,140.999 L675.167,140.999 L688.832,140.994 L689.059,140.994 L689.208,140.823 L690.374,139.49 L690.498,139.348 L690.498,139.161 L690.497,136.328 L689.997,136.828 L695.33,136.826 L694.83,136.326 L694.832,143.658 Z" />
            <path d="M692.664,142.659 C692.664,142.935 692.44,143.159 692.164,143.159 C691.888,143.159 691.664,142.935 691.664,142.659 C691.664,142.383 691.888,142.159 692.164,142.159 C692.44,142.159 692.664,142.383 692.664,142.659 Z M693.664,142.658 C693.663,141.83 692.992,141.159 692.163,141.159 C691.335,141.159 690.664,141.831 690.664,142.66 C690.664,143.488 691.336,144.159 692.164,144.159 C692.993,144.159 693.664,143.487 693.664,142.658 Z" />
            <path d="M672.333,142.659 C672.333,142.935 672.109,143.159 671.833,143.159 C671.557,143.159 671.333,142.935 671.333,142.659 C671.333,142.383 671.557,142.159 671.833,142.159 C672.109,142.159 672.333,142.383 672.333,142.659 Z M673.333,142.658 C673.333,141.83 672.661,141.159 671.833,141.159 C671.004,141.159 670.333,141.831 670.333,142.66 C670.334,143.488 671.005,144.159 671.834,144.159 C672.662,144.159 673.333,143.487 673.333,142.658 Z" />
            <path d="M681.998,138.992 L680.887,138.992 L680.969,139.014 L680.453,138.724 L679.964,138.307 L679.449,137.872 L679.472,137.896 L679.129,137.461 L679.165,137.565 L679.165,135.826 L678.998,135.993 L681.998,135.993 L681.998,135.659 L678.998,135.659 L678.832,135.659 L678.832,135.826 L678.832,137.565 L678.832,137.622 L678.867,137.668 L679.211,138.103 L679.234,138.127 L679.749,138.562 L680.264,138.996 L680.805,139.304 L680.843,139.325 L680.887,139.325 L681.998,139.325 L681.998,138.992 Z" />
            <path d="M680.998,139.325 L682.109,139.325 L682.153,139.325 L682.191,139.304 L682.706,139.014 L683.247,138.562 L683.762,138.127 L683.785,138.103 L684.128,137.668 L684.164,137.622 L684.164,137.565 L684.164,135.826 L684.164,135.659 L683.998,135.659 L680.998,135.659 L680.998,135.993 L683.998,135.993 L683.831,135.826 L683.831,137.565 L683.867,137.461 L683.523,137.896 L683.547,137.872 L683.032,138.307 L682.517,138.741 L682.027,139.014 L682.109,138.992 L680.998,138.992 L680.998,139.325 Z" />
            <path d="M681.331,137.326 C681.331,137.234 681.406,137.159 681.498,137.159 C681.59,137.159 681.665,137.234 681.665,137.326 C681.665,137.418 681.59,137.492 681.498,137.492 C681.406,137.492 681.331,137.418 681.331,137.326 Z M680.665,137.326 C680.665,137.786 681.038,138.159 681.498,138.159 C681.958,138.159 682.331,137.786 682.331,137.326 C682.331,136.865 681.958,136.492 681.498,136.492 C681.038,136.492 680.665,136.865 680.665,137.326 Z" />
            <path d="M681.665,82.999 L682.775,82.999 L682.694,82.978 L683.209,83.268 L683.698,83.684 L684.213,84.119 L684.19,84.095 L684.533,84.53 L684.498,84.426 L684.498,86.165 L684.664,85.999 L681.665,85.999 L681.665,86.332 L684.664,86.332 L684.831,86.332 L684.831,86.165 L684.831,84.426 L684.831,84.369 L684.795,84.323 L684.452,83.888 L684.428,83.864 L683.913,83.43 L683.398,82.995 L682.857,82.687 L682.819,82.666 L682.775,82.666 L681.665,82.666 L681.665,82.999 Z" />
            <path d="M682.664,82.666 L681.554,82.666 L681.51,82.666 L681.472,82.687 L680.957,82.977 L680.416,83.43 L679.901,83.864 L679.877,83.888 L679.534,84.323 L679.498,84.369 L679.498,84.426 L679.498,86.165 L679.498,86.332 L679.665,86.332 L682.664,86.332 L682.664,85.999 L679.665,85.999 L679.831,86.165 L679.831,84.426 L679.796,84.53 L680.139,84.095 L680.116,84.119 L680.631,83.684 L681.146,83.25 L681.635,82.978 L681.554,82.999 L682.664,82.999 L682.664,82.666 Z" />
            <path d="M682.331,84.666 C682.331,84.758 682.257,84.832 682.164,84.832 C682.073,84.832 681.998,84.758 681.998,84.666 C681.998,84.574 682.073,84.499 682.164,84.499 C682.257,84.499 682.331,84.574 682.331,84.666 Z M682.998,84.666 C682.998,84.205 682.625,83.832 682.164,83.832 C681.704,83.832 681.331,84.205 681.331,84.666 C681.331,85.126 681.704,85.499 682.164,85.499 C682.625,85.499 682.998,85.126 682.998,84.666 Z" />
        </g>
    </g>
</svg>