<?xml version="1.0" encoding="UTF-8"?>
<!--Generator: Apple Native CoreSVG 232.5-->
<!DOCTYPE svg
PUBLIC "-//W3C//DTD SVG 1.1//EN"
       "http://www.w3.org/Graphics/SVG/1.1/DTD/svg11.dtd">
<svg version="1.1" xmlns="http://www.w3.org/2000/svg" xmlns:xlink="http://www.w3.org/1999/xlink" width="3300" height="2200">
 <!--glyph: "", point size: 100.0, font version: "19.0d8e1", template writer version: "128"-->
 <style>.monochrome-0 {-sfsymbols-motion-group:0}

.multicolor-0:tintColor {-sfsymbols-motion-group:0}

.hierarchical-0:primary {-sfsymbols-motion-group:0}

.SFSymbolsPreviewWireframe {fill:none;opacity:1.0;stroke:black;stroke-width:0.5}
</style>
 <g id="Notes">
  <rect height="2200" id="artboard" style="fill:white;opacity:1" width="3300" x="0" y="0"/>
  <line style="fill:none;stroke:black;opacity:1;stroke-width:0.5;" x1="263" x2="3036" y1="292" y2="292"/>
  <text style="stroke:none;fill:black;font-family:sans-serif;font-size:13;font-weight:bold;" transform="matrix(1 0 0 1 263 322)">Weight/Scale Variations</text>
  <text style="stroke:none;fill:black;font-family:sans-serif;font-size:13;text-anchor:middle;" transform="matrix(1 0 0 1 559.711 322)">Ultralight</text>
  <text style="stroke:none;fill:black;font-family:sans-serif;font-size:13;text-anchor:middle;" transform="matrix(1 0 0 1 856.422 322)">Thin</text>
  <text style="stroke:none;fill:black;font-family:sans-serif;font-size:13;text-anchor:middle;" transform="matrix(1 0 0 1 1153.13 322)">Light</text>
  <text style="stroke:none;fill:black;font-family:sans-serif;font-size:13;text-anchor:middle;" transform="matrix(1 0 0 1 1449.84 322)">Regular</text>
  <text style="stroke:none;fill:black;font-family:sans-serif;font-size:13;text-anchor:middle;" transform="matrix(1 0 0 1 1746.56 322)">Medium</text>
  <text style="stroke:none;fill:black;font-family:sans-serif;font-size:13;text-anchor:middle;" transform="matrix(1 0 0 1 2043.27 322)">Semibold</text>
  <text style="stroke:none;fill:black;font-family:sans-serif;font-size:13;text-anchor:middle;" transform="matrix(1 0 0 1 2339.98 322)">Bold</text>
  <text style="stroke:none;fill:black;font-family:sans-serif;font-size:13;text-anchor:middle;" transform="matrix(1 0 0 1 2636.69 322)">Heavy</text>
  <text style="stroke:none;fill:black;font-family:sans-serif;font-size:13;text-anchor:middle;" transform="matrix(1 0 0 1 2933.4 322)">Black</text>
  <line style="fill:none;stroke:black;opacity:1;stroke-width:0.5;" x1="263" x2="3036" y1="1903" y2="1903"/>
  <g transform="matrix(0.2 0 0 0.2 263 1933)">
   <path d="m46.2402 4.15039c21.5332 0 39.4531-17.8711 39.4531-39.4043s-17.9688-39.4043-39.502-39.4043c-21.4844 0-39.3555 17.8711-39.3555 39.4043s17.9199 39.4043 39.4043 39.4043Zm0-7.42188c-17.7246 0-31.8848-14.209-31.8848-31.9824s14.1113-31.9824 31.8359-31.9824c17.7734 0 32.0312 14.209 32.0312 31.9824s-14.209 31.9824-31.9824 31.9824Zm-17.9688-31.9824c0 2.14844 1.51367 3.61328 3.75977 3.61328h10.498v10.5957c0 2.19727 1.46484 3.71094 3.61328 3.71094 2.24609 0 3.71094-1.51367 3.71094-3.71094v-10.5957h10.5957c2.19727 0 3.71094-1.46484 3.71094-3.61328 0-2.19727-1.51367-3.71094-3.71094-3.71094h-10.5957v-10.5469c0-2.24609-1.46484-3.75977-3.71094-3.75977-2.14844 0-3.61328 1.51367-3.61328 3.75977v10.5469h-10.498c-2.24609 0-3.75977 1.51367-3.75977 3.71094Z"/>
  </g>
  <g transform="matrix(0.2 0 0 0.2 281.506 1933)">
   <path d="m58.5449 14.5508c27.2461 0 49.8047-22.6074 49.8047-49.8047 0-27.2461-22.6074-49.8047-49.8535-49.8047-27.1973 0-49.7559 22.5586-49.7559 49.8047 0 27.1973 22.6074 49.8047 49.8047 49.8047Zm0-8.30078c-23.0469 0-41.4551-18.457-41.4551-41.5039s18.3594-41.5039 41.4062-41.5039 41.5527 18.457 41.5527 41.5039-18.457 41.5039-41.5039 41.5039Zm-22.6562-41.5039c0 2.39258 1.66016 4.00391 4.15039 4.00391h14.3555v14.4043c0 2.44141 1.66016 4.15039 4.05273 4.15039 2.44141 0 4.15039-1.66016 4.15039-4.15039v-14.4043h14.4043c2.44141 0 4.15039-1.61133 4.15039-4.00391 0-2.44141-1.70898-4.15039-4.15039-4.15039h-14.4043v-14.3555c0-2.49023-1.70898-4.19922-4.15039-4.19922-2.39258 0-4.05273 1.70898-4.05273 4.19922v14.3555h-14.3555c-2.49023 0-4.15039 1.70898-4.15039 4.15039Z"/>
  </g>
  <g transform="matrix(0.2 0 0 0.2 304.924 1933)">
   <path d="m74.8535 28.3203c34.8145 0 63.623-28.8086 63.623-63.5742 0-34.8145-28.8574-63.623-63.6719-63.623-34.7656 0-63.5254 28.8086-63.5254 63.623 0 34.7656 28.8086 63.5742 63.5742 63.5742Zm0-9.08203c-30.1758 0-54.4434-24.3164-54.4434-54.4922 0-30.2246 24.2188-54.4922 54.3945-54.4922 30.2246 0 54.541 24.2676 54.541 54.4922 0 30.1758-24.2676 54.4922-54.4922 54.4922Zm-28.8574-54.4922c0 2.58789 1.85547 4.39453 4.58984 4.39453h19.7266v19.7754c0 2.68555 1.85547 4.58984 4.44336 4.58984 2.68555 0 4.54102-1.85547 4.54102-4.58984v-19.7754h19.7754c2.68555 0 4.58984-1.80664 4.58984-4.39453 0-2.73438-1.85547-4.58984-4.58984-4.58984h-19.7754v-19.7266c0-2.73438-1.85547-4.63867-4.54102-4.63867-2.58789 0-4.44336 1.9043-4.44336 4.63867v19.7266h-19.7266c-2.73438 0-4.58984 1.85547-4.58984 4.58984Z"/>
  </g>
  <text style="stroke:none;fill:black;font-family:sans-serif;font-size:13;font-weight:bold;" transform="matrix(1 0 0 1 263 1953)">Design Variations</text>
  <text style="stroke:none;fill:black;font-family:sans-serif;font-size:13;" transform="matrix(1 0 0 1 263 1971)">Symbols are supported in up to nine weights and three scales.</text>
  <text style="stroke:none;fill:black;font-family:sans-serif;font-size:13;" transform="matrix(1 0 0 1 263 1989)">For optimal layout with text and other symbols, vertically align</text>
  <text style="stroke:none;fill:black;font-family:sans-serif;font-size:13;" transform="matrix(1 0 0 1 263 2007)">symbols with the adjacent text.</text>
  <line style="fill:none;stroke:#00AEEF;stroke-width:0.5;opacity:1.0;" x1="776" x2="776" y1="1919" y2="1933"/>
  <g transform="matrix(0.2 0 0 0.2 776 1933)">
   <path d="m16.5527 0.78125c2.58789 0 3.85742-0.976562 4.78516-3.71094l6.29883-17.2363h28.8086l6.29883 17.2363c0.927734 2.73438 2.19727 3.71094 4.73633 3.71094 2.58789 0 4.24805-1.5625 4.24805-4.00391 0-0.830078-0.146484-1.61133-0.537109-2.63672l-22.9004-60.9863c-1.12305-2.97852-3.125-4.49219-6.25-4.49219-3.02734 0-5.07812 1.46484-6.15234 4.44336l-22.9004 61.084c-0.390625 1.02539-0.537109 1.80664-0.537109 2.63672 0 2.44141 1.5625 3.95508 4.10156 3.95508Zm13.4766-28.3691 11.8652-32.8613h0.244141l11.8652 32.8613Z"/>
  </g>
  <line style="fill:none;stroke:#00AEEF;stroke-width:0.5;opacity:1.0;" x1="792.836" x2="792.836" y1="1919" y2="1933"/>
  <text style="stroke:none;fill:black;font-family:sans-serif;font-size:13;font-weight:bold;" transform="matrix(1 0 0 1 776 1953)">Margins</text>
  <text style="stroke:none;fill:black;font-family:sans-serif;font-size:13;" transform="matrix(1 0 0 1 776 1971)">Leading and trailing margins on the left and right side of each symbol</text>
  <text style="stroke:none;fill:black;font-family:sans-serif;font-size:13;" transform="matrix(1 0 0 1 776 1989)">can be adjusted by modifying the x-location of the margin guidelines.</text>
  <text style="stroke:none;fill:black;font-family:sans-serif;font-size:13;" transform="matrix(1 0 0 1 776 2007)">Modifications are automatically applied proportionally to all</text>
  <text style="stroke:none;fill:black;font-family:sans-serif;font-size:13;" transform="matrix(1 0 0 1 776 2025)">scales and weights.</text>
  <g transform="matrix(0.2 0 0 0.2 1289 1933)">
   <path d="m14.209 9.32617 8.49609 8.54492c4.29688 4.3457 9.22852 4.05273 13.8672-1.07422l53.4668-58.9355-4.83398-4.88281-53.0762 58.3984c-1.75781 2.00195-3.41797 2.49023-5.76172 0.146484l-5.85938-5.81055c-2.34375-2.29492-1.80664-4.00391 0.195312-5.81055l57.373-54.0039-4.88281-4.83398-57.959 54.4434c-4.93164 4.58984-5.32227 9.47266-1.02539 13.8184Zm32.0801-90.9668c-2.09961 2.05078-2.24609 4.93164-1.07422 6.88477 1.17188 1.80664 3.4668 2.97852 6.68945 2.14844 7.32422-1.70898 14.9414-2.00195 22.0703 2.68555l-2.92969 7.27539c-1.70898 4.15039-0.830078 7.08008 1.85547 9.81445l11.4746 11.5723c2.44141 2.44141 4.49219 2.53906 7.32422 2.05078l5.32227-0.976562 3.32031 3.36914-0.195312 2.7832c-0.195312 2.49023 0.439453 4.39453 2.88086 6.78711l3.80859 3.71094c2.39258 2.39258 5.46875 2.53906 7.8125 0.195312l14.5508-14.5996c2.34375-2.34375 2.24609-5.32227-0.146484-7.71484l-3.85742-3.80859c-2.39258-2.39258-4.24805-3.17383-6.64062-2.97852l-2.88086 0.244141-3.22266-3.17383 1.2207-5.61523c0.634766-2.83203-0.146484-5.0293-3.07617-7.95898l-10.9863-10.9375c-16.6992-16.6016-38.8672-16.2109-53.3203-1.75781Zm7.4707 1.85547c12.1582-8.88672 28.6133-7.37305 39.7461 3.75977l12.1582 12.0605c1.17188 1.17188 1.36719 2.09961 1.02539 3.80859l-1.61133 7.42188 7.51953 7.42188 4.93164-0.292969c1.26953-0.0488281 1.66016 0.0488281 2.63672 1.02539l2.88086 2.88086-12.207 12.207-2.88086-2.88086c-0.976562-0.976562-1.12305-1.36719-1.07422-2.68555l0.341797-4.88281-7.4707-7.42188-7.61719 1.26953c-1.61133 0.341797-2.34375 0.195312-3.56445-0.976562l-10.0098-10.0098c-1.26953-1.17188-1.41602-2.00195-0.634766-3.85742l4.39453-10.4492c-7.8125-7.27539-17.9688-10.4004-28.125-7.42188-0.78125 0.195312-1.07422-0.439453-0.439453-0.976562Z"/>
  </g>
  <text style="stroke:none;fill:black;font-family:sans-serif;font-size:13;font-weight:bold;" transform="matrix(1 0 0 1 1289 1953)">Exporting</text>
  <text style="stroke:none;fill:black;font-family:sans-serif;font-size:13;" transform="matrix(1 0 0 1 1289 1971)">Symbols should be outlined when exporting to ensure the</text>
  <text style="stroke:none;fill:black;font-family:sans-serif;font-size:13;" transform="matrix(1 0 0 1 1289 1989)">design is preserved when submitting to Xcode.</text>
  <text id="template-version" style="stroke:none;fill:black;font-family:sans-serif;font-size:13;text-anchor:end;" transform="matrix(1 0 0 1 3036 1933)">Template v.5.0</text>
  <text style="stroke:none;fill:black;font-family:sans-serif;font-size:13;text-anchor:end;" transform="matrix(1 0 0 1 3036 1951)">Requires Xcode 15 or greater</text>
  <text id="descriptive-name" style="stroke:none;fill:black;font-family:sans-serif;font-size:13;text-anchor:end;" transform="matrix(1 0 0 1 3036 1969)">Generated from Frame 3</text>
  <text style="stroke:none;fill:black;font-family:sans-serif;font-size:13;text-anchor:end;" transform="matrix(1 0 0 1 3036 1987)">Typeset at 100.0 points</text>
  <text style="stroke:none;fill:black;font-family:sans-serif;font-size:13;" transform="matrix(1 0 0 1 263 726)">Small</text>
  <text style="stroke:none;fill:black;font-family:sans-serif;font-size:13;" transform="matrix(1 0 0 1 263 1156)">Medium</text>
  <text style="stroke:none;fill:black;font-family:sans-serif;font-size:13;" transform="matrix(1 0 0 1 263 1586)">Large</text>
 </g>
 <g id="Guides">
  <g id="H-reference" style="fill:#27AAE1;stroke:none;" transform="matrix(1 0 0 1 339 696)">
   <path d="M0.993654 0L3.63775 0L29.3281-67.1323L30.0303-67.1323L30.0303-70.459L28.1226-70.459ZM11.6885-24.4799L46.9815-24.4799L46.2315-26.7285L12.4385-26.7285ZM55.1196 0L57.7637 0L30.6382-70.459L29.4326-70.459L29.4326-67.1323Z"/>
  </g>
  <line id="Baseline-S" style="fill:none;stroke:#27AAE1;opacity:1;stroke-width:0.5;" x1="263" x2="3036" y1="696" y2="696"/>
  <line id="Capline-S" style="fill:none;stroke:#27AAE1;opacity:1;stroke-width:0.5;" x1="263" x2="3036" y1="625.541" y2="625.541"/>
  <g id="H-reference" style="fill:#27AAE1;stroke:none;" transform="matrix(1 0 0 1 339 1126)">
   <path d="M0.993654 0L3.63775 0L29.3281-67.1323L30.0303-67.1323L30.0303-70.459L28.1226-70.459ZM11.6885-24.4799L46.9815-24.4799L46.2315-26.7285L12.4385-26.7285ZM55.1196 0L57.7637 0L30.6382-70.459L29.4326-70.459L29.4326-67.1323Z"/>
  </g>
  <line id="Baseline-M" style="fill:none;stroke:#27AAE1;opacity:1;stroke-width:0.5;" x1="263" x2="3036" y1="1126" y2="1126"/>
  <line id="Capline-M" style="fill:none;stroke:#27AAE1;opacity:1;stroke-width:0.5;" x1="263" x2="3036" y1="1055.54" y2="1055.54"/>
  <g id="H-reference" style="fill:#27AAE1;stroke:none;" transform="matrix(1 0 0 1 339 1556)">
   <path d="M0.993654 0L3.63775 0L29.3281-67.1323L30.0303-67.1323L30.0303-70.459L28.1226-70.459ZM11.6885-24.4799L46.9815-24.4799L46.2315-26.7285L12.4385-26.7285ZM55.1196 0L57.7637 0L30.6382-70.459L29.4326-70.459L29.4326-67.1323Z"/>
  </g>
  <line id="Baseline-L" style="fill:none;stroke:#27AAE1;opacity:1;stroke-width:0.5;" x1="263" x2="3036" y1="1556" y2="1556"/>
  <line id="Capline-L" style="fill:none;stroke:#27AAE1;opacity:1;stroke-width:0.5;" x1="263" x2="3036" y1="1485.54" y2="1485.54"/>
  <line id="left-margin-Ultralight-S" style="fill:none;stroke:#00AEEF;stroke-width:0.5;opacity:1.0;" x1="515.649" x2="515.649" y1="600.785" y2="720.121"/>
  <line id="right-margin-Ultralight-S" style="fill:none;stroke:#00AEEF;stroke-width:0.5;opacity:1.0;" x1="603.773" x2="603.773" y1="600.785" y2="720.121"/>
  <line id="left-margin-Regular-S" style="fill:none;stroke:#00AEEF;stroke-width:0.5;opacity:1.0;" x1="1403.58" x2="1403.58" y1="600.785" y2="720.121"/>
  <line id="right-margin-Regular-S" style="fill:none;stroke:#00AEEF;stroke-width:0.5;opacity:1.0;" x1="1496.11" x2="1496.11" y1="600.785" y2="720.121"/>
  <line id="left-margin-Black-S" style="fill:none;stroke:#00AEEF;stroke-width:0.5;opacity:1.0;" x1="2884.57" x2="2884.57" y1="600.785" y2="720.121"/>
  <line id="right-margin-Black-S" style="fill:none;stroke:#00AEEF;stroke-width:0.5;opacity:1.0;" x1="2982.23" x2="2982.23" y1="600.785" y2="720.121"/>
 </g>
 <g id="Symbols">
  <g id="Black-S" transform="matrix(1 0 0 1 2884.57 696)">
   <path class="SFSymbolsPreviewWireframe" d="M16.3775 8.0127C14.388 8.0127 12.7751 6.3923 12.7751 4.3934C12.7751 2.3945 14.388 0.7741 16.3775 0.7741C18.3671 0.7741 19.9799 2.3945 19.9799 4.3934C19.9799 6.3923 18.3671 8.0127 16.3775 8.0127ZM16.2852 7.6094C14.5297 7.6094 13.1989 6.1571 13.1989 4.3934C13.1989 2.6297 14.5297 1.1436 16.2852 1.1436C18.0406 1.1436 19.5561 2.6297 19.5561 4.3934C19.5561 6.1571 18.0406 7.6094 16.2852 7.6094ZM16.3775 8.1974C14.2851 8.1974 12.5904 6.4935 12.5904 4.3934C12.5904 2.2933 14.2851 0.5894 16.3775 0.5894C18.4699 0.5894 20.1647 2.2933 20.1647 4.3934C20.1647 6.4935 18.4699 8.1974 16.3775 8.1974ZM5.60866-48.6325L15.3844-48.5791L17.905-51.7797L8.41716-51.7651L5.60866-48.6325ZM20.3103-43.7666L20.1647-34.6958L15.5027-48.8011L17.8563-51.7318L20.3103-43.7666ZM10.4533-34.7153L5.62765-48.7364L15.4311-48.7263L20.1995-34.7052L10.4533-34.7153ZM20.5341-20.2861L10.2465-20.2861L10.1887-34.6958L20.4763-34.6958L20.5341-20.2861ZM16.3775-71.6098C14.388-71.6098 12.7751-73.2302 12.7751-75.2291C12.7751-77.228 14.388-78.8484 16.3775-78.8484C18.3671-78.8484 19.9799-77.228 19.9799-75.2291C19.9799-73.2302 18.3671-71.6098 16.3775-71.6098ZM16.3775-71.4251C14.2851-71.4251 12.5904-73.129 12.5904-75.2291C12.5904-77.3292 14.2851-79.0331 16.3775-79.0331C18.4699-79.0331 20.1647-77.3292 20.1647-75.2291C20.1647-73.129 18.4699-71.4251 16.3775-71.4251ZM15.9157-78.3891L15.9157-78.4789L16.6546-78.4789L16.6546-78.4106C18.2804-78.2696 19.5561-76.899 19.5561-75.2291C19.5561-73.5592 18.2804-72.1887 16.6546-72.0476L16.6546-72.0131L15.9157-72.0131L15.9157-72.0691C14.3791-72.2938 13.1989-73.623 13.1989-75.2291C13.1989-76.8352 14.3791-78.1644 15.9157-78.3891Z"/>
   <path class="monochrome-0 multicolor-0:tintColor hierarchical-0:primary SFSymbolsPreviewWireframe" d="M16.6546-72.2331L16.6546-78.2251C18.1775-78.0846 19.3714-76.7976 19.3714-75.2291C19.3714-73.6606 18.1775-72.3736 16.6546-72.2331ZM15.9157-78.2023L15.9157-72.2559C14.4821-72.4791 13.3837-73.7246 13.3837-75.2291C13.3837-76.7336 14.4821-77.9791 15.9157-78.2023ZM20.3305-20.4783L10.4486-20.4783L10.3924-34.5037L20.2742-34.5037L20.3305-20.4783ZM10.5906-34.8995L5.89185-48.5518L15.2934-48.5421L19.9363-34.8899L10.5906-34.8995ZM20.1219-43.7402L19.9946-35.8089L15.713-48.7635L17.7809-51.3385L20.1219-43.7402ZM15.2939-48.7686L17.5159-51.5901L8.50014-51.5763L6.02832-48.8193L15.2939-48.7686ZM16.6546 7.4019L16.6546 1.3517C18.1478 1.5413 19.3714 2.8585 19.3714 4.3934C19.3714 5.9262 18.1497 7.2165 16.6546 7.4019ZM13.3837 4.3934C13.3837 5.9372 14.4565 7.2152 15.9157 7.4014L15.9157 1.3522C14.4583 1.5427 13.3837 2.8474 13.3837 4.3934Z"/>
  </g>
  <g id="Regular-S" transform="matrix(1 0 0 1 1403.58 696)">
   <path class="SFSymbolsPreviewWireframe" d="M13.3775 8.0127C11.388 8.0127 9.77511 6.3923 9.77511 4.3934C9.77511 2.3945 11.388 0.7741 13.3775 0.7741C15.3671 0.7741 16.9799 2.3945 16.9799 4.3934C16.9799 6.3923 15.3671 8.0127 13.3775 8.0127ZM13.2852 7.6094C11.5297 7.6094 10.1989 6.1571 10.1989 4.3934C10.1989 2.6297 11.5297 1.1436 13.2852 1.1436C15.0406 1.1436 16.5561 2.6297 16.5561 4.3934C16.5561 6.1571 15.0406 7.6094 13.2852 7.6094ZM13.3775 8.1974C11.2851 8.1974 9.59038 6.4935 9.59038 4.3934C9.59038 2.2933 11.2851 0.5894 13.3775 0.5894C15.4699 0.5894 17.1647 2.2933 17.1647 4.3934C17.1647 6.4935 15.4699 8.1974 13.3775 8.1974ZM2.60866-48.6325L12.3844-48.5791L14.905-51.7797L5.41716-51.7651L2.60866-48.6325ZM17.3103-43.7666L17.1647-34.6958L12.5027-48.8011L14.8563-51.7318L17.3103-43.7666ZM7.45333-34.7153L2.62765-48.7364L12.4311-48.7263L17.1995-34.7052L7.45333-34.7153ZM17.5341-20.2861L7.24655-20.2861L7.18874-34.6958L17.4763-34.6958L17.5341-20.2861ZM13.3775-71.6098C11.388-71.6098 9.77511-73.2302 9.77511-75.2291C9.77511-77.228 11.388-78.8484 13.3775-78.8484C15.3671-78.8484 16.9799-77.228 16.9799-75.2291C16.9799-73.2302 15.3671-71.6098 13.3775-71.6098ZM13.3775-71.4251C11.2851-71.4251 9.59038-73.129 9.59038-75.2291C9.59038-77.3292 11.2851-79.0331 13.3775-79.0331C15.4699-79.0331 17.1647-77.3292 17.1647-75.2291C17.1647-73.129 15.4699-71.4251 13.3775-71.4251ZM12.9157-78.3891L12.9157-78.4789L13.6546-78.4789L13.6546-78.4106C15.2804-78.2696 16.5561-76.899 16.5561-75.2291C16.5561-73.5592 15.2804-72.1887 13.6546-72.0476L13.6546-72.0131L12.9157-72.0131L12.9157-72.0691C11.3791-72.2938 10.1989-73.623 10.1989-75.2291C10.1989-76.8352 11.3791-78.1644 12.9157-78.3891Z"/>
   <path class="monochrome-0 multicolor-0:tintColor hierarchical-0:primary SFSymbolsPreviewWireframe" d="M13.6546-72.2331L13.6546-78.2251C15.1775-78.0846 16.3714-76.7976 16.3714-75.2291C16.3714-73.6606 15.1775-72.3736 13.6546-72.2331ZM12.9157-78.2023L12.9157-72.2559C11.4821-72.4791 10.3837-73.7246 10.3837-75.2291C10.3837-76.7336 11.4821-77.9791 12.9157-78.2023ZM17.3305-20.4783L7.44863-20.4783L7.39236-34.5037L17.2742-34.5037L17.3305-20.4783ZM7.59056-34.8995L2.89185-48.5518L12.2934-48.5421L16.9363-34.8899L7.59056-34.8995ZM17.1219-43.7402L16.9946-35.8089L12.713-48.7635L14.7809-51.3385L17.1219-43.7402ZM12.2939-48.7686L14.5159-51.5901L5.50014-51.5763L3.02832-48.8193L12.2939-48.7686ZM13.6546 7.4019L13.6546 1.3517C15.1478 1.5413 16.3714 2.8585 16.3714 4.3934C16.3714 5.9262 15.1497 7.2165 13.6546 7.4019ZM10.3837 4.3934C10.3837 5.9372 11.4565 7.2152 12.9157 7.4014L12.9157 1.3522C11.4583 1.5427 10.3837 2.8474 10.3837 4.3934Z"/>
  </g>
  <g id="Ultralight-S" transform="matrix(1 0 0 1 515.649 696)">
   <path class="SFSymbolsPreviewWireframe" d="M11.3775 8.0127C9.388 8.0127 7.77511 6.3923 7.77511 4.3934C7.77511 2.3945 9.388 0.7741 11.3775 0.7741C13.3671 0.7741 14.9799 2.3945 14.9799 4.3934C14.9799 6.3923 13.3671 8.0127 11.3775 8.0127ZM11.2852 7.6094C9.5297 7.6094 8.1989 6.1571 8.1989 4.3934C8.1989 2.6297 9.5297 1.1436 11.2852 1.1436C13.0406 1.1436 14.5561 2.6297 14.5561 4.3934C14.5561 6.1571 13.0406 7.6094 11.2852 7.6094ZM11.3775 8.1974C9.2851 8.1974 7.59038 6.4935 7.59038 4.3934C7.59038 2.2933 9.2851 0.5894 11.3775 0.5894C13.4699 0.5894 15.1647 2.2933 15.1647 4.3934C15.1647 6.4935 13.4699 8.1974 11.3775 8.1974ZM0.60866-48.6325L10.3844-48.5791L12.905-51.7797L3.41716-51.7651L0.60866-48.6325ZM15.3103-43.7666L15.1647-34.6958L10.5027-48.8011L12.8563-51.7318L15.3103-43.7666ZM5.45333-34.7153L0.62765-48.7364L10.4311-48.7263L15.1995-34.7052L5.45333-34.7153ZM15.5341-20.2861L5.24655-20.2861L5.18874-34.6958L15.4763-34.6958L15.5341-20.2861ZM11.3775-71.6098C9.388-71.6098 7.77511-73.2302 7.77511-75.2291C7.77511-77.228 9.388-78.8484 11.3775-78.8484C13.3671-78.8484 14.9799-77.228 14.9799-75.2291C14.9799-73.2302 13.3671-71.6098 11.3775-71.6098ZM11.3775-71.4251C9.2851-71.4251 7.59038-73.129 7.59038-75.2291C7.59038-77.3292 9.2851-79.0331 11.3775-79.0331C13.4699-79.0331 15.1647-77.3292 15.1647-75.2291C15.1647-73.129 13.4699-71.4251 11.3775-71.4251ZM10.9157-78.3891L10.9157-78.4789L11.6546-78.4789L11.6546-78.4106C13.2804-78.2696 14.5561-76.899 14.5561-75.2291C14.5561-73.5592 13.2804-72.1887 11.6546-72.0476L11.6546-72.0131L10.9157-72.0131L10.9157-72.0691C9.3791-72.2938 8.1989-73.623 8.1989-75.2291C8.1989-76.8352 9.3791-78.1644 10.9157-78.3891Z"/>
   <path class="monochrome-0 multicolor-0:tintColor hierarchical-0:primary SFSymbolsPreviewWireframe" d="M11.6546-72.2331L11.6546-78.2251C13.1775-78.0846 14.3714-76.7976 14.3714-75.2291C14.3714-73.6606 13.1775-72.3736 11.6546-72.2331ZM10.9157-78.2023L10.9157-72.2559C9.4821-72.4791 8.3837-73.7246 8.3837-75.2291C8.3837-76.7336 9.4821-77.9791 10.9157-78.2023ZM15.3305-20.4783L5.44863-20.4783L5.39236-34.5037L15.2742-34.5037L15.3305-20.4783ZM5.59056-34.8995L0.89185-48.5518L10.2934-48.5421L14.9363-34.8899L5.59056-34.8995ZM15.1219-43.7402L14.9946-35.8089L10.713-48.7635L12.7809-51.3385L15.1219-43.7402ZM10.2939-48.7686L12.5159-51.5901L3.50014-51.5763L1.02832-48.8193L10.2939-48.7686ZM11.6546 7.4019L11.6546 1.3517C13.1478 1.5413 14.3714 2.8585 14.3714 4.3934C14.3714 5.9262 13.1497 7.2165 11.6546 7.4019ZM8.3837 4.3934C8.3837 5.9372 9.4565 7.2152 10.9157 7.4014L10.9157 1.3522C9.4583 1.5427 8.3837 2.8474 8.3837 4.3934Z"/>
  </g>
 </g>
</svg>
