<?xml version="1.0" encoding="UTF-8"?>
<svg height="600" width="800" xmlns="http://www.w3.org/2000/svg" xmlns:xlink="http://www.w3.org/1999/xlink">
    <g id="Notes" font-family="'LucidaGrande', 'Lucida Grande', sans-serif" font-size="13">
        <rect fill="white" height="600.0" width="800.0" x="0.0" y="0.0" />
        <g font-size="13">
            <text x="18.0" y="176.0">Small</text>
            <text x="18.0" y="376.0">Medium</text>
            <text x="18.0" y="576.0">Large</text>
        </g>
        <g font-size="9">
            <text x="250.0" y="30.0">Ultralight</text>
            <text x="450.0" y="30.0">Regular</text>
            <text x="650.0" y="30.0">Black</text>
            <text id="template-version" fill="#505050" text-anchor="end" x="785.0" y="575.0">Template v.3.0</text>
            <a href="https://github.com/swhitty/SwiftDraw">
                <text fill="#505050" text-anchor="end" x="785.0" y="590.0">https://github.com/swhitty/SwiftDraw</text>
            </a>
        </g>
    </g>
    <g id="Guides" stroke="rgb(39, 170, 225)" stroke-width="0.5">
        <path id="Capline-S" d="M18,76 l800,0" />
        <path id="H-reference" d="M85,145.755 L87.685,145.755 L113.369,79.287 L114.052,79.287 L114.052,76 L112.148,76 L85,145.755 Z M95.693,121.536 L130.996,121.536 L130.263,119.313 L96.474,119.313 L95.693,121.536 Z M139.15,145.755 L141.787,145.755 L114.638,76 L113.466,76 L113.466,79.287 L139.15,145.755 Z" stroke="none" />
        <path id="Baseline-S" d="M18,146 l800,0" />
        <path id="left-margin-Ultralight-S" d="M221,56 l0,110" />
        <path id="right-margin-Ultralight-S" d="M309,56 l0,110" />
        <path id="left-margin-Regular-S" d="M421,56 l0,110" />
        <path id="right-margin-Regular-S" d="M509,56 l0,110" />
        <path id="left-margin-Black-S" d="M621,56 l0,110" />
        <path id="right-margin-Black-S" d="M709,56 l0,110" />
        <path id="Capline-M" d="M18,276 l800,0" />
        <path id="Baseline-M" d="M18,346 l800,0" />
        <path id="Capline-L" d="M18,476 l800,0" />
        <path id="Baseline-L" d="M18,546 l800,0" />
    </g>
    <g id="Symbols">
        <g id="Ultralight-S">
            <path d="M273.061,146 L273.061,76 L271.788,76 L271.788,146 L273.061,146 Z M257.788,146 L257.788,76 L256.515,76 L256.515,146 L257.788,146 Z M244.424,119.273 C244.424,107.909 253.636,98.697 265,98.697 C276.364,98.697 285.576,107.909 285.576,119.273 C285.576,130.636 276.364,139.848 265,139.848 C253.636,139.848 244.424,130.636 244.424,119.273 Z M243.152,119.273 C243.152,131.339 252.933,141.121 265,141.121 C277.067,141.121 286.848,131.339 286.848,119.273 C286.848,107.206 277.067,97.424 265,97.424 C252.933,97.424 243.152,107.206 243.152,119.273 Z" />
        </g>
        <g id="Regular-S">
            <path d="M473.061,146 L473.061,76 L471.788,76 L471.788,146 L473.061,146 Z M457.788,146 L457.788,76 L456.515,76 L456.515,146 L457.788,146 Z M444.424,119.273 C444.424,107.909 453.636,98.697 465,98.697 C476.364,98.697 485.576,107.909 485.576,119.273 C485.576,130.636 476.364,139.848 465,139.848 C453.636,139.848 444.424,130.636 444.424,119.273 Z M443.152,119.273 C443.152,131.339 452.933,141.121 465,141.121 C477.067,141.121 486.848,131.339 486.848,119.273 C486.848,107.206 477.067,97.424 465,97.424 C452.933,97.424 443.152,107.206 443.152,119.273 Z" />
        </g>
        <g id="Black-S">
            <path d="M673.061,146 L673.061,76 L671.788,76 L671.788,146 L673.061,146 Z M657.788,146 L657.788,76 L656.515,76 L656.515,146 L657.788,146 Z M644.424,119.273 C644.424,107.909 653.636,98.697 665,98.697 C676.364,98.697 685.576,107.909 685.576,119.273 C685.576,130.636 676.364,139.848 665,139.848 C653.636,139.848 644.424,130.636 644.424,119.273 Z M643.151,119.273 C643.151,131.339 652.933,141.121 665,141.121 C677.067,141.121 686.849,131.339 686.849,119.273 C686.849,107.206 677.067,97.424 665,97.424 C652.933,97.424 643.151,107.206 643.151,119.273 Z" />
        </g>
    </g>
</svg>