<?xml version="1.0" encoding="UTF-8"?>
<svg height="600" width="800" xmlns="http://www.w3.org/2000/svg" xmlns:xlink="http://www.w3.org/1999/xlink">
    <g id="Notes" font-family="'LucidaGrande', 'Lucida Grande', sans-serif" font-size="13">
        <rect fill="white" height="600.0" width="800.0" x="0.0" y="0.0" />
        <g font-size="13">
            <text x="18.0" y="176.0">Small</text>
            <text x="18.0" y="376.0">Medium</text>
            <text x="18.0" y="576.0">Large</text>
        </g>
        <g font-size="9">
            <text x="250.0" y="30.0">Ultralight</text>
            <text x="450.0" y="30.0">Regular</text>
            <text x="650.0" y="30.0">Black</text>
            <text id="template-version" fill="#505050" text-anchor="end" x="785.0" y="575.0">Template v.3.0</text>
            <a href="https://github.com/swhitty/SwiftDraw">
                <text fill="#505050" text-anchor="end" x="785.0" y="590.0">https://github.com/swhitty/SwiftDraw</text>
            </a>
        </g>
    </g>
    <g id="Guides" stroke="rgb(39, 170, 225)" stroke-width="0.5">
        <path id="Capline-S" d="M18,76 l800,0" />
        <path id="H-reference" d="M85,145.755 L87.685,145.755 L113.369,79.287 L114.052,79.287 L114.052,76 L112.148,76 L85,145.755 Z M95.693,121.536 L130.996,121.536 L130.263,119.313 L96.474,119.313 L95.693,121.536 Z M139.15,145.755 L141.787,145.755 L114.638,76 L113.466,76 L113.466,79.287 L139.15,145.755 Z" stroke="none" />
        <path id="Baseline-S" d="M18,146 l800,0" />
        <path id="left-margin-Ultralight-S" d="M221,56 l0,110" />
        <path id="right-margin-Ultralight-S" d="M309,56 l0,110" />
        <path id="left-margin-Regular-S" d="M421,56 l0,110" />
        <path id="right-margin-Regular-S" d="M509,56 l0,110" />
        <path id="left-margin-Black-S" d="M621,56 l0,110" />
        <path id="right-margin-Black-S" d="M709,56 l0,110" />
        <path id="Capline-M" d="M18,276 l800,0" />
        <path id="Baseline-M" d="M18,346 l800,0" />
        <path id="Capline-L" d="M18,476 l800,0" />
        <path id="Baseline-L" d="M18,546 l800,0" />
    </g>
    <g id="Symbols">
        <g id="Ultralight-S">
            <path d="M251.002,78.333 L251.002,85.665 L251.002,86.165 L251.502,86.165 L256.834,86.165 L257.334,86.165 L257.334,85.665 L257.334,82.832 L257.211,83.162 L258.377,81.829 L258.001,81.999 L271.666,81.999 L271.29,81.829 L272.456,83.162 L272.332,82.832 L272.332,85.665 L272.332,86.165 L272.832,86.165 L278.165,86.165 L278.665,86.165 L278.665,85.665 L278.665,78.333 L278.665,78.14 L278.535,77.997 L276.868,76.164 L276.72,76 L276.499,76 L253.168,76 L252.947,76 L252.798,76.164 L251.132,77.997 L251.002,78.14 L251.002,78.333 Z M252.002,78.333 L251.872,78.669 L253.538,76.836 L253.168,77 L276.499,77 L276.129,76.836 L277.795,78.669 L277.665,78.333 L277.665,85.665 L278.165,85.166 L272.832,85.166 L273.332,85.665 L273.332,82.832 L273.332,82.645 L273.209,82.503 L272.042,81.17 L271.893,80.999 L271.666,80.999 L258.001,80.999 L257.774,80.999 L257.625,81.17 L256.458,82.503 L256.334,82.645 L256.334,82.832 L256.334,85.665 L256.834,85.166 L251.502,85.166 L252.002,85.665 L252.002,78.333 Z" />
            <path d="M254.168,79.5 C254.168,79.223 254.392,79 254.668,79 C254.944,79 255.168,79.223 255.168,79.5 C255.168,79.776 254.944,79.999 254.668,79.999 C254.392,79.999 254.168,79.776 254.168,79.5 Z M253.168,79.5 C253.168,80.328 253.84,80.999 254.668,80.999 C255.496,80.999 256.168,80.328 256.168,79.5 C256.168,78.671 255.496,78 254.668,78 C253.84,78 253.168,78.671 253.168,79.5 Z" />
            <path d="M274.499,79.333 C274.499,79.057 274.723,78.833 274.999,78.833 C275.275,78.833 275.499,79.057 275.499,79.333 C275.499,79.609 275.275,79.833 274.999,79.833 C274.723,79.833 274.499,79.609 274.499,79.333 Z M273.499,79.333 C273.499,80.161 274.17,80.833 274.999,80.833 C275.827,80.833 276.499,80.161 276.499,79.333 C276.499,78.505 275.827,77.833 274.999,77.833 C274.17,77.833 273.499,78.505 273.499,79.333 Z" />
            <path d="M278.668,143.658 L278.665,136.326 L278.665,135.826 L278.165,135.826 L272.832,135.828 L272.332,135.828 L272.332,136.328 L272.333,139.161 L272.457,138.832 L271.291,140.165 L271.667,139.994 L258.002,139.999 L258.378,140.17 L257.211,138.837 L257.335,139.166 L257.334,136.333 L257.334,135.833 L256.834,135.833 L251.501,135.835 L251.002,135.835 L251.002,136.335 L251.004,143.668 L251.004,143.861 L251.134,144.004 L252.802,145.836 L252.95,146 L253.172,146 L276.502,145.992 L276.723,145.992 L276.872,145.828 L278.538,143.994 L278.668,143.851 L278.668,143.658 Z M277.668,143.658 L277.798,143.322 L276.132,145.156 L276.502,144.992 L253.171,145 L253.541,145.164 L251.874,143.331 L252.004,143.667 L252.002,136.335 L251.502,136.835 L256.835,136.833 L256.334,136.333 L256.335,139.166 L256.335,139.354 L256.459,139.495 L257.626,140.828 L257.776,140.999 L258.003,140.999 L271.667,140.994 L271.894,140.994 L272.044,140.823 L273.21,139.49 L273.333,139.348 L273.333,139.161 L273.332,136.328 L272.833,136.828 L278.165,136.826 L277.665,136.326 L277.668,143.658 Z" />
            <path d="M275.499,142.659 C275.499,142.935 275.276,143.159 274.999,143.159 C274.723,143.159 274.499,142.935 274.499,142.659 C274.499,142.383 274.723,142.159 274.999,142.159 C275.275,142.159 275.499,142.383 275.499,142.659 Z M276.499,142.658 C276.499,141.83 275.827,141.159 274.999,141.159 C274.17,141.159 273.499,141.831 273.499,142.66 C273.5,143.488 274.171,144.159 275,144.159 C275.828,144.159 276.499,143.487 276.499,142.658 Z" />
            <path d="M255.168,142.659 C255.169,142.935 254.945,143.159 254.669,143.159 C254.393,143.159 254.169,142.935 254.169,142.659 C254.168,142.383 254.392,142.159 254.668,142.159 C254.944,142.159 255.168,142.383 255.168,142.659 Z M256.168,142.658 C256.168,141.83 255.496,141.159 254.668,141.159 C253.84,141.159 253.168,141.831 253.169,142.66 C253.169,143.488 253.841,144.159 254.669,144.159 C255.497,144.159 256.169,143.487 256.168,142.658 Z" />
            <path d="M281.498,86.499 L281.498,135.159 L281.998,134.659 L248.002,134.659 L248.502,135.159 L248.502,86.499 L248.002,86.999 L281.998,86.999 L281.498,86.499 Z M282.498,86.499 L282.498,85.999 L281.998,85.999 L248.002,85.999 L247.502,85.999 L247.502,86.499 L247.502,135.159 L247.502,135.659 L248.002,135.659 L281.998,135.659 L282.498,135.659 L282.498,135.159 L282.498,86.499 Z" />
            <path d="M264.833,138.992 L263.722,138.992 L263.804,139.014 L263.289,138.724 L262.8,138.307 L262.285,137.872 L262.308,137.896 L261.965,137.461 L262,137.565 L262,135.826 L261.834,135.993 L264.833,135.993 L264.833,135.659 L261.834,135.659 L261.667,135.659 L261.667,135.826 L261.667,137.565 L261.667,137.622 L261.703,137.668 L262.046,138.103 L262.07,138.127 L262.585,138.562 L263.1,138.996 L263.641,139.304 L263.679,139.325 L263.722,139.325 L264.833,139.325 L264.833,138.992 Z" />
            <path d="M263.833,139.325 L264.944,139.325 L264.988,139.325 L265.026,139.304 L265.541,139.014 L266.082,138.562 L266.597,138.127 L266.621,138.103 L266.964,137.668 L267,137.622 L267,137.565 L267,135.826 L267,135.659 L266.833,135.659 L263.833,135.659 L263.833,135.993 L266.833,135.993 L266.666,135.826 L266.666,137.565 L266.702,137.461 L266.359,137.896 L266.382,137.872 L265.867,138.307 L265.352,138.741 L264.863,139.014 L264.944,138.992 L263.833,138.992 L263.833,139.325 Z" />
            <path d="M264.167,137.326 C264.167,137.234 264.241,137.159 264.333,137.159 C264.425,137.159 264.5,137.234 264.5,137.326 C264.5,137.418 264.425,137.492 264.333,137.492 C264.241,137.492 264.167,137.418 264.167,137.326 Z M263.5,137.326 C263.5,137.786 263.873,138.159 264.333,138.159 C264.794,138.159 265.167,137.786 265.167,137.326 C265.167,136.865 264.794,136.492 264.333,136.492 C263.873,136.492 263.5,136.865 263.5,137.326 Z" />
            <path d="M264.5,82.999 L265.611,82.999 L265.529,82.978 L266.044,83.268 L266.534,83.684 L267.049,84.119 L267.026,84.095 L267.369,84.53 L267.333,84.426 L267.333,86.165 L267.5,85.999 L264.5,85.999 L264.5,86.332 L267.5,86.332 L267.666,86.332 L267.666,86.165 L267.666,84.426 L267.666,84.369 L267.63,84.323 L267.287,83.888 L267.264,83.864 L266.749,83.43 L266.234,82.995 L265.693,82.687 L265.655,82.666 L265.611,82.666 L264.5,82.666 L264.5,82.999 Z" />
            <path d="M265.5,82.666 L264.389,82.666 L264.345,82.666 L264.307,82.687 L263.792,82.977 L263.251,83.43 L262.736,83.864 L262.713,83.888 L262.37,84.323 L262.334,84.369 L262.334,84.426 L262.334,86.165 L262.334,86.332 L262.5,86.332 L265.5,86.332 L265.5,85.999 L262.5,85.999 L262.667,86.165 L262.667,84.426 L262.631,84.53 L262.974,84.095 L262.951,84.119 L263.466,83.684 L263.981,83.25 L264.471,82.978 L264.389,82.999 L265.5,82.999 L265.5,82.666 Z" />
            <path d="M265.167,84.666 C265.167,84.758 265.092,84.832 265,84.832 C264.908,84.832 264.833,84.758 264.833,84.666 C264.833,84.574 264.908,84.499 265,84.499 C265.092,84.499 265.167,84.574 265.167,84.666 Z M265.833,84.666 C265.833,84.205 265.46,83.832 265,83.832 C264.54,83.832 264.167,84.205 264.167,84.666 C264.167,85.126 264.54,85.499 265,85.499 C265.46,85.499 265.833,85.126 265.833,84.666 Z" />
        </g>
        <g id="Regular-S">
            <path d="M451.002,78.333 L451.002,85.665 L451.002,86.165 L451.502,86.165 L456.834,86.165 L457.334,86.165 L457.334,85.665 L457.334,82.832 L457.211,83.162 L458.377,81.829 L458.001,81.999 L471.666,81.999 L471.29,81.829 L472.456,83.162 L472.332,82.832 L472.332,85.665 L472.332,86.165 L472.832,86.165 L478.165,86.165 L478.665,86.165 L478.665,85.665 L478.665,78.333 L478.665,78.14 L478.535,77.997 L476.868,76.164 L476.72,76 L476.499,76 L453.168,76 L452.947,76 L452.798,76.164 L451.132,77.997 L451.002,78.14 L451.002,78.333 Z M452.002,78.333 L451.872,78.669 L453.538,76.836 L453.168,77 L476.499,77 L476.129,76.836 L477.795,78.669 L477.665,78.333 L477.665,85.665 L478.165,85.166 L472.832,85.166 L473.332,85.665 L473.332,82.832 L473.332,82.645 L473.209,82.503 L472.042,81.17 L471.893,80.999 L471.666,80.999 L458.001,80.999 L457.774,80.999 L457.625,81.17 L456.458,82.503 L456.334,82.645 L456.334,82.832 L456.334,85.665 L456.834,85.166 L451.502,85.166 L452.002,85.665 L452.002,78.333 Z" />
            <path d="M454.168,79.5 C454.168,79.223 454.392,79 454.668,79 C454.944,79 455.168,79.223 455.168,79.5 C455.168,79.776 454.944,79.999 454.668,79.999 C454.392,79.999 454.168,79.776 454.168,79.5 Z M453.168,79.5 C453.168,80.328 453.84,80.999 454.668,80.999 C455.496,80.999 456.168,80.328 456.168,79.5 C456.168,78.671 455.496,78 454.668,78 C453.84,78 453.168,78.671 453.168,79.5 Z" />
            <path d="M474.499,79.333 C474.499,79.057 474.723,78.833 474.999,78.833 C475.275,78.833 475.499,79.057 475.499,79.333 C475.499,79.609 475.275,79.833 474.999,79.833 C474.723,79.833 474.499,79.609 474.499,79.333 Z M473.499,79.333 C473.499,80.161 474.17,80.833 474.999,80.833 C475.827,80.833 476.499,80.161 476.499,79.333 C476.499,78.505 475.827,77.833 474.999,77.833 C474.17,77.833 473.499,78.505 473.499,79.333 Z" />
            <path d="M478.668,143.658 L478.665,136.326 L478.665,135.826 L478.165,135.826 L472.832,135.828 L472.332,135.828 L472.332,136.328 L472.333,139.161 L472.457,138.832 L471.291,140.165 L471.667,139.994 L458.002,139.999 L458.378,140.17 L457.211,138.837 L457.335,139.166 L457.334,136.333 L457.334,135.833 L456.834,135.833 L451.501,135.835 L451.002,135.835 L451.002,136.335 L451.004,143.668 L451.004,143.861 L451.134,144.004 L452.802,145.836 L452.95,146 L453.172,146 L476.502,145.992 L476.723,145.992 L476.872,145.828 L478.538,143.994 L478.668,143.851 L478.668,143.658 Z M477.668,143.658 L477.798,143.322 L476.132,145.156 L476.502,144.992 L453.171,145 L453.541,145.164 L451.874,143.331 L452.004,143.667 L452.002,136.335 L451.502,136.835 L456.835,136.833 L456.334,136.333 L456.335,139.166 L456.335,139.354 L456.459,139.495 L457.626,140.828 L457.776,140.999 L458.003,140.999 L471.667,140.994 L471.894,140.994 L472.044,140.823 L473.21,139.49 L473.333,139.348 L473.333,139.161 L473.332,136.328 L472.833,136.828 L478.165,136.826 L477.665,136.326 L477.668,143.658 Z" />
            <path d="M475.499,142.659 C475.499,142.935 475.276,143.159 474.999,143.159 C474.723,143.159 474.499,142.935 474.499,142.659 C474.499,142.383 474.723,142.159 474.999,142.159 C475.275,142.159 475.499,142.383 475.499,142.659 Z M476.499,142.658 C476.499,141.83 475.827,141.159 474.999,141.159 C474.17,141.159 473.499,141.831 473.499,142.66 C473.5,143.488 474.171,144.159 475,144.159 C475.828,144.159 476.499,143.487 476.499,142.658 Z" />
            <path d="M455.168,142.659 C455.169,142.935 454.945,143.159 454.669,143.159 C454.393,143.159 454.169,142.935 454.169,142.659 C454.168,142.383 454.392,142.159 454.668,142.159 C454.944,142.159 455.168,142.383 455.168,142.659 Z M456.168,142.658 C456.168,141.83 455.496,141.159 454.668,141.159 C453.84,141.159 453.168,141.831 453.169,142.66 C453.169,143.488 453.841,144.159 454.669,144.159 C455.497,144.159 456.169,143.487 456.168,142.658 Z" />
            <path d="M481.498,86.499 L481.498,135.159 L481.998,134.659 L448.002,134.659 L448.502,135.159 L448.502,86.499 L448.002,86.999 L481.998,86.999 L481.498,86.499 Z M482.498,86.499 L482.498,85.999 L481.998,85.999 L448.002,85.999 L447.502,85.999 L447.502,86.499 L447.502,135.159 L447.502,135.659 L448.002,135.659 L481.998,135.659 L482.498,135.659 L482.498,135.159 L482.498,86.499 Z" />
            <path d="M464.833,138.992 L463.722,138.992 L463.804,139.014 L463.289,138.724 L462.8,138.307 L462.285,137.872 L462.308,137.896 L461.965,137.461 L462,137.565 L462,135.826 L461.834,135.993 L464.833,135.993 L464.833,135.659 L461.834,135.659 L461.667,135.659 L461.667,135.826 L461.667,137.565 L461.667,137.622 L461.703,137.668 L462.046,138.103 L462.07,138.127 L462.585,138.562 L463.1,138.996 L463.641,139.304 L463.679,139.325 L463.722,139.325 L464.833,139.325 L464.833,138.992 Z" />
            <path d="M463.833,139.325 L464.944,139.325 L464.988,139.325 L465.026,139.304 L465.541,139.014 L466.082,138.562 L466.597,138.127 L466.621,138.103 L466.964,137.668 L467,137.622 L467,137.565 L467,135.826 L467,135.659 L466.833,135.659 L463.833,135.659 L463.833,135.993 L466.833,135.993 L466.666,135.826 L466.666,137.565 L466.702,137.461 L466.359,137.896 L466.382,137.872 L465.867,138.307 L465.352,138.741 L464.863,139.014 L464.944,138.992 L463.833,138.992 L463.833,139.325 Z" />
            <path d="M464.167,137.326 C464.167,137.234 464.241,137.159 464.333,137.159 C464.425,137.159 464.5,137.234 464.5,137.326 C464.5,137.418 464.425,137.492 464.333,137.492 C464.241,137.492 464.167,137.418 464.167,137.326 Z M463.5,137.326 C463.5,137.786 463.873,138.159 464.333,138.159 C464.794,138.159 465.167,137.786 465.167,137.326 C465.167,136.865 464.794,136.492 464.333,136.492 C463.873,136.492 463.5,136.865 463.5,137.326 Z" />
            <path d="M464.5,82.999 L465.611,82.999 L465.529,82.978 L466.044,83.268 L466.534,83.684 L467.049,84.119 L467.026,84.095 L467.369,84.53 L467.333,84.426 L467.333,86.165 L467.5,85.999 L464.5,85.999 L464.5,86.332 L467.5,86.332 L467.666,86.332 L467.666,86.165 L467.666,84.426 L467.666,84.369 L467.63,84.323 L467.287,83.888 L467.264,83.864 L466.749,83.43 L466.234,82.995 L465.693,82.687 L465.655,82.666 L465.611,82.666 L464.5,82.666 L464.5,82.999 Z" />
            <path d="M465.5,82.666 L464.389,82.666 L464.345,82.666 L464.307,82.687 L463.792,82.977 L463.251,83.43 L462.736,83.864 L462.713,83.888 L462.37,84.323 L462.334,84.369 L462.334,84.426 L462.334,86.165 L462.334,86.332 L462.5,86.332 L465.5,86.332 L465.5,85.999 L462.5,85.999 L462.667,86.165 L462.667,84.426 L462.631,84.53 L462.974,84.095 L462.951,84.119 L463.466,83.684 L463.981,83.25 L464.471,82.978 L464.389,82.999 L465.5,82.999 L465.5,82.666 Z" />
            <path d="M465.167,84.666 C465.167,84.758 465.092,84.832 465,84.832 C464.908,84.832 464.833,84.758 464.833,84.666 C464.833,84.574 464.908,84.499 465,84.499 C465.092,84.499 465.167,84.574 465.167,84.666 Z M465.833,84.666 C465.833,84.205 465.46,83.832 465,83.832 C464.54,83.832 464.167,84.205 464.167,84.666 C464.167,85.126 464.54,85.499 465,85.499 C465.46,85.499 465.833,85.126 465.833,84.666 Z" />
        </g>
        <g id="Black-S">
            <path d="M651.002,78.333 L651.002,85.665 L651.002,86.165 L651.502,86.165 L656.834,86.165 L657.334,86.165 L657.334,85.665 L657.334,82.832 L657.211,83.162 L658.377,81.829 L658.001,81.999 L671.666,81.999 L671.29,81.829 L672.456,83.162 L672.332,82.832 L672.332,85.665 L672.332,86.165 L672.832,86.165 L678.165,86.165 L678.665,86.165 L678.665,85.665 L678.665,78.333 L678.665,78.14 L678.535,77.997 L676.869,76.164 L676.72,76 L676.499,76 L653.168,76 L652.947,76 L652.798,76.164 L651.132,77.997 L651.002,78.14 L651.002,78.333 Z M652.002,78.333 L651.872,78.669 L653.538,76.836 L653.168,77 L676.499,77 L676.129,76.836 L677.795,78.669 L677.665,78.333 L677.665,85.665 L678.165,85.166 L672.832,85.166 L673.332,85.665 L673.332,82.832 L673.332,82.645 L673.209,82.503 L672.042,81.17 L671.893,80.999 L671.666,80.999 L658.001,80.999 L657.774,80.999 L657.625,81.17 L656.458,82.503 L656.334,82.645 L656.334,82.832 L656.334,85.665 L656.834,85.166 L651.502,85.166 L652.002,85.665 L652.002,78.333 Z" />
            <path d="M654.168,79.5 C654.168,79.223 654.392,79 654.668,79 C654.944,79 655.168,79.223 655.168,79.5 C655.168,79.776 654.944,79.999 654.668,79.999 C654.392,79.999 654.168,79.776 654.168,79.5 Z M653.168,79.5 C653.168,80.328 653.84,80.999 654.668,80.999 C655.496,80.999 656.168,80.328 656.168,79.5 C656.168,78.671 655.496,78 654.668,78 C653.84,78 653.168,78.671 653.168,79.5 Z" />
            <path d="M674.499,79.333 C674.499,79.057 674.723,78.833 674.999,78.833 C675.275,78.833 675.499,79.057 675.499,79.333 C675.499,79.609 675.275,79.833 674.999,79.833 C674.723,79.833 674.499,79.609 674.499,79.333 Z M673.499,79.333 C673.499,80.161 674.17,80.833 674.999,80.833 C675.827,80.833 676.499,80.161 676.499,79.333 C676.499,78.505 675.827,77.833 674.999,77.833 C674.17,77.833 673.499,78.505 673.499,79.333 Z" />
            <path d="M678.668,143.658 L678.665,136.326 L678.665,135.826 L678.165,135.826 L672.832,135.828 L672.332,135.828 L672.332,136.328 L672.333,139.161 L672.457,138.832 L671.291,140.165 L671.667,139.994 L658.002,139.999 L658.378,140.17 L657.211,138.837 L657.335,139.166 L657.334,136.333 L657.334,135.833 L656.834,135.833 L651.502,135.835 L651.002,135.835 L651.002,136.335 L651.004,143.668 L651.004,143.861 L651.134,144.004 L652.802,145.836 L652.95,146 L653.172,146 L676.502,145.992 L676.723,145.992 L676.872,145.828 L678.538,143.994 L678.668,143.851 L678.668,143.658 Z M677.668,143.658 L677.798,143.322 L676.132,145.156 L676.502,144.992 L653.171,145 L653.541,145.164 L651.874,143.331 L652.004,143.667 L652.002,136.335 L651.502,136.835 L656.835,136.833 L656.334,136.333 L656.335,139.166 L656.336,139.354 L656.459,139.495 L657.626,140.828 L657.776,140.999 L658.003,140.999 L671.667,140.994 L671.894,140.994 L672.044,140.823 L673.21,139.49 L673.333,139.348 L673.333,139.161 L673.332,136.328 L672.833,136.828 L678.165,136.826 L677.665,136.326 L677.668,143.658 Z" />
            <path d="M675.499,142.659 C675.499,142.935 675.276,143.159 675,143.159 C674.723,143.159 674.499,142.935 674.499,142.659 C674.499,142.383 674.723,142.159 674.999,142.159 C675.275,142.159 675.499,142.383 675.499,142.659 Z M676.499,142.658 C676.499,141.83 675.827,141.159 674.999,141.159 C674.17,141.159 673.499,141.831 673.5,142.66 C673.5,143.488 674.172,144.159 675,144.159 C675.828,144.159 676.499,143.487 676.499,142.658 Z" />
            <path d="M655.168,142.659 C655.169,142.935 654.945,143.159 654.669,143.159 C654.393,143.159 654.169,142.935 654.169,142.659 C654.168,142.383 654.392,142.159 654.668,142.159 C654.944,142.159 655.168,142.383 655.168,142.659 Z M656.168,142.658 C656.168,141.83 655.496,141.159 654.668,141.159 C653.84,141.159 653.168,141.831 653.169,142.66 C653.169,143.488 653.841,144.159 654.669,144.159 C655.497,144.159 656.169,143.487 656.168,142.658 Z" />
            <path d="M681.498,86.499 L681.498,135.159 L681.998,134.659 L648.002,134.659 L648.502,135.159 L648.502,86.499 L648.002,86.999 L681.998,86.999 L681.498,86.499 Z M682.498,86.499 L682.498,85.999 L681.998,85.999 L648.002,85.999 L647.502,85.999 L647.502,86.499 L647.502,135.159 L647.502,135.659 L648.002,135.659 L681.998,135.659 L682.498,135.659 L682.498,135.159 L682.498,86.499 Z" />
            <path d="M664.833,138.992 L663.722,138.992 L663.804,139.014 L663.289,138.724 L662.8,138.307 L662.285,137.872 L662.308,137.896 L661.965,137.461 L662,137.565 L662,135.826 L661.834,135.993 L664.833,135.993 L664.833,135.659 L661.834,135.659 L661.667,135.659 L661.667,135.826 L661.667,137.565 L661.667,137.622 L661.703,137.668 L662.046,138.103 L662.07,138.127 L662.585,138.562 L663.1,138.996 L663.641,139.304 L663.679,139.325 L663.722,139.325 L664.833,139.325 L664.833,138.992 Z" />
            <path d="M663.833,139.325 L664.944,139.325 L664.988,139.325 L665.026,139.304 L665.541,139.014 L666.082,138.562 L666.597,138.127 L666.621,138.103 L666.964,137.668 L667,137.622 L667,137.565 L667,135.826 L667,135.659 L666.833,135.659 L663.833,135.659 L663.833,135.993 L666.833,135.993 L666.667,135.826 L666.667,137.565 L666.702,137.461 L666.359,137.896 L666.382,137.872 L665.867,138.307 L665.352,138.741 L664.863,139.014 L664.944,138.992 L663.833,138.992 L663.833,139.325 Z" />
            <path d="M664.167,137.326 C664.167,137.234 664.241,137.159 664.333,137.159 C664.425,137.159 664.5,137.234 664.5,137.326 C664.5,137.418 664.425,137.492 664.333,137.492 C664.241,137.492 664.167,137.418 664.167,137.326 Z M663.5,137.326 C663.5,137.786 663.873,138.159 664.333,138.159 C664.794,138.159 665.167,137.786 665.167,137.326 C665.167,136.865 664.794,136.492 664.333,136.492 C663.873,136.492 663.5,136.865 663.5,137.326 Z" />
            <path d="M664.5,82.999 L665.611,82.999 L665.529,82.978 L666.044,83.268 L666.534,83.684 L667.049,84.119 L667.026,84.095 L667.369,84.53 L667.333,84.426 L667.333,86.165 L667.5,85.999 L664.5,85.999 L664.5,86.332 L667.5,86.332 L667.666,86.332 L667.666,86.165 L667.666,84.426 L667.666,84.369 L667.63,84.323 L667.287,83.888 L667.264,83.864 L666.749,83.43 L666.234,82.995 L665.693,82.687 L665.655,82.666 L665.611,82.666 L664.5,82.666 L664.5,82.999 Z" />
            <path d="M665.5,82.666 L664.389,82.666 L664.345,82.666 L664.307,82.687 L663.792,82.977 L663.251,83.43 L662.736,83.864 L662.713,83.888 L662.37,84.323 L662.334,84.369 L662.334,84.426 L662.334,86.165 L662.334,86.332 L662.5,86.332 L665.5,86.332 L665.5,85.999 L662.5,85.999 L662.667,86.165 L662.667,84.426 L662.631,84.53 L662.974,84.095 L662.951,84.119 L663.466,83.684 L663.981,83.25 L664.471,82.978 L664.389,82.999 L665.5,82.999 L665.5,82.666 Z" />
            <path d="M665.167,84.666 C665.167,84.758 665.092,84.832 665,84.832 C664.908,84.832 664.833,84.758 664.833,84.666 C664.833,84.574 664.908,84.499 665,84.499 C665.092,84.499 665.167,84.574 665.167,84.666 Z M665.833,84.666 C665.833,84.205 665.46,83.832 665,83.832 C664.54,83.832 664.167,84.205 664.167,84.666 C664.167,85.126 664.54,85.499 665,85.499 C665.46,85.499 665.833,85.126 665.833,84.666 Z" />
        </g>
    </g>
</svg>