<svg width="3300" height="2200" viewBox="0 0 3300 2200" fill="none" xmlns="http://www.w3.org/2000/svg">
<g id="outlet 1" clip-path="url(#clip0_1_2)">
<g id="Notes">
<path id="artboard" d="M3300 0H0V2200H3300V0Z" fill="white"/>
<path id="Vector" d="M263 292H3036" stroke="black" stroke-width="0.5"/>
<text id="Weight/Scale Variations" fill="black" xml:space="preserve" style="white-space: pre" font-family="Inter" font-size="13" font-weight="bold" letter-spacing="0em"><tspan x="263" y="321.727">Weight/Scale Variations</tspan></text>
<text id="Ultralight" fill="black" xml:space="preserve" style="white-space: pre" font-family="Inter" font-size="13" letter-spacing="0em"><tspan x="531.211" y="321.727">Ultralight</tspan></text>
<text id="Thin" fill="black" xml:space="preserve" style="white-space: pre" font-family="Inter" font-size="13" letter-spacing="0em"><tspan x="842.922" y="321.727">Thin</tspan></text>
<text id="Light" fill="black" xml:space="preserve" style="white-space: pre" font-family="Inter" font-size="13" letter-spacing="0em"><tspan x="1137.63" y="321.727">Light</tspan></text>
<text id="Regular" fill="black" xml:space="preserve" style="white-space: pre" font-family="Inter" font-size="13" letter-spacing="0em"><tspan x="1426.34" y="321.727">Regular</tspan></text>
<text id="Medium" fill="black" xml:space="preserve" style="white-space: pre" font-family="Inter" font-size="13" letter-spacing="0em"><tspan x="1721.56" y="321.727">Medium</tspan></text>
<text id="Semibold" fill="black" xml:space="preserve" style="white-space: pre" font-family="Inter" font-size="13" letter-spacing="0em"><tspan x="2014.27" y="321.727">Semibold</tspan></text>
<text id="Bold" fill="black" xml:space="preserve" style="white-space: pre" font-family="Inter" font-size="13" letter-spacing="0em"><tspan x="2325.98" y="321.727">Bold</tspan></text>
<text id="Heavy" fill="black" xml:space="preserve" style="white-space: pre" font-family="Inter" font-size="13" letter-spacing="0em"><tspan x="2617.19" y="321.727">Heavy</tspan></text>
<text id="Black" fill="black" xml:space="preserve" style="white-space: pre" font-family="Inter" font-size="13" letter-spacing="0em"><tspan x="2916.4" y="321.727">Black</tspan></text>
<path id="Vector_2" d="M263 1903H3036" stroke="black" stroke-width="0.5"/>
<g id="Group">
<path id="Vector_3" d="M272.248 1933.83C276.555 1933.83 280.139 1930.26 280.139 1925.95C280.139 1921.64 276.545 1918.07 272.238 1918.07C267.941 1918.07 264.367 1921.64 264.367 1925.95C264.367 1930.26 267.951 1933.83 272.248 1933.83ZM272.248 1932.35C268.703 1932.35 265.871 1929.5 265.871 1925.95C265.871 1922.39 268.693 1919.55 272.238 1919.55C275.793 1919.55 278.645 1922.39 278.645 1925.95C278.645 1929.5 275.803 1932.35 272.248 1932.35ZM268.654 1925.95C268.654 1926.38 268.957 1926.67 269.406 1926.67H271.506V1928.79C271.506 1929.23 271.799 1929.53 272.229 1929.53C272.678 1929.53 272.971 1929.23 272.971 1928.79V1926.67H275.09C275.529 1926.67 275.832 1926.38 275.832 1925.95C275.832 1925.51 275.529 1925.21 275.09 1925.21H272.971V1923.1C272.971 1922.65 272.678 1922.35 272.229 1922.35C271.799 1922.35 271.506 1922.65 271.506 1923.1V1925.21H269.406C268.957 1925.21 268.654 1925.51 268.654 1925.95Z" fill="black"/>
</g>
<g id="Group_2">
<path id="Vector_4" d="M293.215 1935.91C298.664 1935.91 303.176 1931.39 303.176 1925.95C303.176 1920.5 298.654 1915.99 293.205 1915.99C287.766 1915.99 283.254 1920.5 283.254 1925.95C283.254 1931.39 287.776 1935.91 293.215 1935.91ZM293.215 1934.25C288.606 1934.25 284.924 1930.56 284.924 1925.95C284.924 1921.34 288.596 1917.65 293.205 1917.65C297.815 1917.65 301.516 1921.34 301.516 1925.95C301.516 1930.56 297.824 1934.25 293.215 1934.25ZM288.684 1925.95C288.684 1926.43 289.016 1926.75 289.514 1926.75H292.385V1929.63C292.385 1930.12 292.717 1930.46 293.195 1930.46C293.684 1930.46 294.026 1930.13 294.026 1929.63V1926.75H296.906C297.395 1926.75 297.736 1926.43 297.736 1925.95C297.736 1925.46 297.395 1925.12 296.906 1925.12H294.026V1922.25C294.026 1921.75 293.684 1921.41 293.195 1921.41C292.717 1921.41 292.385 1921.75 292.385 1922.25V1925.12H289.514C289.016 1925.12 288.684 1925.46 288.684 1925.95Z" fill="black"/>
</g>
<g id="Group_3">
<path id="Vector_5" d="M319.895 1938.66C326.858 1938.66 332.619 1932.9 332.619 1925.95C332.619 1918.99 326.848 1913.22 319.885 1913.22C312.932 1913.22 307.18 1918.99 307.18 1925.95C307.18 1932.9 312.942 1938.66 319.895 1938.66ZM319.895 1936.85C313.86 1936.85 309.006 1931.98 309.006 1925.95C309.006 1919.9 313.85 1915.05 319.885 1915.05C325.93 1915.05 330.793 1919.9 330.793 1925.95C330.793 1931.98 325.94 1936.85 319.895 1936.85ZM314.123 1925.95C314.123 1926.47 314.494 1926.83 315.041 1926.83H318.986V1930.78C318.986 1931.32 319.358 1931.7 319.875 1931.7C320.412 1931.7 320.783 1931.33 320.783 1930.78V1926.83H324.738C325.276 1926.83 325.656 1926.47 325.656 1925.95C325.656 1925.4 325.285 1925.03 324.738 1925.03H320.783V1921.09C320.783 1920.54 320.412 1920.16 319.875 1920.16C319.358 1920.16 318.986 1920.54 318.986 1921.09V1925.03H315.041C314.494 1925.03 314.123 1925.4 314.123 1925.95Z" fill="black"/>
</g>
<text id="Design Variations" fill="black" xml:space="preserve" style="white-space: pre" font-family="Inter" font-size="13" font-weight="bold" letter-spacing="0em"><tspan x="263" y="1952.73">Design Variations</tspan></text>
<text id="Symbols are supported in up to nine weights and three scales." fill="black" xml:space="preserve" style="white-space: pre" font-family="Inter" font-size="13" letter-spacing="0em"><tspan x="263" y="1970.73">Symbols are supported in up to nine weights and three scales.</tspan></text>
<text id="For optimal layout with text and other symbols, vertically align" fill="black" xml:space="preserve" style="white-space: pre" font-family="Inter" font-size="13" letter-spacing="0em"><tspan x="263" y="1988.73">For optimal layout with text and other symbols, vertically align</tspan></text>
<text id="symbols with the adjacent text." fill="black" xml:space="preserve" style="white-space: pre" font-family="Inter" font-size="13" letter-spacing="0em"><tspan x="263" y="2006.73">symbols with the adjacent text.</tspan></text>
<path id="Vector_6" d="M776 1919V1933" stroke="#00AEEF" stroke-width="0.5"/>
<g id="Group_4">
<path id="Vector_7" d="M779.311 1933.16C779.828 1933.16 780.082 1932.96 780.268 1932.41L781.527 1928.97H787.289L788.549 1932.41C788.734 1932.96 788.988 1933.16 789.496 1933.16C790.014 1933.16 790.346 1932.84 790.346 1932.36C790.346 1932.19 790.316 1932.03 790.238 1931.83L785.658 1919.63C785.434 1919.04 785.033 1918.73 784.408 1918.73C783.803 1918.73 783.393 1919.03 783.178 1919.62L778.598 1931.84C778.52 1932.04 778.49 1932.2 778.49 1932.37C778.49 1932.85 778.803 1933.16 779.311 1933.16ZM782.006 1927.48L784.379 1920.91H784.428L786.801 1927.48H782.006Z" fill="black"/>
</g>
<path id="Vector_8" d="M792.836 1919V1933" stroke="#00AEEF" stroke-width="0.5"/>
<text id="Margins" fill="black" xml:space="preserve" style="white-space: pre" font-family="Inter" font-size="13" font-weight="bold" letter-spacing="0em"><tspan x="776" y="1952.73">Margins</tspan></text>
<text id="Leading and trailing margins on the left and right side of each symbol" fill="black" xml:space="preserve" style="white-space: pre" font-family="Inter" font-size="13" letter-spacing="0em"><tspan x="776" y="1970.73">Leading and trailing margins on the left and right side of each symbol</tspan></text>
<text id="can be adjusted by modifying the x-location of the margin guidelines." fill="black" xml:space="preserve" style="white-space: pre" font-family="Inter" font-size="13" letter-spacing="0em"><tspan x="776" y="1988.73">can be adjusted by modifying the x-location of the margin guidelines.</tspan></text>
<text id="Modifications are automatically applied proportionally to all" fill="black" xml:space="preserve" style="white-space: pre" font-family="Inter" font-size="13" letter-spacing="0em"><tspan x="776" y="2006.73">Modifications are automatically applied proportionally to all</tspan></text>
<text id="scales and weights." fill="black" xml:space="preserve" style="white-space: pre" font-family="Inter" font-size="13" letter-spacing="0em"><tspan x="776" y="2024.73">scales and weights.</tspan></text>
<g id="Group_5">
<path id="Vector_9" d="M1291.84 1934.87L1293.54 1936.57C1294.4 1937.44 1295.39 1937.38 1296.31 1936.36L1307.01 1924.57L1306.04 1923.6L1295.43 1935.28C1295.07 1935.68 1294.74 1935.77 1294.27 1935.3L1293.1 1934.14C1292.63 1933.68 1292.74 1933.34 1293.14 1932.98L1304.62 1922.18L1303.64 1921.21L1292.05 1932.1C1291.06 1933.02 1290.98 1934 1291.84 1934.87ZM1298.26 1916.67C1297.84 1917.08 1297.81 1917.66 1298.04 1918.05C1298.28 1918.41 1298.74 1918.64 1299.38 1918.48C1300.85 1918.14 1302.37 1918.08 1303.79 1919.02L1303.21 1920.47C1302.87 1921.3 1303.04 1921.89 1303.58 1922.43L1305.88 1924.75C1306.36 1925.24 1306.77 1925.26 1307.34 1925.16L1308.4 1924.96L1309.07 1925.64L1309.03 1926.19C1308.99 1926.69 1309.12 1927.07 1309.61 1927.55L1310.37 1928.29C1310.85 1928.77 1311.46 1928.8 1311.93 1928.33L1314.84 1925.41C1315.31 1924.94 1315.29 1924.35 1314.81 1923.87L1314.04 1923.11C1313.56 1922.63 1313.19 1922.47 1312.71 1922.51L1312.13 1922.56L1311.49 1921.93L1311.73 1920.8C1311.86 1920.24 1311.71 1919.8 1311.12 1919.21L1308.92 1917.02C1305.58 1913.7 1301.15 1913.78 1298.26 1916.67ZM1299.75 1917.04C1302.18 1915.27 1305.47 1915.57 1307.7 1917.79L1310.13 1920.21C1310.37 1920.44 1310.41 1920.63 1310.34 1920.97L1310.02 1922.45L1311.52 1923.94L1312.51 1923.88C1312.76 1923.87 1312.84 1923.89 1313.03 1924.08L1313.61 1924.66L1311.17 1927.1L1310.59 1926.53C1310.4 1926.33 1310.37 1926.25 1310.38 1925.99L1310.45 1925.01L1308.95 1923.53L1307.43 1923.78C1307.11 1923.85 1306.96 1923.82 1306.71 1923.59L1304.71 1921.58C1304.46 1921.35 1304.43 1921.18 1304.59 1920.81L1305.46 1918.72C1303.9 1917.27 1301.87 1916.64 1299.84 1917.24C1299.68 1917.28 1299.63 1917.15 1299.75 1917.04Z" fill="black"/>
</g>
<text id="Exporting" fill="black" xml:space="preserve" style="white-space: pre" font-family="Inter" font-size="13" font-weight="bold" letter-spacing="0em"><tspan x="1289" y="1952.73">Exporting</tspan></text>
<text id="Symbols should be outlined when exporting to ensure the" fill="black" xml:space="preserve" style="white-space: pre" font-family="Inter" font-size="13" letter-spacing="0em"><tspan x="1289" y="1970.73">Symbols should be outlined when exporting to ensure the</tspan></text>
<text id="design is preserved when submitting to Xcode." fill="black" xml:space="preserve" style="white-space: pre" font-family="Inter" font-size="13" letter-spacing="0em"><tspan x="1289" y="1988.73">design is preserved when submitting to Xcode.</tspan></text>
<text id="template-version" fill="black" xml:space="preserve" style="white-space: pre" font-family="Inter" font-size="13" letter-spacing="0em"><tspan x="2946" y="1932.73">Template v.5.0</tspan></text>
<text id="Requires Xcode 15 or greater" fill="black" xml:space="preserve" style="white-space: pre" font-family="Inter" font-size="13" letter-spacing="0em"><tspan x="2858" y="1950.73">Requires Xcode 15 or greater</tspan></text>
<text id="descriptive-name" fill="black" xml:space="preserve" style="white-space: pre" font-family="Inter" font-size="13" letter-spacing="0em"><tspan x="2820" y="1968.73">Generated from poweroutlet.type.a</tspan></text>
<text id="Typeset at 100.0 points" fill="black" xml:space="preserve" style="white-space: pre" font-family="Inter" font-size="13" letter-spacing="0em"><tspan x="2892" y="1986.73">Typeset at 100.0 points</tspan></text>
<text id="Small" fill="black" xml:space="preserve" style="white-space: pre" font-family="Inter" font-size="13" letter-spacing="0em"><tspan x="263" y="725.727">Small</tspan></text>
<text id="Medium_2" fill="black" xml:space="preserve" style="white-space: pre" font-family="Inter" font-size="13" letter-spacing="0em"><tspan x="263" y="1155.73">Medium</tspan></text>
<text id="Large" fill="black" xml:space="preserve" style="white-space: pre" font-family="Inter" font-size="13" letter-spacing="0em"><tspan x="263" y="1585.73">Large</tspan></text>
</g>
<g id="Guides">
<g id="H-reference">
<path id="Vector_10" d="M339.994 696H342.638L368.328 628.868H369.03V625.541H367.123L339.994 696ZM350.688 671.52H385.981L385.231 669.272H351.438L350.688 671.52ZM394.12 696H396.764L369.638 625.541H368.433V628.868L394.12 696Z" fill="#27AAE1"/>
</g>
<path id="Baseline-S" d="M263 696H3036" stroke="#27AAE1" stroke-width="0.5"/>
<path id="Capline-S" d="M263 625.541H3036" stroke="#27AAE1" stroke-width="0.5"/>
<g id="H-reference_2">
<path id="Vector_11" d="M339.994 1126H342.638L368.328 1058.87H369.03V1055.54H367.123L339.994 1126ZM350.688 1101.52H385.981L385.231 1099.27H351.438L350.688 1101.52ZM394.12 1126H396.764L369.638 1055.54H368.433V1058.87L394.12 1126Z" fill="#27AAE1"/>
</g>
<path id="Baseline-M" d="M263 1126H3036" stroke="#27AAE1" stroke-width="0.5"/>
<path id="Capline-M" d="M263 1055.54H3036" stroke="#27AAE1" stroke-width="0.5"/>
<g id="H-reference_3">
<path id="Vector_12" d="M339.994 1556H342.638L368.328 1488.87H369.03V1485.54H367.123L339.994 1556ZM350.688 1531.52H385.981L385.231 1529.27H351.438L350.688 1531.52ZM394.12 1556H396.764L369.638 1485.54H368.433V1488.87L394.12 1556Z" fill="#27AAE1"/>
</g>
<path id="Baseline-L" d="M263 1556H3036" stroke="#27AAE1" stroke-width="0.5"/>
<path id="Capline-L" d="M263 1485.54H3036" stroke="#27AAE1" stroke-width="0.5"/>
<path id="left-margin-Ultralight-S" d="M510.05 600.785V720.121" stroke="#00AEEF" stroke-width="0.5"/>
<path id="right-margin-Ultralight-S" d="M609.372 600.785V720.121" stroke="#00AEEF" stroke-width="0.5"/>
<path id="left-margin-Regular-S" d="M1398.84 600.785V720.121" stroke="#00AEEF" stroke-width="0.5"/>
<path id="right-margin-Regular-S" d="M1500.85 600.785V720.121" stroke="#00AEEF" stroke-width="0.5"/>
<path id="left-margin-Black-S" d="M2876.17 600.785V720.121" stroke="#00AEEF" stroke-width="0.5"/>
<path id="right-margin-Black-S" d="M2990.63 600.785V720.121" stroke="#00AEEF" stroke-width="0.5"/>
</g>
<g id="Symbols">
<g id="Black-S">
<path id="Vector_13" d="M2921.22 656H2954.78C2957.62 656 2960.47 654.869 2962.49 652.854C2969.04 646.598 2973 637.443 2973 628.5C2973 619.557 2969.04 610.402 2962.49 604.146C2960.47 602.131 2957.62 601 2954.78 601H2921.22C2918.38 601 2915.53 602.131 2913.51 604.146C2906.96 610.402 2903 619.557 2903 628.5C2903 637.443 2906.96 646.598 2913.51 652.854C2915.53 654.869 2918.38 656 2921.22 656ZM2922.08 646.456C2921.08 646.456 2920.46 646.209 2919.78 645.608C2915.49 641.684 2912.69 634.898 2912.69 628.5C2912.69 622.102 2915.49 615.316 2919.78 611.392C2920.46 610.791 2921.08 610.544 2922.08 610.544H2953.92C2954.92 610.544 2955.54 610.791 2956.22 611.392C2960.5 615.316 2963.31 622.102 2963.31 628.5C2963.31 634.898 2960.5 641.684 2956.22 645.608C2955.54 646.209 2954.92 646.456 2953.92 646.456H2922.08ZM2925.65 639.528C2927.74 639.528 2929.43 637.902 2929.43 635.852V621.183C2929.43 619.133 2927.74 617.472 2925.65 617.472C2923.56 617.472 2921.87 619.133 2921.87 621.183V635.852C2921.87 637.902 2923.52 639.528 2925.65 639.528ZM2950.35 639.528C2952.44 639.528 2954.13 637.867 2954.13 635.817V621.219C2954.13 619.133 2952.44 617.472 2950.35 617.472C2948.26 617.472 2946.57 619.168 2946.57 621.219V635.817C2946.57 637.867 2948.26 639.528 2950.35 639.528Z" stroke="black" stroke-width="0.5"/>
<path id="Vector_14" d="M2921.22 720H2954.78C2957.62 720 2960.47 718.848 2962.49 716.797C2969.04 710.427 2973 701.105 2973 692C2973 682.895 2969.04 673.573 2962.49 667.203C2960.47 665.152 2957.62 664 2954.78 664H2921.22C2918.38 664 2915.53 665.152 2913.51 667.203C2906.96 673.573 2903 682.895 2903 692C2903 701.105 2906.96 710.427 2913.51 716.797C2915.53 718.848 2918.38 720 2921.22 720ZM2922.08 710.283C2921.08 710.283 2920.46 710.031 2919.78 709.419C2915.49 705.424 2912.69 698.514 2912.69 692C2912.69 685.486 2915.49 678.576 2919.78 674.581C2920.46 673.969 2921.08 673.717 2922.08 673.717H2953.92C2954.92 673.717 2955.54 673.969 2956.22 674.581C2960.5 678.576 2963.31 685.486 2963.31 692C2963.31 698.514 2960.5 705.424 2956.22 709.419C2955.54 710.031 2954.92 710.283 2953.92 710.283H2922.08ZM2925.65 703.229C2927.74 703.229 2929.43 701.573 2929.43 699.486V684.55C2929.43 682.463 2927.74 680.771 2925.65 680.771C2923.56 680.771 2921.87 682.463 2921.87 684.55V699.486C2921.87 701.573 2923.52 703.229 2925.65 703.229ZM2950.35 703.229C2952.44 703.229 2954.13 701.537 2954.13 699.45V684.586C2954.13 682.463 2952.44 680.771 2950.35 680.771C2948.26 680.771 2946.57 682.499 2946.57 684.586V699.45C2946.57 701.537 2948.26 703.229 2950.35 703.229Z" stroke="black" stroke-width="0.5"/>
</g>
<g id="Regular-S">
<path id="Vector_15" d="M1433.78 655H1467.18C1469.56 655 1471.74 654.165 1473.33 652.694C1480.03 646.331 1484 637.066 1484 628C1484 618.934 1480.03 609.669 1473.33 603.306C1471.74 601.835 1469.56 601 1467.18 601H1433.78C1431.32 601 1428.98 601.954 1427.31 603.624C1420.89 609.947 1417 619.053 1417 628C1417 637.066 1420.97 646.331 1427.67 652.694C1429.26 654.165 1431.44 655 1433.78 655ZM1433.78 649.473C1432.83 649.473 1432.11 649.194 1431.56 648.677C1426.04 643.389 1422.71 635.754 1422.71 628.199C1422.71 620.644 1426.08 612.85 1431.64 607.641C1432.19 607.124 1432.87 606.925 1433.78 606.925H1467.18C1468.17 606.925 1468.89 607.164 1469.4 607.72C1474.96 612.969 1478.29 620.644 1478.29 628.199C1478.29 635.754 1474.96 643.389 1469.4 648.677C1468.89 649.194 1468.17 649.473 1467.18 649.473H1433.78ZM1437.59 640.884C1439.29 640.884 1440.68 639.611 1440.68 637.862V618.536C1440.68 616.826 1439.29 615.434 1437.59 615.434C1435.84 615.434 1434.53 616.826 1434.53 618.536V637.862C1434.53 639.611 1435.84 640.884 1437.59 640.884ZM1463.37 640.884C1465.08 640.884 1466.43 639.571 1466.43 637.822V618.536C1466.43 616.826 1465.08 615.434 1463.37 615.434C1461.63 615.434 1460.32 616.826 1460.32 618.536V637.822C1460.32 639.571 1461.63 640.884 1463.37 640.884Z" stroke="black" stroke-width="0.5"/>
<path id="Vector_16" d="M1433.78 720H1467.18C1469.56 720 1471.74 719.165 1473.33 717.694C1480.03 711.331 1484 702.066 1484 693C1484 683.934 1480.03 674.669 1473.33 668.306C1471.74 666.835 1469.56 666 1467.18 666H1433.78C1431.32 666 1428.98 666.954 1427.31 668.624C1420.89 674.947 1417 684.053 1417 693C1417 702.066 1420.97 711.331 1427.67 717.694C1429.26 719.165 1431.44 720 1433.78 720ZM1433.78 714.473C1432.83 714.473 1432.11 714.194 1431.56 713.677C1426.04 708.389 1422.71 700.754 1422.71 693.199C1422.71 685.644 1426.08 677.85 1431.64 672.641C1432.19 672.124 1432.87 671.925 1433.78 671.925H1467.18C1468.17 671.925 1468.89 672.164 1469.4 672.72C1474.96 677.969 1478.29 685.644 1478.29 693.199C1478.29 700.754 1474.96 708.389 1469.4 713.677C1468.89 714.194 1468.17 714.473 1467.18 714.473H1433.78ZM1437.59 705.884C1439.29 705.884 1440.68 704.611 1440.68 702.862V683.536C1440.68 681.826 1439.29 680.434 1437.59 680.434C1435.84 680.434 1434.53 681.826 1434.53 683.536V702.862C1434.53 704.611 1435.84 705.884 1437.59 705.884ZM1463.37 705.884C1465.08 705.884 1466.43 704.571 1466.43 702.822V683.536C1466.43 681.826 1465.08 680.434 1463.37 680.434C1461.63 680.434 1460.32 681.826 1460.32 683.536V702.822C1460.32 704.571 1461.63 705.884 1463.37 705.884Z" stroke="black" stroke-width="0.5"/>
</g>
<g id="Ultralight-S">
<path id="Vector_17" d="M541.589 654H577.37C579.334 654 581.093 653.33 582.581 651.891C589.129 645.565 593 636.478 593 627.519C593 618.56 589.129 609.473 582.581 603.147C581.132 601.746 579.296 601 577.37 601H541.589C539.619 601 537.81 601.755 536.355 603.132C529.827 609.493 526 618.569 526 627.519C526 636.478 529.833 645.565 536.381 651.891C537.907 653.33 539.628 654 541.589 654ZM541.589 652.154C540.148 652.154 538.838 651.677 537.844 650.687C531.726 644.934 527.862 636.116 527.862 627.533C527.862 618.912 531.729 610.121 537.85 604.374C538.843 603.346 540.15 602.837 541.589 602.837H577.37C578.814 602.837 580.086 603.349 581.115 604.38C587.236 610.13 591.138 618.912 591.138 627.533C591.138 636.116 587.236 644.934 581.115 650.687C580.086 651.677 578.814 652.154 577.37 652.154H541.589ZM545.754 639.039C546.526 639.039 547.122 638.49 547.122 637.754V617.351C547.122 616.58 546.488 615.984 545.754 615.984C545.018 615.984 544.465 616.58 544.465 617.351V637.754C544.465 638.49 545.056 639.039 545.754 639.039ZM573.205 639.039C573.939 639.039 574.532 638.487 574.532 637.713V617.351C574.532 616.542 573.939 615.984 573.205 615.984C572.43 615.984 571.878 616.58 571.878 617.351V637.713C571.878 638.449 572.43 639.039 573.205 639.039Z" stroke="black" stroke-width="0.5"/>
<path id="Vector_18" d="M541.589 720H577.37C579.334 720 581.093 719.343 582.581 717.931C589.129 711.724 593 702.808 593 694.019C593 685.229 589.129 676.313 582.581 670.107C581.132 668.732 579.296 668 577.37 668H541.589C539.619 668 537.81 668.74 536.355 670.092C529.827 676.333 526 685.237 526 694.019C526 702.808 529.833 711.724 536.381 717.931C537.907 719.343 539.628 720 541.589 720ZM541.589 718.189C540.148 718.189 538.838 717.72 537.844 716.749C531.726 711.105 527.862 702.454 527.862 694.033C527.862 685.574 531.729 676.949 537.85 671.311C538.843 670.302 540.15 669.802 541.589 669.802H577.37C578.814 669.802 580.086 670.305 581.115 671.316C587.236 676.958 591.138 685.574 591.138 694.033C591.138 702.454 587.236 711.105 581.115 716.749C580.086 717.72 578.814 718.189 577.37 718.189H541.589ZM545.754 705.321C546.526 705.321 547.122 704.783 547.122 704.061V684.042C547.122 683.286 546.488 682.701 545.754 682.701C545.018 682.701 544.465 683.286 544.465 684.042V704.061C544.465 704.783 545.056 705.321 545.754 705.321ZM573.205 705.321C573.939 705.321 574.532 704.78 574.532 704.021V684.042C574.532 683.248 573.939 682.701 573.205 682.701C572.43 682.701 571.878 683.286 571.878 684.042V704.021C571.878 704.742 572.43 705.321 573.205 705.321Z" stroke="black" stroke-width="0.5"/>
</g>
</g>
</g>
<defs>
<clipPath id="clip0_1_2">
<rect width="3300" height="2200" fill="white"/>
</clipPath>
</defs>
</svg>
