<?xml version="1.0" encoding="UTF-8"?>
<svg height="600" width="800" xmlns="http://www.w3.org/2000/svg" xmlns:xlink="http://www.w3.org/1999/xlink">
    <g id="Notes" font-family="'LucidaGrande', 'Lucida Grande', sans-serif" font-size="13">
        <rect fill="white" height="600.0" width="800.0" x="0.0" y="0.0" />
        <g font-size="13">
            <text x="18.0" y="176.0">Small</text>
            <text x="18.0" y="376.0">Medium</text>
            <text x="18.0" y="576.0">Large</text>
        </g>
        <g font-size="9">
            <text x="250.0" y="30.0">Ultralight</text>
            <text x="450.0" y="30.0">Regular</text>
            <text x="650.0" y="30.0">Black</text>
            <text id="template-version" fill="#505050" text-anchor="end" x="785.0" y="575.0">Template v.3.0</text>
            <a href="https://github.com/swhitty/SwiftDraw">
                <text fill="#505050" text-anchor="end" x="785.0" y="590.0">https://github.com/swhitty/SwiftDraw</text>
            </a>
        </g>
    </g>
    <g id="Guides" stroke="rgb(39, 170, 225)" stroke-width="0.5">
        <path id="Capline-S" d="M18,76 l800,0" />
        <path id="H-reference" d="M85,145.755 L87.685,145.755 L113.369,79.287 L114.052,79.287 L114.052,76 L112.148,76 L85,145.755 Z M95.693,121.536 L130.996,121.536 L130.263,119.313 L96.474,119.313 L95.693,121.536 Z M139.15,145.755 L141.787,145.755 L114.638,76 L113.466,76 L113.466,79.287 L139.15,145.755 Z" stroke="none" />
        <path id="Baseline-S" d="M18,146 l800,0" />
        <path id="left-margin-Ultralight-S" d="M221,56 l0,110" />
        <path id="right-margin-Ultralight-S" d="M309,56 l0,110" />
        <path id="left-margin-Regular-S" d="M421,56 l0,110" />
        <path id="right-margin-Regular-S" d="M509,56 l0,110" />
        <path id="left-margin-Black-S" d="M621,56 l0,110" />
        <path id="right-margin-Black-S" d="M709,56 l0,110" />
        <path id="Capline-M" d="M18,276 l800,0" />
        <path id="Baseline-M" d="M18,346 l800,0" />
        <path id="Capline-L" d="M18,476 l800,0" />
        <path id="Baseline-L" d="M18,546 l800,0" />
    </g>
    <g id="Symbols">
        <g id="Ultralight-S">
            <path d="M287.697,86.992 L285.653,87.57 C285.524,87.23 285.335,86.899 285.084,86.577 C284.84,86.249 284.506,85.979 284.081,85.767 C283.657,85.555 283.114,85.449 282.452,85.449 C281.545,85.449 280.79,85.658 280.186,86.076 C279.588,86.487 279.289,87.011 279.289,87.647 C279.289,88.213 279.495,88.66 279.906,88.988 C280.318,89.315 280.96,89.589 281.835,89.807 L284.033,90.347 C285.357,90.669 286.344,91.16 286.993,91.822 C287.642,92.478 287.967,93.323 287.967,94.358 C287.967,95.207 287.723,95.965 287.234,96.634 C286.752,97.302 286.077,97.829 285.209,98.215 C284.341,98.601 283.332,98.793 282.182,98.793 C280.671,98.793 279.421,98.466 278.431,97.81 C277.441,97.154 276.814,96.197 276.551,94.937 L278.711,94.397 C278.916,95.194 279.305,95.792 279.877,96.19 C280.456,96.589 281.211,96.788 282.143,96.788 C283.204,96.788 284.046,96.563 284.669,96.113 C285.299,95.657 285.614,95.11 285.614,94.474 C285.614,93.96 285.434,93.529 285.075,93.182 C284.714,92.828 284.162,92.565 283.416,92.391 L280.948,91.813 C279.591,91.491 278.595,90.993 277.959,90.318 C277.329,89.637 277.014,88.785 277.014,87.763 C277.014,86.927 277.248,86.188 277.718,85.545 C278.193,84.903 278.839,84.398 279.656,84.032 C280.478,83.665 281.41,83.482 282.452,83.482 C283.917,83.482 285.068,83.803 285.903,84.446 C286.746,85.089 287.343,85.938 287.697,86.992 Z" />
            <path d="M271.306,146 L271.306,76 L270.033,76 L270.033,146 L271.306,146 Z M256.033,146 L256.033,76 L254.76,76 L254.76,146 L256.033,146 Z M242.669,119.273 C242.669,107.909 251.881,98.697 263.245,98.697 C274.609,98.697 283.821,107.909 283.821,119.273 C283.821,130.636 274.609,139.848 263.245,139.848 C251.881,139.848 242.669,130.636 242.669,119.273 Z M241.397,119.273 C241.397,131.339 251.179,141.121 263.245,141.121 C275.312,141.121 285.094,131.339 285.094,119.273 C285.094,107.206 275.312,97.424 263.245,97.424 C251.179,97.424 241.397,107.206 241.397,119.273 Z M287.523,86.379 L285.479,86.958 L285.653,87.57 L286.248,87.346 C286.096,86.943 285.875,86.556 285.586,86.186 C285.289,85.786 284.876,85.453 284.366,85.198 C283.845,84.937 283.206,84.813 282.452,84.813 C281.423,84.813 280.541,85.056 279.824,85.552 C279.061,86.077 278.653,86.793 278.653,87.647 C278.653,88.403 278.943,89.034 279.51,89.485 C280.004,89.879 280.725,90.186 281.68,90.425 L283.881,90.965 C285.1,91.261 285.983,91.701 286.539,92.268 C287.068,92.803 287.331,93.486 287.331,94.358 C287.331,95.072 287.129,95.699 286.72,96.258 C286.304,96.835 285.719,97.292 284.951,97.633 C284.169,97.981 283.247,98.157 282.182,98.157 C280.789,98.157 279.661,97.861 278.782,97.279 C277.935,96.718 277.404,95.906 277.174,94.806 L276.705,95.554 L278.865,95.014 L278.094,94.556 C278.337,95.494 278.811,96.222 279.514,96.712 C280.21,97.192 281.09,97.424 282.143,97.424 C283.328,97.424 284.299,97.165 285.042,96.629 C285.829,96.059 286.251,95.327 286.251,94.474 C286.251,93.788 286.001,93.192 285.516,92.724 C285.066,92.282 284.41,91.969 283.56,91.771 L281.093,91.193 C279.849,90.898 278.962,90.455 278.422,89.882 C277.908,89.326 277.65,88.629 277.65,87.763 C277.65,87.061 277.843,86.453 278.232,85.921 C278.638,85.372 279.197,84.935 279.916,84.612 C280.652,84.284 281.497,84.118 282.452,84.118 C283.787,84.118 284.802,84.402 285.516,84.951 C286.257,85.517 286.78,86.259 287.093,87.194 L287.523,86.379 Z M287.87,87.604 L288.512,87.422 L288.3,86.789 C287.907,85.616 287.234,84.661 286.29,83.94 C285.333,83.205 284.048,82.846 282.452,82.846 C281.324,82.846 280.304,83.046 279.397,83.45 C278.482,83.861 277.749,84.434 277.206,85.167 C276.654,85.924 276.377,86.794 276.377,87.763 C276.377,88.941 276.75,89.948 277.491,90.75 C278.228,91.531 279.333,92.084 280.801,92.432 L283.271,93.011 C283.913,93.16 284.363,93.375 284.629,93.636 C284.867,93.866 284.978,94.131 284.978,94.474 C284.978,94.893 284.769,95.255 284.296,95.598 C283.792,95.961 283.079,96.152 282.143,96.152 C281.332,96.152 280.702,95.985 280.238,95.666 C279.8,95.361 279.496,94.893 279.327,94.238 L279.169,93.626 L278.556,93.779 L276.397,94.319 L275.803,94.468 L275.928,95.067 C276.225,96.487 276.947,97.59 278.08,98.34 C279.181,99.07 280.553,99.43 282.182,99.43 C283.417,99.43 284.514,99.22 285.468,98.796 C286.435,98.366 287.2,97.769 287.75,97.006 C288.317,96.231 288.603,95.341 288.603,94.358 C288.603,93.16 288.217,92.153 287.445,91.374 C286.705,90.62 285.614,90.076 284.183,89.729 L281.986,89.189 C281.195,88.991 280.631,88.752 280.303,88.49 C280.046,88.285 279.926,88.023 279.926,87.647 C279.926,87.229 280.115,86.897 280.547,86.6 C281.039,86.259 281.668,86.085 282.452,86.085 C283.022,86.085 283.47,86.173 283.797,86.336 C284.135,86.506 284.391,86.713 284.573,86.957 C284.794,87.241 284.952,87.516 285.057,87.795 L285.264,88.342 L285.826,88.183 L287.87,87.604 Z" />
        </g>
        <g id="Regular-S">
            <path d="M487.697,86.992 L485.653,87.57 C485.524,87.23 485.335,86.899 485.084,86.577 C484.84,86.249 484.506,85.979 484.081,85.767 C483.657,85.555 483.114,85.449 482.452,85.449 C481.545,85.449 480.79,85.658 480.186,86.076 C479.588,86.487 479.289,87.011 479.289,87.647 C479.289,88.213 479.495,88.66 479.906,88.988 C480.318,89.315 480.96,89.589 481.835,89.807 L484.033,90.347 C485.357,90.669 486.344,91.16 486.993,91.822 C487.642,92.478 487.967,93.323 487.967,94.358 C487.967,95.207 487.723,95.965 487.234,96.634 C486.752,97.302 486.077,97.829 485.209,98.215 C484.341,98.601 483.332,98.793 482.182,98.793 C480.671,98.793 479.421,98.466 478.431,97.81 C477.441,97.154 476.814,96.197 476.551,94.937 L478.711,94.397 C478.916,95.194 479.305,95.792 479.877,96.19 C480.456,96.589 481.211,96.788 482.143,96.788 C483.204,96.788 484.046,96.563 484.669,96.113 C485.299,95.657 485.614,95.11 485.614,94.474 C485.614,93.96 485.434,93.529 485.075,93.182 C484.714,92.828 484.162,92.565 483.416,92.391 L480.948,91.813 C479.591,91.491 478.595,90.993 477.959,90.318 C477.329,89.637 477.014,88.785 477.014,87.763 C477.014,86.927 477.248,86.188 477.718,85.545 C478.193,84.903 478.839,84.398 479.656,84.032 C480.478,83.665 481.41,83.482 482.452,83.482 C483.917,83.482 485.068,83.803 485.903,84.446 C486.746,85.089 487.343,85.938 487.697,86.992 Z" />
            <path d="M471.306,146 L471.306,76 L470.033,76 L470.033,146 L471.306,146 Z M456.033,146 L456.033,76 L454.76,76 L454.76,146 L456.033,146 Z M442.669,119.273 C442.669,107.909 451.881,98.697 463.245,98.697 C474.609,98.697 483.821,107.909 483.821,119.273 C483.821,130.636 474.609,139.848 463.245,139.848 C451.881,139.848 442.669,130.636 442.669,119.273 Z M441.397,119.273 C441.397,131.339 451.179,141.121 463.245,141.121 C475.312,141.121 485.094,131.339 485.094,119.273 C485.094,107.206 475.312,97.424 463.245,97.424 C451.179,97.424 441.397,107.206 441.397,119.273 Z M487.523,86.379 L485.479,86.958 L485.653,87.57 L486.248,87.346 C486.096,86.943 485.875,86.556 485.586,86.186 C485.289,85.786 484.876,85.453 484.366,85.198 C483.845,84.937 483.206,84.813 482.452,84.813 C481.423,84.813 480.541,85.056 479.824,85.552 C479.061,86.077 478.653,86.793 478.653,87.647 C478.653,88.403 478.943,89.034 479.51,89.485 C480.004,89.879 480.725,90.186 481.68,90.425 L483.881,90.965 C485.1,91.261 485.983,91.701 486.539,92.268 C487.068,92.803 487.331,93.486 487.331,94.358 C487.331,95.072 487.129,95.699 486.72,96.258 C486.304,96.835 485.719,97.292 484.951,97.633 C484.169,97.981 483.247,98.157 482.182,98.157 C480.789,98.157 479.661,97.861 478.782,97.279 C477.935,96.718 477.404,95.906 477.174,94.806 L476.705,95.554 L478.865,95.014 L478.094,94.556 C478.337,95.494 478.811,96.222 479.514,96.712 C480.21,97.192 481.09,97.424 482.143,97.424 C483.328,97.424 484.299,97.165 485.042,96.629 C485.829,96.059 486.251,95.327 486.251,94.474 C486.251,93.788 486.001,93.192 485.516,92.724 C485.066,92.282 484.41,91.969 483.56,91.771 L481.093,91.193 C479.849,90.898 478.962,90.455 478.422,89.882 C477.908,89.326 477.65,88.629 477.65,87.763 C477.65,87.061 477.843,86.453 478.232,85.921 C478.638,85.372 479.197,84.935 479.916,84.612 C480.652,84.284 481.497,84.118 482.452,84.118 C483.787,84.118 484.802,84.402 485.516,84.951 C486.257,85.517 486.78,86.259 487.093,87.194 L487.523,86.379 Z M487.87,87.604 L488.512,87.422 L488.3,86.789 C487.907,85.616 487.234,84.661 486.29,83.94 C485.333,83.205 484.048,82.846 482.452,82.846 C481.324,82.846 480.304,83.046 479.397,83.45 C478.482,83.861 477.749,84.434 477.206,85.167 C476.654,85.924 476.377,86.794 476.377,87.763 C476.377,88.941 476.75,89.948 477.491,90.75 C478.228,91.531 479.333,92.084 480.801,92.432 L483.271,93.011 C483.913,93.16 484.363,93.375 484.629,93.636 C484.867,93.866 484.978,94.131 484.978,94.474 C484.978,94.893 484.769,95.255 484.296,95.598 C483.792,95.961 483.079,96.152 482.143,96.152 C481.332,96.152 480.702,95.985 480.238,95.666 C479.8,95.361 479.496,94.893 479.327,94.238 L479.169,93.626 L478.556,93.779 L476.397,94.319 L475.803,94.468 L475.928,95.067 C476.225,96.487 476.947,97.59 478.08,98.34 C479.181,99.07 480.553,99.43 482.182,99.43 C483.417,99.43 484.514,99.22 485.468,98.796 C486.435,98.366 487.2,97.769 487.75,97.006 C488.317,96.231 488.603,95.341 488.603,94.358 C488.603,93.16 488.217,92.153 487.445,91.374 C486.705,90.62 485.614,90.076 484.183,89.729 L481.986,89.189 C481.195,88.991 480.631,88.752 480.303,88.49 C480.046,88.285 479.926,88.023 479.926,87.647 C479.926,87.229 480.115,86.897 480.547,86.6 C481.039,86.259 481.668,86.085 482.452,86.085 C483.022,86.085 483.47,86.173 483.797,86.336 C484.135,86.506 484.391,86.713 484.573,86.957 C484.794,87.241 484.952,87.516 485.057,87.795 L485.264,88.342 L485.826,88.183 L487.87,87.604 Z" />
        </g>
        <g id="Black-S">
            <path d="M687.697,86.992 L685.653,87.57 C685.524,87.23 685.335,86.899 685.084,86.577 C684.84,86.249 684.506,85.979 684.081,85.767 C683.657,85.555 683.114,85.449 682.452,85.449 C681.545,85.449 680.79,85.658 680.186,86.076 C679.588,86.487 679.289,87.011 679.289,87.647 C679.289,88.213 679.495,88.66 679.906,88.988 C680.318,89.315 680.96,89.589 681.835,89.807 L684.033,90.347 C685.357,90.669 686.344,91.16 686.993,91.822 C687.642,92.478 687.967,93.323 687.967,94.358 C687.967,95.207 687.723,95.965 687.234,96.634 C686.752,97.302 686.077,97.829 685.209,98.215 C684.341,98.601 683.332,98.793 682.182,98.793 C680.671,98.793 679.421,98.466 678.431,97.81 C677.441,97.154 676.814,96.197 676.551,94.937 L678.711,94.397 C678.916,95.194 679.305,95.792 679.877,96.19 C680.456,96.589 681.211,96.788 682.143,96.788 C683.204,96.788 684.046,96.563 684.669,96.113 C685.299,95.657 685.614,95.11 685.614,94.474 C685.614,93.96 685.434,93.529 685.075,93.182 C684.714,92.828 684.162,92.565 683.416,92.391 L680.948,91.813 C679.591,91.491 678.595,90.993 677.959,90.318 C677.329,89.637 677.014,88.785 677.014,87.763 C677.014,86.927 677.248,86.188 677.718,85.545 C678.193,84.903 678.839,84.398 679.656,84.032 C680.478,83.665 681.41,83.482 682.452,83.482 C683.917,83.482 685.068,83.803 685.904,84.446 C686.746,85.089 687.343,85.938 687.697,86.992 Z" />
            <path d="M671.306,146 L671.306,76 L670.033,76 L670.033,146 L671.306,146 Z M656.033,146 L656.033,76 L654.76,76 L654.76,146 L656.033,146 Z M642.669,119.273 C642.669,107.909 651.881,98.697 663.245,98.697 C674.609,98.697 683.821,107.909 683.821,119.273 C683.821,130.636 674.609,139.848 663.245,139.848 C651.881,139.848 642.669,130.636 642.669,119.273 Z M641.397,119.273 C641.397,131.339 651.179,141.121 663.245,141.121 C675.312,141.121 685.094,131.339 685.094,119.273 C685.094,107.206 675.312,97.424 663.245,97.424 C651.179,97.424 641.397,107.206 641.397,119.273 Z M687.523,86.379 L685.479,86.958 L685.653,87.57 L686.248,87.346 C686.096,86.943 685.875,86.556 685.586,86.186 C685.289,85.786 684.876,85.453 684.366,85.198 C683.845,84.937 683.206,84.813 682.452,84.813 C681.423,84.813 680.541,85.056 679.824,85.552 C679.061,86.077 678.653,86.793 678.653,87.647 C678.653,88.403 678.943,89.034 679.51,89.485 C680.004,89.879 680.725,90.186 681.68,90.425 L683.881,90.965 C685.1,91.261 685.983,91.701 686.539,92.268 C687.068,92.803 687.331,93.486 687.331,94.358 C687.331,95.072 687.129,95.699 686.72,96.258 C686.304,96.835 685.719,97.292 684.951,97.633 C684.169,97.981 683.247,98.157 682.182,98.157 C680.789,98.157 679.661,97.861 678.782,97.279 C677.935,96.718 677.404,95.906 677.174,94.806 L676.705,95.554 L678.865,95.014 L678.094,94.556 C678.337,95.494 678.811,96.222 679.514,96.712 C680.21,97.192 681.09,97.424 682.143,97.424 C683.328,97.424 684.299,97.165 685.042,96.629 C685.829,96.059 686.25,95.327 686.25,94.474 C686.25,93.788 686.001,93.192 685.516,92.724 C685.066,92.282 684.41,91.969 683.56,91.771 L681.093,91.193 C679.849,90.898 678.962,90.455 678.422,89.882 C677.908,89.326 677.65,88.629 677.65,87.763 C677.65,87.061 677.843,86.453 678.232,85.921 C678.638,85.372 679.197,84.935 679.916,84.612 C680.652,84.284 681.497,84.118 682.452,84.118 C683.787,84.118 684.802,84.402 685.516,84.951 C686.257,85.517 686.78,86.259 687.093,87.194 L687.523,86.379 Z M687.87,87.604 L688.512,87.422 L688.3,86.789 C687.907,85.616 687.234,84.661 686.29,83.94 C685.333,83.205 684.048,82.846 682.452,82.846 C681.324,82.846 680.304,83.046 679.397,83.45 C678.482,83.861 677.749,84.434 677.206,85.167 C676.654,85.924 676.377,86.794 676.377,87.763 C676.377,88.941 676.75,89.948 677.491,90.75 C678.228,91.531 679.333,92.084 680.801,92.432 L683.271,93.011 C683.913,93.16 684.363,93.375 684.629,93.636 C684.867,93.866 684.978,94.131 684.978,94.474 C684.978,94.893 684.769,95.255 684.296,95.598 C683.792,95.961 683.079,96.152 682.143,96.152 C681.332,96.152 680.702,95.985 680.238,95.666 C679.8,95.361 679.496,94.893 679.327,94.238 L679.169,93.626 L678.556,93.779 L676.397,94.319 L675.803,94.468 L675.928,95.067 C676.225,96.487 676.947,97.59 678.08,98.34 C679.181,99.07 680.553,99.43 682.182,99.43 C683.417,99.43 684.514,99.22 685.468,98.796 C686.435,98.366 687.2,97.769 687.75,97.006 C688.317,96.231 688.603,95.341 688.603,94.358 C688.603,93.16 688.216,92.153 687.445,91.374 C686.705,90.62 685.614,90.076 684.183,89.729 L681.986,89.189 C681.195,88.991 680.631,88.752 680.303,88.49 C680.046,88.285 679.926,88.023 679.926,87.647 C679.926,87.229 680.115,86.897 680.547,86.6 C681.039,86.259 681.668,86.085 682.452,86.085 C683.022,86.085 683.47,86.173 683.797,86.336 C684.135,86.506 684.391,86.713 684.573,86.957 C684.794,87.241 684.952,87.516 685.057,87.795 L685.264,88.342 L685.826,88.183 L687.87,87.604 Z" />
        </g>
    </g>
</svg>