<svg width="3300" height="2200" viewBox="0 0 3300 2200" fill="none" xmlns="http://www.w3.org/2000/svg">
<g id="outlet 1" clip-path="url(#clip0_1_2)">
<g id="Notes">
<path id="artboard" d="M3300 0H0V2200H3300V0Z" fill="white"/>
<path id="Vector" d="M263 292H3036" stroke="black" stroke-width="0.5"/>
<text id="Weight/Scale Variations" fill="black" xml:space="preserve" style="white-space: pre" font-family="Inter" font-size="13" font-weight="bold" letter-spacing="0em"><tspan x="263" y="321.727">Weight/Scale Variations</tspan></text>
<text id="Ultralight" fill="black" xml:space="preserve" style="white-space: pre" font-family="Inter" font-size="13" letter-spacing="0em"><tspan x="531.211" y="321.727">Ultralight</tspan></text>
<text id="Thin" fill="black" xml:space="preserve" style="white-space: pre" font-family="Inter" font-size="13" letter-spacing="0em"><tspan x="842.922" y="321.727">Thin</tspan></text>
<text id="Light" fill="black" xml:space="preserve" style="white-space: pre" font-family="Inter" font-size="13" letter-spacing="0em"><tspan x="1137.63" y="321.727">Light</tspan></text>
<text id="Regular" fill="black" xml:space="preserve" style="white-space: pre" font-family="Inter" font-size="13" letter-spacing="0em"><tspan x="1426.34" y="321.727">Regular</tspan></text>
<text id="Medium" fill="black" xml:space="preserve" style="white-space: pre" font-family="Inter" font-size="13" letter-spacing="0em"><tspan x="1721.56" y="321.727">Medium</tspan></text>
<text id="Semibold" fill="black" xml:space="preserve" style="white-space: pre" font-family="Inter" font-size="13" letter-spacing="0em"><tspan x="2014.27" y="321.727">Semibold</tspan></text>
<text id="Bold" fill="black" xml:space="preserve" style="white-space: pre" font-family="Inter" font-size="13" letter-spacing="0em"><tspan x="2325.98" y="321.727">Bold</tspan></text>
<text id="Heavy" fill="black" xml:space="preserve" style="white-space: pre" font-family="Inter" font-size="13" letter-spacing="0em"><tspan x="2617.19" y="321.727">Heavy</tspan></text>
<text id="Black" fill="black" xml:space="preserve" style="white-space: pre" font-family="Inter" font-size="13" letter-spacing="0em"><tspan x="2916.4" y="321.727">Black</tspan></text>
<path id="Vector_2" d="M263 1903H3036" stroke="black" stroke-width="0.5"/>
<g id="Group">
<path id="Vector_3" d="M272.248 1933.83C276.555 1933.83 280.139 1930.26 280.139 1925.95C280.139 1921.64 276.545 1918.07 272.238 1918.07C267.941 1918.07 264.367 1921.64 264.367 1925.95C264.367 1930.26 267.951 1933.83 272.248 1933.83ZM272.248 1932.35C268.703 1932.35 265.871 1929.5 265.871 1925.95C265.871 1922.39 268.693 1919.55 272.238 1919.55C275.793 1919.55 278.645 1922.39 278.645 1925.95C278.645 1929.5 275.803 1932.35 272.248 1932.35ZM268.654 1925.95C268.654 1926.38 268.957 1926.67 269.406 1926.67H271.506V1928.79C271.506 1929.23 271.799 1929.53 272.229 1929.53C272.678 1929.53 272.971 1929.23 272.971 1928.79V1926.67H275.09C275.529 1926.67 275.832 1926.38 275.832 1925.95C275.832 1925.51 275.529 1925.21 275.09 1925.21H272.971V1923.1C272.971 1922.65 272.678 1922.35 272.229 1922.35C271.799 1922.35 271.506 1922.65 271.506 1923.1V1925.21H269.406C268.957 1925.21 268.654 1925.51 268.654 1925.95Z" fill="black"/>
</g>
<g id="Group_2">
<path id="Vector_4" d="M293.215 1935.91C298.664 1935.91 303.176 1931.39 303.176 1925.95C303.176 1920.5 298.654 1915.99 293.205 1915.99C287.766 1915.99 283.254 1920.5 283.254 1925.95C283.254 1931.39 287.776 1935.91 293.215 1935.91ZM293.215 1934.25C288.606 1934.25 284.924 1930.56 284.924 1925.95C284.924 1921.34 288.596 1917.65 293.205 1917.65C297.815 1917.65 301.516 1921.34 301.516 1925.95C301.516 1930.56 297.824 1934.25 293.215 1934.25ZM288.684 1925.95C288.684 1926.43 289.016 1926.75 289.514 1926.75H292.385V1929.63C292.385 1930.12 292.717 1930.46 293.195 1930.46C293.684 1930.46 294.026 1930.13 294.026 1929.63V1926.75H296.906C297.395 1926.75 297.736 1926.43 297.736 1925.95C297.736 1925.46 297.395 1925.12 296.906 1925.12H294.026V1922.25C294.026 1921.75 293.684 1921.41 293.195 1921.41C292.717 1921.41 292.385 1921.75 292.385 1922.25V1925.12H289.514C289.016 1925.12 288.684 1925.46 288.684 1925.95Z" fill="black"/>
</g>
<g id="Group_3">
<path id="Vector_5" d="M319.895 1938.66C326.858 1938.66 332.619 1932.9 332.619 1925.95C332.619 1918.99 326.848 1913.22 319.885 1913.22C312.932 1913.22 307.18 1918.99 307.18 1925.95C307.18 1932.9 312.942 1938.66 319.895 1938.66ZM319.895 1936.85C313.86 1936.85 309.006 1931.98 309.006 1925.95C309.006 1919.9 313.85 1915.05 319.885 1915.05C325.93 1915.05 330.793 1919.9 330.793 1925.95C330.793 1931.98 325.94 1936.85 319.895 1936.85ZM314.123 1925.95C314.123 1926.47 314.494 1926.83 315.041 1926.83H318.986V1930.78C318.986 1931.32 319.358 1931.7 319.875 1931.7C320.412 1931.7 320.783 1931.33 320.783 1930.78V1926.83H324.738C325.276 1926.83 325.656 1926.47 325.656 1925.95C325.656 1925.4 325.285 1925.03 324.738 1925.03H320.783V1921.09C320.783 1920.54 320.412 1920.16 319.875 1920.16C319.358 1920.16 318.986 1920.54 318.986 1921.09V1925.03H315.041C314.494 1925.03 314.123 1925.4 314.123 1925.95Z" fill="black"/>
</g>
<text id="Design Variations" fill="black" xml:space="preserve" style="white-space: pre" font-family="Inter" font-size="13" font-weight="bold" letter-spacing="0em"><tspan x="263" y="1952.73">Design Variations</tspan></text>
<text id="Symbols are supported in up to nine weights and three scales." fill="black" xml:space="preserve" style="white-space: pre" font-family="Inter" font-size="13" letter-spacing="0em"><tspan x="263" y="1970.73">Symbols are supported in up to nine weights and three scales.</tspan></text>
<text id="For optimal layout with text and other symbols, vertically align" fill="black" xml:space="preserve" style="white-space: pre" font-family="Inter" font-size="13" letter-spacing="0em"><tspan x="263" y="1988.73">For optimal layout with text and other symbols, vertically align</tspan></text>
<text id="symbols with the adjacent text." fill="black" xml:space="preserve" style="white-space: pre" font-family="Inter" font-size="13" letter-spacing="0em"><tspan x="263" y="2006.73">symbols with the adjacent text.</tspan></text>
<path id="Vector_6" d="M776 1919V1933" stroke="#00AEEF" stroke-width="0.5"/>
<g id="Group_4">
<path id="Vector_7" d="M779.311 1933.16C779.828 1933.16 780.082 1932.96 780.268 1932.41L781.527 1928.97H787.289L788.549 1932.41C788.734 1932.96 788.988 1933.16 789.496 1933.16C790.014 1933.16 790.346 1932.84 790.346 1932.36C790.346 1932.19 790.316 1932.03 790.238 1931.83L785.658 1919.63C785.434 1919.04 785.033 1918.73 784.408 1918.73C783.803 1918.73 783.393 1919.03 783.178 1919.62L778.598 1931.84C778.52 1932.04 778.49 1932.2 778.49 1932.37C778.49 1932.85 778.803 1933.16 779.311 1933.16ZM782.006 1927.48L784.379 1920.91H784.428L786.801 1927.48H782.006Z" fill="black"/>
</g>
<path id="Vector_8" d="M792.836 1919V1933" stroke="#00AEEF" stroke-width="0.5"/>
<text id="Margins" fill="black" xml:space="preserve" style="white-space: pre" font-family="Inter" font-size="13" font-weight="bold" letter-spacing="0em"><tspan x="776" y="1952.73">Margins</tspan></text>
<text id="Leading and trailing margins on the left and right side of each symbol" fill="black" xml:space="preserve" style="white-space: pre" font-family="Inter" font-size="13" letter-spacing="0em"><tspan x="776" y="1970.73">Leading and trailing margins on the left and right side of each symbol</tspan></text>
<text id="can be adjusted by modifying the x-location of the margin guidelines." fill="black" xml:space="preserve" style="white-space: pre" font-family="Inter" font-size="13" letter-spacing="0em"><tspan x="776" y="1988.73">can be adjusted by modifying the x-location of the margin guidelines.</tspan></text>
<text id="Modifications are automatically applied proportionally to all" fill="black" xml:space="preserve" style="white-space: pre" font-family="Inter" font-size="13" letter-spacing="0em"><tspan x="776" y="2006.73">Modifications are automatically applied proportionally to all</tspan></text>
<text id="scales and weights." fill="black" xml:space="preserve" style="white-space: pre" font-family="Inter" font-size="13" letter-spacing="0em"><tspan x="776" y="2024.73">scales and weights.</tspan></text>
<g id="Group_5">
<path id="Vector_9" d="M1291.84 1934.87L1293.54 1936.57C1294.4 1937.44 1295.39 1937.38 1296.31 1936.36L1307.01 1924.57L1306.04 1923.6L1295.43 1935.28C1295.07 1935.68 1294.74 1935.77 1294.27 1935.3L1293.1 1934.14C1292.63 1933.68 1292.74 1933.34 1293.14 1932.98L1304.62 1922.18L1303.64 1921.21L1292.05 1932.1C1291.06 1933.02 1290.98 1934 1291.84 1934.87ZM1298.26 1916.67C1297.84 1917.08 1297.81 1917.66 1298.04 1918.05C1298.28 1918.41 1298.74 1918.64 1299.38 1918.48C1300.85 1918.14 1302.37 1918.08 1303.79 1919.02L1303.21 1920.47C1302.87 1921.3 1303.04 1921.89 1303.58 1922.43L1305.88 1924.75C1306.36 1925.24 1306.77 1925.26 1307.34 1925.16L1308.4 1924.96L1309.07 1925.64L1309.03 1926.19C1308.99 1926.69 1309.12 1927.07 1309.61 1927.55L1310.37 1928.29C1310.85 1928.77 1311.46 1928.8 1311.93 1928.33L1314.84 1925.41C1315.31 1924.94 1315.29 1924.35 1314.81 1923.87L1314.04 1923.11C1313.56 1922.63 1313.19 1922.47 1312.71 1922.51L1312.13 1922.56L1311.49 1921.93L1311.73 1920.8C1311.86 1920.24 1311.71 1919.8 1311.12 1919.21L1308.92 1917.02C1305.58 1913.7 1301.15 1913.78 1298.26 1916.67ZM1299.75 1917.04C1302.18 1915.27 1305.47 1915.57 1307.7 1917.79L1310.13 1920.21C1310.37 1920.44 1310.41 1920.63 1310.34 1920.97L1310.02 1922.45L1311.52 1923.94L1312.51 1923.88C1312.76 1923.87 1312.84 1923.89 1313.03 1924.08L1313.61 1924.66L1311.17 1927.1L1310.59 1926.53C1310.4 1926.33 1310.37 1926.25 1310.38 1925.99L1310.45 1925.01L1308.95 1923.53L1307.43 1923.78C1307.11 1923.85 1306.96 1923.82 1306.71 1923.59L1304.71 1921.58C1304.46 1921.35 1304.43 1921.18 1304.59 1920.81L1305.46 1918.72C1303.9 1917.27 1301.87 1916.64 1299.84 1917.24C1299.68 1917.28 1299.63 1917.15 1299.75 1917.04Z" fill="black"/>
</g>
<text id="Exporting" fill="black" xml:space="preserve" style="white-space: pre" font-family="Inter" font-size="13" font-weight="bold" letter-spacing="0em"><tspan x="1289" y="1952.73">Exporting</tspan></text>
<text id="Symbols should be outlined when exporting to ensure the" fill="black" xml:space="preserve" style="white-space: pre" font-family="Inter" font-size="13" letter-spacing="0em"><tspan x="1289" y="1970.73">Symbols should be outlined when exporting to ensure the</tspan></text>
<text id="design is preserved when submitting to Xcode." fill="black" xml:space="preserve" style="white-space: pre" font-family="Inter" font-size="13" letter-spacing="0em"><tspan x="1289" y="1988.73">design is preserved when submitting to Xcode.</tspan></text>
<text id="template-version" fill="black" xml:space="preserve" style="white-space: pre" font-family="Inter" font-size="13" letter-spacing="0em"><tspan x="2946" y="1932.73">Template v.5.0</tspan></text>
<text id="Requires Xcode 15 or greater" fill="black" xml:space="preserve" style="white-space: pre" font-family="Inter" font-size="13" letter-spacing="0em"><tspan x="2858" y="1950.73">Requires Xcode 15 or greater</tspan></text>
<text id="descriptive-name" fill="black" xml:space="preserve" style="white-space: pre" font-family="Inter" font-size="13" letter-spacing="0em"><tspan x="2820" y="1968.73">Generated from poweroutlet.type.a</tspan></text>
<text id="Typeset at 100.0 points" fill="black" xml:space="preserve" style="white-space: pre" font-family="Inter" font-size="13" letter-spacing="0em"><tspan x="2892" y="1986.73">Typeset at 100.0 points</tspan></text>
<text id="Small" fill="black" xml:space="preserve" style="white-space: pre" font-family="Inter" font-size="13" letter-spacing="0em"><tspan x="263" y="725.727">Small</tspan></text>
<text id="Medium_2" fill="black" xml:space="preserve" style="white-space: pre" font-family="Inter" font-size="13" letter-spacing="0em"><tspan x="263" y="1155.73">Medium</tspan></text>
<text id="Large" fill="black" xml:space="preserve" style="white-space: pre" font-family="Inter" font-size="13" letter-spacing="0em"><tspan x="263" y="1585.73">Large</tspan></text>
</g>
<g id="Guides">
<g id="H-reference">
<path id="Vector_10" d="M339.994 696H342.638L368.328 628.868H369.03V625.541H367.123L339.994 696ZM350.688 671.52H385.981L385.231 669.272H351.438L350.688 671.52ZM394.12 696H396.764L369.638 625.541H368.433V628.868L394.12 696Z" fill="#27AAE1"/>
</g>
<path id="Baseline-S" d="M263 696H3036" stroke="#27AAE1" stroke-width="0.5"/>
<path id="Capline-S" d="M263 625.541H3036" stroke="#27AAE1" stroke-width="0.5"/>
<g id="H-reference_2">
<path id="Vector_11" d="M339.994 1126H342.638L368.328 1058.87H369.03V1055.54H367.123L339.994 1126ZM350.688 1101.52H385.981L385.231 1099.27H351.438L350.688 1101.52ZM394.12 1126H396.764L369.638 1055.54H368.433V1058.87L394.12 1126Z" fill="#27AAE1"/>
</g>
<path id="Baseline-M" d="M263 1126H3036" stroke="#27AAE1" stroke-width="0.5"/>
<path id="Capline-M" d="M263 1055.54H3036" stroke="#27AAE1" stroke-width="0.5"/>
<g id="H-reference_3">
<path id="Vector_12" d="M339.994 1556H342.638L368.328 1488.87H369.03V1485.54H367.123L339.994 1556ZM350.688 1531.52H385.981L385.231 1529.27H351.438L350.688 1531.52ZM394.12 1556H396.764L369.638 1485.54H368.433V1488.87L394.12 1556Z" fill="#27AAE1"/>
</g>
<path id="Baseline-L" d="M263 1556H3036" stroke="#27AAE1" stroke-width="0.5"/>
<path id="Capline-L" d="M263 1485.54H3036" stroke="#27AAE1" stroke-width="0.5"/>
<path id="left-margin-Ultralight-S" d="M510.05 600.785V720.121" stroke="#00AEEF" stroke-width="0.5"/>
<path id="right-margin-Ultralight-S" d="M652 601V720.336" stroke="#00AEEF" stroke-width="0.5"/>
<path id="left-margin-Regular-S" d="M1398.84 600.785V720.121" stroke="#00AEEF" stroke-width="0.5"/>
<path id="right-margin-Regular-S" d="M1542 601V720.336" stroke="#00AEEF" stroke-width="0.5"/>
<path id="left-margin-Black-S" d="M2876.17 600.785V720.121" stroke="#00AEEF" stroke-width="0.5"/>
<path id="right-margin-Black-S" d="M3024 601V720.336" stroke="#00AEEF" stroke-width="0.5"/>
</g>
<g id="Symbols">
<g id="Black-S">
<path id="Vector_13" d="M2894.22 656H2927.78C2930.62 656 2933.47 654.869 2935.49 652.854C2942.04 646.598 2946 637.443 2946 628.5C2946 619.557 2942.04 610.402 2935.49 604.146C2933.47 602.131 2930.62 601 2927.78 601H2894.22C2891.38 601 2888.53 602.131 2886.51 604.146C2879.96 610.402 2876 619.557 2876 628.5C2876 637.443 2879.96 646.598 2886.51 652.854C2888.53 654.869 2891.38 656 2894.22 656ZM2895.08 646.456C2894.08 646.456 2893.46 646.209 2892.78 645.608C2888.49 641.684 2885.69 634.898 2885.69 628.5C2885.69 622.102 2888.49 615.316 2892.78 611.392C2893.46 610.791 2894.08 610.544 2895.08 610.544H2926.92C2927.92 610.544 2928.54 610.791 2929.22 611.392C2933.5 615.316 2936.31 622.102 2936.31 628.5C2936.31 634.898 2933.5 641.684 2929.22 645.608C2928.54 646.209 2927.92 646.456 2926.92 646.456H2895.08ZM2898.65 639.528C2900.74 639.528 2902.43 637.902 2902.43 635.852V621.183C2902.43 619.133 2900.74 617.472 2898.65 617.472C2896.56 617.472 2894.87 619.133 2894.87 621.183V635.852C2894.87 637.902 2896.52 639.528 2898.65 639.528ZM2923.35 639.528C2925.44 639.528 2927.13 637.867 2927.13 635.817V621.219C2927.13 619.133 2925.44 617.472 2923.35 617.472C2921.26 617.472 2919.57 619.168 2919.57 621.219V635.817C2919.57 637.867 2921.26 639.528 2923.35 639.528Z" stroke="black" stroke-width="0.5"/>
<path id="Vector_14" d="M2894.22 720H2927.78C2930.62 720 2933.47 718.848 2935.49 716.797C2942.04 710.427 2946 701.105 2946 692C2946 682.895 2942.04 673.573 2935.49 667.203C2933.47 665.152 2930.62 664 2927.78 664H2894.22C2891.38 664 2888.53 665.152 2886.51 667.203C2879.96 673.573 2876 682.895 2876 692C2876 701.105 2879.96 710.427 2886.51 716.797C2888.53 718.848 2891.38 720 2894.22 720ZM2895.08 710.283C2894.08 710.283 2893.46 710.031 2892.78 709.419C2888.49 705.424 2885.69 698.514 2885.69 692C2885.69 685.486 2888.49 678.576 2892.78 674.581C2893.46 673.969 2894.08 673.717 2895.08 673.717H2926.92C2927.92 673.717 2928.54 673.969 2929.22 674.581C2933.5 678.576 2936.31 685.486 2936.31 692C2936.31 698.514 2933.5 705.424 2929.22 709.419C2928.54 710.031 2927.92 710.283 2926.92 710.283H2895.08ZM2898.65 703.229C2900.74 703.229 2902.43 701.573 2902.43 699.486V684.55C2902.43 682.463 2900.74 680.771 2898.65 680.771C2896.56 680.771 2894.87 682.463 2894.87 684.55V699.486C2894.87 701.573 2896.52 703.229 2898.65 703.229ZM2923.35 703.229C2925.44 703.229 2927.13 701.537 2927.13 699.45V684.586C2927.13 682.463 2925.44 680.771 2923.35 680.771C2921.26 680.771 2919.57 682.499 2919.57 684.586V699.45C2919.57 701.537 2921.26 703.229 2923.35 703.229Z" stroke="black" stroke-width="0.5"/>
<path id="Vector_15" d="M2972.22 656H3005.78C3008.62 656 3011.47 654.869 3013.49 652.854C3020.04 646.598 3024 637.443 3024 628.5C3024 619.557 3020.04 610.402 3013.49 604.146C3011.47 602.131 3008.62 601 3005.78 601H2972.22C2969.38 601 2966.53 602.131 2964.51 604.146C2957.96 610.402 2954 619.557 2954 628.5C2954 637.443 2957.96 646.598 2964.51 652.854C2966.53 654.869 2969.38 656 2972.22 656ZM2973.08 646.456C2972.08 646.456 2971.46 646.209 2970.78 645.608C2966.49 641.684 2963.69 634.898 2963.69 628.5C2963.69 622.102 2966.49 615.316 2970.78 611.392C2971.46 610.791 2972.08 610.544 2973.08 610.544H3004.92C3005.92 610.544 3006.54 610.791 3007.22 611.392C3011.5 615.316 3014.31 622.102 3014.31 628.5C3014.31 634.898 3011.5 641.684 3007.22 645.608C3006.54 646.209 3005.92 646.456 3004.92 646.456H2973.08ZM2976.65 639.528C2978.74 639.528 2980.43 637.902 2980.43 635.852V621.183C2980.43 619.133 2978.74 617.472 2976.65 617.472C2974.56 617.472 2972.87 619.133 2972.87 621.183V635.852C2972.87 637.902 2974.52 639.528 2976.65 639.528ZM3001.35 639.528C3003.44 639.528 3005.13 637.867 3005.13 635.817V621.219C3005.13 619.133 3003.44 617.472 3001.35 617.472C2999.26 617.472 2997.57 619.168 2997.57 621.219V635.817C2997.57 637.867 2999.26 639.528 3001.35 639.528Z" stroke="black" stroke-width="0.5"/>
<path id="Vector_16" d="M2972.22 720H3005.78C3008.62 720 3011.47 718.848 3013.49 716.797C3020.04 710.427 3024 701.105 3024 692C3024 682.895 3020.04 673.573 3013.49 667.203C3011.47 665.152 3008.62 664 3005.78 664H2972.22C2969.38 664 2966.53 665.152 2964.51 667.203C2957.96 673.573 2954 682.895 2954 692C2954 701.105 2957.96 710.427 2964.51 716.797C2966.53 718.848 2969.38 720 2972.22 720ZM2973.08 710.283C2972.08 710.283 2971.46 710.031 2970.78 709.419C2966.49 705.424 2963.69 698.514 2963.69 692C2963.69 685.486 2966.49 678.576 2970.78 674.581C2971.46 673.969 2972.08 673.717 2973.08 673.717H3004.92C3005.92 673.717 3006.54 673.969 3007.22 674.581C3011.5 678.576 3014.31 685.486 3014.31 692C3014.31 698.514 3011.5 705.424 3007.22 709.419C3006.54 710.031 3005.92 710.283 3004.92 710.283H2973.08ZM2976.65 703.229C2978.74 703.229 2980.43 701.573 2980.43 699.486V684.55C2980.43 682.463 2978.74 680.771 2976.65 680.771C2974.56 680.771 2972.87 682.463 2972.87 684.55V699.486C2972.87 701.573 2974.52 703.229 2976.65 703.229ZM3001.35 703.229C3003.44 703.229 3005.13 701.537 3005.13 699.45V684.586C3005.13 682.463 3003.44 680.771 3001.35 680.771C2999.26 680.771 2997.57 682.499 2997.57 684.586V699.45C2997.57 701.537 2999.26 703.229 3001.35 703.229Z" stroke="black" stroke-width="0.5"/>
</g>
<g id="Regular-S">
<path id="Vector_17" d="M1415.78 655H1449.18C1451.56 655 1453.74 654.165 1455.33 652.694C1462.03 646.331 1466 637.066 1466 628C1466 618.934 1462.03 609.669 1455.33 603.306C1453.74 601.835 1451.56 601 1449.18 601H1415.78C1413.32 601 1410.98 601.954 1409.31 603.624C1402.89 609.947 1399 619.053 1399 628C1399 637.066 1402.97 646.331 1409.67 652.694C1411.26 654.165 1413.44 655 1415.78 655ZM1415.78 649.473C1414.83 649.473 1414.11 649.194 1413.56 648.677C1408.04 643.389 1404.71 635.754 1404.71 628.199C1404.71 620.644 1408.08 612.85 1413.64 607.641C1414.19 607.124 1414.87 606.925 1415.78 606.925H1449.18C1450.17 606.925 1450.89 607.164 1451.4 607.72C1456.96 612.969 1460.29 620.644 1460.29 628.199C1460.29 635.754 1456.96 643.389 1451.4 648.677C1450.89 649.194 1450.17 649.473 1449.18 649.473H1415.78ZM1419.59 640.884C1421.29 640.884 1422.68 639.611 1422.68 637.862V618.536C1422.68 616.826 1421.29 615.434 1419.59 615.434C1417.84 615.434 1416.53 616.826 1416.53 618.536V637.862C1416.53 639.611 1417.84 640.884 1419.59 640.884ZM1445.37 640.884C1447.08 640.884 1448.43 639.571 1448.43 637.822V618.536C1448.43 616.826 1447.08 615.434 1445.37 615.434C1443.63 615.434 1442.32 616.826 1442.32 618.536V637.822C1442.32 639.571 1443.63 640.884 1445.37 640.884Z" stroke="black" stroke-width="0.5"/>
<path id="Vector_18" d="M1415.78 720H1449.18C1451.56 720 1453.74 719.165 1455.33 717.694C1462.03 711.331 1466 702.066 1466 693C1466 683.934 1462.03 674.669 1455.33 668.306C1453.74 666.835 1451.56 666 1449.18 666H1415.78C1413.32 666 1410.98 666.954 1409.31 668.624C1402.89 674.947 1399 684.053 1399 693C1399 702.066 1402.97 711.331 1409.67 717.694C1411.26 719.165 1413.44 720 1415.78 720ZM1415.78 714.473C1414.83 714.473 1414.11 714.194 1413.56 713.677C1408.04 708.389 1404.71 700.754 1404.71 693.199C1404.71 685.644 1408.08 677.85 1413.64 672.641C1414.19 672.124 1414.87 671.925 1415.78 671.925H1449.18C1450.17 671.925 1450.89 672.164 1451.4 672.72C1456.96 677.969 1460.29 685.644 1460.29 693.199C1460.29 700.754 1456.96 708.389 1451.4 713.677C1450.89 714.194 1450.17 714.473 1449.18 714.473H1415.78ZM1419.59 705.884C1421.29 705.884 1422.68 704.611 1422.68 702.862V683.536C1422.68 681.826 1421.29 680.434 1419.59 680.434C1417.84 680.434 1416.53 681.826 1416.53 683.536V702.862C1416.53 704.611 1417.84 705.884 1419.59 705.884ZM1445.37 705.884C1447.08 705.884 1448.43 704.571 1448.43 702.822V683.536C1448.43 681.826 1447.08 680.434 1445.37 680.434C1443.63 680.434 1442.32 681.826 1442.32 683.536V702.822C1442.32 704.571 1443.63 705.884 1445.37 705.884Z" stroke="black" stroke-width="0.5"/>
<path id="Vector_19" d="M1491.78 655H1525.18C1527.56 655 1529.74 654.165 1531.33 652.694C1538.03 646.331 1542 637.066 1542 628C1542 618.934 1538.03 609.669 1531.33 603.306C1529.74 601.835 1527.56 601 1525.18 601H1491.78C1489.32 601 1486.98 601.954 1485.31 603.624C1478.89 609.947 1475 619.053 1475 628C1475 637.066 1478.97 646.331 1485.67 652.694C1487.26 654.165 1489.44 655 1491.78 655ZM1491.78 649.473C1490.83 649.473 1490.11 649.194 1489.56 648.677C1484.04 643.389 1480.71 635.754 1480.71 628.199C1480.71 620.644 1484.08 612.85 1489.64 607.641C1490.19 607.124 1490.87 606.925 1491.78 606.925H1525.18C1526.17 606.925 1526.89 607.164 1527.4 607.72C1532.96 612.969 1536.29 620.644 1536.29 628.199C1536.29 635.754 1532.96 643.389 1527.4 648.677C1526.89 649.194 1526.17 649.473 1525.18 649.473H1491.78ZM1495.59 640.884C1497.29 640.884 1498.68 639.611 1498.68 637.862V618.536C1498.68 616.826 1497.29 615.434 1495.59 615.434C1493.84 615.434 1492.53 616.826 1492.53 618.536V637.862C1492.53 639.611 1493.84 640.884 1495.59 640.884ZM1521.37 640.884C1523.08 640.884 1524.43 639.571 1524.43 637.822V618.536C1524.43 616.826 1523.08 615.434 1521.37 615.434C1519.63 615.434 1518.32 616.826 1518.32 618.536V637.822C1518.32 639.571 1519.63 640.884 1521.37 640.884Z" stroke="black" stroke-width="0.5"/>
<path id="Vector_20" d="M1491.78 720H1525.18C1527.56 720 1529.74 719.165 1531.33 717.694C1538.03 711.331 1542 702.066 1542 693C1542 683.934 1538.03 674.669 1531.33 668.306C1529.74 666.835 1527.56 666 1525.18 666H1491.78C1489.32 666 1486.98 666.954 1485.31 668.624C1478.89 674.947 1475 684.053 1475 693C1475 702.066 1478.97 711.331 1485.67 717.694C1487.26 719.165 1489.44 720 1491.78 720ZM1491.78 714.473C1490.83 714.473 1490.11 714.194 1489.56 713.677C1484.04 708.389 1480.71 700.754 1480.71 693.199C1480.71 685.644 1484.08 677.85 1489.64 672.641C1490.19 672.124 1490.87 671.925 1491.78 671.925H1525.18C1526.17 671.925 1526.89 672.164 1527.4 672.72C1532.96 677.969 1536.29 685.644 1536.29 693.199C1536.29 700.754 1532.96 708.389 1527.4 713.677C1526.89 714.194 1526.17 714.473 1525.18 714.473H1491.78ZM1495.59 705.884C1497.29 705.884 1498.68 704.611 1498.68 702.862V683.536C1498.68 681.826 1497.29 680.434 1495.59 680.434C1493.84 680.434 1492.53 681.826 1492.53 683.536V702.862C1492.53 704.611 1493.84 705.884 1495.59 705.884ZM1521.37 705.884C1523.08 705.884 1524.43 704.571 1524.43 702.822V683.536C1524.43 681.826 1523.08 680.434 1521.37 680.434C1519.63 680.434 1518.32 681.826 1518.32 683.536V702.822C1518.32 704.571 1519.63 705.884 1521.37 705.884Z" stroke="black" stroke-width="0.5"/>
</g>
<g id="Ultralight-S">
<path id="Vector_21" d="M525.589 654H561.37C563.334 654 565.093 653.33 566.581 651.891C573.129 645.565 577 636.478 577 627.519C577 618.56 573.129 609.473 566.581 603.147C565.132 601.746 563.296 601 561.37 601H525.589C523.619 601 521.81 601.755 520.355 603.132C513.827 609.493 510 618.569 510 627.519C510 636.478 513.833 645.565 520.381 651.891C521.907 653.33 523.628 654 525.589 654ZM525.589 652.154C524.148 652.154 522.838 651.677 521.844 650.687C515.726 644.934 511.862 636.116 511.862 627.533C511.862 618.912 515.729 610.121 521.85 604.374C522.843 603.346 524.15 602.837 525.589 602.837H561.37C562.814 602.837 564.086 603.349 565.115 604.38C571.236 610.13 575.138 618.912 575.138 627.533C575.138 636.116 571.236 644.934 565.115 650.687C564.086 651.677 562.814 652.154 561.37 652.154H525.589ZM529.754 639.039C530.526 639.039 531.122 638.49 531.122 637.754V617.351C531.122 616.58 530.488 615.984 529.754 615.984C529.018 615.984 528.465 616.58 528.465 617.351V637.754C528.465 638.49 529.056 639.039 529.754 639.039ZM557.205 639.039C557.939 639.039 558.532 638.487 558.532 637.713V617.351C558.532 616.542 557.939 615.984 557.205 615.984C556.43 615.984 555.878 616.58 555.878 617.351V637.713C555.878 638.449 556.43 639.039 557.205 639.039Z" stroke="black" stroke-width="0.5"/>
<path id="Vector_22" d="M525.589 720H561.37C563.334 720 565.093 719.343 566.581 717.931C573.129 711.724 577 702.808 577 694.019C577 685.229 573.129 676.313 566.581 670.107C565.132 668.732 563.296 668 561.37 668H525.589C523.619 668 521.81 668.74 520.355 670.092C513.827 676.333 510 685.237 510 694.019C510 702.808 513.833 711.724 520.381 717.931C521.907 719.343 523.628 720 525.589 720ZM525.589 718.189C524.148 718.189 522.838 717.72 521.844 716.749C515.726 711.105 511.862 702.454 511.862 694.033C511.862 685.574 515.729 676.949 521.85 671.311C522.843 670.302 524.15 669.802 525.589 669.802H561.37C562.814 669.802 564.086 670.305 565.115 671.316C571.236 676.958 575.138 685.574 575.138 694.033C575.138 702.454 571.236 711.105 565.115 716.749C564.086 717.72 562.814 718.189 561.37 718.189H525.589ZM529.754 705.321C530.526 705.321 531.122 704.783 531.122 704.061V684.042C531.122 683.286 530.488 682.701 529.754 682.701C529.018 682.701 528.465 683.286 528.465 684.042V704.061C528.465 704.783 529.056 705.321 529.754 705.321ZM557.205 705.321C557.939 705.321 558.532 704.78 558.532 704.021V684.042C558.532 683.248 557.939 682.701 557.205 682.701C556.43 682.701 555.878 683.286 555.878 684.042V704.021C555.878 704.742 556.43 705.321 557.205 705.321Z" stroke="black" stroke-width="0.5"/>
<path id="Vector_23" d="M600.589 654H636.37C638.334 654 640.093 653.33 641.581 651.891C648.129 645.565 652 636.478 652 627.519C652 618.56 648.129 609.473 641.581 603.147C640.132 601.746 638.296 601 636.37 601H600.589C598.619 601 596.81 601.755 595.355 603.132C588.827 609.493 585 618.569 585 627.519C585 636.478 588.833 645.565 595.381 651.891C596.907 653.33 598.628 654 600.589 654ZM600.589 652.154C599.148 652.154 597.838 651.677 596.844 650.687C590.726 644.934 586.862 636.116 586.862 627.533C586.862 618.912 590.729 610.121 596.85 604.374C597.843 603.346 599.15 602.837 600.589 602.837H636.37C637.814 602.837 639.086 603.349 640.115 604.38C646.236 610.13 650.138 618.912 650.138 627.533C650.138 636.116 646.236 644.934 640.115 650.687C639.086 651.677 637.814 652.154 636.37 652.154H600.589ZM604.754 639.039C605.526 639.039 606.122 638.49 606.122 637.754V617.351C606.122 616.58 605.488 615.984 604.754 615.984C604.018 615.984 603.465 616.58 603.465 617.351V637.754C603.465 638.49 604.056 639.039 604.754 639.039ZM632.205 639.039C632.939 639.039 633.532 638.487 633.532 637.713V617.351C633.532 616.542 632.939 615.984 632.205 615.984C631.43 615.984 630.878 616.58 630.878 617.351V637.713C630.878 638.449 631.43 639.039 632.205 639.039Z" stroke="black" stroke-width="0.5"/>
<path id="Vector_24" d="M600.589 720H636.37C638.334 720 640.093 719.343 641.581 717.931C648.129 711.724 652 702.808 652 694.019C652 685.229 648.129 676.313 641.581 670.107C640.132 668.732 638.296 668 636.37 668H600.589C598.619 668 596.81 668.74 595.355 670.092C588.827 676.333 585 685.237 585 694.019C585 702.808 588.833 711.724 595.381 717.931C596.907 719.343 598.628 720 600.589 720ZM600.589 718.189C599.148 718.189 597.838 717.72 596.844 716.749C590.726 711.105 586.862 702.454 586.862 694.033C586.862 685.574 590.729 676.949 596.85 671.311C597.843 670.302 599.15 669.802 600.589 669.802H636.37C637.814 669.802 639.086 670.305 640.115 671.316C646.236 676.958 650.138 685.574 650.138 694.033C650.138 702.454 646.236 711.105 640.115 716.749C639.086 717.72 637.814 718.189 636.37 718.189H600.589ZM604.754 705.321C605.526 705.321 606.122 704.783 606.122 704.061V684.042C606.122 683.286 605.488 682.701 604.754 682.701C604.018 682.701 603.465 683.286 603.465 684.042V704.061C603.465 704.783 604.056 705.321 604.754 705.321ZM632.205 705.321C632.939 705.321 633.532 704.78 633.532 704.021V684.042C633.532 683.248 632.939 682.701 632.205 682.701C631.43 682.701 630.878 683.286 630.878 684.042V704.021C630.878 704.742 631.43 705.321 632.205 705.321Z" stroke="black" stroke-width="0.5"/>
</g>
</g>
</g>
<defs>
<clipPath id="clip0_1_2">
<rect width="3300" height="2200" fill="white"/>
</clipPath>
</defs>
</svg>
