<?xml version="1.0" encoding="UTF-8"?>
<svg height="600" width="800" xmlns="http://www.w3.org/2000/svg" xmlns:xlink="http://www.w3.org/1999/xlink">
    <g id="Notes" font-family="'LucidaGrande', 'Lucida Grande', sans-serif" font-size="13">
        <rect fill="white" height="600.0" width="800.0" x="0.0" y="0.0" />
        <g font-size="13">
            <text x="18.0" y="176.0">Small</text>
            <text x="18.0" y="376.0">Medium</text>
            <text x="18.0" y="576.0">Large</text>
        </g>
        <g font-size="9">
            <text x="250.0" y="30.0">Ultralight</text>
            <text x="450.0" y="30.0">Regular</text>
            <text x="650.0" y="30.0">Black</text>
            <text id="template-version" fill="#505050" text-anchor="end" x="785.0" y="575.0">Template v.3.0</text>
            <a href="https://github.com/swhitty/SwiftDraw">
                <text fill="#505050" text-anchor="end" x="785.0" y="590.0">https://github.com/swhitty/SwiftDraw</text>
            </a>
        </g>
    </g>
    <g id="Guides" stroke="rgb(39, 170, 225)" stroke-width="0.5">
        <path id="Capline-S" d="M18,76 l800,0" />
        <path id="H-reference" d="M85,145.755 L87.685,145.755 L113.369,79.287 L114.052,79.287 L114.052,76 L112.148,76 L85,145.755 Z M95.693,121.536 L130.996,121.536 L130.263,119.313 L96.474,119.313 L95.693,121.536 Z M139.15,145.755 L141.787,145.755 L114.638,76 L113.466,76 L113.466,79.287 L139.15,145.755 Z" stroke="none" />
        <path id="Baseline-S" d="M18,146 l800,0" />
        <path id="left-margin-Ultralight-S" d="M211,56 l0,110" />
        <path id="right-margin-Ultralight-S" d="M319,56 l0,110" />
        <path id="left-margin-Regular-S" d="M411,56 l0,110" />
        <path id="right-margin-Regular-S" d="M519,56 l0,110" />
        <path id="left-margin-Black-S" d="M611,56 l0,110" />
        <path id="right-margin-Black-S" d="M719,56 l0,110" />
        <path id="Capline-M" d="M18,276 l800,0" />
        <path id="Baseline-M" d="M18,346 l800,0" />
        <path id="Capline-L" d="M18,476 l800,0" />
        <path id="Baseline-L" d="M18,546 l800,0" />
    </g>
    <g id="Symbols">
        <g id="Ultralight-S">
            <path d="M266.955,85.656 C266.758,85.055 266.499,84.516 266.178,84.04 C265.862,83.558 265.484,83.147 265.044,82.807 C264.609,82.468 264.115,82.209 263.561,82.031 C263.007,81.852 262.4,81.763 261.739,81.763 C260.656,81.763 259.671,82.042 258.784,82.602 C257.896,83.162 257.191,83.986 256.667,85.076 C256.143,86.165 255.881,87.502 255.881,89.085 C255.881,90.669 256.146,92.006 256.676,93.095 C257.206,94.184 257.923,95.009 258.828,95.569 C259.733,96.128 260.751,96.408 261.882,96.408 C262.93,96.408 263.853,96.185 264.651,95.738 C265.454,95.286 266.079,94.649 266.526,93.827 C266.978,93 267.205,92.026 267.205,90.907 L267.883,91.05 L262.382,91.05 L262.382,89.085 L269.348,89.085 L269.348,91.05 C269.348,92.556 269.026,93.866 268.383,94.979 C267.747,96.093 266.865,96.956 265.74,97.569 C264.621,98.176 263.335,98.48 261.882,98.48 C260.263,98.48 258.84,98.099 257.614,97.337 C256.393,96.575 255.441,95.491 254.756,94.086 C254.077,92.681 253.738,91.014 253.738,89.085 C253.738,87.639 253.931,86.338 254.318,85.183 C254.711,84.022 255.265,83.034 255.979,82.218 C256.694,81.402 257.539,80.777 258.516,80.343 C259.492,79.908 260.567,79.691 261.739,79.691 C262.704,79.691 263.603,79.837 264.436,80.128 C265.276,80.414 266.023,80.822 266.678,81.352 C267.339,81.876 267.889,82.504 268.33,83.236 C268.771,83.962 269.074,84.769 269.241,85.656 L266.955,85.656 Z" />
            <path d="M273.141,98.23 L273.141,79.941 L284.107,79.941 L284.107,81.906 L275.356,81.906 L275.356,88.085 L283.286,88.085 L283.286,90.05 L275.356,90.05 L275.356,98.23 L273.141,98.23 Z" />
            <path d="M302.617,85.656 L300.403,85.656 C300.271,85.019 300.042,84.46 299.715,83.977 C299.393,83.495 299,83.09 298.536,82.763 C298.078,82.429 297.569,82.179 297.009,82.013 C296.449,81.846 295.866,81.763 295.259,81.763 C294.151,81.763 293.148,82.042 292.25,82.602 C291.356,83.162 290.645,83.986 290.115,85.076 C289.591,86.165 289.329,87.502 289.329,89.085 C289.329,90.669 289.591,92.006 290.115,93.095 C290.645,94.184 291.356,95.009 292.25,95.569 C293.148,96.128 294.151,96.408 295.259,96.408 C295.866,96.408 296.449,96.325 297.009,96.158 C297.569,95.991 298.078,95.744 298.536,95.417 C299,95.083 299.393,94.676 299.715,94.193 C300.042,93.705 300.271,93.146 300.403,92.515 L302.617,92.515 C302.451,93.449 302.147,94.286 301.706,95.024 C301.266,95.762 300.718,96.39 300.063,96.908 C299.408,97.42 298.673,97.81 297.857,98.078 C297.048,98.346 296.182,98.48 295.259,98.48 C293.699,98.48 292.312,98.099 291.097,97.337 C289.883,96.575 288.927,95.491 288.231,94.086 C287.534,92.681 287.186,91.014 287.186,89.085 C287.186,87.156 287.534,85.49 288.231,84.084 C288.927,82.679 289.883,81.596 291.097,80.834 C292.312,80.072 293.699,79.691 295.259,79.691 C296.182,79.691 297.048,79.825 297.857,80.093 C298.673,80.361 299.408,80.754 300.063,81.271 C300.718,81.783 301.266,82.409 301.706,83.147 C302.147,83.879 302.451,84.716 302.617,85.656 Z" />
            <path d="M308.411,79.941 L308.411,98.23 L306.196,98.23 L306.196,79.941 L308.411,79.941 Z" />
            <path d="M248.701,143.417 L248.701,78.583 L247.523,78.583 L247.523,143.417 L248.701,143.417 Z M234.556,143.417 L234.556,78.583 L233.377,78.583 L233.377,143.417 L234.556,143.417 Z M222.179,118.662 C222.179,108.137 230.711,99.605 241.236,99.605 C251.761,99.605 260.293,108.137 260.293,118.662 C260.293,129.187 251.761,137.719 241.236,137.719 C230.711,137.719 222.179,129.187 222.179,118.662 Z M221,118.662 C221,129.838 230.06,138.898 241.236,138.898 C252.412,138.898 261.471,129.838 261.471,118.662 C261.471,107.486 252.412,98.426 241.236,98.426 C230.06,98.426 221,107.486 221,118.662 Z M267.515,85.473 C267.302,84.822 267.019,84.233 266.666,83.71 C266.319,83.18 265.897,82.721 265.403,82.341 C264.917,81.961 264.361,81.669 263.742,81.47 C263.128,81.271 262.46,81.173 261.739,81.173 C260.545,81.173 259.451,81.484 258.469,82.104 C257.485,82.725 256.706,83.634 256.136,84.82 C255.571,85.996 255.292,87.419 255.292,89.085 C255.292,90.753 255.574,92.177 256.146,93.353 C256.723,94.539 257.515,95.449 258.518,96.07 C259.518,96.688 260.643,96.997 261.882,96.997 C263.028,96.997 264.05,96.75 264.939,96.253 C265.84,95.745 266.544,95.027 267.044,94.109 C267.545,93.191 267.794,92.121 267.794,90.907 L267.083,91.484 L267.762,91.627 L267.883,90.461 L262.382,90.461 L262.972,91.05 L262.972,89.085 L262.382,89.675 L269.348,89.675 L268.758,89.085 L268.758,91.05 C268.758,92.457 268.462,93.665 267.873,94.685 C267.289,95.705 266.487,96.49 265.458,97.052 C264.429,97.61 263.24,97.891 261.882,97.891 C260.37,97.891 259.055,97.538 257.925,96.836 C256.801,96.135 255.923,95.136 255.286,93.828 C254.649,92.51 254.327,90.93 254.327,89.085 C254.327,87.7 254.512,86.462 254.877,85.37 C255.246,84.282 255.761,83.362 256.423,82.606 C257.081,81.855 257.857,81.281 258.755,80.881 C259.654,80.481 260.647,80.28 261.739,80.28 C262.639,80.28 263.472,80.415 264.241,80.685 C265.021,80.95 265.707,81.324 266.307,81.81 C266.917,82.293 267.42,82.868 267.825,83.54 C268.229,84.206 268.507,84.946 268.662,85.765 L269.241,85.067 L266.955,85.067 L267.515,85.473 Z M266.395,85.839 L266.527,86.246 L266.955,86.246 L269.241,86.246 L269.952,86.246 L269.82,85.547 C269.64,84.591 269.312,83.718 268.834,82.93 C268.358,82.139 267.76,81.458 267.044,80.89 C266.339,80.319 265.53,79.878 264.626,79.57 C263.733,79.258 262.769,79.101 261.739,79.101 C260.486,79.101 259.33,79.335 258.276,79.804 C257.221,80.274 256.307,80.95 255.536,81.83 C254.769,82.706 254.177,83.762 253.76,84.994 C253.351,86.214 253.149,87.578 253.149,89.085 C253.149,91.099 253.506,92.853 254.225,94.343 C254.958,95.847 255.985,97.015 257.302,97.837 C258.625,98.659 260.156,99.069 261.882,99.069 C263.43,99.069 264.812,98.743 266.021,98.087 C267.243,97.421 268.204,96.48 268.895,95.272 C269.591,94.067 269.937,92.656 269.937,91.05 L269.937,89.085 L269.937,88.496 L269.348,88.496 L262.382,88.496 L261.793,88.496 L261.793,89.085 L261.793,91.05 L261.793,91.639 L262.382,91.639 L267.883,91.639 L268.005,90.473 L267.326,90.33 L266.615,90.181 L266.615,90.907 C266.615,91.931 266.412,92.808 266.009,93.545 C265.614,94.27 265.068,94.827 264.362,95.225 C263.657,95.619 262.833,95.819 261.882,95.819 C260.859,95.819 259.948,95.568 259.138,95.067 C258.332,94.569 257.689,93.83 257.206,92.837 C256.718,91.834 256.471,90.585 256.471,89.085 C256.471,87.585 256.716,86.335 257.198,85.331 C257.676,84.338 258.308,83.599 259.098,83.101 C259.89,82.601 260.766,82.352 261.739,82.352 C262.341,82.352 262.887,82.432 263.38,82.591 C263.869,82.749 264.302,82.976 264.681,83.272 C265.072,83.573 265.405,83.935 265.684,84.363 C265.979,84.8 266.215,85.289 266.395,85.839 Z M273.73,98.23 L273.73,79.941 L273.141,80.53 L284.107,80.53 L283.518,79.941 L283.518,81.906 L284.107,81.316 L275.356,81.316 L274.766,81.316 L274.766,81.906 L274.766,88.085 L274.766,88.675 L275.356,88.675 L283.286,88.675 L282.696,88.085 L282.696,90.05 L283.286,89.46 L275.356,89.46 L274.766,89.46 L274.766,90.05 L274.766,98.23 L275.356,97.64 L273.141,97.64 L273.73,98.23 Z M272.552,98.23 L272.552,98.819 L273.141,98.819 L275.356,98.819 L275.945,98.819 L275.945,98.23 L275.945,90.05 L275.356,90.639 L283.286,90.639 L283.875,90.639 L283.875,90.05 L283.875,88.085 L283.875,87.496 L283.286,87.496 L275.356,87.496 L275.945,88.085 L275.945,81.906 L275.356,82.495 L284.107,82.495 L284.697,82.495 L284.697,81.906 L284.697,79.941 L284.697,79.351 L284.107,79.351 L273.141,79.351 L272.552,79.351 L272.552,79.941 L272.552,98.23 Z M302.617,85.067 L300.403,85.067 L300.98,85.537 C300.833,84.826 300.575,84.194 300.203,83.646 C299.844,83.108 299.4,82.651 298.876,82.281 C298.37,81.913 297.8,81.633 297.177,81.448 C296.563,81.265 295.922,81.173 295.259,81.173 C294.042,81.173 292.931,81.483 291.938,82.102 C290.946,82.723 290.161,83.633 289.585,84.818 C289.019,85.995 288.74,87.418 288.74,89.085 C288.74,90.753 289.019,92.175 289.584,93.351 C290.161,94.538 290.946,95.447 291.937,96.068 C292.931,96.688 294.042,96.997 295.259,96.997 C295.922,96.997 296.563,96.906 297.177,96.723 C297.799,96.538 298.367,96.262 298.879,95.897 C299.402,95.521 299.844,95.061 300.205,94.521 C300.575,93.969 300.833,93.339 300.98,92.635 L300.403,93.104 L302.617,93.104 L302.037,92.411 C301.883,93.277 301.603,94.046 301.2,94.722 C300.796,95.399 300.296,95.973 299.698,96.446 C299.099,96.914 298.425,97.271 297.673,97.518 C296.924,97.766 296.12,97.891 295.259,97.891 C293.807,97.891 292.529,97.539 291.411,96.838 C290.291,96.135 289.408,95.134 288.759,93.824 C288.105,92.505 287.775,90.927 287.775,89.085 C287.775,87.243 288.105,85.665 288.759,84.346 C289.408,83.037 290.291,82.036 291.411,81.333 C292.529,80.631 293.807,80.28 295.259,80.28 C296.12,80.28 296.924,80.405 297.672,80.652 C298.424,80.899 299.097,81.259 299.698,81.734 C300.297,82.203 300.797,82.773 301.2,83.449 C301.604,84.119 301.883,84.888 302.037,85.759 L302.617,85.067 Z M302.617,86.246 L303.32,86.246 L303.198,85.553 C303.019,84.544 302.69,83.639 302.212,82.843 C301.735,82.045 301.139,81.364 300.426,80.807 C299.719,80.248 298.922,79.822 298.041,79.533 C297.172,79.245 296.243,79.101 295.259,79.101 C293.591,79.101 292.095,79.512 290.784,80.335 C289.475,81.156 288.446,82.322 287.703,83.823 C286.963,85.314 286.596,87.07 286.596,89.085 C286.596,91.1 286.963,92.857 287.703,94.348 C288.446,95.848 289.475,97.015 290.784,97.836 C292.095,98.658 293.591,99.069 295.259,99.069 C296.243,99.069 297.172,98.926 298.043,98.638 C298.921,98.349 299.717,97.927 300.426,97.373 C301.14,96.808 301.736,96.125 302.213,95.326 C302.691,94.525 303.019,93.621 303.198,92.618 L303.321,91.925 L302.617,91.925 L300.403,91.925 L299.923,91.925 L299.826,92.395 C299.71,92.953 299.509,93.442 299.226,93.865 C298.942,94.29 298.599,94.646 298.192,94.938 C297.789,95.226 297.339,95.445 296.841,95.593 C296.336,95.743 295.81,95.819 295.259,95.819 C294.26,95.819 293.365,95.569 292.561,95.068 C291.766,94.57 291.128,93.831 290.645,92.837 C290.164,91.836 289.919,90.586 289.919,89.085 C289.919,87.585 290.164,86.334 290.646,85.331 C291.128,84.34 291.766,83.6 292.562,83.102 C293.365,82.602 294.26,82.352 295.259,82.352 C295.81,82.352 296.336,82.427 296.841,82.578 C297.337,82.725 297.786,82.946 298.19,83.24 C298.601,83.53 298.943,83.882 299.225,84.304 C299.51,84.724 299.709,85.212 299.825,85.775 L299.922,86.246 L300.403,86.246 L302.617,86.246 Z M307.821,79.941 L307.821,98.23 L308.411,97.64 L306.196,97.64 L306.785,98.23 L306.785,79.941 L306.196,80.53 L308.411,80.53 L307.821,79.941 Z M309,79.941 L309,79.351 L308.411,79.351 L306.196,79.351 L305.607,79.351 L305.607,79.941 L305.607,98.23 L305.607,98.819 L306.196,98.819 L308.411,98.819 L309,98.819 L309,98.23 L309,79.941 Z" />
        </g>
        <g id="Regular-S">
            <path d="M466.955,85.656 C466.758,85.055 466.499,84.516 466.178,84.04 C465.862,83.558 465.484,83.147 465.044,82.807 C464.609,82.468 464.115,82.209 463.561,82.031 C463.007,81.852 462.4,81.763 461.739,81.763 C460.656,81.763 459.671,82.042 458.784,82.602 C457.896,83.162 457.191,83.986 456.667,85.076 C456.143,86.165 455.881,87.502 455.881,89.085 C455.881,90.669 456.146,92.006 456.676,93.095 C457.206,94.184 457.923,95.009 458.828,95.569 C459.733,96.128 460.751,96.408 461.882,96.408 C462.93,96.408 463.853,96.185 464.651,95.738 C465.454,95.286 466.079,94.649 466.526,93.827 C466.978,93 467.205,92.026 467.205,90.907 L467.883,91.05 L462.382,91.05 L462.382,89.085 L469.348,89.085 L469.348,91.05 C469.348,92.556 469.026,93.866 468.383,94.979 C467.747,96.093 466.865,96.956 465.74,97.569 C464.621,98.176 463.335,98.48 461.882,98.48 C460.263,98.48 458.84,98.099 457.614,97.337 C456.393,96.575 455.441,95.491 454.756,94.086 C454.077,92.681 453.738,91.014 453.738,89.085 C453.738,87.639 453.931,86.338 454.318,85.183 C454.711,84.022 455.265,83.034 455.979,82.218 C456.694,81.402 457.539,80.777 458.516,80.343 C459.492,79.908 460.567,79.691 461.739,79.691 C462.704,79.691 463.603,79.837 464.436,80.128 C465.276,80.414 466.023,80.822 466.678,81.352 C467.339,81.876 467.889,82.504 468.33,83.236 C468.771,83.962 469.074,84.769 469.241,85.656 L466.955,85.656 Z" />
            <path d="M473.141,98.23 L473.141,79.941 L484.107,79.941 L484.107,81.906 L475.356,81.906 L475.356,88.085 L483.286,88.085 L483.286,90.05 L475.356,90.05 L475.356,98.23 L473.141,98.23 Z" />
            <path d="M502.617,85.656 L500.403,85.656 C500.271,85.019 500.042,84.46 499.715,83.977 C499.393,83.495 499,83.09 498.536,82.763 C498.078,82.429 497.569,82.179 497.009,82.013 C496.449,81.846 495.866,81.763 495.259,81.763 C494.151,81.763 493.148,82.042 492.25,82.602 C491.356,83.162 490.645,83.986 490.115,85.076 C489.591,86.165 489.329,87.502 489.329,89.085 C489.329,90.669 489.591,92.006 490.115,93.095 C490.645,94.184 491.356,95.009 492.25,95.569 C493.148,96.128 494.151,96.408 495.259,96.408 C495.866,96.408 496.449,96.325 497.009,96.158 C497.569,95.991 498.078,95.744 498.536,95.417 C499,95.083 499.393,94.676 499.715,94.193 C500.042,93.705 500.271,93.146 500.403,92.515 L502.617,92.515 C502.451,93.449 502.147,94.286 501.706,95.024 C501.266,95.762 500.718,96.39 500.063,96.908 C499.408,97.42 498.673,97.81 497.857,98.078 C497.048,98.346 496.182,98.48 495.259,98.48 C493.699,98.48 492.312,98.099 491.097,97.337 C489.883,96.575 488.927,95.491 488.231,94.086 C487.534,92.681 487.186,91.014 487.186,89.085 C487.186,87.156 487.534,85.49 488.231,84.084 C488.927,82.679 489.883,81.596 491.097,80.834 C492.312,80.072 493.699,79.691 495.259,79.691 C496.182,79.691 497.048,79.825 497.857,80.093 C498.673,80.361 499.408,80.754 500.063,81.271 C500.718,81.783 501.266,82.409 501.706,83.147 C502.147,83.879 502.451,84.716 502.617,85.656 Z" />
            <path d="M508.411,79.941 L508.411,98.23 L506.196,98.23 L506.196,79.941 L508.411,79.941 Z" />
            <path d="M448.701,143.417 L448.701,78.583 L447.523,78.583 L447.523,143.417 L448.701,143.417 Z M434.556,143.417 L434.556,78.583 L433.377,78.583 L433.377,143.417 L434.556,143.417 Z M422.179,118.662 C422.179,108.137 430.711,99.605 441.236,99.605 C451.761,99.605 460.293,108.137 460.293,118.662 C460.293,129.187 451.761,137.719 441.236,137.719 C430.711,137.719 422.179,129.187 422.179,118.662 Z M421,118.662 C421,129.838 430.06,138.898 441.236,138.898 C452.412,138.898 461.471,129.838 461.471,118.662 C461.471,107.486 452.412,98.426 441.236,98.426 C430.06,98.426 421,107.486 421,118.662 Z M467.515,85.473 C467.302,84.822 467.019,84.233 466.666,83.71 C466.319,83.18 465.897,82.721 465.403,82.341 C464.917,81.961 464.361,81.669 463.742,81.47 C463.128,81.271 462.46,81.173 461.739,81.173 C460.545,81.173 459.451,81.484 458.469,82.104 C457.485,82.725 456.706,83.634 456.136,84.82 C455.571,85.996 455.292,87.419 455.292,89.085 C455.292,90.753 455.574,92.177 456.146,93.353 C456.723,94.539 457.515,95.449 458.518,96.07 C459.518,96.688 460.643,96.997 461.882,96.997 C463.028,96.997 464.05,96.75 464.939,96.253 C465.84,95.745 466.544,95.027 467.044,94.109 C467.545,93.191 467.794,92.121 467.794,90.907 L467.083,91.484 L467.762,91.627 L467.883,90.461 L462.382,90.461 L462.972,91.05 L462.972,89.085 L462.382,89.675 L469.348,89.675 L468.758,89.085 L468.758,91.05 C468.758,92.457 468.462,93.665 467.873,94.685 C467.289,95.705 466.487,96.49 465.458,97.052 C464.429,97.61 463.24,97.891 461.882,97.891 C460.37,97.891 459.055,97.538 457.925,96.836 C456.801,96.135 455.923,95.136 455.286,93.828 C454.649,92.51 454.327,90.93 454.327,89.085 C454.327,87.7 454.512,86.462 454.877,85.37 C455.246,84.282 455.761,83.362 456.423,82.606 C457.081,81.855 457.857,81.281 458.755,80.881 C459.654,80.481 460.647,80.28 461.739,80.28 C462.639,80.28 463.472,80.415 464.241,80.685 C465.021,80.95 465.707,81.324 466.307,81.81 C466.917,82.293 467.42,82.868 467.825,83.54 C468.229,84.206 468.507,84.946 468.662,85.765 L469.241,85.067 L466.955,85.067 L467.515,85.473 Z M466.395,85.839 L466.527,86.246 L466.955,86.246 L469.241,86.246 L469.952,86.246 L469.82,85.547 C469.64,84.591 469.312,83.718 468.834,82.93 C468.358,82.139 467.76,81.458 467.044,80.89 C466.339,80.319 465.53,79.878 464.626,79.57 C463.733,79.258 462.769,79.101 461.739,79.101 C460.486,79.101 459.33,79.335 458.276,79.804 C457.221,80.274 456.307,80.95 455.536,81.83 C454.769,82.706 454.177,83.762 453.76,84.994 C453.351,86.214 453.149,87.578 453.149,89.085 C453.149,91.099 453.506,92.853 454.225,94.343 C454.958,95.847 455.985,97.015 457.302,97.837 C458.625,98.659 460.156,99.069 461.882,99.069 C463.43,99.069 464.812,98.743 466.021,98.087 C467.243,97.421 468.204,96.48 468.895,95.272 C469.591,94.067 469.937,92.656 469.937,91.05 L469.937,89.085 L469.937,88.496 L469.348,88.496 L462.382,88.496 L461.793,88.496 L461.793,89.085 L461.793,91.05 L461.793,91.639 L462.382,91.639 L467.883,91.639 L468.005,90.473 L467.326,90.33 L466.615,90.181 L466.615,90.907 C466.615,91.931 466.412,92.808 466.009,93.545 C465.614,94.27 465.068,94.827 464.362,95.225 C463.657,95.619 462.833,95.819 461.882,95.819 C460.859,95.819 459.948,95.568 459.138,95.067 C458.332,94.569 457.689,93.83 457.206,92.837 C456.718,91.834 456.471,90.585 456.471,89.085 C456.471,87.585 456.716,86.335 457.198,85.331 C457.676,84.338 458.308,83.599 459.098,83.101 C459.89,82.601 460.766,82.352 461.739,82.352 C462.341,82.352 462.887,82.432 463.38,82.591 C463.869,82.749 464.302,82.976 464.681,83.272 C465.072,83.573 465.405,83.935 465.684,84.363 C465.979,84.8 466.215,85.289 466.395,85.839 Z M473.73,98.23 L473.73,79.941 L473.141,80.53 L484.107,80.53 L483.518,79.941 L483.518,81.906 L484.107,81.316 L475.356,81.316 L474.766,81.316 L474.766,81.906 L474.766,88.085 L474.766,88.675 L475.356,88.675 L483.286,88.675 L482.696,88.085 L482.696,90.05 L483.286,89.46 L475.356,89.46 L474.766,89.46 L474.766,90.05 L474.766,98.23 L475.356,97.64 L473.141,97.64 L473.73,98.23 Z M472.552,98.23 L472.552,98.819 L473.141,98.819 L475.356,98.819 L475.945,98.819 L475.945,98.23 L475.945,90.05 L475.356,90.639 L483.286,90.639 L483.875,90.639 L483.875,90.05 L483.875,88.085 L483.875,87.496 L483.286,87.496 L475.356,87.496 L475.945,88.085 L475.945,81.906 L475.356,82.495 L484.107,82.495 L484.697,82.495 L484.697,81.906 L484.697,79.941 L484.697,79.351 L484.107,79.351 L473.141,79.351 L472.552,79.351 L472.552,79.941 L472.552,98.23 Z M502.617,85.067 L500.403,85.067 L500.98,85.537 C500.833,84.826 500.575,84.194 500.203,83.646 C499.844,83.108 499.4,82.651 498.876,82.281 C498.37,81.913 497.8,81.633 497.177,81.448 C496.563,81.265 495.922,81.173 495.259,81.173 C494.042,81.173 492.931,81.483 491.938,82.102 C490.946,82.723 490.161,83.633 489.585,84.818 C489.019,85.995 488.74,87.418 488.74,89.085 C488.74,90.753 489.019,92.175 489.584,93.351 C490.161,94.538 490.946,95.447 491.937,96.068 C492.931,96.688 494.042,96.997 495.259,96.997 C495.922,96.997 496.563,96.906 497.177,96.723 C497.799,96.538 498.367,96.262 498.879,95.897 C499.402,95.521 499.844,95.061 500.205,94.521 C500.575,93.969 500.833,93.339 500.98,92.635 L500.403,93.104 L502.617,93.104 L502.037,92.411 C501.883,93.277 501.603,94.046 501.2,94.722 C500.796,95.399 500.296,95.973 499.698,96.446 C499.099,96.914 498.425,97.271 497.673,97.518 C496.924,97.766 496.12,97.891 495.259,97.891 C493.807,97.891 492.529,97.539 491.411,96.838 C490.291,96.135 489.408,95.134 488.759,93.824 C488.105,92.505 487.775,90.927 487.775,89.085 C487.775,87.243 488.105,85.665 488.759,84.346 C489.408,83.037 490.291,82.036 491.411,81.333 C492.529,80.631 493.807,80.28 495.259,80.28 C496.12,80.28 496.924,80.405 497.672,80.652 C498.424,80.899 499.097,81.259 499.698,81.734 C500.297,82.203 500.797,82.773 501.2,83.449 C501.604,84.119 501.883,84.888 502.037,85.759 L502.617,85.067 Z M502.617,86.246 L503.32,86.246 L503.198,85.553 C503.019,84.544 502.69,83.639 502.212,82.843 C501.735,82.045 501.139,81.364 500.426,80.807 C499.719,80.248 498.922,79.822 498.041,79.533 C497.172,79.245 496.243,79.101 495.259,79.101 C493.591,79.101 492.095,79.512 490.784,80.335 C489.475,81.156 488.446,82.322 487.703,83.823 C486.963,85.314 486.596,87.07 486.596,89.085 C486.596,91.1 486.963,92.857 487.703,94.348 C488.446,95.848 489.475,97.015 490.784,97.836 C492.095,98.658 493.591,99.069 495.259,99.069 C496.243,99.069 497.172,98.926 498.043,98.638 C498.921,98.349 499.717,97.927 500.426,97.373 C501.14,96.808 501.736,96.125 502.213,95.326 C502.691,94.525 503.019,93.621 503.198,92.618 L503.321,91.925 L502.617,91.925 L500.403,91.925 L499.923,91.925 L499.826,92.395 C499.71,92.953 499.509,93.442 499.226,93.865 C498.942,94.29 498.599,94.646 498.192,94.938 C497.789,95.226 497.339,95.445 496.841,95.593 C496.336,95.743 495.81,95.819 495.259,95.819 C494.26,95.819 493.365,95.569 492.561,95.068 C491.766,94.57 491.128,93.831 490.645,92.837 C490.164,91.836 489.919,90.586 489.919,89.085 C489.919,87.585 490.164,86.334 490.646,85.331 C491.128,84.34 491.766,83.6 492.562,83.102 C493.365,82.602 494.26,82.352 495.259,82.352 C495.81,82.352 496.336,82.427 496.841,82.578 C497.337,82.725 497.786,82.946 498.19,83.24 C498.601,83.53 498.943,83.882 499.225,84.304 C499.51,84.724 499.709,85.212 499.825,85.775 L499.922,86.246 L500.403,86.246 L502.617,86.246 Z M507.821,79.941 L507.821,98.23 L508.411,97.64 L506.196,97.64 L506.785,98.23 L506.785,79.941 L506.196,80.53 L508.411,80.53 L507.821,79.941 Z M509,79.941 L509,79.351 L508.411,79.351 L506.196,79.351 L505.607,79.351 L505.607,79.941 L505.607,98.23 L505.607,98.819 L506.196,98.819 L508.411,98.819 L509,98.819 L509,98.23 L509,79.941 Z" />
        </g>
        <g id="Black-S">
            <path d="M666.955,85.656 C666.758,85.055 666.499,84.516 666.178,84.04 C665.862,83.558 665.484,83.147 665.044,82.807 C664.609,82.468 664.115,82.209 663.561,82.031 C663.007,81.852 662.4,81.763 661.74,81.763 C660.656,81.763 659.671,82.042 658.784,82.602 C657.896,83.162 657.191,83.986 656.667,85.076 C656.143,86.165 655.881,87.502 655.881,89.085 C655.881,90.669 656.146,92.006 656.676,93.095 C657.206,94.184 657.923,95.009 658.828,95.569 C659.733,96.128 660.751,96.408 661.882,96.408 C662.93,96.408 663.853,96.185 664.651,95.738 C665.454,95.286 666.079,94.649 666.526,93.827 C666.978,93 667.205,92.026 667.205,90.907 L667.883,91.05 L662.382,91.05 L662.382,89.085 L669.348,89.085 L669.348,91.05 C669.348,92.556 669.026,93.866 668.383,94.979 C667.747,96.093 666.865,96.956 665.74,97.569 C664.621,98.176 663.335,98.48 661.882,98.48 C660.263,98.48 658.84,98.099 657.614,97.337 C656.393,96.575 655.441,95.491 654.756,94.086 C654.077,92.681 653.738,91.014 653.738,89.085 C653.738,87.639 653.931,86.338 654.318,85.183 C654.711,84.022 655.265,83.034 655.979,82.218 C656.694,81.402 657.539,80.777 658.516,80.343 C659.492,79.908 660.567,79.691 661.74,79.691 C662.704,79.691 663.603,79.837 664.436,80.128 C665.276,80.414 666.023,80.822 666.678,81.352 C667.339,81.876 667.889,82.504 668.33,83.236 C668.771,83.962 669.074,84.769 669.241,85.656 L666.955,85.656 Z" />
            <path d="M673.141,98.23 L673.141,79.941 L684.107,79.941 L684.107,81.906 L675.356,81.906 L675.356,88.085 L683.286,88.085 L683.286,90.05 L675.356,90.05 L675.356,98.23 L673.141,98.23 Z" />
            <path d="M702.617,85.656 L700.403,85.656 C700.271,85.019 700.042,84.46 699.715,83.977 C699.393,83.495 699,83.09 698.536,82.763 C698.078,82.429 697.569,82.179 697.009,82.013 C696.449,81.846 695.866,81.763 695.259,81.763 C694.151,81.763 693.148,82.042 692.25,82.602 C691.356,83.162 690.645,83.986 690.115,85.076 C689.591,86.165 689.329,87.502 689.329,89.085 C689.329,90.669 689.591,92.006 690.115,93.095 C690.645,94.184 691.356,95.009 692.25,95.569 C693.148,96.128 694.151,96.408 695.259,96.408 C695.866,96.408 696.449,96.325 697.009,96.158 C697.569,95.991 698.078,95.744 698.536,95.417 C699,95.083 699.393,94.676 699.715,94.193 C700.042,93.705 700.271,93.146 700.403,92.515 L702.617,92.515 C702.451,93.449 702.147,94.286 701.706,95.024 C701.266,95.762 700.718,96.39 700.063,96.908 C699.408,97.42 698.673,97.81 697.857,98.078 C697.048,98.346 696.182,98.48 695.259,98.48 C693.699,98.48 692.312,98.099 691.097,97.337 C689.883,96.575 688.927,95.491 688.231,94.086 C687.534,92.681 687.186,91.014 687.186,89.085 C687.186,87.156 687.534,85.49 688.231,84.084 C688.927,82.679 689.883,81.596 691.097,80.834 C692.312,80.072 693.699,79.691 695.259,79.691 C696.182,79.691 697.048,79.825 697.857,80.093 C698.673,80.361 699.408,80.754 700.063,81.271 C700.718,81.783 701.266,82.409 701.706,83.147 C702.147,83.879 702.451,84.716 702.617,85.656 Z" />
            <path d="M708.411,79.941 L708.411,98.23 L706.196,98.23 L706.196,79.941 L708.411,79.941 Z" />
            <path d="M648.701,143.417 L648.701,78.583 L647.523,78.583 L647.523,143.417 L648.701,143.417 Z M634.556,143.417 L634.556,78.583 L633.377,78.583 L633.377,143.417 L634.556,143.417 Z M622.179,118.662 C622.179,108.137 630.711,99.605 641.236,99.605 C651.761,99.605 660.293,108.137 660.293,118.662 C660.293,129.187 651.761,137.719 641.236,137.719 C630.711,137.719 622.179,129.187 622.179,118.662 Z M621,118.662 C621,129.838 630.06,138.898 641.236,138.898 C652.412,138.898 661.471,129.838 661.471,118.662 C661.471,107.486 652.412,98.426 641.236,98.426 C630.06,98.426 621,107.486 621,118.662 Z M667.515,85.473 C667.302,84.822 667.019,84.233 666.666,83.71 C666.319,83.18 665.896,82.721 665.403,82.341 C664.917,81.961 664.361,81.669 663.742,81.47 C663.128,81.271 662.46,81.173 661.74,81.173 C660.545,81.173 659.451,81.484 658.469,82.104 C657.485,82.725 656.706,83.634 656.136,84.82 C655.571,85.996 655.292,87.419 655.292,89.085 C655.292,90.753 655.574,92.177 656.146,93.353 C656.723,94.539 657.515,95.449 658.518,96.07 C659.518,96.688 660.643,96.997 661.882,96.997 C663.028,96.997 664.05,96.75 664.939,96.253 C665.84,95.745 666.544,95.027 667.044,94.109 C667.545,93.191 667.794,92.121 667.794,90.907 L667.083,91.484 L667.762,91.627 L667.883,90.461 L662.382,90.461 L662.972,91.05 L662.972,89.085 L662.382,89.675 L669.348,89.675 L668.758,89.085 L668.758,91.05 C668.758,92.457 668.462,93.665 667.873,94.685 C667.289,95.705 666.487,96.49 665.458,97.052 C664.429,97.61 663.24,97.891 661.882,97.891 C660.37,97.891 659.055,97.538 657.925,96.836 C656.801,96.135 655.923,95.136 655.286,93.828 C654.649,92.51 654.327,90.93 654.327,89.085 C654.327,87.7 654.512,86.462 654.877,85.37 C655.246,84.282 655.761,83.362 656.423,82.606 C657.081,81.855 657.857,81.281 658.755,80.881 C659.654,80.481 660.647,80.28 661.74,80.28 C662.639,80.28 663.472,80.415 664.241,80.685 C665.021,80.95 665.707,81.324 666.307,81.81 C666.917,82.293 667.42,82.868 667.825,83.54 C668.229,84.206 668.507,84.946 668.662,85.765 L669.241,85.067 L666.955,85.067 L667.515,85.473 Z M666.395,85.839 L666.527,86.246 L666.955,86.246 L669.241,86.246 L669.952,86.246 L669.82,85.547 C669.64,84.591 669.312,83.718 668.834,82.93 C668.358,82.139 667.76,81.458 667.044,80.89 C666.339,80.319 665.53,79.878 664.626,79.57 C663.733,79.258 662.769,79.101 661.74,79.101 C660.486,79.101 659.33,79.335 658.276,79.804 C657.221,80.274 656.307,80.95 655.536,81.83 C654.769,82.706 654.177,83.762 653.76,84.994 C653.351,86.214 653.149,87.578 653.149,89.085 C653.149,91.099 653.506,92.853 654.225,94.343 C654.958,95.847 655.985,97.015 657.302,97.837 C658.625,98.659 660.156,99.069 661.882,99.069 C663.43,99.069 664.812,98.743 666.021,98.087 C667.243,97.421 668.204,96.48 668.895,95.272 C669.591,94.067 669.937,92.656 669.937,91.05 L669.937,89.085 L669.937,88.496 L669.348,88.496 L662.382,88.496 L661.793,88.496 L661.793,89.085 L661.793,91.05 L661.793,91.639 L662.382,91.639 L667.883,91.639 L668.005,90.473 L667.326,90.33 L666.615,90.181 L666.615,90.907 C666.615,91.931 666.412,92.808 666.009,93.545 C665.614,94.27 665.068,94.827 664.362,95.225 C663.656,95.619 662.833,95.819 661.882,95.819 C660.859,95.819 659.948,95.568 659.138,95.067 C658.332,94.569 657.689,93.83 657.206,92.837 C656.718,91.834 656.471,90.585 656.471,89.085 C656.471,87.585 656.716,86.335 657.198,85.331 C657.676,84.338 658.308,83.599 659.098,83.101 C659.89,82.601 660.766,82.352 661.74,82.352 C662.341,82.352 662.887,82.432 663.38,82.591 C663.869,82.749 664.302,82.976 664.681,83.272 C665.072,83.573 665.405,83.935 665.684,84.363 C665.979,84.8 666.215,85.289 666.395,85.839 Z M673.73,98.23 L673.73,79.941 L673.141,80.53 L684.107,80.53 L683.518,79.941 L683.518,81.906 L684.107,81.316 L675.356,81.316 L674.766,81.316 L674.766,81.906 L674.766,88.085 L674.766,88.675 L675.356,88.675 L683.286,88.675 L682.696,88.085 L682.696,90.05 L683.286,89.46 L675.356,89.46 L674.766,89.46 L674.766,90.05 L674.766,98.23 L675.356,97.64 L673.141,97.64 L673.73,98.23 Z M672.552,98.23 L672.552,98.819 L673.141,98.819 L675.356,98.819 L675.945,98.819 L675.945,98.23 L675.945,90.05 L675.356,90.639 L683.286,90.639 L683.875,90.639 L683.875,90.05 L683.875,88.085 L683.875,87.496 L683.286,87.496 L675.356,87.496 L675.945,88.085 L675.945,81.906 L675.356,82.495 L684.107,82.495 L684.697,82.495 L684.697,81.906 L684.697,79.941 L684.697,79.351 L684.107,79.351 L673.141,79.351 L672.552,79.351 L672.552,79.941 L672.552,98.23 Z M702.617,85.067 L700.403,85.067 L700.98,85.537 C700.833,84.826 700.575,84.194 700.203,83.646 C699.844,83.108 699.4,82.651 698.876,82.281 C698.37,81.913 697.8,81.633 697.177,81.448 C696.563,81.265 695.922,81.173 695.259,81.173 C694.042,81.173 692.931,81.483 691.938,82.102 C690.946,82.723 690.161,83.633 689.585,84.818 C689.019,85.995 688.74,87.418 688.74,89.085 C688.74,90.753 689.019,92.175 689.584,93.351 C690.161,94.538 690.946,95.447 691.937,96.068 C692.931,96.688 694.042,96.997 695.259,96.997 C695.922,96.997 696.563,96.906 697.177,96.723 C697.799,96.538 698.367,96.262 698.879,95.897 C699.402,95.521 699.844,95.061 700.205,94.521 C700.575,93.969 700.833,93.339 700.98,92.635 L700.403,93.104 L702.617,93.104 L702.037,92.411 C701.883,93.277 701.603,94.046 701.2,94.722 C700.796,95.399 700.296,95.973 699.698,96.446 C699.099,96.914 698.425,97.271 697.673,97.518 C696.924,97.766 696.12,97.891 695.259,97.891 C693.807,97.891 692.529,97.539 691.411,96.838 C690.291,96.135 689.408,95.134 688.759,93.824 C688.105,92.505 687.775,90.927 687.775,89.085 C687.775,87.243 688.105,85.665 688.759,84.346 C689.408,83.037 690.291,82.036 691.411,81.333 C692.529,80.631 693.807,80.28 695.259,80.28 C696.12,80.28 696.924,80.405 697.672,80.652 C698.424,80.899 699.097,81.259 699.698,81.734 C700.297,82.203 700.797,82.773 701.2,83.449 C701.604,84.119 701.883,84.888 702.037,85.759 L702.617,85.067 Z M702.617,86.246 L703.32,86.246 L703.198,85.553 C703.019,84.544 702.69,83.639 702.212,82.843 C701.735,82.045 701.139,81.364 700.426,80.807 C699.719,80.248 698.922,79.822 698.041,79.533 C697.172,79.245 696.243,79.101 695.259,79.101 C693.591,79.101 692.095,79.512 690.784,80.335 C689.475,81.156 688.446,82.322 687.703,83.823 C686.963,85.314 686.596,87.07 686.596,89.085 C686.596,91.1 686.963,92.857 687.703,94.348 C688.446,95.848 689.475,97.015 690.784,97.836 C692.095,98.658 693.591,99.069 695.259,99.069 C696.243,99.069 697.172,98.926 698.043,98.638 C698.921,98.349 699.717,97.927 700.426,97.373 C701.141,96.808 701.736,96.125 702.213,95.326 C702.691,94.525 703.019,93.621 703.198,92.618 L703.321,91.925 L702.617,91.925 L700.403,91.925 L699.923,91.925 L699.826,92.395 C699.71,92.953 699.509,93.442 699.226,93.865 C698.942,94.29 698.599,94.646 698.192,94.938 C697.789,95.226 697.339,95.445 696.841,95.593 C696.336,95.743 695.81,95.819 695.259,95.819 C694.26,95.819 693.365,95.569 692.561,95.068 C691.766,94.57 691.128,93.831 690.645,92.837 C690.164,91.836 689.919,90.586 689.919,89.085 C689.919,87.585 690.164,86.334 690.646,85.331 C691.128,84.34 691.766,83.6 692.562,83.102 C693.365,82.602 694.26,82.352 695.259,82.352 C695.81,82.352 696.336,82.427 696.841,82.578 C697.337,82.725 697.786,82.946 698.19,83.24 C698.601,83.53 698.943,83.882 699.225,84.304 C699.51,84.724 699.709,85.212 699.825,85.775 L699.922,86.246 L700.403,86.246 L702.617,86.246 Z M707.821,79.941 L707.821,98.23 L708.411,97.64 L706.196,97.64 L706.785,98.23 L706.785,79.941 L706.196,80.53 L708.411,80.53 L707.821,79.941 Z M709,79.941 L709,79.351 L708.411,79.351 L706.196,79.351 L705.607,79.351 L705.607,79.941 L705.607,98.23 L705.607,98.819 L706.196,98.819 L708.411,98.819 L709,98.819 L709,98.23 L709,79.941 Z" />
        </g>
    </g>
</svg>