<?xml version="1.0" encoding="UTF-8"?>
<!DOCTYPE svg
PUBLIC "-//W3C//DTD SVG 1.1//EN"
     "http://www.w3.org/Graphics/SVG/1.1/DTD/svg11.dtd">
<svg version="1.1" xmlns="http://www.w3.org/2000/svg" xmlns:xlink="http://www.w3.org/1999/xlink" width="3300" height="2200">
<!--glyph: "uni100000.medium", point size: 100.0, font version: "19.0d6e1", template writer version: "123"-->
<style>.SFSymbolsPreviewWireframe {fill:none;opacity:1.0;stroke:black;stroke-width:0.5}
</style>
<g id="Notes">
<rect height="2200" id="artboard" style="fill:white;opacity:1" width="3300" x="0" y="0"/>
<line style="fill:none;stroke:black;opacity:1;stroke-width:0.5;" x1="263" x2="3036" y1="292" y2="292"/>
<text style="stroke:none;fill:black;font-family:sans-serif;font-size:13;font-weight:bold;" transform="matrix(1 0 0 1 263 322)">Weight/Scale Variations</text>
<text style="stroke:none;fill:black;font-family:sans-serif;font-size:13;text-anchor:middle;" transform="matrix(1 0 0 1 559.711 322)">Ultralight</text>
<text style="stroke:none;fill:black;font-family:sans-serif;font-size:13;text-anchor:middle;" transform="matrix(1 0 0 1 856.422 322)">Thin</text>
<text style="stroke:none;fill:black;font-family:sans-serif;font-size:13;text-anchor:middle;" transform="matrix(1 0 0 1 1153.13 322)">Light</text>
<text style="stroke:none;fill:black;font-family:sans-serif;font-size:13;text-anchor:middle;" transform="matrix(1 0 0 1 1449.84 322)">Regular</text>
<text style="stroke:none;fill:black;font-family:sans-serif;font-size:13;text-anchor:middle;" transform="matrix(1 0 0 1 1746.56 322)">Medium</text>
<text style="stroke:none;fill:black;font-family:sans-serif;font-size:13;text-anchor:middle;" transform="matrix(1 0 0 1 2043.27 322)">Semibold</text>
<text style="stroke:none;fill:black;font-family:sans-serif;font-size:13;text-anchor:middle;" transform="matrix(1 0 0 1 2339.98 322)">Bold</text>
<text style="stroke:none;fill:black;font-family:sans-serif;font-size:13;text-anchor:middle;" transform="matrix(1 0 0 1 2636.69 322)">Heavy</text>
<text style="stroke:none;fill:black;font-family:sans-serif;font-size:13;text-anchor:middle;" transform="matrix(1 0 0 1 2933.4 322)">Black</text>
<line style="fill:none;stroke:black;opacity:1;stroke-width:0.5;" x1="263" x2="3036" y1="1903" y2="1903"/>
<g transform="matrix(0.2 0 0 0.2 263 1933)">
 <path d="m46.2402 4.15039c21.5332 0 39.4531-17.8711 39.4531-39.4043s-17.9688-39.4043-39.502-39.4043c-21.4844 0-39.3555 17.8711-39.3555 39.4043s17.9199 39.4043 39.4043 39.4043Zm0-7.42188c-17.7246 0-31.8848-14.209-31.8848-31.9824s14.1113-31.9824 31.8359-31.9824c17.7734 0 32.0312 14.209 32.0312 31.9824s-14.209 31.9824-31.9824 31.9824Zm-17.9688-31.9824c0 2.14844 1.51367 3.61328 3.75977 3.61328h10.498v10.5957c0 2.19727 1.46484 3.71094 3.61328 3.71094 2.24609 0 3.71094-1.51367 3.71094-3.71094v-10.5957h10.5957c2.19727 0 3.71094-1.46484 3.71094-3.61328 0-2.19727-1.51367-3.71094-3.71094-3.71094h-10.5957v-10.5469c0-2.24609-1.46484-3.75977-3.71094-3.75977-2.14844 0-3.61328 1.51367-3.61328 3.75977v10.5469h-10.498c-2.24609 0-3.75977 1.51367-3.75977 3.71094Z"/>
</g>
<g transform="matrix(0.2 0 0 0.2 281.506 1933)">
 <path d="m58.5449 14.5508c27.2461 0 49.8047-22.6074 49.8047-49.8047 0-27.2461-22.6074-49.8047-49.8535-49.8047-27.1973 0-49.7559 22.5586-49.7559 49.8047 0 27.1973 22.6074 49.8047 49.8047 49.8047Zm0-8.30078c-23.0469 0-41.4551-18.457-41.4551-41.5039s18.3594-41.5039 41.4062-41.5039 41.5527 18.457 41.5527 41.5039-18.457 41.5039-41.5039 41.5039Zm-22.6562-41.5039c0 2.39258 1.66016 4.00391 4.15039 4.00391h14.3555v14.4043c0 2.44141 1.66016 4.15039 4.05273 4.15039 2.44141 0 4.15039-1.66016 4.15039-4.15039v-14.4043h14.4043c2.44141 0 4.15039-1.61133 4.15039-4.00391 0-2.44141-1.70898-4.15039-4.15039-4.15039h-14.4043v-14.3555c0-2.49023-1.70898-4.19922-4.15039-4.19922-2.39258 0-4.05273 1.70898-4.05273 4.19922v14.3555h-14.3555c-2.49023 0-4.15039 1.70898-4.15039 4.15039Z"/>
</g>
<g transform="matrix(0.2 0 0 0.2 304.924 1933)">
 <path d="m74.8535 28.3203c34.8145 0 63.623-28.8086 63.623-63.5742 0-34.8145-28.8574-63.623-63.6719-63.623-34.7656 0-63.5254 28.8086-63.5254 63.623 0 34.7656 28.8086 63.5742 63.5742 63.5742Zm0-9.08203c-30.1758 0-54.4434-24.3164-54.4434-54.4922 0-30.2246 24.2188-54.4922 54.3945-54.4922 30.2246 0 54.541 24.2676 54.541 54.4922 0 30.1758-24.2676 54.4922-54.4922 54.4922Zm-28.8574-54.4922c0 2.58789 1.85547 4.39453 4.58984 4.39453h19.7266v19.7754c0 2.68555 1.85547 4.58984 4.44336 4.58984 2.68555 0 4.54102-1.85547 4.54102-4.58984v-19.7754h19.7754c2.68555 0 4.58984-1.80664 4.58984-4.39453 0-2.73438-1.85547-4.58984-4.58984-4.58984h-19.7754v-19.7266c0-2.73438-1.85547-4.63867-4.54102-4.63867-2.58789 0-4.44336 1.9043-4.44336 4.63867v19.7266h-19.7266c-2.73438 0-4.58984 1.85547-4.58984 4.58984Z"/>
</g>
<text style="stroke:none;fill:black;font-family:sans-serif;font-size:13;font-weight:bold;" transform="matrix(1 0 0 1 263 1953)">Design Variations</text>
<text style="stroke:none;fill:black;font-family:sans-serif;font-size:13;" transform="matrix(1 0 0 1 263 1971)">Symbols are supported in up to nine weights and three scales.</text>
<text style="stroke:none;fill:black;font-family:sans-serif;font-size:13;" transform="matrix(1 0 0 1 263 1989)">For optimal layout with text and other symbols, vertically align</text>
<text style="stroke:none;fill:black;font-family:sans-serif;font-size:13;" transform="matrix(1 0 0 1 263 2007)">symbols with the adjacent text.</text>
<line style="fill:none;stroke:#00AEEF;stroke-width:0.5;opacity:1.0;" x1="776" x2="776" y1="1919" y2="1933"/>
<g transform="matrix(0.2 0 0 0.2 776 1933)">
 <path d="m16.5527 0.78125c2.58789 0 3.85742-0.976562 4.78516-3.71094l6.29883-17.2363h28.8086l6.29883 17.2363c0.927734 2.73438 2.19727 3.71094 4.73633 3.71094 2.58789 0 4.24805-1.5625 4.24805-4.00391 0-0.830078-0.146484-1.61133-0.537109-2.63672l-22.9004-60.9863c-1.12305-2.97852-3.125-4.49219-6.25-4.49219-3.02734 0-5.07812 1.46484-6.15234 4.44336l-22.9004 61.084c-0.390625 1.02539-0.537109 1.80664-0.537109 2.63672 0 2.44141 1.5625 3.95508 4.10156 3.95508Zm13.4766-28.3691 11.8652-32.8613h0.244141l11.8652 32.8613Z"/>
</g>
<line style="fill:none;stroke:#00AEEF;stroke-width:0.5;opacity:1.0;" x1="792.836" x2="792.836" y1="1919" y2="1933"/>
<text style="stroke:none;fill:black;font-family:sans-serif;font-size:13;font-weight:bold;" transform="matrix(1 0 0 1 776 1953)">Margins</text>
<text style="stroke:none;fill:black;font-family:sans-serif;font-size:13;" transform="matrix(1 0 0 1 776 1971)">Leading and trailing margins on the left and right side of each symbol</text>
<text style="stroke:none;fill:black;font-family:sans-serif;font-size:13;" transform="matrix(1 0 0 1 776 1989)">can be adjusted by modifying the x-location of the margin guidelines.</text>
<text style="stroke:none;fill:black;font-family:sans-serif;font-size:13;" transform="matrix(1 0 0 1 776 2007)">Modifications are automatically applied proportionally to all</text>
<text style="stroke:none;fill:black;font-family:sans-serif;font-size:13;" transform="matrix(1 0 0 1 776 2025)">scales and weights.</text>
<g transform="matrix(0.2 0 0 0.2 1289 1933)">
 <path d="m14.209 9.32617 8.49609 8.54492c4.29688 4.3457 9.22852 4.05273 13.8672-1.07422l53.4668-58.9355-4.83398-4.88281-53.0762 58.3984c-1.75781 2.00195-3.41797 2.49023-5.76172 0.146484l-5.85938-5.81055c-2.34375-2.29492-1.80664-4.00391 0.195312-5.81055l57.373-54.0039-4.88281-4.83398-57.959 54.4434c-4.93164 4.58984-5.32227 9.47266-1.02539 13.8184Zm32.0801-90.9668c-2.09961 2.05078-2.24609 4.93164-1.07422 6.88477 1.17188 1.80664 3.4668 2.97852 6.68945 2.14844 7.32422-1.70898 14.9414-2.00195 22.0703 2.68555l-2.92969 7.27539c-1.70898 4.15039-0.830078 7.08008 1.85547 9.81445l11.4746 11.5723c2.44141 2.44141 4.49219 2.53906 7.32422 2.05078l5.32227-0.976562 3.32031 3.36914-0.195312 2.7832c-0.195312 2.49023 0.439453 4.39453 2.88086 6.78711l3.80859 3.71094c2.39258 2.39258 5.46875 2.53906 7.8125 0.195312l14.5508-14.5996c2.34375-2.34375 2.24609-5.32227-0.146484-7.71484l-3.85742-3.80859c-2.39258-2.39258-4.24805-3.17383-6.64062-2.97852l-2.88086 0.244141-3.22266-3.17383 1.2207-5.61523c0.634766-2.83203-0.146484-5.0293-3.07617-7.95898l-10.9863-10.9375c-16.6992-16.6016-38.8672-16.2109-53.3203-1.75781Zm7.4707 1.85547c12.1582-8.88672 28.6133-7.37305 39.7461 3.75977l12.1582 12.0605c1.17188 1.17188 1.36719 2.09961 1.02539 3.80859l-1.61133 7.42188 7.51953 7.42188 4.93164-0.292969c1.26953-0.0488281 1.66016 0.0488281 2.63672 1.02539l2.88086 2.88086-12.207 12.207-2.88086-2.88086c-0.976562-0.976562-1.12305-1.36719-1.07422-2.68555l0.341797-4.88281-7.4707-7.42188-7.61719 1.26953c-1.61133 0.341797-2.34375 0.195312-3.56445-0.976562l-10.0098-10.0098c-1.26953-1.17188-1.41602-2.00195-0.634766-3.85742l4.39453-10.4492c-7.8125-7.27539-17.9688-10.4004-28.125-7.42188-0.78125 0.195312-1.07422-0.439453-0.439453-0.976562Z"/>
</g>
<text style="stroke:none;fill:black;font-family:sans-serif;font-size:13;font-weight:bold;" transform="matrix(1 0 0 1 1289 1953)">Exporting</text>
<text style="stroke:none;fill:black;font-family:sans-serif;font-size:13;" transform="matrix(1 0 0 1 1289 1971)">Symbols should be outlined when exporting to ensure the</text>
<text style="stroke:none;fill:black;font-family:sans-serif;font-size:13;" transform="matrix(1 0 0 1 1289 1989)">design is preserved when submitting to Xcode.</text>
<text id="template-version" style="stroke:none;fill:black;font-family:sans-serif;font-size:13;text-anchor:end;" transform="matrix(1 0 0 1 3036 1933)">Template v.5.0</text>
<text style="stroke:none;fill:black;font-family:sans-serif;font-size:13;text-anchor:end;" transform="matrix(1 0 0 1 3036 1951)">Requires Xcode 15 or greater</text>
<text id="descriptive-name" style="stroke:none;fill:black;font-family:sans-serif;font-size:13;text-anchor:end;" transform="matrix(1 0 0 1 3036 1969)">Generated from circle</text>
<text style="stroke:none;fill:black;font-family:sans-serif;font-size:13;text-anchor:end;" transform="matrix(1 0 0 1 3036 1987)">Typeset at 100.0 points</text>
<text style="stroke:none;fill:black;font-family:sans-serif;font-size:13;" transform="matrix(1 0 0 1 263 726)">Small</text>
<text style="stroke:none;fill:black;font-family:sans-serif;font-size:13;" transform="matrix(1 0 0 1 263 1156)">Medium</text>
<text style="stroke:none;fill:black;font-family:sans-serif;font-size:13;" transform="matrix(1 0 0 1 263 1586)">Large</text>
</g>
<g id="Guides">
<g id="H-reference" style="fill:#27AAE1;stroke:none;" transform="matrix(1 0 0 1 339 696)">
 <path d="M0.993654 0L3.63775 0L29.3281-67.1323L30.0303-67.1323L30.0303-70.459L28.1226-70.459ZM11.6885-24.4799L46.9815-24.4799L46.2315-26.7285L12.4385-26.7285ZM55.1196 0L57.7637 0L30.6382-70.459L29.4326-70.459L29.4326-67.1323Z"/>
</g>
<line id="Baseline-S" style="fill:none;stroke:#27AAE1;opacity:1;stroke-width:0.5;" x1="263" x2="3036" y1="696" y2="696"/>
<line id="Capline-S" style="fill:none;stroke:#27AAE1;opacity:1;stroke-width:0.5;" x1="263" x2="3036" y1="625.541" y2="625.541"/>
<g id="H-reference" style="fill:#27AAE1;stroke:none;" transform="matrix(1 0 0 1 339 1126)">
 <path d="M0.993654 0L3.63775 0L29.3281-67.1323L30.0303-67.1323L30.0303-70.459L28.1226-70.459ZM11.6885-24.4799L46.9815-24.4799L46.2315-26.7285L12.4385-26.7285ZM55.1196 0L57.7637 0L30.6382-70.459L29.4326-70.459L29.4326-67.1323Z"/>
</g>
<line id="Baseline-M" style="fill:none;stroke:#27AAE1;opacity:1;stroke-width:0.5;" x1="263" x2="3036" y1="1126" y2="1126"/>
<line id="Capline-M" style="fill:none;stroke:#27AAE1;opacity:1;stroke-width:0.5;" x1="263" x2="3036" y1="1055.54" y2="1055.54"/>
<g id="H-reference" style="fill:#27AAE1;stroke:none;" transform="matrix(1 0 0 1 339 1556)">
 <path d="M0.993654 0L3.63775 0L29.3281-67.1323L30.0303-67.1323L30.0303-70.459L28.1226-70.459ZM11.6885-24.4799L46.9815-24.4799L46.2315-26.7285L12.4385-26.7285ZM55.1196 0L57.7637 0L30.6382-70.459L29.4326-70.459L29.4326-67.1323Z"/>
</g>
<line id="Baseline-L" style="fill:none;stroke:#27AAE1;opacity:1;stroke-width:0.5;" x1="263" x2="3036" y1="1556" y2="1556"/>
<line id="Capline-L" style="fill:none;stroke:#27AAE1;opacity:1;stroke-width:0.5;" x1="263" x2="3036" y1="1485.54" y2="1485.54"/>
<line id="left-margin-Ultralight-S" style="fill:none;stroke:#00AEEF;stroke-width:0.5;opacity:1.0;" x1="515.649" x2="515.649" y1="600.785" y2="720.121"/>
<line id="right-margin-Ultralight-S" style="fill:none;stroke:#00AEEF;stroke-width:0.5;opacity:1.0;" x1="603.773" x2="603.773" y1="600.785" y2="720.121"/>
<line id="left-margin-Regular-S" style="fill:none;stroke:#00AEEF;stroke-width:0.5;opacity:1.0;" x1="1403.58" x2="1403.58" y1="600.785" y2="720.121"/>
<line id="right-margin-Regular-S" style="fill:none;stroke:#00AEEF;stroke-width:0.5;opacity:1.0;" x1="1496.11" x2="1496.11" y1="600.785" y2="720.121"/>
<line id="left-margin-Black-S" style="fill:none;stroke:#00AEEF;stroke-width:0.5;opacity:1.0;" x1="2884.57" x2="2884.57" y1="600.785" y2="720.121"/>
<line id="right-margin-Black-S" style="fill:none;stroke:#00AEEF;stroke-width:0.5;opacity:1.0;" x1="2982.23" x2="2982.23" y1="600.785" y2="720.121"/>
</g>
<g id="Symbols">
<g id="Black-S" transform="matrix(1 0 0 1 2884.57 696) translate(3 -81.25)">
<path d="M5.15647 8.79268L5.17837 9.09685L5.46143 9.07647L5.46143 8.79268L5.15647 8.79268ZM5.15647 1.67346L5.46143 1.67346L5.46143 1.34576L5.13457 1.36929L5.15647 1.67346ZM5.82991 1.66609L5.83798 1.36124L5.52496 1.35296L5.52496 1.66609L5.82991 1.66609ZM5.82992 8.78535L5.52496 8.78535L5.52496 9.08234L5.82185 9.0902L5.82992 8.78535ZM5.34888 90.9525L5.37078 91.2567L5.65384 91.2363L5.65384 90.9525L5.34888 90.9525ZM5.34888 83.8333L5.65384 83.8333L5.65384 83.5056L5.32698 83.5291L5.34888 83.8333ZM6.02233 83.8259L6.03039 83.5211L5.71737 83.5128L5.71737 83.8259L6.02233 83.8259ZM6.02233 90.9452L5.71737 90.9452L5.71737 91.2422L6.01426 91.25L6.02233 90.9452ZM16.2967 32.6517L16.5847 32.7522L16.6434 32.5837L16.5254 32.45L16.2967 32.6517ZM13.4106 29.3807L13.6392 29.179L13.5482 29.0758H13.4106V29.3807ZM3.50135 29.3807V29.0758H3.2742L3.20916 29.2934L3.50135 29.3807ZM1 37.7507L0.70781 37.6633L0.694493 37.7079L0.695064 37.7544L1 37.7507ZM11.2293 47.1788L10.9413 47.0784L10.9244 47.1269L10.9243 47.1782L11.2293 47.1788ZM1.11583 47.1788H1.42081L1.42076 47.1751L1.11583 47.1788ZM1.11583 62.187H0.81087V62.4919H1.11583V62.187ZM11.1978 62.187V62.4919H11.5021L11.5028 62.1876L11.1978 62.187ZM1.30824 47.1788L1.01978 47.0799L0.881232 47.4838H1.30824V47.1788ZM1.30824 61.9945H1.00328V62.2995H1.30824V61.9945ZM11.0054 61.9945V62.2995H11.3096L11.3104 61.9953L11.0054 61.9945ZM11.0416 47.3712L11.3466 47.372L11.3474 47.0663H11.0416V47.3712ZM1.30824 47.3712V47.0663H1.00328V47.3712H1.30824ZM11.0054 47.1788V47.4838H11.2229L11.2938 47.2781L11.0054 47.1788ZM16.0081 32.6517L16.2965 32.751L16.4357 32.3468H16.0081V32.6517ZM6.29132 32.6517V32.3468H6.07353L6.00286 32.5528L6.29132 32.6517ZM6.29132 32.4593L6.06465 32.6633L6.15551 32.7643L6.29132 32.7643L6.29132 32.4593ZM15.8157 32.4593L15.8157 32.7643L16.4836 32.7643L16.0462 32.2596L15.8157 32.4593ZM13.3144 29.5732L13.5448 29.3734L13.4536 29.2682H13.3144V29.5732ZM3.69377 29.5732V29.2682H3.00902L3.46709 29.7772L3.69377 29.5732ZM1.19241 37.8469L0.900318 37.7592L0.88686 37.8041L0.88748 37.8509L1.19241 37.8469ZM3.61718 29.7656L3.84504 29.5629L3.48205 29.1548L3.32509 29.6779L3.61718 29.7656ZM6.09891 32.5555L6.38755 32.654L6.44494 32.4857L6.32677 32.3529L6.09891 32.5555ZM1.30824 46.6016L1.00331 46.6056L1.59687 46.7L1.30824 46.6016ZM9.3732 5.23306C9.3732 7.40249 7.61452 9.16116 5.44509 9.16116V9.77108C7.95137 9.77108 9.98311 7.73934 9.98311 5.23306H9.3732ZM5.44509 9.16116C3.27566 9.16116 1.51699 7.40249 1.51699 5.23306H0.907076C0.907076 7.73934 2.93882 9.77108 5.44509 9.77108V9.16116ZM1.51699 5.23306C1.51699 3.06363 3.27566 1.30496 5.44509 1.30496V0.695041C2.93882 0.695041 0.907076 2.72678 0.907076 5.23306H1.51699ZM5.44509 1.30496C7.61452 1.30496 9.3732 3.06363 9.3732 5.23306H9.98311C9.98311 2.72678 7.95137 0.695041 5.44509 0.695041V1.30496ZM5.13457 8.48851C4.38457 8.5425 3.6599 8.1554 3.09273 7.51392C2.52609 6.87306 2.15123 6.01384 2.09344 5.2112L1.4851 5.255C1.55322 6.20121 1.98753 7.18474 2.6358 7.91793C3.28353 8.65051 4.1795 9.16876 5.17837 9.09685L5.13457 8.48851ZM2.09344 5.2112C2.03966 4.46417 2.46466 3.6821 3.11594 3.05461C3.76761 2.42674 4.57727 2.02091 5.17837 1.97764L5.13457 1.36929C4.34554 1.4261 3.40864 1.92566 2.69276 2.61538C1.97651 3.30547 1.41297 4.25317 1.4851 5.255L2.09344 5.2112ZM5.82185 1.97095C6.59871 1.9915 7.35639 2.39432 7.91968 3.01158C8.483 3.62886 8.8265 4.43326 8.80574 5.21765L9.41545 5.23378C9.44108 4.2654 9.02062 3.31317 8.3702 2.60044C7.71975 1.88768 6.81389 1.38707 5.83798 1.36124L5.82185 1.97095ZM8.80574 5.21765C8.78513 5.99667 8.36 6.82753 7.754 7.46685C7.14184 8.11267 6.41106 8.49566 5.83798 8.48049L5.82185 9.0902C6.64202 9.1119 7.52838 8.59146 8.19666 7.88644C8.87109 7.17492 9.38968 6.20754 9.41545 5.23378L8.80574 5.21765ZM4.85151 1.67346L4.85151 8.79268L5.46143 8.79268L5.46143 1.67346L4.85151 1.67346ZM6.13488 8.78535L6.13487 1.66609L5.52496 1.66609L5.52496 8.78535L6.13488 8.78535ZM9.56561 87.3929C9.56561 89.5623 7.80694 91.321 5.63751 91.321V91.9309C8.14378 91.9309 10.1755 89.8992 10.1755 87.3929H9.56561ZM5.63751 91.321C3.46808 91.321 1.70941 89.5623 1.70941 87.3929H1.09949C1.09949 89.8992 3.13123 91.9309 5.63751 91.9309V91.321ZM1.70941 87.3929C1.70941 85.2235 3.46808 83.4648 5.63751 83.4648V82.8549C3.13123 82.8549 1.09949 84.8866 1.09949 87.3929H1.70941ZM5.63751 83.4648C7.80694 83.4648 9.56561 85.2235 9.56561 87.3929H10.1755C10.1755 84.8866 8.14378 82.8549 5.63751 82.8549V83.4648ZM5.32698 90.6483C4.57698 90.7023 3.85231 90.3152 3.28514 89.6738C2.7185 89.0329 2.34364 88.1737 2.28586 87.371L1.67751 87.4148C1.74564 88.3611 2.17995 89.3446 2.82821 90.0778C3.47594 90.8104 4.37191 91.3286 5.37078 91.2567L5.32698 90.6483ZM2.28586 87.371C2.23207 86.624 2.65707 85.8419 3.30836 85.2144C3.96003 84.5866 4.76968 84.1808 5.37078 84.1375L5.32698 83.5291C4.53795 83.5859 3.60105 84.0855 2.88518 84.7752C2.16892 85.4653 1.60539 86.413 1.67751 87.4148L2.28586 87.371ZM6.01426 84.1308C6.79112 84.1513 7.5488 84.5542 8.11209 85.1714C8.67541 85.7887 9.01891 86.5931 8.99816 87.3775L9.60786 87.3936C9.63349 86.4252 9.21303 85.473 8.56261 84.7603C7.91216 84.0475 7.0063 83.5469 6.03039 83.5211L6.01426 84.1308ZM8.99816 87.3775C8.97754 88.1565 8.55241 88.9874 7.94641 89.6267C7.33425 90.2725 6.60347 90.6555 6.0304 90.6403L6.01426 91.25C6.83443 91.2717 7.72079 90.7513 8.38907 90.0463C9.0635 89.3348 9.58209 88.3674 9.60786 87.3936L8.99816 87.3775ZM5.04392 83.8333L5.04392 90.9525L5.65384 90.9525L5.65384 83.8333L5.04392 83.8333ZM6.32729 90.9452L6.32728 83.8259L5.71737 83.8259L5.71737 90.9452L6.32729 90.9452ZM16.5254 32.45L13.6392 29.179L13.1819 29.5825L16.0681 32.8535L16.5254 32.45ZM13.4106 29.0758H3.50135V29.6857H13.4106V29.0758ZM3.20916 29.2934L0.70781 37.6633L1.29219 37.838L3.79354 29.4681L3.20916 29.2934ZM11.5172 47.2793L16.5847 32.7522L16.0088 32.5513L10.9413 47.0784L11.5172 47.2793ZM0.695064 37.7544L0.810893 47.1826L1.42076 47.1751L1.30494 37.7469L0.695064 37.7544ZM1.11583 62.4919H11.1978V61.882H1.11583V62.4919ZM11.5028 62.1876L11.5342 47.1795L10.9243 47.1782L10.8929 62.1863L11.5028 62.1876ZM1.30824 62.2995H11.0054V61.6896H1.30824V62.2995ZM11.3104 61.9953L11.3466 47.372L10.7367 47.3705L10.7005 61.9938L11.3104 61.9953ZM1.00328 47.3712V61.9945H1.6132V47.3712H1.00328ZM11.0416 47.0663H1.30824V47.6762H11.0416V47.0663ZM1.30824 47.4838H11.0054V46.8739H1.30824V47.4838ZM11.2938 47.2781L16.2965 32.751L15.7198 32.5524L10.7171 47.0795L11.2938 47.2781ZM16.0081 32.3468H6.29132V32.9567H16.0081V32.3468ZM6.00286 32.5528L1.01978 47.0799L1.5967 47.2778L6.57978 32.7507L6.00286 32.5528ZM6.29132 32.7643L15.8157 32.7643L15.8157 32.1544L6.29133 32.1543L6.29132 32.7643ZM16.0462 32.2596L13.5448 29.3734L13.0839 29.7729L15.5853 32.6591L16.0462 32.2596ZM13.3144 29.2682H3.69377V29.8781H13.3144V29.2682ZM3.46709 29.7772L6.06465 32.6633L6.518 32.2553L3.92044 29.3691L3.46709 29.7772ZM1.48451 37.9345L3.90928 29.8532L3.32509 29.6779L0.900318 37.7592L1.48451 37.9345ZM3.38932 29.9682L5.87106 32.7582L6.32677 32.3529L3.84504 29.5629L3.38932 29.9682ZM5.81028 32.4571L1.01961 46.5032L1.59687 46.7L6.38755 32.654L5.81028 32.4571ZM1.61317 46.5976L1.49734 37.8428L0.88748 37.8509L1.00331 46.6056L1.61317 46.5976ZM0.81087 47.1788V62.187H1.42079V47.1788H0.81087Z" fill="#FFF8F8"/>
</g>
<g id="Regular-S" transform="matrix(1 0 0 1 1403.58 696) translate(0 -81.25)">
 <path d="M5.15647 8.79268L5.17837 9.09685L5.46143 9.07647L5.46143 8.79268L5.15647 8.79268ZM5.15647 1.67346L5.46143 1.67346L5.46143 1.34576L5.13457 1.36929L5.15647 1.67346ZM5.82991 1.66609L5.83798 1.36124L5.52496 1.35296L5.52496 1.66609L5.82991 1.66609ZM5.82992 8.78535L5.52496 8.78535L5.52496 9.08234L5.82185 9.0902L5.82992 8.78535ZM5.34888 90.9525L5.37078 91.2567L5.65384 91.2363L5.65384 90.9525L5.34888 90.9525ZM5.34888 83.8333L5.65384 83.8333L5.65384 83.5056L5.32698 83.5291L5.34888 83.8333ZM6.02233 83.8259L6.03039 83.5211L5.71737 83.5128L5.71737 83.8259L6.02233 83.8259ZM6.02233 90.9452L5.71737 90.9452L5.71737 91.2422L6.01426 91.25L6.02233 90.9452ZM16.2967 32.6517L16.5847 32.7522L16.6434 32.5837L16.5254 32.45L16.2967 32.6517ZM13.4106 29.3807L13.6392 29.179L13.5482 29.0758H13.4106V29.3807ZM3.50135 29.3807V29.0758H3.2742L3.20916 29.2934L3.50135 29.3807ZM1 37.7507L0.70781 37.6633L0.694493 37.7079L0.695064 37.7544L1 37.7507ZM11.2293 47.1788L10.9413 47.0784L10.9244 47.1269L10.9243 47.1782L11.2293 47.1788ZM1.11583 47.1788H1.42081L1.42076 47.1751L1.11583 47.1788ZM1.11583 62.187H0.81087V62.4919H1.11583V62.187ZM11.1978 62.187V62.4919H11.5021L11.5028 62.1876L11.1978 62.187ZM1.30824 47.1788L1.01978 47.0799L0.881232 47.4838H1.30824V47.1788ZM1.30824 61.9945H1.00328V62.2995H1.30824V61.9945ZM11.0054 61.9945V62.2995H11.3096L11.3104 61.9953L11.0054 61.9945ZM11.0416 47.3712L11.3466 47.372L11.3474 47.0663H11.0416V47.3712ZM1.30824 47.3712V47.0663H1.00328V47.3712H1.30824ZM11.0054 47.1788V47.4838H11.2229L11.2938 47.2781L11.0054 47.1788ZM16.0081 32.6517L16.2965 32.751L16.4357 32.3468H16.0081V32.6517ZM6.29132 32.6517V32.3468H6.07353L6.00286 32.5528L6.29132 32.6517ZM6.29132 32.4593L6.06465 32.6633L6.15551 32.7643L6.29132 32.7643L6.29132 32.4593ZM15.8157 32.4593L15.8157 32.7643L16.4836 32.7643L16.0462 32.2596L15.8157 32.4593ZM13.3144 29.5732L13.5448 29.3734L13.4536 29.2682H13.3144V29.5732ZM3.69377 29.5732V29.2682H3.00902L3.46709 29.7772L3.69377 29.5732ZM1.19241 37.8469L0.900318 37.7592L0.88686 37.8041L0.88748 37.8509L1.19241 37.8469ZM3.61718 29.7656L3.84504 29.5629L3.48205 29.1548L3.32509 29.6779L3.61718 29.7656ZM6.09891 32.5555L6.38755 32.654L6.44494 32.4857L6.32677 32.3529L6.09891 32.5555ZM1.30824 46.6016L1.00331 46.6056L1.59687 46.7L1.30824 46.6016ZM9.3732 5.23306C9.3732 7.40249 7.61452 9.16116 5.44509 9.16116V9.77108C7.95137 9.77108 9.98311 7.73934 9.98311 5.23306H9.3732ZM5.44509 9.16116C3.27566 9.16116 1.51699 7.40249 1.51699 5.23306H0.907076C0.907076 7.73934 2.93882 9.77108 5.44509 9.77108V9.16116ZM1.51699 5.23306C1.51699 3.06363 3.27566 1.30496 5.44509 1.30496V0.695041C2.93882 0.695041 0.907076 2.72678 0.907076 5.23306H1.51699ZM5.44509 1.30496C7.61452 1.30496 9.3732 3.06363 9.3732 5.23306H9.98311C9.98311 2.72678 7.95137 0.695041 5.44509 0.695041V1.30496ZM5.13457 8.48851C4.38457 8.5425 3.6599 8.1554 3.09273 7.51392C2.52609 6.87306 2.15123 6.01384 2.09344 5.2112L1.4851 5.255C1.55322 6.20121 1.98753 7.18474 2.6358 7.91793C3.28353 8.65051 4.1795 9.16876 5.17837 9.09685L5.13457 8.48851ZM2.09344 5.2112C2.03966 4.46417 2.46466 3.6821 3.11594 3.05461C3.76761 2.42674 4.57727 2.02091 5.17837 1.97764L5.13457 1.36929C4.34554 1.4261 3.40864 1.92566 2.69276 2.61538C1.97651 3.30547 1.41297 4.25317 1.4851 5.255L2.09344 5.2112ZM5.82185 1.97095C6.59871 1.9915 7.35639 2.39432 7.91968 3.01158C8.483 3.62886 8.8265 4.43326 8.80574 5.21765L9.41545 5.23378C9.44108 4.2654 9.02062 3.31317 8.3702 2.60044C7.71975 1.88768 6.81389 1.38707 5.83798 1.36124L5.82185 1.97095ZM8.80574 5.21765C8.78513 5.99667 8.36 6.82753 7.754 7.46685C7.14184 8.11267 6.41106 8.49566 5.83798 8.48049L5.82185 9.0902C6.64202 9.1119 7.52838 8.59146 8.19666 7.88644C8.87109 7.17492 9.38968 6.20754 9.41545 5.23378L8.80574 5.21765ZM4.85151 1.67346L4.85151 8.79268L5.46143 8.79268L5.46143 1.67346L4.85151 1.67346ZM6.13488 8.78535L6.13487 1.66609L5.52496 1.66609L5.52496 8.78535L6.13488 8.78535ZM9.56561 87.3929C9.56561 89.5623 7.80694 91.321 5.63751 91.321V91.9309C8.14378 91.9309 10.1755 89.8992 10.1755 87.3929H9.56561ZM5.63751 91.321C3.46808 91.321 1.70941 89.5623 1.70941 87.3929H1.09949C1.09949 89.8992 3.13123 91.9309 5.63751 91.9309V91.321ZM1.70941 87.3929C1.70941 85.2235 3.46808 83.4648 5.63751 83.4648V82.8549C3.13123 82.8549 1.09949 84.8866 1.09949 87.3929H1.70941ZM5.63751 83.4648C7.80694 83.4648 9.56561 85.2235 9.56561 87.3929H10.1755C10.1755 84.8866 8.14378 82.8549 5.63751 82.8549V83.4648ZM5.32698 90.6483C4.57698 90.7023 3.85231 90.3152 3.28514 89.6738C2.7185 89.0329 2.34364 88.1737 2.28586 87.371L1.67751 87.4148C1.74564 88.3611 2.17995 89.3446 2.82821 90.0778C3.47594 90.8104 4.37191 91.3286 5.37078 91.2567L5.32698 90.6483ZM2.28586 87.371C2.23207 86.624 2.65707 85.8419 3.30836 85.2144C3.96003 84.5866 4.76968 84.1808 5.37078 84.1375L5.32698 83.5291C4.53795 83.5859 3.60105 84.0855 2.88518 84.7752C2.16892 85.4653 1.60539 86.413 1.67751 87.4148L2.28586 87.371ZM6.01426 84.1308C6.79112 84.1513 7.5488 84.5542 8.11209 85.1714C8.67541 85.7887 9.01891 86.5931 8.99816 87.3775L9.60786 87.3936C9.63349 86.4252 9.21303 85.473 8.56261 84.7603C7.91216 84.0475 7.0063 83.5469 6.03039 83.5211L6.01426 84.1308ZM8.99816 87.3775C8.97754 88.1565 8.55241 88.9874 7.94641 89.6267C7.33425 90.2725 6.60347 90.6555 6.0304 90.6403L6.01426 91.25C6.83443 91.2717 7.72079 90.7513 8.38907 90.0463C9.0635 89.3348 9.58209 88.3674 9.60786 87.3936L8.99816 87.3775ZM5.04392 83.8333L5.04392 90.9525L5.65384 90.9525L5.65384 83.8333L5.04392 83.8333ZM6.32729 90.9452L6.32728 83.8259L5.71737 83.8259L5.71737 90.9452L6.32729 90.9452ZM16.5254 32.45L13.6392 29.179L13.1819 29.5825L16.0681 32.8535L16.5254 32.45ZM13.4106 29.0758H3.50135V29.6857H13.4106V29.0758ZM3.20916 29.2934L0.70781 37.6633L1.29219 37.838L3.79354 29.4681L3.20916 29.2934ZM11.5172 47.2793L16.5847 32.7522L16.0088 32.5513L10.9413 47.0784L11.5172 47.2793ZM0.695064 37.7544L0.810893 47.1826L1.42076 47.1751L1.30494 37.7469L0.695064 37.7544ZM1.11583 62.4919H11.1978V61.882H1.11583V62.4919ZM11.5028 62.1876L11.5342 47.1795L10.9243 47.1782L10.8929 62.1863L11.5028 62.1876ZM1.30824 62.2995H11.0054V61.6896H1.30824V62.2995ZM11.3104 61.9953L11.3466 47.372L10.7367 47.3705L10.7005 61.9938L11.3104 61.9953ZM1.00328 47.3712V61.9945H1.6132V47.3712H1.00328ZM11.0416 47.0663H1.30824V47.6762H11.0416V47.0663ZM1.30824 47.4838H11.0054V46.8739H1.30824V47.4838ZM11.2938 47.2781L16.2965 32.751L15.7198 32.5524L10.7171 47.0795L11.2938 47.2781ZM16.0081 32.3468H6.29132V32.9567H16.0081V32.3468ZM6.00286 32.5528L1.01978 47.0799L1.5967 47.2778L6.57978 32.7507L6.00286 32.5528ZM6.29132 32.7643L15.8157 32.7643L15.8157 32.1544L6.29133 32.1543L6.29132 32.7643ZM16.0462 32.2596L13.5448 29.3734L13.0839 29.7729L15.5853 32.6591L16.0462 32.2596ZM13.3144 29.2682H3.69377V29.8781H13.3144V29.2682ZM3.46709 29.7772L6.06465 32.6633L6.518 32.2553L3.92044 29.3691L3.46709 29.7772ZM1.48451 37.9345L3.90928 29.8532L3.32509 29.6779L0.900318 37.7592L1.48451 37.9345ZM3.38932 29.9682L5.87106 32.7582L6.32677 32.3529L3.84504 29.5629L3.38932 29.9682ZM5.81028 32.4571L1.01961 46.5032L1.59687 46.7L6.38755 32.654L5.81028 32.4571ZM1.61317 46.5976L1.49734 37.8428L0.88748 37.8509L1.00331 46.6056L1.61317 46.5976ZM0.81087 47.1788V62.187H1.42079V47.1788H0.81087Z" fill="#FFF8F8"/>
</g>
<g id="Ultralight-S" transform="matrix(1 0 0 1 515.649 696) translate(-2 -81.25)">
 <path d="M5.15647 8.79268L5.17837 9.09685L5.46143 9.07647L5.46143 8.79268L5.15647 8.79268ZM5.15647 1.67346L5.46143 1.67346L5.46143 1.34576L5.13457 1.36929L5.15647 1.67346ZM5.82991 1.66609L5.83798 1.36124L5.52496 1.35296L5.52496 1.66609L5.82991 1.66609ZM5.82992 8.78535L5.52496 8.78535L5.52496 9.08234L5.82185 9.0902L5.82992 8.78535ZM5.34888 90.9525L5.37078 91.2567L5.65384 91.2363L5.65384 90.9525L5.34888 90.9525ZM5.34888 83.8333L5.65384 83.8333L5.65384 83.5056L5.32698 83.5291L5.34888 83.8333ZM6.02233 83.8259L6.03039 83.5211L5.71737 83.5128L5.71737 83.8259L6.02233 83.8259ZM6.02233 90.9452L5.71737 90.9452L5.71737 91.2422L6.01426 91.25L6.02233 90.9452ZM16.2967 32.6517L16.5847 32.7522L16.6434 32.5837L16.5254 32.45L16.2967 32.6517ZM13.4106 29.3807L13.6392 29.179L13.5482 29.0758H13.4106V29.3807ZM3.50135 29.3807V29.0758H3.2742L3.20916 29.2934L3.50135 29.3807ZM1 37.7507L0.70781 37.6633L0.694493 37.7079L0.695064 37.7544L1 37.7507ZM11.2293 47.1788L10.9413 47.0784L10.9244 47.1269L10.9243 47.1782L11.2293 47.1788ZM1.11583 47.1788H1.42081L1.42076 47.1751L1.11583 47.1788ZM1.11583 62.187H0.81087V62.4919H1.11583V62.187ZM11.1978 62.187V62.4919H11.5021L11.5028 62.1876L11.1978 62.187ZM1.30824 47.1788L1.01978 47.0799L0.881232 47.4838H1.30824V47.1788ZM1.30824 61.9945H1.00328V62.2995H1.30824V61.9945ZM11.0054 61.9945V62.2995H11.3096L11.3104 61.9953L11.0054 61.9945ZM11.0416 47.3712L11.3466 47.372L11.3474 47.0663H11.0416V47.3712ZM1.30824 47.3712V47.0663H1.00328V47.3712H1.30824ZM11.0054 47.1788V47.4838H11.2229L11.2938 47.2781L11.0054 47.1788ZM16.0081 32.6517L16.2965 32.751L16.4357 32.3468H16.0081V32.6517ZM6.29132 32.6517V32.3468H6.07353L6.00286 32.5528L6.29132 32.6517ZM6.29132 32.4593L6.06465 32.6633L6.15551 32.7643L6.29132 32.7643L6.29132 32.4593ZM15.8157 32.4593L15.8157 32.7643L16.4836 32.7643L16.0462 32.2596L15.8157 32.4593ZM13.3144 29.5732L13.5448 29.3734L13.4536 29.2682H13.3144V29.5732ZM3.69377 29.5732V29.2682H3.00902L3.46709 29.7772L3.69377 29.5732ZM1.19241 37.8469L0.900318 37.7592L0.88686 37.8041L0.88748 37.8509L1.19241 37.8469ZM3.61718 29.7656L3.84504 29.5629L3.48205 29.1548L3.32509 29.6779L3.61718 29.7656ZM6.09891 32.5555L6.38755 32.654L6.44494 32.4857L6.32677 32.3529L6.09891 32.5555ZM1.30824 46.6016L1.00331 46.6056L1.59687 46.7L1.30824 46.6016ZM9.3732 5.23306C9.3732 7.40249 7.61452 9.16116 5.44509 9.16116V9.77108C7.95137 9.77108 9.98311 7.73934 9.98311 5.23306H9.3732ZM5.44509 9.16116C3.27566 9.16116 1.51699 7.40249 1.51699 5.23306H0.907076C0.907076 7.73934 2.93882 9.77108 5.44509 9.77108V9.16116ZM1.51699 5.23306C1.51699 3.06363 3.27566 1.30496 5.44509 1.30496V0.695041C2.93882 0.695041 0.907076 2.72678 0.907076 5.23306H1.51699ZM5.44509 1.30496C7.61452 1.30496 9.3732 3.06363 9.3732 5.23306H9.98311C9.98311 2.72678 7.95137 0.695041 5.44509 0.695041V1.30496ZM5.13457 8.48851C4.38457 8.5425 3.6599 8.1554 3.09273 7.51392C2.52609 6.87306 2.15123 6.01384 2.09344 5.2112L1.4851 5.255C1.55322 6.20121 1.98753 7.18474 2.6358 7.91793C3.28353 8.65051 4.1795 9.16876 5.17837 9.09685L5.13457 8.48851ZM2.09344 5.2112C2.03966 4.46417 2.46466 3.6821 3.11594 3.05461C3.76761 2.42674 4.57727 2.02091 5.17837 1.97764L5.13457 1.36929C4.34554 1.4261 3.40864 1.92566 2.69276 2.61538C1.97651 3.30547 1.41297 4.25317 1.4851 5.255L2.09344 5.2112ZM5.82185 1.97095C6.59871 1.9915 7.35639 2.39432 7.91968 3.01158C8.483 3.62886 8.8265 4.43326 8.80574 5.21765L9.41545 5.23378C9.44108 4.2654 9.02062 3.31317 8.3702 2.60044C7.71975 1.88768 6.81389 1.38707 5.83798 1.36124L5.82185 1.97095ZM8.80574 5.21765C8.78513 5.99667 8.36 6.82753 7.754 7.46685C7.14184 8.11267 6.41106 8.49566 5.83798 8.48049L5.82185 9.0902C6.64202 9.1119 7.52838 8.59146 8.19666 7.88644C8.87109 7.17492 9.38968 6.20754 9.41545 5.23378L8.80574 5.21765ZM4.85151 1.67346L4.85151 8.79268L5.46143 8.79268L5.46143 1.67346L4.85151 1.67346ZM6.13488 8.78535L6.13487 1.66609L5.52496 1.66609L5.52496 8.78535L6.13488 8.78535ZM9.56561 87.3929C9.56561 89.5623 7.80694 91.321 5.63751 91.321V91.9309C8.14378 91.9309 10.1755 89.8992 10.1755 87.3929H9.56561ZM5.63751 91.321C3.46808 91.321 1.70941 89.5623 1.70941 87.3929H1.09949C1.09949 89.8992 3.13123 91.9309 5.63751 91.9309V91.321ZM1.70941 87.3929C1.70941 85.2235 3.46808 83.4648 5.63751 83.4648V82.8549C3.13123 82.8549 1.09949 84.8866 1.09949 87.3929H1.70941ZM5.63751 83.4648C7.80694 83.4648 9.56561 85.2235 9.56561 87.3929H10.1755C10.1755 84.8866 8.14378 82.8549 5.63751 82.8549V83.4648ZM5.32698 90.6483C4.57698 90.7023 3.85231 90.3152 3.28514 89.6738C2.7185 89.0329 2.34364 88.1737 2.28586 87.371L1.67751 87.4148C1.74564 88.3611 2.17995 89.3446 2.82821 90.0778C3.47594 90.8104 4.37191 91.3286 5.37078 91.2567L5.32698 90.6483ZM2.28586 87.371C2.23207 86.624 2.65707 85.8419 3.30836 85.2144C3.96003 84.5866 4.76968 84.1808 5.37078 84.1375L5.32698 83.5291C4.53795 83.5859 3.60105 84.0855 2.88518 84.7752C2.16892 85.4653 1.60539 86.413 1.67751 87.4148L2.28586 87.371ZM6.01426 84.1308C6.79112 84.1513 7.5488 84.5542 8.11209 85.1714C8.67541 85.7887 9.01891 86.5931 8.99816 87.3775L9.60786 87.3936C9.63349 86.4252 9.21303 85.473 8.56261 84.7603C7.91216 84.0475 7.0063 83.5469 6.03039 83.5211L6.01426 84.1308ZM8.99816 87.3775C8.97754 88.1565 8.55241 88.9874 7.94641 89.6267C7.33425 90.2725 6.60347 90.6555 6.0304 90.6403L6.01426 91.25C6.83443 91.2717 7.72079 90.7513 8.38907 90.0463C9.0635 89.3348 9.58209 88.3674 9.60786 87.3936L8.99816 87.3775ZM5.04392 83.8333L5.04392 90.9525L5.65384 90.9525L5.65384 83.8333L5.04392 83.8333ZM6.32729 90.9452L6.32728 83.8259L5.71737 83.8259L5.71737 90.9452L6.32729 90.9452ZM16.5254 32.45L13.6392 29.179L13.1819 29.5825L16.0681 32.8535L16.5254 32.45ZM13.4106 29.0758H3.50135V29.6857H13.4106V29.0758ZM3.20916 29.2934L0.70781 37.6633L1.29219 37.838L3.79354 29.4681L3.20916 29.2934ZM11.5172 47.2793L16.5847 32.7522L16.0088 32.5513L10.9413 47.0784L11.5172 47.2793ZM0.695064 37.7544L0.810893 47.1826L1.42076 47.1751L1.30494 37.7469L0.695064 37.7544ZM1.11583 62.4919H11.1978V61.882H1.11583V62.4919ZM11.5028 62.1876L11.5342 47.1795L10.9243 47.1782L10.8929 62.1863L11.5028 62.1876ZM1.30824 62.2995H11.0054V61.6896H1.30824V62.2995ZM11.3104 61.9953L11.3466 47.372L10.7367 47.3705L10.7005 61.9938L11.3104 61.9953ZM1.00328 47.3712V61.9945H1.6132V47.3712H1.00328ZM11.0416 47.0663H1.30824V47.6762H11.0416V47.0663ZM1.30824 47.4838H11.0054V46.8739H1.30824V47.4838ZM11.2938 47.2781L16.2965 32.751L15.7198 32.5524L10.7171 47.0795L11.2938 47.2781ZM16.0081 32.3468H6.29132V32.9567H16.0081V32.3468ZM6.00286 32.5528L1.01978 47.0799L1.5967 47.2778L6.57978 32.7507L6.00286 32.5528ZM6.29132 32.7643L15.8157 32.7643L15.8157 32.1544L6.29133 32.1543L6.29132 32.7643ZM16.0462 32.2596L13.5448 29.3734L13.0839 29.7729L15.5853 32.6591L16.0462 32.2596ZM13.3144 29.2682H3.69377V29.8781H13.3144V29.2682ZM3.46709 29.7772L6.06465 32.6633L6.518 32.2553L3.92044 29.3691L3.46709 29.7772ZM1.48451 37.9345L3.90928 29.8532L3.32509 29.6779L0.900318 37.7592L1.48451 37.9345ZM3.38932 29.9682L5.87106 32.7582L6.32677 32.3529L3.84504 29.5629L3.38932 29.9682ZM5.81028 32.4571L1.01961 46.5032L1.59687 46.7L6.38755 32.654L5.81028 32.4571ZM1.61317 46.5976L1.49734 37.8428L0.88748 37.8509L1.00331 46.6056L1.61317 46.5976ZM0.81087 47.1788V62.187H1.42079V47.1788H0.81087Z" fill="#FFF8F8"/>
</g>
</g>
</svg>