<?xml version="1.0" encoding="UTF-8"?>
<!DOCTYPE svg
PUBLIC "-//W3C//DTD SVG 1.1//EN"
     "http://www.w3.org/Graphics/SVG/1.1/DTD/svg11.dtd">
<svg version="1.1" xmlns="http://www.w3.org/2000/svg" xmlns:xlink="http://www.w3.org/1999/xlink" width="3300" height="2200">
<!--glyph: "uni100000.medium", point size: 100.0, font version: "19.0d6e1", template writer version: "123"-->
<style>.SFSymbolsPreviewWireframe {fill:none;opacity:1.0;stroke:black;stroke-width:0.5}
</style>
<g id="Notes">
<rect height="2200" id="artboard" style="fill:white;opacity:1" width="3300" x="0" y="0"/>
<line style="fill:none;stroke:black;opacity:1;stroke-width:0.5;" x1="263" x2="3036" y1="292" y2="292"/>
<text style="stroke:none;fill:black;font-family:sans-serif;font-size:13;font-weight:bold;" transform="matrix(1 0 0 1 263 322)">Weight/Scale Variations</text>
<text style="stroke:none;fill:black;font-family:sans-serif;font-size:13;text-anchor:middle;" transform="matrix(1 0 0 1 559.711 322)">Ultralight</text>
<text style="stroke:none;fill:black;font-family:sans-serif;font-size:13;text-anchor:middle;" transform="matrix(1 0 0 1 856.422 322)">Thin</text>
<text style="stroke:none;fill:black;font-family:sans-serif;font-size:13;text-anchor:middle;" transform="matrix(1 0 0 1 1153.13 322)">Light</text>
<text style="stroke:none;fill:black;font-family:sans-serif;font-size:13;text-anchor:middle;" transform="matrix(1 0 0 1 1449.84 322)">Regular</text>
<text style="stroke:none;fill:black;font-family:sans-serif;font-size:13;text-anchor:middle;" transform="matrix(1 0 0 1 1746.56 322)">Medium</text>
<text style="stroke:none;fill:black;font-family:sans-serif;font-size:13;text-anchor:middle;" transform="matrix(1 0 0 1 2043.27 322)">Semibold</text>
<text style="stroke:none;fill:black;font-family:sans-serif;font-size:13;text-anchor:middle;" transform="matrix(1 0 0 1 2339.98 322)">Bold</text>
<text style="stroke:none;fill:black;font-family:sans-serif;font-size:13;text-anchor:middle;" transform="matrix(1 0 0 1 2636.69 322)">Heavy</text>
<text style="stroke:none;fill:black;font-family:sans-serif;font-size:13;text-anchor:middle;" transform="matrix(1 0 0 1 2933.4 322)">Black</text>
<line style="fill:none;stroke:black;opacity:1;stroke-width:0.5;" x1="263" x2="3036" y1="1903" y2="1903"/>
<g transform="matrix(0.2 0 0 0.2 263 1933)">
 <path d="m46.2402 4.15039c21.5332 0 39.4531-17.8711 39.4531-39.4043s-17.9688-39.4043-39.502-39.4043c-21.4844 0-39.3555 17.8711-39.3555 39.4043s17.9199 39.4043 39.4043 39.4043Zm0-7.42188c-17.7246 0-31.8848-14.209-31.8848-31.9824s14.1113-31.9824 31.8359-31.9824c17.7734 0 32.0312 14.209 32.0312 31.9824s-14.209 31.9824-31.9824 31.9824Zm-17.9688-31.9824c0 2.14844 1.51367 3.61328 3.75977 3.61328h10.498v10.5957c0 2.19727 1.46484 3.71094 3.61328 3.71094 2.24609 0 3.71094-1.51367 3.71094-3.71094v-10.5957h10.5957c2.19727 0 3.71094-1.46484 3.71094-3.61328 0-2.19727-1.51367-3.71094-3.71094-3.71094h-10.5957v-10.5469c0-2.24609-1.46484-3.75977-3.71094-3.75977-2.14844 0-3.61328 1.51367-3.61328 3.75977v10.5469h-10.498c-2.24609 0-3.75977 1.51367-3.75977 3.71094Z"/>
</g>
<g transform="matrix(0.2 0 0 0.2 281.506 1933)">
 <path d="m58.5449 14.5508c27.2461 0 49.8047-22.6074 49.8047-49.8047 0-27.2461-22.6074-49.8047-49.8535-49.8047-27.1973 0-49.7559 22.5586-49.7559 49.8047 0 27.1973 22.6074 49.8047 49.8047 49.8047Zm0-8.30078c-23.0469 0-41.4551-18.457-41.4551-41.5039s18.3594-41.5039 41.4062-41.5039 41.5527 18.457 41.5527 41.5039-18.457 41.5039-41.5039 41.5039Zm-22.6562-41.5039c0 2.39258 1.66016 4.00391 4.15039 4.00391h14.3555v14.4043c0 2.44141 1.66016 4.15039 4.05273 4.15039 2.44141 0 4.15039-1.66016 4.15039-4.15039v-14.4043h14.4043c2.44141 0 4.15039-1.61133 4.15039-4.00391 0-2.44141-1.70898-4.15039-4.15039-4.15039h-14.4043v-14.3555c0-2.49023-1.70898-4.19922-4.15039-4.19922-2.39258 0-4.05273 1.70898-4.05273 4.19922v14.3555h-14.3555c-2.49023 0-4.15039 1.70898-4.15039 4.15039Z"/>
</g>
<g transform="matrix(0.2 0 0 0.2 304.924 1933)">
 <path d="m74.8535 28.3203c34.8145 0 63.623-28.8086 63.623-63.5742 0-34.8145-28.8574-63.623-63.6719-63.623-34.7656 0-63.5254 28.8086-63.5254 63.623 0 34.7656 28.8086 63.5742 63.5742 63.5742Zm0-9.08203c-30.1758 0-54.4434-24.3164-54.4434-54.4922 0-30.2246 24.2188-54.4922 54.3945-54.4922 30.2246 0 54.541 24.2676 54.541 54.4922 0 30.1758-24.2676 54.4922-54.4922 54.4922Zm-28.8574-54.4922c0 2.58789 1.85547 4.39453 4.58984 4.39453h19.7266v19.7754c0 2.68555 1.85547 4.58984 4.44336 4.58984 2.68555 0 4.54102-1.85547 4.54102-4.58984v-19.7754h19.7754c2.68555 0 4.58984-1.80664 4.58984-4.39453 0-2.73438-1.85547-4.58984-4.58984-4.58984h-19.7754v-19.7266c0-2.73438-1.85547-4.63867-4.54102-4.63867-2.58789 0-4.44336 1.9043-4.44336 4.63867v19.7266h-19.7266c-2.73438 0-4.58984 1.85547-4.58984 4.58984Z"/>
</g>
<text style="stroke:none;fill:black;font-family:sans-serif;font-size:13;font-weight:bold;" transform="matrix(1 0 0 1 263 1953)">Design Variations</text>
<text style="stroke:none;fill:black;font-family:sans-serif;font-size:13;" transform="matrix(1 0 0 1 263 1971)">Symbols are supported in up to nine weights and three scales.</text>
<text style="stroke:none;fill:black;font-family:sans-serif;font-size:13;" transform="matrix(1 0 0 1 263 1989)">For optimal layout with text and other symbols, vertically align</text>
<text style="stroke:none;fill:black;font-family:sans-serif;font-size:13;" transform="matrix(1 0 0 1 263 2007)">symbols with the adjacent text.</text>
<line style="fill:none;stroke:#00AEEF;stroke-width:0.5;opacity:1.0;" x1="776" x2="776" y1="1919" y2="1933"/>
<g transform="matrix(0.2 0 0 0.2 776 1933)">
 <path d="m16.5527 0.78125c2.58789 0 3.85742-0.976562 4.78516-3.71094l6.29883-17.2363h28.8086l6.29883 17.2363c0.927734 2.73438 2.19727 3.71094 4.73633 3.71094 2.58789 0 4.24805-1.5625 4.24805-4.00391 0-0.830078-0.146484-1.61133-0.537109-2.63672l-22.9004-60.9863c-1.12305-2.97852-3.125-4.49219-6.25-4.49219-3.02734 0-5.07812 1.46484-6.15234 4.44336l-22.9004 61.084c-0.390625 1.02539-0.537109 1.80664-0.537109 2.63672 0 2.44141 1.5625 3.95508 4.10156 3.95508Zm13.4766-28.3691 11.8652-32.8613h0.244141l11.8652 32.8613Z"/>
</g>
<line style="fill:none;stroke:#00AEEF;stroke-width:0.5;opacity:1.0;" x1="792.836" x2="792.836" y1="1919" y2="1933"/>
<text style="stroke:none;fill:black;font-family:sans-serif;font-size:13;font-weight:bold;" transform="matrix(1 0 0 1 776 1953)">Margins</text>
<text style="stroke:none;fill:black;font-family:sans-serif;font-size:13;" transform="matrix(1 0 0 1 776 1971)">Leading and trailing margins on the left and right side of each symbol</text>
<text style="stroke:none;fill:black;font-family:sans-serif;font-size:13;" transform="matrix(1 0 0 1 776 1989)">can be adjusted by modifying the x-location of the margin guidelines.</text>
<text style="stroke:none;fill:black;font-family:sans-serif;font-size:13;" transform="matrix(1 0 0 1 776 2007)">Modifications are automatically applied proportionally to all</text>
<text style="stroke:none;fill:black;font-family:sans-serif;font-size:13;" transform="matrix(1 0 0 1 776 2025)">scales and weights.</text>
<g transform="matrix(0.2 0 0 0.2 1289 1933)">
 <path d="m14.209 9.32617 8.49609 8.54492c4.29688 4.3457 9.22852 4.05273 13.8672-1.07422l53.4668-58.9355-4.83398-4.88281-53.0762 58.3984c-1.75781 2.00195-3.41797 2.49023-5.76172 0.146484l-5.85938-5.81055c-2.34375-2.29492-1.80664-4.00391 0.195312-5.81055l57.373-54.0039-4.88281-4.83398-57.959 54.4434c-4.93164 4.58984-5.32227 9.47266-1.02539 13.8184Zm32.0801-90.9668c-2.09961 2.05078-2.24609 4.93164-1.07422 6.88477 1.17188 1.80664 3.4668 2.97852 6.68945 2.14844 7.32422-1.70898 14.9414-2.00195 22.0703 2.68555l-2.92969 7.27539c-1.70898 4.15039-0.830078 7.08008 1.85547 9.81445l11.4746 11.5723c2.44141 2.44141 4.49219 2.53906 7.32422 2.05078l5.32227-0.976562 3.32031 3.36914-0.195312 2.7832c-0.195312 2.49023 0.439453 4.39453 2.88086 6.78711l3.80859 3.71094c2.39258 2.39258 5.46875 2.53906 7.8125 0.195312l14.5508-14.5996c2.34375-2.34375 2.24609-5.32227-0.146484-7.71484l-3.85742-3.80859c-2.39258-2.39258-4.24805-3.17383-6.64062-2.97852l-2.88086 0.244141-3.22266-3.17383 1.2207-5.61523c0.634766-2.83203-0.146484-5.0293-3.07617-7.95898l-10.9863-10.9375c-16.6992-16.6016-38.8672-16.2109-53.3203-1.75781Zm7.4707 1.85547c12.1582-8.88672 28.6133-7.37305 39.7461 3.75977l12.1582 12.0605c1.17188 1.17188 1.36719 2.09961 1.02539 3.80859l-1.61133 7.42188 7.51953 7.42188 4.93164-0.292969c1.26953-0.0488281 1.66016 0.0488281 2.63672 1.02539l2.88086 2.88086-12.207 12.207-2.88086-2.88086c-0.976562-0.976562-1.12305-1.36719-1.07422-2.68555l0.341797-4.88281-7.4707-7.42188-7.61719 1.26953c-1.61133 0.341797-2.34375 0.195312-3.56445-0.976562l-10.0098-10.0098c-1.26953-1.17188-1.41602-2.00195-0.634766-3.85742l4.39453-10.4492c-7.8125-7.27539-17.9688-10.4004-28.125-7.42188-0.78125 0.195312-1.07422-0.439453-0.439453-0.976562Z"/>
</g>
<text style="stroke:none;fill:black;font-family:sans-serif;font-size:13;font-weight:bold;" transform="matrix(1 0 0 1 1289 1953)">Exporting</text>
<text style="stroke:none;fill:black;font-family:sans-serif;font-size:13;" transform="matrix(1 0 0 1 1289 1971)">Symbols should be outlined when exporting to ensure the</text>
<text style="stroke:none;fill:black;font-family:sans-serif;font-size:13;" transform="matrix(1 0 0 1 1289 1989)">design is preserved when submitting to Xcode.</text>
<text id="template-version" style="stroke:none;fill:black;font-family:sans-serif;font-size:13;text-anchor:end;" transform="matrix(1 0 0 1 3036 1933)">Template v.5.0</text>
<text style="stroke:none;fill:black;font-family:sans-serif;font-size:13;text-anchor:end;" transform="matrix(1 0 0 1 3036 1951)">Requires Xcode 15 or greater</text>
<text id="descriptive-name" style="stroke:none;fill:black;font-family:sans-serif;font-size:13;text-anchor:end;" transform="matrix(1 0 0 1 3036 1969)">Generated from circle</text>
<text style="stroke:none;fill:black;font-family:sans-serif;font-size:13;text-anchor:end;" transform="matrix(1 0 0 1 3036 1987)">Typeset at 100.0 points</text>
<text style="stroke:none;fill:black;font-family:sans-serif;font-size:13;" transform="matrix(1 0 0 1 263 726)">Small</text>
<text style="stroke:none;fill:black;font-family:sans-serif;font-size:13;" transform="matrix(1 0 0 1 263 1156)">Medium</text>
<text style="stroke:none;fill:black;font-family:sans-serif;font-size:13;" transform="matrix(1 0 0 1 263 1586)">Large</text>
</g>
<g id="Guides">
<g id="H-reference" style="fill:#27AAE1;stroke:none;" transform="matrix(1 0 0 1 339 696)">
 <path d="M0.993654 0L3.63775 0L29.3281-67.1323L30.0303-67.1323L30.0303-70.459L28.1226-70.459ZM11.6885-24.4799L46.9815-24.4799L46.2315-26.7285L12.4385-26.7285ZM55.1196 0L57.7637 0L30.6382-70.459L29.4326-70.459L29.4326-67.1323Z"/>
</g>
<line id="Baseline-S" style="fill:none;stroke:#27AAE1;opacity:1;stroke-width:0.5;" x1="263" x2="3036" y1="696" y2="696"/>
<line id="Capline-S" style="fill:none;stroke:#27AAE1;opacity:1;stroke-width:0.5;" x1="263" x2="3036" y1="625.541" y2="625.541"/>
<g id="H-reference" style="fill:#27AAE1;stroke:none;" transform="matrix(1 0 0 1 339 1126)">
 <path d="M0.993654 0L3.63775 0L29.3281-67.1323L30.0303-67.1323L30.0303-70.459L28.1226-70.459ZM11.6885-24.4799L46.9815-24.4799L46.2315-26.7285L12.4385-26.7285ZM55.1196 0L57.7637 0L30.6382-70.459L29.4326-70.459L29.4326-67.1323Z"/>
</g>
<line id="Baseline-M" style="fill:none;stroke:#27AAE1;opacity:1;stroke-width:0.5;" x1="263" x2="3036" y1="1126" y2="1126"/>
<line id="Capline-M" style="fill:none;stroke:#27AAE1;opacity:1;stroke-width:0.5;" x1="263" x2="3036" y1="1055.54" y2="1055.54"/>
<g id="H-reference" style="fill:#27AAE1;stroke:none;" transform="matrix(1 0 0 1 339 1556)">
 <path d="M0.993654 0L3.63775 0L29.3281-67.1323L30.0303-67.1323L30.0303-70.459L28.1226-70.459ZM11.6885-24.4799L46.9815-24.4799L46.2315-26.7285L12.4385-26.7285ZM55.1196 0L57.7637 0L30.6382-70.459L29.4326-70.459L29.4326-67.1323Z"/>
</g>
<line id="Baseline-L" style="fill:none;stroke:#27AAE1;opacity:1;stroke-width:0.5;" x1="263" x2="3036" y1="1556" y2="1556"/>
<line id="Capline-L" style="fill:none;stroke:#27AAE1;opacity:1;stroke-width:0.5;" x1="263" x2="3036" y1="1485.54" y2="1485.54"/>
<line id="left-margin-Ultralight-S" style="fill:none;stroke:#00AEEF;stroke-width:0.5;opacity:1.0;" x1="515.649" x2="515.649" y1="600.785" y2="720.121"/>
<line id="right-margin-Ultralight-S" style="fill:none;stroke:#00AEEF;stroke-width:0.5;opacity:1.0;" x1="603.773" x2="603.773" y1="600.785" y2="720.121"/>
<line id="left-margin-Regular-S" style="fill:none;stroke:#00AEEF;stroke-width:0.5;opacity:1.0;" x1="1403.58" x2="1403.58" y1="600.785" y2="720.121"/>
<line id="right-margin-Regular-S" style="fill:none;stroke:#00AEEF;stroke-width:0.5;opacity:1.0;" x1="1496.11" x2="1496.11" y1="600.785" y2="720.121"/>
<line id="left-margin-Black-S" style="fill:none;stroke:#00AEEF;stroke-width:0.5;opacity:1.0;" x1="2884.57" x2="2884.57" y1="600.785" y2="720.121"/>
<line id="right-margin-Black-S" style="fill:none;stroke:#00AEEF;stroke-width:0.5;opacity:1.0;" x1="2982.23" x2="2982.23" y1="600.785" y2="720.121"/>
</g>
<g id="Symbols">
<g id="Black-S" transform="matrix(1 0 0 1 2884.57 696) translate(3 -81.25)">
<path d="M5.21949 8.91083L5.2265 9.00824L5.31715 9.00171L5.31715 8.91083L5.21949 8.91083ZM5.21949 1.68368L5.31715 1.68368L5.31715 1.57873L5.21247 1.58626L5.21949 1.68368ZM5.90314 1.67619L5.90573 1.57856L5.80548 1.57591L5.80548 1.67619L5.90314 1.67619ZM5.90315 8.90338L5.80548 8.90338L5.80548 8.9985L5.90056 9.00101L5.90315 8.90338ZM5.41482 92.3163L5.42183 92.4138L5.51248 92.4072L5.51248 92.3163L5.41482 92.3163ZM5.41482 85.0892L5.51248 85.0892L5.51248 84.9842L5.4078 84.9918L5.41482 85.0892ZM6.09847 85.0817L6.10106 84.9841L6.00081 84.9814L6.00081 85.0817L6.09847 85.0817ZM6.09848 92.3089L6.00081 92.3089L6.00081 92.404L6.09589 92.4065L6.09848 92.3089ZM16.5287 33.1316L16.6209 33.1638L16.6397 33.1099L16.6019 33.067L16.5287 33.1316ZM13.5987 29.811L13.672 29.7464L13.6428 29.7134H13.5987V29.811ZM3.53928 29.811V29.7134H3.46653L3.4457 29.7831L3.53928 29.811ZM1 38.3079L0.906425 38.2799L0.90216 38.2942L0.902343 38.3091L1 38.3079ZM11.3844 47.879L11.2922 47.8468L11.2868 47.8623L11.2867 47.8788L11.3844 47.879ZM1.11758 47.879H1.21526L1.21524 47.8778L1.11758 47.879ZM1.11758 63.1146H1.01992V63.2123H1.11758V63.1146ZM11.3524 63.1146V63.2123H11.4499L11.4501 63.1149L11.3524 63.1146ZM1.31291 47.879L1.22053 47.8473L1.17616 47.9766H1.31291V47.879ZM1.31291 62.9193H1.21525V63.017H1.31291V62.9193ZM11.1571 62.9193V63.017H11.2545L11.2548 62.9196L11.1571 62.9193ZM11.1939 48.0743L11.2916 48.0746L11.2918 47.9766H11.1939V48.0743ZM1.31291 48.0743V47.9766H1.21525V48.0743H1.31291ZM11.1571 47.879V47.9766H11.2268L11.2495 47.9108L11.1571 47.879ZM16.2357 33.1316L16.328 33.1634L16.3726 33.034H16.2357V33.1316ZM6.37155 33.1316V33.034H6.3018L6.27917 33.0999L6.37155 33.1316ZM6.37155 32.9363L6.29896 33.0016L6.32805 33.0339L6.37155 33.0339L6.37155 32.9363ZM16.0403 32.9363L16.0403 33.034L16.2542 33.034L16.1141 32.8723L16.0403 32.9363ZM13.5011 30.0064L13.5749 29.9424L13.5457 29.9087H13.5011V30.0064ZM3.73461 30.0064V29.9087H3.51531L3.66201 30.0717L3.73461 30.0064ZM1.19533 38.4055L1.10178 38.3775L1.09747 38.3918L1.09767 38.4068L1.19533 38.4055ZM3.65686 30.2017L3.72984 30.1368L3.61359 30.0061L3.56332 30.1736L3.65686 30.2017ZM6.17622 33.034L6.26866 33.0655L6.28704 33.0116L6.24919 32.9691L6.17622 33.034ZM1.31291 47.293L1.21526 47.2943L1.40535 47.3245L1.31291 47.293ZM9.71206 5.29724C9.71206 7.6166 7.83185 9.49682 5.51249 9.49682V9.69214C7.93973 9.69214 9.90739 7.72448 9.90739 5.29724H9.71206ZM5.51249 9.49682C3.19313 9.49682 1.31291 7.6166 1.31291 5.29724H1.11758C1.11758 7.72448 3.08525 9.69214 5.51249 9.69214V9.49682ZM1.31291 5.29724C1.31291 2.97788 3.19313 1.09766 5.51249 1.09766V0.902335C3.08525 0.902335 1.11758 2.87 1.11758 5.29724H1.31291ZM5.51249 1.09766C7.83185 1.09766 9.71206 2.97788 9.71206 5.29724H9.90739C9.90739 2.87 7.93973 0.902335 5.51249 0.902335V1.09766ZM5.21248 8.81341C4.36463 8.87446 3.56946 8.43591 2.96569 7.75306C2.3621 7.0704 1.96091 6.15496 1.89865 5.29027L1.70383 5.30429C1.76939 6.21497 2.18963 7.17022 2.81936 7.88244C3.44892 8.59447 4.29896 9.07502 5.2265 9.00824L5.21248 8.81341ZM1.89865 5.29027C1.83768 4.44338 2.31725 3.5919 3.00099 2.93315C3.68485 2.27427 4.55099 1.82972 5.2265 1.78109L5.21247 1.58626C4.47678 1.63923 3.56988 2.1138 2.86546 2.79248C2.16092 3.47129 1.63698 4.37581 1.70383 5.30429L1.89865 5.29027ZM5.90056 1.77382C6.75836 1.79652 7.57901 2.23943 8.18113 2.89922C8.78325 3.55903 9.1587 4.42699 9.13594 5.2872L9.3312 5.29237C9.35552 4.37323 8.95543 3.45793 8.32541 2.76756C7.69538 2.07717 6.82727 1.60295 5.90573 1.57856L5.90056 1.77382ZM9.13594 5.2872C9.11322 6.14569 8.64917 7.03659 8.0102 7.71069C7.36927 8.38687 6.57334 8.82342 5.90573 8.80575L5.90056 9.00101C6.64731 9.02078 7.49306 8.5402 8.15197 7.84506C8.81285 7.14784 9.30683 6.21322 9.3312 5.29237L9.13594 5.2872ZM5.12182 1.68368L5.12182 8.91083L5.31715 8.91083L5.31715 1.68368L5.12182 1.68368ZM6.00081 8.90338L6.00081 1.67619L5.80548 1.67619L5.80548 8.90338L6.00081 8.90338ZM9.90739 88.7028C9.90739 91.0221 8.02718 92.9023 5.70782 92.9023V93.0977C8.13506 93.0977 10.1027 91.13 10.1027 88.7028H9.90739ZM5.70782 92.9023C3.38846 92.9023 1.50824 91.0221 1.50824 88.7028H1.31291C1.31291 91.13 3.28058 93.0977 5.70782 93.0977V92.9023ZM1.50824 88.7028C1.50824 86.3834 3.38846 84.5032 5.70782 84.5032V84.3079C3.28058 84.3079 1.31291 86.2755 1.31291 88.7028H1.50824ZM5.70782 84.5032C8.02718 84.5032 9.90739 86.3834 9.90739 88.7028H10.1027C10.1027 86.2755 8.13506 84.3079 5.70782 84.3079V84.5032ZM5.40781 92.2189C4.55996 92.28 3.76479 91.8414 3.16102 91.1586C2.55743 90.4759 2.15623 89.5605 2.09398 88.6958L1.89916 88.7098C1.96472 89.6205 2.38496 90.5757 3.01469 91.288C3.64425 92 4.49429 92.4805 5.42183 92.4138L5.40781 92.2189ZM2.09398 88.6958C2.03301 87.8489 2.51258 86.9974 3.19632 86.3387C3.88018 85.6798 4.74632 85.2352 5.42183 85.1866L5.4078 84.9918C4.6721 85.0447 3.76521 85.5193 3.06079 86.198C2.35625 86.8768 1.83231 87.7813 1.89916 88.7098L2.09398 88.6958ZM6.09589 85.1793C6.95369 85.202 7.77434 85.6449 8.37646 86.3047C8.97858 86.9646 9.35403 87.8325 9.33127 88.6927L9.52653 88.6979C9.55085 87.7787 9.15076 86.8635 8.52074 86.1731C7.89071 85.4827 7.0226 85.0085 6.10106 84.9841L6.09589 85.1793ZM9.33127 88.6927C9.30855 89.5512 8.8445 90.4421 8.20553 91.1162C7.56459 91.7924 6.76867 92.2289 6.10106 92.2113L6.09589 92.4065C6.84264 92.4263 7.68839 91.9457 8.3473 91.2506C9.00818 90.5534 9.50216 89.6187 9.52653 88.6979L9.33127 88.6927ZM5.31715 85.0892L5.31715 92.3163L5.51248 92.3163L5.51248 85.0892L5.31715 85.0892ZM6.19614 92.3089L6.19614 85.0817L6.00081 85.0817L6.00081 92.3089L6.19614 92.3089ZM16.6019 33.067L13.672 29.7464L13.5255 29.8757L16.4554 33.1963L16.6019 33.067ZM13.5987 29.7134H3.53928V29.9087H13.5987V29.7134ZM3.4457 29.7831L0.906425 38.2799L1.09358 38.3358L3.63285 29.839L3.4457 29.7831ZM11.4766 47.9111L16.6209 33.1638L16.4364 33.0995L11.2922 47.8468L11.4766 47.9111ZM0.902343 38.3091L1.01993 47.8802L1.21524 47.8778L1.09766 38.3067L0.902343 38.3091ZM1.11758 63.2123H11.3524V63.017H1.11758V63.2123ZM11.4501 63.1149L11.482 47.8792L11.2867 47.8788L11.2548 63.1144L11.4501 63.1149ZM1.31291 63.017H11.1571V62.8217H1.31291V63.017ZM11.2548 62.9196L11.2916 48.0746L11.0962 48.0741L11.0594 62.9191L11.2548 62.9196ZM1.21525 48.0743V62.9193H1.41058V48.0743H1.21525ZM11.1939 47.9766H1.31291V48.172H11.1939V47.9766ZM1.31291 47.9766H11.1571V47.7813H1.31291V47.9766ZM11.2495 47.9108L16.328 33.1634L16.1433 33.0998L11.0648 47.8472L11.2495 47.9108ZM16.2357 33.034H6.37155V33.2293H16.2357V33.034ZM6.27917 33.0999L1.22053 47.8473L1.40529 47.9107L6.46393 33.1633L6.27917 33.0999ZM6.37155 33.0339L16.0403 33.034L16.0403 32.8386L6.37155 32.8386L6.37155 33.0339ZM16.1141 32.8723L13.5749 29.9424L13.4273 30.0703L15.9665 33.0003L16.1141 32.8723ZM13.5011 29.9087H3.73461V30.104H13.5011V29.9087ZM3.66201 30.0717L6.29896 33.0016L6.44414 32.8709L3.8072 29.941L3.66201 30.0717ZM1.28887 38.4336L3.75041 30.2298L3.56332 30.1736L1.10178 38.3775L1.28887 38.4336ZM3.58389 30.2666L6.10325 33.0989L6.24919 32.9691L3.72984 30.1368L3.58389 30.2666ZM6.08378 33.0024L1.22048 47.2615L1.40535 47.3245L6.26866 33.0655L6.08378 33.0024ZM1.41057 47.2917L1.29299 38.4042L1.09767 38.4068L1.21526 47.2943L1.41057 47.2917ZM1.01992 47.879V63.1146H1.21525V47.879H1.01992Z" fill="#FFF8F8"/>
</g>
<g id="Regular-S" transform="matrix(1 0 0 1 1403.58 696) translate(0 -81.25)">
 <path d="M5.21949 8.91083L5.2265 9.00824L5.31715 9.00171L5.31715 8.91083L5.21949 8.91083ZM5.21949 1.68368L5.31715 1.68368L5.31715 1.57873L5.21247 1.58626L5.21949 1.68368ZM5.90314 1.67619L5.90573 1.57856L5.80548 1.57591L5.80548 1.67619L5.90314 1.67619ZM5.90315 8.90338L5.80548 8.90338L5.80548 8.9985L5.90056 9.00101L5.90315 8.90338ZM5.41482 92.3163L5.42183 92.4138L5.51248 92.4072L5.51248 92.3163L5.41482 92.3163ZM5.41482 85.0892L5.51248 85.0892L5.51248 84.9842L5.4078 84.9918L5.41482 85.0892ZM6.09847 85.0817L6.10106 84.9841L6.00081 84.9814L6.00081 85.0817L6.09847 85.0817ZM6.09848 92.3089L6.00081 92.3089L6.00081 92.404L6.09589 92.4065L6.09848 92.3089ZM16.5287 33.1316L16.6209 33.1638L16.6397 33.1099L16.6019 33.067L16.5287 33.1316ZM13.5987 29.811L13.672 29.7464L13.6428 29.7134H13.5987V29.811ZM3.53928 29.811V29.7134H3.46653L3.4457 29.7831L3.53928 29.811ZM1 38.3079L0.906425 38.2799L0.90216 38.2942L0.902343 38.3091L1 38.3079ZM11.3844 47.879L11.2922 47.8468L11.2868 47.8623L11.2867 47.8788L11.3844 47.879ZM1.11758 47.879H1.21526L1.21524 47.8778L1.11758 47.879ZM1.11758 63.1146H1.01992V63.2123H1.11758V63.1146ZM11.3524 63.1146V63.2123H11.4499L11.4501 63.1149L11.3524 63.1146ZM1.31291 47.879L1.22053 47.8473L1.17616 47.9766H1.31291V47.879ZM1.31291 62.9193H1.21525V63.017H1.31291V62.9193ZM11.1571 62.9193V63.017H11.2545L11.2548 62.9196L11.1571 62.9193ZM11.1939 48.0743L11.2916 48.0746L11.2918 47.9766H11.1939V48.0743ZM1.31291 48.0743V47.9766H1.21525V48.0743H1.31291ZM11.1571 47.879V47.9766H11.2268L11.2495 47.9108L11.1571 47.879ZM16.2357 33.1316L16.328 33.1634L16.3726 33.034H16.2357V33.1316ZM6.37155 33.1316V33.034H6.3018L6.27917 33.0999L6.37155 33.1316ZM6.37155 32.9363L6.29896 33.0016L6.32805 33.0339L6.37155 33.0339L6.37155 32.9363ZM16.0403 32.9363L16.0403 33.034L16.2542 33.034L16.1141 32.8723L16.0403 32.9363ZM13.5011 30.0064L13.5749 29.9424L13.5457 29.9087H13.5011V30.0064ZM3.73461 30.0064V29.9087H3.51531L3.66201 30.0717L3.73461 30.0064ZM1.19533 38.4055L1.10178 38.3775L1.09747 38.3918L1.09767 38.4068L1.19533 38.4055ZM3.65686 30.2017L3.72984 30.1368L3.61359 30.0061L3.56332 30.1736L3.65686 30.2017ZM6.17622 33.034L6.26866 33.0655L6.28704 33.0116L6.24919 32.9691L6.17622 33.034ZM1.31291 47.293L1.21526 47.2943L1.40535 47.3245L1.31291 47.293ZM9.71206 5.29724C9.71206 7.6166 7.83185 9.49682 5.51249 9.49682V9.69214C7.93973 9.69214 9.90739 7.72448 9.90739 5.29724H9.71206ZM5.51249 9.49682C3.19313 9.49682 1.31291 7.6166 1.31291 5.29724H1.11758C1.11758 7.72448 3.08525 9.69214 5.51249 9.69214V9.49682ZM1.31291 5.29724C1.31291 2.97788 3.19313 1.09766 5.51249 1.09766V0.902335C3.08525 0.902335 1.11758 2.87 1.11758 5.29724H1.31291ZM5.51249 1.09766C7.83185 1.09766 9.71206 2.97788 9.71206 5.29724H9.90739C9.90739 2.87 7.93973 0.902335 5.51249 0.902335V1.09766ZM5.21248 8.81341C4.36463 8.87446 3.56946 8.43591 2.96569 7.75306C2.3621 7.0704 1.96091 6.15496 1.89865 5.29027L1.70383 5.30429C1.76939 6.21497 2.18963 7.17022 2.81936 7.88244C3.44892 8.59447 4.29896 9.07502 5.2265 9.00824L5.21248 8.81341ZM1.89865 5.29027C1.83768 4.44338 2.31725 3.5919 3.00099 2.93315C3.68485 2.27427 4.55099 1.82972 5.2265 1.78109L5.21247 1.58626C4.47678 1.63923 3.56988 2.1138 2.86546 2.79248C2.16092 3.47129 1.63698 4.37581 1.70383 5.30429L1.89865 5.29027ZM5.90056 1.77382C6.75836 1.79652 7.57901 2.23943 8.18113 2.89922C8.78325 3.55903 9.1587 4.42699 9.13594 5.2872L9.3312 5.29237C9.35552 4.37323 8.95543 3.45793 8.32541 2.76756C7.69538 2.07717 6.82727 1.60295 5.90573 1.57856L5.90056 1.77382ZM9.13594 5.2872C9.11322 6.14569 8.64917 7.03659 8.0102 7.71069C7.36927 8.38687 6.57334 8.82342 5.90573 8.80575L5.90056 9.00101C6.64731 9.02078 7.49306 8.5402 8.15197 7.84506C8.81285 7.14784 9.30683 6.21322 9.3312 5.29237L9.13594 5.2872ZM5.12182 1.68368L5.12182 8.91083L5.31715 8.91083L5.31715 1.68368L5.12182 1.68368ZM6.00081 8.90338L6.00081 1.67619L5.80548 1.67619L5.80548 8.90338L6.00081 8.90338ZM9.90739 88.7028C9.90739 91.0221 8.02718 92.9023 5.70782 92.9023V93.0977C8.13506 93.0977 10.1027 91.13 10.1027 88.7028H9.90739ZM5.70782 92.9023C3.38846 92.9023 1.50824 91.0221 1.50824 88.7028H1.31291C1.31291 91.13 3.28058 93.0977 5.70782 93.0977V92.9023ZM1.50824 88.7028C1.50824 86.3834 3.38846 84.5032 5.70782 84.5032V84.3079C3.28058 84.3079 1.31291 86.2755 1.31291 88.7028H1.50824ZM5.70782 84.5032C8.02718 84.5032 9.90739 86.3834 9.90739 88.7028H10.1027C10.1027 86.2755 8.13506 84.3079 5.70782 84.3079V84.5032ZM5.40781 92.2189C4.55996 92.28 3.76479 91.8414 3.16102 91.1586C2.55743 90.4759 2.15623 89.5605 2.09398 88.6958L1.89916 88.7098C1.96472 89.6205 2.38496 90.5757 3.01469 91.288C3.64425 92 4.49429 92.4805 5.42183 92.4138L5.40781 92.2189ZM2.09398 88.6958C2.03301 87.8489 2.51258 86.9974 3.19632 86.3387C3.88018 85.6798 4.74632 85.2352 5.42183 85.1866L5.4078 84.9918C4.6721 85.0447 3.76521 85.5193 3.06079 86.198C2.35625 86.8768 1.83231 87.7813 1.89916 88.7098L2.09398 88.6958ZM6.09589 85.1793C6.95369 85.202 7.77434 85.6449 8.37646 86.3047C8.97858 86.9646 9.35403 87.8325 9.33127 88.6927L9.52653 88.6979C9.55085 87.7787 9.15076 86.8635 8.52074 86.1731C7.89071 85.4827 7.0226 85.0085 6.10106 84.9841L6.09589 85.1793ZM9.33127 88.6927C9.30855 89.5512 8.8445 90.4421 8.20553 91.1162C7.56459 91.7924 6.76867 92.2289 6.10106 92.2113L6.09589 92.4065C6.84264 92.4263 7.68839 91.9457 8.3473 91.2506C9.00818 90.5534 9.50216 89.6187 9.52653 88.6979L9.33127 88.6927ZM5.31715 85.0892L5.31715 92.3163L5.51248 92.3163L5.51248 85.0892L5.31715 85.0892ZM6.19614 92.3089L6.19614 85.0817L6.00081 85.0817L6.00081 92.3089L6.19614 92.3089ZM16.6019 33.067L13.672 29.7464L13.5255 29.8757L16.4554 33.1963L16.6019 33.067ZM13.5987 29.7134H3.53928V29.9087H13.5987V29.7134ZM3.4457 29.7831L0.906425 38.2799L1.09358 38.3358L3.63285 29.839L3.4457 29.7831ZM11.4766 47.9111L16.6209 33.1638L16.4364 33.0995L11.2922 47.8468L11.4766 47.9111ZM0.902343 38.3091L1.01993 47.8802L1.21524 47.8778L1.09766 38.3067L0.902343 38.3091ZM1.11758 63.2123H11.3524V63.017H1.11758V63.2123ZM11.4501 63.1149L11.482 47.8792L11.2867 47.8788L11.2548 63.1144L11.4501 63.1149ZM1.31291 63.017H11.1571V62.8217H1.31291V63.017ZM11.2548 62.9196L11.2916 48.0746L11.0962 48.0741L11.0594 62.9191L11.2548 62.9196ZM1.21525 48.0743V62.9193H1.41058V48.0743H1.21525ZM11.1939 47.9766H1.31291V48.172H11.1939V47.9766ZM1.31291 47.9766H11.1571V47.7813H1.31291V47.9766ZM11.2495 47.9108L16.328 33.1634L16.1433 33.0998L11.0648 47.8472L11.2495 47.9108ZM16.2357 33.034H6.37155V33.2293H16.2357V33.034ZM6.27917 33.0999L1.22053 47.8473L1.40529 47.9107L6.46393 33.1633L6.27917 33.0999ZM6.37155 33.0339L16.0403 33.034L16.0403 32.8386L6.37155 32.8386L6.37155 33.0339ZM16.1141 32.8723L13.5749 29.9424L13.4273 30.0703L15.9665 33.0003L16.1141 32.8723ZM13.5011 29.9087H3.73461V30.104H13.5011V29.9087ZM3.66201 30.0717L6.29896 33.0016L6.44414 32.8709L3.8072 29.941L3.66201 30.0717ZM1.28887 38.4336L3.75041 30.2298L3.56332 30.1736L1.10178 38.3775L1.28887 38.4336ZM3.58389 30.2666L6.10325 33.0989L6.24919 32.9691L3.72984 30.1368L3.58389 30.2666ZM6.08378 33.0024L1.22048 47.2615L1.40535 47.3245L6.26866 33.0655L6.08378 33.0024ZM1.41057 47.2917L1.29299 38.4042L1.09767 38.4068L1.21526 47.2943L1.41057 47.2917ZM1.01992 47.879V63.1146H1.21525V47.879H1.01992Z" fill="#FFF8F8"/>
</g>
<g id="Ultralight-S" transform="matrix(1 0 0 1 515.649 696) translate(-2 -81.25)">
 <path d="M5.21949 8.91083L5.2265 9.00824L5.31715 9.00171L5.31715 8.91083L5.21949 8.91083ZM5.21949 1.68368L5.31715 1.68368L5.31715 1.57873L5.21247 1.58626L5.21949 1.68368ZM5.90314 1.67619L5.90573 1.57856L5.80548 1.57591L5.80548 1.67619L5.90314 1.67619ZM5.90315 8.90338L5.80548 8.90338L5.80548 8.9985L5.90056 9.00101L5.90315 8.90338ZM5.41482 92.3163L5.42183 92.4138L5.51248 92.4072L5.51248 92.3163L5.41482 92.3163ZM5.41482 85.0892L5.51248 85.0892L5.51248 84.9842L5.4078 84.9918L5.41482 85.0892ZM6.09847 85.0817L6.10106 84.9841L6.00081 84.9814L6.00081 85.0817L6.09847 85.0817ZM6.09848 92.3089L6.00081 92.3089L6.00081 92.404L6.09589 92.4065L6.09848 92.3089ZM16.5287 33.1316L16.6209 33.1638L16.6397 33.1099L16.6019 33.067L16.5287 33.1316ZM13.5987 29.811L13.672 29.7464L13.6428 29.7134H13.5987V29.811ZM3.53928 29.811V29.7134H3.46653L3.4457 29.7831L3.53928 29.811ZM1 38.3079L0.906425 38.2799L0.90216 38.2942L0.902343 38.3091L1 38.3079ZM11.3844 47.879L11.2922 47.8468L11.2868 47.8623L11.2867 47.8788L11.3844 47.879ZM1.11758 47.879H1.21526L1.21524 47.8778L1.11758 47.879ZM1.11758 63.1146H1.01992V63.2123H1.11758V63.1146ZM11.3524 63.1146V63.2123H11.4499L11.4501 63.1149L11.3524 63.1146ZM1.31291 47.879L1.22053 47.8473L1.17616 47.9766H1.31291V47.879ZM1.31291 62.9193H1.21525V63.017H1.31291V62.9193ZM11.1571 62.9193V63.017H11.2545L11.2548 62.9196L11.1571 62.9193ZM11.1939 48.0743L11.2916 48.0746L11.2918 47.9766H11.1939V48.0743ZM1.31291 48.0743V47.9766H1.21525V48.0743H1.31291ZM11.1571 47.879V47.9766H11.2268L11.2495 47.9108L11.1571 47.879ZM16.2357 33.1316L16.328 33.1634L16.3726 33.034H16.2357V33.1316ZM6.37155 33.1316V33.034H6.3018L6.27917 33.0999L6.37155 33.1316ZM6.37155 32.9363L6.29896 33.0016L6.32805 33.0339L6.37155 33.0339L6.37155 32.9363ZM16.0403 32.9363L16.0403 33.034L16.2542 33.034L16.1141 32.8723L16.0403 32.9363ZM13.5011 30.0064L13.5749 29.9424L13.5457 29.9087H13.5011V30.0064ZM3.73461 30.0064V29.9087H3.51531L3.66201 30.0717L3.73461 30.0064ZM1.19533 38.4055L1.10178 38.3775L1.09747 38.3918L1.09767 38.4068L1.19533 38.4055ZM3.65686 30.2017L3.72984 30.1368L3.61359 30.0061L3.56332 30.1736L3.65686 30.2017ZM6.17622 33.034L6.26866 33.0655L6.28704 33.0116L6.24919 32.9691L6.17622 33.034ZM1.31291 47.293L1.21526 47.2943L1.40535 47.3245L1.31291 47.293ZM9.71206 5.29724C9.71206 7.6166 7.83185 9.49682 5.51249 9.49682V9.69214C7.93973 9.69214 9.90739 7.72448 9.90739 5.29724H9.71206ZM5.51249 9.49682C3.19313 9.49682 1.31291 7.6166 1.31291 5.29724H1.11758C1.11758 7.72448 3.08525 9.69214 5.51249 9.69214V9.49682ZM1.31291 5.29724C1.31291 2.97788 3.19313 1.09766 5.51249 1.09766V0.902335C3.08525 0.902335 1.11758 2.87 1.11758 5.29724H1.31291ZM5.51249 1.09766C7.83185 1.09766 9.71206 2.97788 9.71206 5.29724H9.90739C9.90739 2.87 7.93973 0.902335 5.51249 0.902335V1.09766ZM5.21248 8.81341C4.36463 8.87446 3.56946 8.43591 2.96569 7.75306C2.3621 7.0704 1.96091 6.15496 1.89865 5.29027L1.70383 5.30429C1.76939 6.21497 2.18963 7.17022 2.81936 7.88244C3.44892 8.59447 4.29896 9.07502 5.2265 9.00824L5.21248 8.81341ZM1.89865 5.29027C1.83768 4.44338 2.31725 3.5919 3.00099 2.93315C3.68485 2.27427 4.55099 1.82972 5.2265 1.78109L5.21247 1.58626C4.47678 1.63923 3.56988 2.1138 2.86546 2.79248C2.16092 3.47129 1.63698 4.37581 1.70383 5.30429L1.89865 5.29027ZM5.90056 1.77382C6.75836 1.79652 7.57901 2.23943 8.18113 2.89922C8.78325 3.55903 9.1587 4.42699 9.13594 5.2872L9.3312 5.29237C9.35552 4.37323 8.95543 3.45793 8.32541 2.76756C7.69538 2.07717 6.82727 1.60295 5.90573 1.57856L5.90056 1.77382ZM9.13594 5.2872C9.11322 6.14569 8.64917 7.03659 8.0102 7.71069C7.36927 8.38687 6.57334 8.82342 5.90573 8.80575L5.90056 9.00101C6.64731 9.02078 7.49306 8.5402 8.15197 7.84506C8.81285 7.14784 9.30683 6.21322 9.3312 5.29237L9.13594 5.2872ZM5.12182 1.68368L5.12182 8.91083L5.31715 8.91083L5.31715 1.68368L5.12182 1.68368ZM6.00081 8.90338L6.00081 1.67619L5.80548 1.67619L5.80548 8.90338L6.00081 8.90338ZM9.90739 88.7028C9.90739 91.0221 8.02718 92.9023 5.70782 92.9023V93.0977C8.13506 93.0977 10.1027 91.13 10.1027 88.7028H9.90739ZM5.70782 92.9023C3.38846 92.9023 1.50824 91.0221 1.50824 88.7028H1.31291C1.31291 91.13 3.28058 93.0977 5.70782 93.0977V92.9023ZM1.50824 88.7028C1.50824 86.3834 3.38846 84.5032 5.70782 84.5032V84.3079C3.28058 84.3079 1.31291 86.2755 1.31291 88.7028H1.50824ZM5.70782 84.5032C8.02718 84.5032 9.90739 86.3834 9.90739 88.7028H10.1027C10.1027 86.2755 8.13506 84.3079 5.70782 84.3079V84.5032ZM5.40781 92.2189C4.55996 92.28 3.76479 91.8414 3.16102 91.1586C2.55743 90.4759 2.15623 89.5605 2.09398 88.6958L1.89916 88.7098C1.96472 89.6205 2.38496 90.5757 3.01469 91.288C3.64425 92 4.49429 92.4805 5.42183 92.4138L5.40781 92.2189ZM2.09398 88.6958C2.03301 87.8489 2.51258 86.9974 3.19632 86.3387C3.88018 85.6798 4.74632 85.2352 5.42183 85.1866L5.4078 84.9918C4.6721 85.0447 3.76521 85.5193 3.06079 86.198C2.35625 86.8768 1.83231 87.7813 1.89916 88.7098L2.09398 88.6958ZM6.09589 85.1793C6.95369 85.202 7.77434 85.6449 8.37646 86.3047C8.97858 86.9646 9.35403 87.8325 9.33127 88.6927L9.52653 88.6979C9.55085 87.7787 9.15076 86.8635 8.52074 86.1731C7.89071 85.4827 7.0226 85.0085 6.10106 84.9841L6.09589 85.1793ZM9.33127 88.6927C9.30855 89.5512 8.8445 90.4421 8.20553 91.1162C7.56459 91.7924 6.76867 92.2289 6.10106 92.2113L6.09589 92.4065C6.84264 92.4263 7.68839 91.9457 8.3473 91.2506C9.00818 90.5534 9.50216 89.6187 9.52653 88.6979L9.33127 88.6927ZM5.31715 85.0892L5.31715 92.3163L5.51248 92.3163L5.51248 85.0892L5.31715 85.0892ZM6.19614 92.3089L6.19614 85.0817L6.00081 85.0817L6.00081 92.3089L6.19614 92.3089ZM16.6019 33.067L13.672 29.7464L13.5255 29.8757L16.4554 33.1963L16.6019 33.067ZM13.5987 29.7134H3.53928V29.9087H13.5987V29.7134ZM3.4457 29.7831L0.906425 38.2799L1.09358 38.3358L3.63285 29.839L3.4457 29.7831ZM11.4766 47.9111L16.6209 33.1638L16.4364 33.0995L11.2922 47.8468L11.4766 47.9111ZM0.902343 38.3091L1.01993 47.8802L1.21524 47.8778L1.09766 38.3067L0.902343 38.3091ZM1.11758 63.2123H11.3524V63.017H1.11758V63.2123ZM11.4501 63.1149L11.482 47.8792L11.2867 47.8788L11.2548 63.1144L11.4501 63.1149ZM1.31291 63.017H11.1571V62.8217H1.31291V63.017ZM11.2548 62.9196L11.2916 48.0746L11.0962 48.0741L11.0594 62.9191L11.2548 62.9196ZM1.21525 48.0743V62.9193H1.41058V48.0743H1.21525ZM11.1939 47.9766H1.31291V48.172H11.1939V47.9766ZM1.31291 47.9766H11.1571V47.7813H1.31291V47.9766ZM11.2495 47.9108L16.328 33.1634L16.1433 33.0998L11.0648 47.8472L11.2495 47.9108ZM16.2357 33.034H6.37155V33.2293H16.2357V33.034ZM6.27917 33.0999L1.22053 47.8473L1.40529 47.9107L6.46393 33.1633L6.27917 33.0999ZM6.37155 33.0339L16.0403 33.034L16.0403 32.8386L6.37155 32.8386L6.37155 33.0339ZM16.1141 32.8723L13.5749 29.9424L13.4273 30.0703L15.9665 33.0003L16.1141 32.8723ZM13.5011 29.9087H3.73461V30.104H13.5011V29.9087ZM3.66201 30.0717L6.29896 33.0016L6.44414 32.8709L3.8072 29.941L3.66201 30.0717ZM1.28887 38.4336L3.75041 30.2298L3.56332 30.1736L1.10178 38.3775L1.28887 38.4336ZM3.58389 30.2666L6.10325 33.0989L6.24919 32.9691L3.72984 30.1368L3.58389 30.2666ZM6.08378 33.0024L1.22048 47.2615L1.40535 47.3245L6.26866 33.0655L6.08378 33.0024ZM1.41057 47.2917L1.29299 38.4042L1.09767 38.4068L1.21526 47.2943L1.41057 47.2917ZM1.01992 47.879V63.1146H1.21525V47.879H1.01992Z" fill="#FFF8F8"/>
</g>
</g>
</svg>