<?xml version="1.0" encoding="UTF-8"?>
<!--Generator: Apple Native CoreSVG 232.5-->
<!DOCTYPE svg
PUBLIC "-//W3C//DTD SVG 1.1//EN"
       "http://www.w3.org/Graphics/SVG/1.1/DTD/svg11.dtd">
<svg version="1.1" xmlns="http://www.w3.org/2000/svg" xmlns:xlink="http://www.w3.org/1999/xlink" width="3300" height="2200">
 <!--glyph: "", point size: 100.0, font version: "19.0d8e1", template writer version: "128"-->
 <style>.monochrome-0 {-sfsymbols-motion-group:1}
.monochrome-1 {-sfsymbols-motion-group:0}

.multicolor-0:labelColor {-sfsymbols-motion-group:1}
.multicolor-1:black {-sfsymbols-motion-group:0}

.hierarchical-0:primary {-sfsymbols-motion-group:1}
.hierarchical-1:primary {-sfsymbols-motion-group:0}

.SFSymbolsPreviewWireframe {fill:none;opacity:1.0;stroke:black;stroke-width:0.5}
</style>
 <g id="Notes">
  <rect height="2200" id="artboard" style="fill:white;opacity:1" width="3300" x="0" y="0"/>
  <line style="fill:none;stroke:black;opacity:1;stroke-width:0.5;" x1="263" x2="3036" y1="292" y2="292"/>
  <text style="stroke:none;fill:black;font-family:sans-serif;font-size:13;font-weight:bold;" transform="matrix(1 0 0 1 263 322)">Weight/Scale Variations</text>
  <text style="stroke:none;fill:black;font-family:sans-serif;font-size:13;text-anchor:middle;" transform="matrix(1 0 0 1 559.711 322)">Ultralight</text>
  <text style="stroke:none;fill:black;font-family:sans-serif;font-size:13;text-anchor:middle;" transform="matrix(1 0 0 1 856.422 322)">Thin</text>
  <text style="stroke:none;fill:black;font-family:sans-serif;font-size:13;text-anchor:middle;" transform="matrix(1 0 0 1 1153.13 322)">Light</text>
  <text style="stroke:none;fill:black;font-family:sans-serif;font-size:13;text-anchor:middle;" transform="matrix(1 0 0 1 1449.84 322)">Regular</text>
  <text style="stroke:none;fill:black;font-family:sans-serif;font-size:13;text-anchor:middle;" transform="matrix(1 0 0 1 1746.56 322)">Medium</text>
  <text style="stroke:none;fill:black;font-family:sans-serif;font-size:13;text-anchor:middle;" transform="matrix(1 0 0 1 2043.27 322)">Semibold</text>
  <text style="stroke:none;fill:black;font-family:sans-serif;font-size:13;text-anchor:middle;" transform="matrix(1 0 0 1 2339.98 322)">Bold</text>
  <text style="stroke:none;fill:black;font-family:sans-serif;font-size:13;text-anchor:middle;" transform="matrix(1 0 0 1 2636.69 322)">Heavy</text>
  <text style="stroke:none;fill:black;font-family:sans-serif;font-size:13;text-anchor:middle;" transform="matrix(1 0 0 1 2933.4 322)">Black</text>
  <line style="fill:none;stroke:black;opacity:1;stroke-width:0.5;" x1="263" x2="3036" y1="1903" y2="1903"/>
  <g transform="matrix(0.2 0 0 0.2 263 1933)">
   <path d="m46.2402 4.15039c21.5332 0 39.4531-17.8711 39.4531-39.4043s-17.9688-39.4043-39.502-39.4043c-21.4844 0-39.3555 17.8711-39.3555 39.4043s17.9199 39.4043 39.4043 39.4043Zm0-7.42188c-17.7246 0-31.8848-14.209-31.8848-31.9824s14.1113-31.9824 31.8359-31.9824c17.7734 0 32.0312 14.209 32.0312 31.9824s-14.209 31.9824-31.9824 31.9824Zm-17.9688-31.9824c0 2.14844 1.51367 3.61328 3.75977 3.61328h10.498v10.5957c0 2.19727 1.46484 3.71094 3.61328 3.71094 2.24609 0 3.71094-1.51367 3.71094-3.71094v-10.5957h10.5957c2.19727 0 3.71094-1.46484 3.71094-3.61328 0-2.19727-1.51367-3.71094-3.71094-3.71094h-10.5957v-10.5469c0-2.24609-1.46484-3.75977-3.71094-3.75977-2.14844 0-3.61328 1.51367-3.61328 3.75977v10.5469h-10.498c-2.24609 0-3.75977 1.51367-3.75977 3.71094Z"/>
  </g>
  <g transform="matrix(0.2 0 0 0.2 281.506 1933)">
   <path d="m58.5449 14.5508c27.2461 0 49.8047-22.6074 49.8047-49.8047 0-27.2461-22.6074-49.8047-49.8535-49.8047-27.1973 0-49.7559 22.5586-49.7559 49.8047 0 27.1973 22.6074 49.8047 49.8047 49.8047Zm0-8.30078c-23.0469 0-41.4551-18.457-41.4551-41.5039s18.3594-41.5039 41.4062-41.5039 41.5527 18.457 41.5527 41.5039-18.457 41.5039-41.5039 41.5039Zm-22.6562-41.5039c0 2.39258 1.66016 4.00391 4.15039 4.00391h14.3555v14.4043c0 2.44141 1.66016 4.15039 4.05273 4.15039 2.44141 0 4.15039-1.66016 4.15039-4.15039v-14.4043h14.4043c2.44141 0 4.15039-1.61133 4.15039-4.00391 0-2.44141-1.70898-4.15039-4.15039-4.15039h-14.4043v-14.3555c0-2.49023-1.70898-4.19922-4.15039-4.19922-2.39258 0-4.05273 1.70898-4.05273 4.19922v14.3555h-14.3555c-2.49023 0-4.15039 1.70898-4.15039 4.15039Z"/>
  </g>
  <g transform="matrix(0.2 0 0 0.2 304.924 1933)">
   <path d="m74.8535 28.3203c34.8145 0 63.623-28.8086 63.623-63.5742 0-34.8145-28.8574-63.623-63.6719-63.623-34.7656 0-63.5254 28.8086-63.5254 63.623 0 34.7656 28.8086 63.5742 63.5742 63.5742Zm0-9.08203c-30.1758 0-54.4434-24.3164-54.4434-54.4922 0-30.2246 24.2188-54.4922 54.3945-54.4922 30.2246 0 54.541 24.2676 54.541 54.4922 0 30.1758-24.2676 54.4922-54.4922 54.4922Zm-28.8574-54.4922c0 2.58789 1.85547 4.39453 4.58984 4.39453h19.7266v19.7754c0 2.68555 1.85547 4.58984 4.44336 4.58984 2.68555 0 4.54102-1.85547 4.54102-4.58984v-19.7754h19.7754c2.68555 0 4.58984-1.80664 4.58984-4.39453 0-2.73438-1.85547-4.58984-4.58984-4.58984h-19.7754v-19.7266c0-2.73438-1.85547-4.63867-4.54102-4.63867-2.58789 0-4.44336 1.9043-4.44336 4.63867v19.7266h-19.7266c-2.73438 0-4.58984 1.85547-4.58984 4.58984Z"/>
  </g>
  <text style="stroke:none;fill:black;font-family:sans-serif;font-size:13;font-weight:bold;" transform="matrix(1 0 0 1 263 1953)">Design Variations</text>
  <text style="stroke:none;fill:black;font-family:sans-serif;font-size:13;" transform="matrix(1 0 0 1 263 1971)">Symbols are supported in up to nine weights and three scales.</text>
  <text style="stroke:none;fill:black;font-family:sans-serif;font-size:13;" transform="matrix(1 0 0 1 263 1989)">For optimal layout with text and other symbols, vertically align</text>
  <text style="stroke:none;fill:black;font-family:sans-serif;font-size:13;" transform="matrix(1 0 0 1 263 2007)">symbols with the adjacent text.</text>
  <line style="fill:none;stroke:#00AEEF;stroke-width:0.5;opacity:1.0;" x1="776" x2="776" y1="1919" y2="1933"/>
  <g transform="matrix(0.2 0 0 0.2 776 1933)">
   <path d="m16.5527 0.78125c2.58789 0 3.85742-0.976562 4.78516-3.71094l6.29883-17.2363h28.8086l6.29883 17.2363c0.927734 2.73438 2.19727 3.71094 4.73633 3.71094 2.58789 0 4.24805-1.5625 4.24805-4.00391 0-0.830078-0.146484-1.61133-0.537109-2.63672l-22.9004-60.9863c-1.12305-2.97852-3.125-4.49219-6.25-4.49219-3.02734 0-5.07812 1.46484-6.15234 4.44336l-22.9004 61.084c-0.390625 1.02539-0.537109 1.80664-0.537109 2.63672 0 2.44141 1.5625 3.95508 4.10156 3.95508Zm13.4766-28.3691 11.8652-32.8613h0.244141l11.8652 32.8613Z"/>
  </g>
  <line style="fill:none;stroke:#00AEEF;stroke-width:0.5;opacity:1.0;" x1="792.836" x2="792.836" y1="1919" y2="1933"/>
  <text style="stroke:none;fill:black;font-family:sans-serif;font-size:13;font-weight:bold;" transform="matrix(1 0 0 1 776 1953)">Margins</text>
  <text style="stroke:none;fill:black;font-family:sans-serif;font-size:13;" transform="matrix(1 0 0 1 776 1971)">Leading and trailing margins on the left and right side of each symbol</text>
  <text style="stroke:none;fill:black;font-family:sans-serif;font-size:13;" transform="matrix(1 0 0 1 776 1989)">can be adjusted by modifying the x-location of the margin guidelines.</text>
  <text style="stroke:none;fill:black;font-family:sans-serif;font-size:13;" transform="matrix(1 0 0 1 776 2007)">Modifications are automatically applied proportionally to all</text>
  <text style="stroke:none;fill:black;font-family:sans-serif;font-size:13;" transform="matrix(1 0 0 1 776 2025)">scales and weights.</text>
  <g transform="matrix(0.2 0 0 0.2 1289 1933)">
   <path d="m14.209 9.32617 8.49609 8.54492c4.29688 4.3457 9.22852 4.05273 13.8672-1.07422l53.4668-58.9355-4.83398-4.88281-53.0762 58.3984c-1.75781 2.00195-3.41797 2.49023-5.76172 0.146484l-5.85938-5.81055c-2.34375-2.29492-1.80664-4.00391 0.195312-5.81055l57.373-54.0039-4.88281-4.83398-57.959 54.4434c-4.93164 4.58984-5.32227 9.47266-1.02539 13.8184Zm32.0801-90.9668c-2.09961 2.05078-2.24609 4.93164-1.07422 6.88477 1.17188 1.80664 3.4668 2.97852 6.68945 2.14844 7.32422-1.70898 14.9414-2.00195 22.0703 2.68555l-2.92969 7.27539c-1.70898 4.15039-0.830078 7.08008 1.85547 9.81445l11.4746 11.5723c2.44141 2.44141 4.49219 2.53906 7.32422 2.05078l5.32227-0.976562 3.32031 3.36914-0.195312 2.7832c-0.195312 2.49023 0.439453 4.39453 2.88086 6.78711l3.80859 3.71094c2.39258 2.39258 5.46875 2.53906 7.8125 0.195312l14.5508-14.5996c2.34375-2.34375 2.24609-5.32227-0.146484-7.71484l-3.85742-3.80859c-2.39258-2.39258-4.24805-3.17383-6.64062-2.97852l-2.88086 0.244141-3.22266-3.17383 1.2207-5.61523c0.634766-2.83203-0.146484-5.0293-3.07617-7.95898l-10.9863-10.9375c-16.6992-16.6016-38.8672-16.2109-53.3203-1.75781Zm7.4707 1.85547c12.1582-8.88672 28.6133-7.37305 39.7461 3.75977l12.1582 12.0605c1.17188 1.17188 1.36719 2.09961 1.02539 3.80859l-1.61133 7.42188 7.51953 7.42188 4.93164-0.292969c1.26953-0.0488281 1.66016 0.0488281 2.63672 1.02539l2.88086 2.88086-12.207 12.207-2.88086-2.88086c-0.976562-0.976562-1.12305-1.36719-1.07422-2.68555l0.341797-4.88281-7.4707-7.42188-7.61719 1.26953c-1.61133 0.341797-2.34375 0.195312-3.56445-0.976562l-10.0098-10.0098c-1.26953-1.17188-1.41602-2.00195-0.634766-3.85742l4.39453-10.4492c-7.8125-7.27539-17.9688-10.4004-28.125-7.42188-0.78125 0.195312-1.07422-0.439453-0.439453-0.976562Z"/>
  </g>
  <text style="stroke:none;fill:black;font-family:sans-serif;font-size:13;font-weight:bold;" transform="matrix(1 0 0 1 1289 1953)">Exporting</text>
  <text style="stroke:none;fill:black;font-family:sans-serif;font-size:13;" transform="matrix(1 0 0 1 1289 1971)">Symbols should be outlined when exporting to ensure the</text>
  <text style="stroke:none;fill:black;font-family:sans-serif;font-size:13;" transform="matrix(1 0 0 1 1289 1989)">design is preserved when submitting to Xcode.</text>
  <text id="template-version" style="stroke:none;fill:black;font-family:sans-serif;font-size:13;text-anchor:end;" transform="matrix(1 0 0 1 3036 1933)">Template v.5.0</text>
  <text style="stroke:none;fill:black;font-family:sans-serif;font-size:13;text-anchor:end;" transform="matrix(1 0 0 1 3036 1951)">Requires Xcode 15 or greater</text>
  <text id="descriptive-name" style="stroke:none;fill:black;font-family:sans-serif;font-size:13;text-anchor:end;" transform="matrix(1 0 0 1 3036 1969)">Generated from Frame 1</text>
  <text style="stroke:none;fill:black;font-family:sans-serif;font-size:13;text-anchor:end;" transform="matrix(1 0 0 1 3036 1987)">Typeset at 100.0 points</text>
  <text style="stroke:none;fill:black;font-family:sans-serif;font-size:13;" transform="matrix(1 0 0 1 263 726)">Small</text>
  <text style="stroke:none;fill:black;font-family:sans-serif;font-size:13;" transform="matrix(1 0 0 1 263 1156)">Medium</text>
  <text style="stroke:none;fill:black;font-family:sans-serif;font-size:13;" transform="matrix(1 0 0 1 263 1586)">Large</text>
 </g>
 <g id="Guides">
  <g id="H-reference" style="fill:#27AAE1;stroke:none;" transform="matrix(1 0 0 1 339 696)">
   <path d="M0.993654 0L3.63775 0L29.3281-67.1323L30.0303-67.1323L30.0303-70.459L28.1226-70.459ZM11.6885-24.4799L46.9815-24.4799L46.2315-26.7285L12.4385-26.7285ZM55.1196 0L57.7637 0L30.6382-70.459L29.4326-70.459L29.4326-67.1323Z"/>
  </g>
  <line id="Baseline-S" style="fill:none;stroke:#27AAE1;opacity:1;stroke-width:0.5;" x1="263" x2="3036" y1="696" y2="696"/>
  <line id="Capline-S" style="fill:none;stroke:#27AAE1;opacity:1;stroke-width:0.5;" x1="263" x2="3036" y1="625.541" y2="625.541"/>
  <g id="H-reference" style="fill:#27AAE1;stroke:none;" transform="matrix(1 0 0 1 339 1126)">
   <path d="M0.993654 0L3.63775 0L29.3281-67.1323L30.0303-67.1323L30.0303-70.459L28.1226-70.459ZM11.6885-24.4799L46.9815-24.4799L46.2315-26.7285L12.4385-26.7285ZM55.1196 0L57.7637 0L30.6382-70.459L29.4326-70.459L29.4326-67.1323Z"/>
  </g>
  <line id="Baseline-M" style="fill:none;stroke:#27AAE1;opacity:1;stroke-width:0.5;" x1="263" x2="3036" y1="1126" y2="1126"/>
  <line id="Capline-M" style="fill:none;stroke:#27AAE1;opacity:1;stroke-width:0.5;" x1="263" x2="3036" y1="1055.54" y2="1055.54"/>
  <g id="H-reference" style="fill:#27AAE1;stroke:none;" transform="matrix(1 0 0 1 339 1556)">
   <path d="M0.993654 0L3.63775 0L29.3281-67.1323L30.0303-67.1323L30.0303-70.459L28.1226-70.459ZM11.6885-24.4799L46.9815-24.4799L46.2315-26.7285L12.4385-26.7285ZM55.1196 0L57.7637 0L30.6382-70.459L29.4326-70.459L29.4326-67.1323Z"/>
  </g>
  <line id="Baseline-L" style="fill:none;stroke:#27AAE1;opacity:1;stroke-width:0.5;" x1="263" x2="3036" y1="1556" y2="1556"/>
  <line id="Capline-L" style="fill:none;stroke:#27AAE1;opacity:1;stroke-width:0.5;" x1="263" x2="3036" y1="1485.54" y2="1485.54"/>
  <line id="left-margin-Ultralight-S" style="fill:none;stroke:#FF3B30;stroke-width:0.5;opacity:1.0;" x1="515.649" x2="515.649" y1="600.785" y2="720.121"/>
  <line id="right-margin-Ultralight-S" style="fill:none;stroke:#00AEEF;stroke-width:0.5;opacity:1.0;" x1="603.773" x2="603.773" y1="600.785" y2="720.121"/>
  <line id="left-margin-Regular-S" style="fill:none;stroke:#00AEEF;stroke-width:0.5;opacity:1.0;" x1="1403.58" x2="1403.58" y1="600.785" y2="720.121"/>
  <line id="right-margin-Regular-S" style="fill:none;stroke:#00AEEF;stroke-width:0.5;opacity:1.0;" x1="1496.11" x2="1496.11" y1="600.785" y2="720.121"/>
  <line id="left-margin-Black-S" style="fill:none;stroke:#00AEEF;stroke-width:0.5;opacity:1.0;" x1="2884.57" x2="2884.57" y1="600.785" y2="720.121"/>
  <line id="right-margin-Black-S" style="fill:none;stroke:#00AEEF;stroke-width:0.5;opacity:1.0;" x1="2982.23" x2="2982.23" y1="600.785" y2="720.121"/>
 </g>
 <g id="Symbols">
  <g id="Black-S" transform="matrix(1 0 0 1 2884.57 696)">
   <path class="SFSymbolsPreviewWireframe" d="M31.5264-8.0279C32.7173-8.0279 33.6827-8.9978 33.6827-10.1942C33.6827-11.3907 32.7173-12.3606 31.5264-12.3606C30.3356-12.3606 29.3702-11.3907 29.3702-10.1942C29.3702-8.9978 30.3356-8.0279 31.5264-8.0279ZM31.5817-8.2692C32.6325-8.2692 33.429-9.1385 33.429-10.1942C33.429-11.2499 32.6325-12.1394 31.5817-12.1394C30.531-12.1394 29.6239-11.2499 29.6239-10.1942C29.6239-9.1385 30.531-8.2692 31.5817-8.2692ZM31.5264-7.9173C32.7789-7.9173 33.7933-8.9372 33.7933-10.1942C33.7933-11.4513 32.7789-12.4712 31.5264-12.4712C30.274-12.4712 29.2596-11.4513 29.2596-10.1942C29.2596-8.9372 30.274-7.9173 31.5264-7.9173ZM32.175-42.0148L30.845-43.7036L36.2415-43.6953L37.721-42.0451L32.175-42.0148ZM29.2852-39.0049L29.3614-34.2576L31.9242-42.0117L30.6864-43.553L29.2852-39.0049ZM34.9903-33.7133L37.8027-41.8849L32.1753-41.8792L29.3963-33.7075L34.9903-33.7133ZM29.0385-24.9664L35.1962-24.9664L35.2308-33.5914L29.0731-33.5914L29.0385-24.9664ZM31.5264-55.6865C32.7173-55.6865 33.6827-56.6564 33.6827-57.8529C33.6827-59.0493 32.7173-60.0192 31.5264-60.0192C30.3356-60.0192 29.3702-59.0493 29.3702-57.8529C29.3702-56.6564 30.3356-55.6865 31.5264-55.6865ZM31.5264-55.576C32.7789-55.576 33.7933-56.5959 33.7933-57.8529C33.7933-59.1099 32.7789-60.1298 31.5264-60.1298C30.274-60.1298 29.2596-59.1099 29.2596-57.8529C29.2596-56.5959 30.274-55.576 31.5264-55.576ZM31.8029-59.7443L31.8029-59.7981L31.3606-59.7981L31.3606-59.7572C30.3875-59.6728 29.6239-58.8524 29.6239-57.8529C29.6239-56.8533 30.3875-56.033 31.3606-55.9486L31.3606-55.9279L31.8029-55.9279L31.8029-55.9614C32.7226-56.0959 33.429-56.8915 33.429-57.8529C33.429-58.8142 32.7226-59.6098 31.8029-59.7443Z"/>
   <path class="monochrome-0 multicolor-0:labelColor hierarchical-0:primary SFSymbolsPreviewWireframe" d="M3.71635-35.25L3.71635 9.42308C3.71635 10.0338 4.21142 10.5289 4.82212 10.5289L58.6731 10.5289C59.2838 10.5289 59.7789 10.0338 59.7789 9.42308L59.7789-79.9231C59.7789-80.5338 59.2838-81.0288 58.6731-81.0288L4.82212-81.0288C4.21142-81.0288 3.71635-80.5338 3.71635-79.9231Z"/>
   <path class="monochrome-1 multicolor-1:black hierarchical-1:primary SFSymbolsPreviewWireframe" d="M31.3606-56.0596L31.3606-59.6462C30.449-59.5621 29.7344-58.7917 29.7344-57.8529C29.7344-56.914 30.449-56.1437 31.3606-56.0596ZM31.8029-59.6325L31.8029-56.0733C32.661-56.2068 33.3184-56.9523 33.3184-57.8529C33.3184-58.7534 32.661-59.4989 31.8029-59.6325ZM29.1604-25.0814L35.0752-25.0814L35.1089-33.4764L29.194-33.4764L29.1604-25.0814ZM35.0724-33.603L37.9608-41.9955L32.0929-41.9894L29.2387-33.597L35.0724-33.603ZM29.1725-39.0208L29.2596-33.5913L32.0501-42.0342L30.6413-43.7884L29.1725-39.0208ZM37.9722-41.9333L32.1209-41.9013L30.6122-43.817L36.2912-43.8083L37.9722-41.9333ZM31.3606-8.3935L31.3606-12.0148C30.4668-11.9014 29.7344-11.113 29.7344-10.1942C29.7344-9.2768 30.4657-8.5044 31.3606-8.3935ZM33.3184-10.1942C33.3184-9.2702 32.6763-8.5052 31.8029-8.3938L31.8029-12.0145C32.6752-11.9005 33.3184-11.1196 33.3184-10.1942Z"/>
  </g>
  <g id="Regular-S" transform="matrix(1 0 0 1 1403.58 696)">
   <path class="SFSymbolsPreviewWireframe" d="M28.5264-8.0279C29.7173-8.0279 30.6827-8.9978 30.6827-10.1942C30.6827-11.3907 29.7173-12.3606 28.5264-12.3606C27.3356-12.3606 26.3702-11.3907 26.3702-10.1942C26.3702-8.9978 27.3356-8.0279 28.5264-8.0279ZM28.5817-8.2692C29.6325-8.2692 30.429-9.1385 30.429-10.1942C30.429-11.2499 29.6325-12.1394 28.5817-12.1394C27.531-12.1394 26.6239-11.2499 26.6239-10.1942C26.6239-9.1385 27.531-8.2692 28.5817-8.2692ZM28.5264-7.9173C29.7789-7.9173 30.7933-8.9372 30.7933-10.1942C30.7933-11.4513 29.7789-12.4712 28.5264-12.4712C27.274-12.4712 26.2596-11.4513 26.2596-10.1942C26.2596-8.9372 27.274-7.9173 28.5264-7.9173ZM29.175-42.0148L27.845-43.7036L33.2415-43.6953L34.721-42.0451L29.175-42.0148ZM26.2852-39.0049L26.3614-34.2576L28.9242-42.0117L27.6864-43.553L26.2852-39.0049ZM31.9903-33.7133L34.8027-41.8849L29.1753-41.8792L26.3963-33.7075L31.9903-33.7133ZM26.0385-24.9664L32.1962-24.9664L32.2308-33.5914L26.0731-33.5914L26.0385-24.9664ZM28.5264-55.6865C29.7173-55.6865 30.6827-56.6564 30.6827-57.8529C30.6827-59.0493 29.7173-60.0192 28.5264-60.0192C27.3356-60.0192 26.3702-59.0493 26.3702-57.8529C26.3702-56.6564 27.3356-55.6865 28.5264-55.6865ZM28.5264-55.576C29.7789-55.576 30.7933-56.5959 30.7933-57.8529C30.7933-59.1099 29.7789-60.1298 28.5264-60.1298C27.274-60.1298 26.2596-59.1099 26.2596-57.8529C26.2596-56.5959 27.274-55.576 28.5264-55.576ZM28.8029-59.7443L28.8029-59.7981L28.3606-59.7981L28.3606-59.7572C27.3875-59.6728 26.6239-58.8524 26.6239-57.8529C26.6239-56.8533 27.3875-56.033 28.3606-55.9486L28.3606-55.9279L28.8029-55.9279L28.8029-55.9614C29.7226-56.0959 30.429-56.8915 30.429-57.8529C30.429-58.8142 29.7226-59.6098 28.8029-59.7443Z"/>
   <path class="monochrome-0 multicolor-0:labelColor hierarchical-0:primary SFSymbolsPreviewWireframe" d="M0.716354-35.25L0.716354 9.42308C0.716354 10.0338 1.21142 10.5289 1.82212 10.5289L55.6731 10.5289C56.2838 10.5289 56.7789 10.0338 56.7789 9.42308L56.7789-79.9231C56.7789-80.5338 56.2838-81.0288 55.6731-81.0288L1.82212-81.0288C1.21142-81.0288 0.716354-80.5338 0.716354-79.9231Z"/>
   <path class="monochrome-1 multicolor-1:black hierarchical-1:primary SFSymbolsPreviewWireframe" d="M28.3606-56.0596L28.3606-59.6462C27.449-59.5621 26.7344-58.7917 26.7344-57.8529C26.7344-56.914 27.449-56.1437 28.3606-56.0596ZM28.8029-59.6325L28.8029-56.0733C29.661-56.2068 30.3184-56.9523 30.3184-57.8529C30.3184-58.7534 29.661-59.4989 28.8029-59.6325ZM26.1604-25.0814L32.0752-25.0814L32.1089-33.4764L26.194-33.4764L26.1604-25.0814ZM32.0724-33.603L34.9608-41.9955L29.0929-41.9894L26.2387-33.597L32.0724-33.603ZM26.1725-39.0208L26.2596-33.5913L29.0501-42.0342L27.6413-43.7884L26.1725-39.0208ZM34.9722-41.9333L29.1209-41.9013L27.6122-43.817L33.2912-43.8083L34.9722-41.9333ZM28.3606-8.3935L28.3606-12.0148C27.4668-11.9014 26.7344-11.113 26.7344-10.1942C26.7344-9.2768 27.4657-8.5044 28.3606-8.3935ZM30.3184-10.1942C30.3184-9.2702 29.6763-8.5052 28.8029-8.3938L28.8029-12.0145C29.6752-11.9005 30.3184-11.1196 30.3184-10.1942Z"/>
  </g>
  <g id="Ultralight-S" transform="matrix(1 0 0 1 515.649 696)">
   <path class="SFSymbolsPreviewWireframe" d="M26.5264-8.0279C27.7173-8.0279 28.6827-8.9978 28.6827-10.1942C28.6827-11.3907 27.7173-12.3606 26.5264-12.3606C25.3356-12.3606 24.3702-11.3907 24.3702-10.1942C24.3702-8.9978 25.3356-8.0279 26.5264-8.0279ZM26.5817-8.2692C27.6325-8.2692 28.429-9.1385 28.429-10.1942C28.429-11.2499 27.6325-12.1394 26.5817-12.1394C25.531-12.1394 24.6239-11.2499 24.6239-10.1942C24.6239-9.1385 25.531-8.2692 26.5817-8.2692ZM26.5264-7.9173C27.7789-7.9173 28.7933-8.9372 28.7933-10.1942C28.7933-11.4513 27.7789-12.4712 26.5264-12.4712C25.274-12.4712 24.2596-11.4513 24.2596-10.1942C24.2596-8.9372 25.274-7.9173 26.5264-7.9173ZM27.175-42.0148L25.845-43.7036L31.2415-43.6953L32.721-42.0451L27.175-42.0148ZM24.2852-39.0049L24.3614-34.2576L26.9242-42.0117L25.6864-43.553L24.2852-39.0049ZM29.9903-33.7133L32.8027-41.8849L27.1753-41.8792L24.3963-33.7075L29.9903-33.7133ZM24.0385-24.9664L30.1962-24.9664L30.2308-33.5914L24.0731-33.5914L24.0385-24.9664ZM26.5264-55.6865C27.7173-55.6865 28.6827-56.6564 28.6827-57.8529C28.6827-59.0493 27.7173-60.0192 26.5264-60.0192C25.3356-60.0192 24.3702-59.0493 24.3702-57.8529C24.3702-56.6564 25.3356-55.6865 26.5264-55.6865ZM26.5264-55.576C27.7789-55.576 28.7933-56.5959 28.7933-57.8529C28.7933-59.1099 27.7789-60.1298 26.5264-60.1298C25.274-60.1298 24.2596-59.1099 24.2596-57.8529C24.2596-56.5959 25.274-55.576 26.5264-55.576ZM26.8029-59.7443L26.8029-59.7981L26.3606-59.7981L26.3606-59.7572C25.3875-59.6728 24.6239-58.8524 24.6239-57.8529C24.6239-56.8533 25.3875-56.033 26.3606-55.9486L26.3606-55.9279L26.8029-55.9279L26.8029-55.9614C27.7226-56.0959 28.429-56.8915 28.429-57.8529C28.429-58.8142 27.7226-59.6098 26.8029-59.7443Z"/>
   <path class="monochrome-0 multicolor-0:labelColor hierarchical-0:primary SFSymbolsPreviewWireframe" d="M-1.28365-35.25L-1.28365 9.42308C-1.28365 10.0338-0.788576 10.5289-0.177876 10.5289L53.6731 10.5289C54.2838 10.5289 54.7789 10.0338 54.7789 9.42308L54.7789-79.9231C54.7789-80.5338 54.2838-81.0288 53.6731-81.0288L-0.177876-81.0288C-0.788576-81.0288-1.28365-80.5338-1.28365-79.9231Z"/>
   <path class="monochrome-1 multicolor-1:black hierarchical-1:primary SFSymbolsPreviewWireframe" d="M26.3606-56.0596L26.3606-59.6462C25.449-59.5621 24.7344-58.7917 24.7344-57.8529C24.7344-56.914 25.449-56.1437 26.3606-56.0596ZM26.8029-59.6325L26.8029-56.0733C27.661-56.2068 28.3184-56.9523 28.3184-57.8529C28.3184-58.7534 27.661-59.4989 26.8029-59.6325ZM24.1604-25.0814L30.0752-25.0814L30.1089-33.4764L24.194-33.4764L24.1604-25.0814ZM30.0724-33.603L32.9608-41.9955L27.0929-41.9894L24.2387-33.597L30.0724-33.603ZM24.1725-39.0208L24.2596-33.5913L27.0501-42.0342L25.6413-43.7884L24.1725-39.0208ZM32.9722-41.9333L27.1209-41.9013L25.6122-43.817L31.2912-43.8083L32.9722-41.9333ZM26.3606-8.3935L26.3606-12.0148C25.4668-11.9014 24.7344-11.113 24.7344-10.1942C24.7344-9.2768 25.4657-8.5044 26.3606-8.3935ZM28.3184-10.1942C28.3184-9.2702 27.6763-8.5052 26.8029-8.3938L26.8029-12.0145C27.6752-11.9005 28.3184-11.1196 28.3184-10.1942Z"/>
  </g>
 </g>
</svg>
