<?xml version="1.0" encoding="UTF-8"?>
<svg height="600" width="800" xmlns="http://www.w3.org/2000/svg" xmlns:xlink="http://www.w3.org/1999/xlink">
    <g id="Notes" font-family="'LucidaGrande', 'Lucida Grande', sans-serif" font-size="13">
        <rect fill="white" height="600.0" width="800.0" x="0.0" y="0.0" />
        <g font-size="13">
            <text x="18.0" y="176.0">Small</text>
            <text x="18.0" y="376.0">Medium</text>
            <text x="18.0" y="576.0">Large</text>
        </g>
        <g font-size="9">
            <text x="250.0" y="30.0">Ultralight</text>
            <text x="450.0" y="30.0">Regular</text>
            <text x="650.0" y="30.0">Black</text>
            <text id="template-version" fill="#505050" text-anchor="end" x="785.0" y="575.0">Template v.3.0</text>
            <a href="https://github.com/swhitty/SwiftDraw">
                <text fill="#505050" text-anchor="end" x="785.0" y="590.0">https://github.com/swhitty/SwiftDraw</text>
            </a>
        </g>
    </g>
    <g id="Guides" stroke="rgb(39, 170, 225)" stroke-width="0.5">
        <path id="Capline-S" d="M18,76 l800,0" />
        <path id="H-reference" d="M85,145.755 L87.685,145.755 L113.369,79.287 L114.052,79.287 L114.052,76 L112.148,76 L85,145.755 Z M95.693,121.536 L130.996,121.536 L130.263,119.313 L96.474,119.313 L95.693,121.536 Z M139.15,145.755 L141.787,145.755 L114.638,76 L113.466,76 L113.466,79.287 L139.15,145.755 Z" stroke="none" />
        <path id="Baseline-S" d="M18,146 l800,0" />
        <path id="left-margin-Ultralight-S" d="M211,56 l0,110" />
        <path id="right-margin-Ultralight-S" d="M319,56 l0,110" />
        <path id="left-margin-Regular-S" d="M411,56 l0,110" />
        <path id="right-margin-Regular-S" d="M519,56 l0,110" />
        <path id="left-margin-Black-S" d="M611,56 l0,110" />
        <path id="right-margin-Black-S" d="M719,56 l0,110" />
        <path id="Capline-M" d="M18,276 l800,0" />
        <path id="Baseline-M" d="M18,346 l800,0" />
        <path id="Capline-L" d="M18,476 l800,0" />
        <path id="Baseline-L" d="M18,546 l800,0" />
    </g>
    <g id="Symbols">
        <g id="Ultralight-S">
            <path d="M305.942,101.147 L221,101.147 L221,101.826 L305.942,101.826 L305.942,101.147 Z M305.942,120.853 L221,121.55 L221.006,122.229 L305.948,121.533 L305.942,120.853 Z M289.633,84.158 L289.633,137.842 L290.313,137.842 L290.313,84.158 L289.633,84.158 Z M269.927,83.479 L269.927,138.521 L270.606,138.521 L270.606,83.479 L269.927,83.479 Z M279.1,140.22 C262.963,140.22 249.88,127.138 249.88,111 C249.88,94.862 262.963,81.78 279.1,81.78 C295.238,81.78 308.32,94.862 308.32,111 C308.32,127.138 295.238,140.22 279.1,140.22 Z M279.1,140.9 C295.613,140.9 309,127.513 309,111 C309,94.487 295.613,81.1 279.1,81.1 C262.587,81.1 249.201,94.487 249.201,111 C249.201,127.513 262.587,140.9 279.1,140.9 Z" />
        </g>
        <g id="Regular-S">
            <path d="M505.942,101.147 L421,101.147 L421,101.826 L505.942,101.826 L505.942,101.147 Z M505.942,120.853 L421,121.55 L421.006,122.229 L505.948,121.533 L505.942,120.853 Z M489.633,84.158 L489.633,137.842 L490.313,137.842 L490.313,84.158 L489.633,84.158 Z M469.927,83.479 L469.927,138.521 L470.606,138.521 L470.606,83.479 L469.927,83.479 Z M479.1,140.22 C462.963,140.22 449.88,127.138 449.88,111 C449.88,94.862 462.963,81.78 479.1,81.78 C495.238,81.78 508.32,94.862 508.32,111 C508.32,127.138 495.238,140.22 479.1,140.22 Z M479.1,140.9 C495.613,140.9 509,127.513 509,111 C509,94.487 495.613,81.1 479.1,81.1 C462.587,81.1 449.201,94.487 449.201,111 C449.201,127.513 462.587,140.9 479.1,140.9 Z" />
        </g>
        <g id="Black-S">
            <path d="M705.942,101.147 L621,101.147 L621,101.826 L705.942,101.826 L705.942,101.147 Z M705.942,120.853 L621,121.55 L621.006,122.229 L705.948,121.533 L705.942,120.853 Z M689.633,84.158 L689.633,137.842 L690.313,137.842 L690.313,84.158 L689.633,84.158 Z M669.927,83.479 L669.927,138.521 L670.606,138.521 L670.606,83.479 L669.927,83.479 Z M679.1,140.22 C662.963,140.22 649.88,127.138 649.88,111 C649.88,94.862 662.963,81.78 679.1,81.78 C695.238,81.78 708.32,94.862 708.32,111 C708.32,127.138 695.238,140.22 679.1,140.22 Z M679.1,140.9 C695.613,140.9 709,127.513 709,111 C709,94.487 695.613,81.1 679.1,81.1 C662.587,81.1 649.201,94.487 649.201,111 C649.201,127.513 662.587,140.9 679.1,140.9 Z" />
        </g>
    </g>
</svg>